%TF.GenerationSoftware,KiCad,Pcbnew,5.1.8-db9833491~87~ubuntu20.04.1*%
%TF.CreationDate,2020-11-23T13:43:30+01:00*%
%TF.ProjectId,rosalyn-fc,726f7361-6c79-46e2-9d66-632e6b696361,v0.1*%
%TF.SameCoordinates,Original*%
%TF.FileFunction,Copper,L1,Top*%
%TF.FilePolarity,Positive*%
%FSLAX46Y46*%
G04 Gerber Fmt 4.6, Leading zero omitted, Abs format (unit mm)*
G04 Created by KiCad (PCBNEW 5.1.8-db9833491~87~ubuntu20.04.1) date 2020-11-23 13:43:30*
%MOMM*%
%LPD*%
G01*
G04 APERTURE LIST*
%TA.AperFunction,SMDPad,CuDef*%
%ADD10R,1.600000X1.000000*%
%TD*%
%TA.AperFunction,SMDPad,CuDef*%
%ADD11R,0.350000X0.500000*%
%TD*%
%TA.AperFunction,SMDPad,CuDef*%
%ADD12R,1.060000X0.650000*%
%TD*%
%TA.AperFunction,SMDPad,CuDef*%
%ADD13R,0.650000X1.060000*%
%TD*%
%TA.AperFunction,ComponentPad*%
%ADD14O,1.000000X2.100000*%
%TD*%
%TA.AperFunction,ComponentPad*%
%ADD15O,1.000000X1.600000*%
%TD*%
%TA.AperFunction,SMDPad,CuDef*%
%ADD16R,1.500000X1.500000*%
%TD*%
%TA.AperFunction,SMDPad,CuDef*%
%ADD17R,1.500000X2.000000*%
%TD*%
%TA.AperFunction,ViaPad*%
%ADD18C,0.800000*%
%TD*%
%TA.AperFunction,ViaPad*%
%ADD19C,0.600000*%
%TD*%
%TA.AperFunction,Conductor*%
%ADD20C,0.250000*%
%TD*%
%TA.AperFunction,Conductor*%
%ADD21C,0.500000*%
%TD*%
%TA.AperFunction,Conductor*%
%ADD22C,0.300000*%
%TD*%
%TA.AperFunction,Conductor*%
%ADD23C,0.400000*%
%TD*%
%TA.AperFunction,Conductor*%
%ADD24C,0.200000*%
%TD*%
G04 APERTURE END LIST*
%TO.P,C7,2*%
%TO.N,GND*%
%TA.AperFunction,SMDPad,CuDef*%
G36*
G01*
X139125000Y-109410000D02*
X138175000Y-109410000D01*
G75*
G02*
X137925000Y-109160000I0J250000D01*
G01*
X137925000Y-108660000D01*
G75*
G02*
X138175000Y-108410000I250000J0D01*
G01*
X139125000Y-108410000D01*
G75*
G02*
X139375000Y-108660000I0J-250000D01*
G01*
X139375000Y-109160000D01*
G75*
G02*
X139125000Y-109410000I-250000J0D01*
G01*
G37*
%TD.AperFunction*%
%TO.P,C7,1*%
%TO.N,+3V3*%
%TA.AperFunction,SMDPad,CuDef*%
G36*
G01*
X139125000Y-111310000D02*
X138175000Y-111310000D01*
G75*
G02*
X137925000Y-111060000I0J250000D01*
G01*
X137925000Y-110560000D01*
G75*
G02*
X138175000Y-110310000I250000J0D01*
G01*
X139125000Y-110310000D01*
G75*
G02*
X139375000Y-110560000I0J-250000D01*
G01*
X139375000Y-111060000D01*
G75*
G02*
X139125000Y-111310000I-250000J0D01*
G01*
G37*
%TD.AperFunction*%
%TD*%
%TO.P,C6,2*%
%TO.N,Net-(C6-Pad2)*%
%TA.AperFunction,SMDPad,CuDef*%
G36*
G01*
X144965000Y-109420000D02*
X144015000Y-109420000D01*
G75*
G02*
X143765000Y-109170000I0J250000D01*
G01*
X143765000Y-108670000D01*
G75*
G02*
X144015000Y-108420000I250000J0D01*
G01*
X144965000Y-108420000D01*
G75*
G02*
X145215000Y-108670000I0J-250000D01*
G01*
X145215000Y-109170000D01*
G75*
G02*
X144965000Y-109420000I-250000J0D01*
G01*
G37*
%TD.AperFunction*%
%TO.P,C6,1*%
%TO.N,GND*%
%TA.AperFunction,SMDPad,CuDef*%
G36*
G01*
X144965000Y-111320000D02*
X144015000Y-111320000D01*
G75*
G02*
X143765000Y-111070000I0J250000D01*
G01*
X143765000Y-110570000D01*
G75*
G02*
X144015000Y-110320000I250000J0D01*
G01*
X144965000Y-110320000D01*
G75*
G02*
X145215000Y-110570000I0J-250000D01*
G01*
X145215000Y-111070000D01*
G75*
G02*
X144965000Y-111320000I-250000J0D01*
G01*
G37*
%TD.AperFunction*%
%TD*%
%TO.P,C20,2*%
%TO.N,GND*%
%TA.AperFunction,SMDPad,CuDef*%
G36*
G01*
X144250000Y-97025000D02*
X143750000Y-97025000D01*
G75*
G02*
X143525000Y-96800000I0J225000D01*
G01*
X143525000Y-96350000D01*
G75*
G02*
X143750000Y-96125000I225000J0D01*
G01*
X144250000Y-96125000D01*
G75*
G02*
X144475000Y-96350000I0J-225000D01*
G01*
X144475000Y-96800000D01*
G75*
G02*
X144250000Y-97025000I-225000J0D01*
G01*
G37*
%TD.AperFunction*%
%TO.P,C20,1*%
%TO.N,+3V3*%
%TA.AperFunction,SMDPad,CuDef*%
G36*
G01*
X144250000Y-98575000D02*
X143750000Y-98575000D01*
G75*
G02*
X143525000Y-98350000I0J225000D01*
G01*
X143525000Y-97900000D01*
G75*
G02*
X143750000Y-97675000I225000J0D01*
G01*
X144250000Y-97675000D01*
G75*
G02*
X144475000Y-97900000I0J-225000D01*
G01*
X144475000Y-98350000D01*
G75*
G02*
X144250000Y-98575000I-225000J0D01*
G01*
G37*
%TD.AperFunction*%
%TD*%
D10*
%TO.P,L1,2*%
%TO.N,Net-(C18-Pad2)*%
X154844000Y-90866000D03*
%TO.P,L1,1*%
%TO.N,Net-(C19-Pad1)*%
X154844000Y-87166000D03*
%TD*%
%TO.P,R11,1*%
%TO.N,Net-(R10-Pad2)*%
%TA.AperFunction,SMDPad,CuDef*%
G36*
G01*
X160485000Y-85315000D02*
X160485000Y-85865000D01*
G75*
G02*
X160285000Y-86065000I-200000J0D01*
G01*
X159885000Y-86065000D01*
G75*
G02*
X159685000Y-85865000I0J200000D01*
G01*
X159685000Y-85315000D01*
G75*
G02*
X159885000Y-85115000I200000J0D01*
G01*
X160285000Y-85115000D01*
G75*
G02*
X160485000Y-85315000I0J-200000D01*
G01*
G37*
%TD.AperFunction*%
%TO.P,R11,2*%
%TO.N,GND*%
%TA.AperFunction,SMDPad,CuDef*%
G36*
G01*
X158835000Y-85315000D02*
X158835000Y-85865000D01*
G75*
G02*
X158635000Y-86065000I-200000J0D01*
G01*
X158235000Y-86065000D01*
G75*
G02*
X158035000Y-85865000I0J200000D01*
G01*
X158035000Y-85315000D01*
G75*
G02*
X158235000Y-85115000I200000J0D01*
G01*
X158635000Y-85115000D01*
G75*
G02*
X158835000Y-85315000I0J-200000D01*
G01*
G37*
%TD.AperFunction*%
%TD*%
%TO.P,C15,2*%
%TO.N,GND*%
%TA.AperFunction,SMDPad,CuDef*%
G36*
G01*
X140425000Y-105310000D02*
X140425000Y-105810000D01*
G75*
G02*
X140200000Y-106035000I-225000J0D01*
G01*
X139750000Y-106035000D01*
G75*
G02*
X139525000Y-105810000I0J225000D01*
G01*
X139525000Y-105310000D01*
G75*
G02*
X139750000Y-105085000I225000J0D01*
G01*
X140200000Y-105085000D01*
G75*
G02*
X140425000Y-105310000I0J-225000D01*
G01*
G37*
%TD.AperFunction*%
%TO.P,C15,1*%
%TO.N,+3V3*%
%TA.AperFunction,SMDPad,CuDef*%
G36*
G01*
X141975000Y-105310000D02*
X141975000Y-105810000D01*
G75*
G02*
X141750000Y-106035000I-225000J0D01*
G01*
X141300000Y-106035000D01*
G75*
G02*
X141075000Y-105810000I0J225000D01*
G01*
X141075000Y-105310000D01*
G75*
G02*
X141300000Y-105085000I225000J0D01*
G01*
X141750000Y-105085000D01*
G75*
G02*
X141975000Y-105310000I0J-225000D01*
G01*
G37*
%TD.AperFunction*%
%TD*%
%TO.P,C14,2*%
%TO.N,GND*%
%TA.AperFunction,SMDPad,CuDef*%
G36*
G01*
X145740000Y-97015000D02*
X145240000Y-97015000D01*
G75*
G02*
X145015000Y-96790000I0J225000D01*
G01*
X145015000Y-96340000D01*
G75*
G02*
X145240000Y-96115000I225000J0D01*
G01*
X145740000Y-96115000D01*
G75*
G02*
X145965000Y-96340000I0J-225000D01*
G01*
X145965000Y-96790000D01*
G75*
G02*
X145740000Y-97015000I-225000J0D01*
G01*
G37*
%TD.AperFunction*%
%TO.P,C14,1*%
%TO.N,+3V3*%
%TA.AperFunction,SMDPad,CuDef*%
G36*
G01*
X145740000Y-98565000D02*
X145240000Y-98565000D01*
G75*
G02*
X145015000Y-98340000I0J225000D01*
G01*
X145015000Y-97890000D01*
G75*
G02*
X145240000Y-97665000I225000J0D01*
G01*
X145740000Y-97665000D01*
G75*
G02*
X145965000Y-97890000I0J-225000D01*
G01*
X145965000Y-98340000D01*
G75*
G02*
X145740000Y-98565000I-225000J0D01*
G01*
G37*
%TD.AperFunction*%
%TD*%
%TO.P,C13,2*%
%TO.N,GND*%
%TA.AperFunction,SMDPad,CuDef*%
G36*
G01*
X153170000Y-102355000D02*
X153670000Y-102355000D01*
G75*
G02*
X153895000Y-102580000I0J-225000D01*
G01*
X153895000Y-103030000D01*
G75*
G02*
X153670000Y-103255000I-225000J0D01*
G01*
X153170000Y-103255000D01*
G75*
G02*
X152945000Y-103030000I0J225000D01*
G01*
X152945000Y-102580000D01*
G75*
G02*
X153170000Y-102355000I225000J0D01*
G01*
G37*
%TD.AperFunction*%
%TO.P,C13,1*%
%TO.N,+3V3*%
%TA.AperFunction,SMDPad,CuDef*%
G36*
G01*
X153170000Y-100805000D02*
X153670000Y-100805000D01*
G75*
G02*
X153895000Y-101030000I0J-225000D01*
G01*
X153895000Y-101480000D01*
G75*
G02*
X153670000Y-101705000I-225000J0D01*
G01*
X153170000Y-101705000D01*
G75*
G02*
X152945000Y-101480000I0J225000D01*
G01*
X152945000Y-101030000D01*
G75*
G02*
X153170000Y-100805000I225000J0D01*
G01*
G37*
%TD.AperFunction*%
%TD*%
D11*
%TO.P,U1,1*%
%TO.N,GND*%
X145265000Y-100970000D03*
%TO.P,U1,5*%
%TO.N,spi3_miso*%
X143315000Y-99370000D03*
%TO.P,U1,6*%
%TO.N,+3V3*%
X143965000Y-99370000D03*
%TO.P,U1,7*%
%TO.N,GND*%
X144615000Y-99370000D03*
%TO.P,U1,4*%
%TO.N,spi3_sck*%
X143315000Y-100970000D03*
%TO.P,U1,3*%
%TO.N,spi3_mosi*%
X143965000Y-100970000D03*
%TO.P,U1,2*%
%TO.N,baro_cs*%
X144615000Y-100970000D03*
%TO.P,U1,8*%
%TO.N,+3V3*%
X145265000Y-99370000D03*
%TD*%
%TO.P,U5,1*%
%TO.N,GND*%
%TA.AperFunction,SMDPad,CuDef*%
G36*
G01*
X147625000Y-98825000D02*
X147625000Y-98675000D01*
G75*
G02*
X147700000Y-98600000I75000J0D01*
G01*
X148400000Y-98600000D01*
G75*
G02*
X148475000Y-98675000I0J-75000D01*
G01*
X148475000Y-98825000D01*
G75*
G02*
X148400000Y-98900000I-75000J0D01*
G01*
X147700000Y-98900000D01*
G75*
G02*
X147625000Y-98825000I0J75000D01*
G01*
G37*
%TD.AperFunction*%
%TO.P,U5,2*%
%TO.N,N/C*%
%TA.AperFunction,SMDPad,CuDef*%
G36*
G01*
X147625000Y-99325000D02*
X147625000Y-99175000D01*
G75*
G02*
X147700000Y-99100000I75000J0D01*
G01*
X148400000Y-99100000D01*
G75*
G02*
X148475000Y-99175000I0J-75000D01*
G01*
X148475000Y-99325000D01*
G75*
G02*
X148400000Y-99400000I-75000J0D01*
G01*
X147700000Y-99400000D01*
G75*
G02*
X147625000Y-99325000I0J75000D01*
G01*
G37*
%TD.AperFunction*%
%TO.P,U5,3*%
%TA.AperFunction,SMDPad,CuDef*%
G36*
G01*
X147625000Y-99825000D02*
X147625000Y-99675000D01*
G75*
G02*
X147700000Y-99600000I75000J0D01*
G01*
X148400000Y-99600000D01*
G75*
G02*
X148475000Y-99675000I0J-75000D01*
G01*
X148475000Y-99825000D01*
G75*
G02*
X148400000Y-99900000I-75000J0D01*
G01*
X147700000Y-99900000D01*
G75*
G02*
X147625000Y-99825000I0J75000D01*
G01*
G37*
%TD.AperFunction*%
%TO.P,U5,4*%
%TA.AperFunction,SMDPad,CuDef*%
G36*
G01*
X147625000Y-100325000D02*
X147625000Y-100175000D01*
G75*
G02*
X147700000Y-100100000I75000J0D01*
G01*
X148400000Y-100100000D01*
G75*
G02*
X148475000Y-100175000I0J-75000D01*
G01*
X148475000Y-100325000D01*
G75*
G02*
X148400000Y-100400000I-75000J0D01*
G01*
X147700000Y-100400000D01*
G75*
G02*
X147625000Y-100325000I0J75000D01*
G01*
G37*
%TD.AperFunction*%
%TO.P,U5,5*%
%TA.AperFunction,SMDPad,CuDef*%
G36*
G01*
X147625000Y-100825000D02*
X147625000Y-100675000D01*
G75*
G02*
X147700000Y-100600000I75000J0D01*
G01*
X148400000Y-100600000D01*
G75*
G02*
X148475000Y-100675000I0J-75000D01*
G01*
X148475000Y-100825000D01*
G75*
G02*
X148400000Y-100900000I-75000J0D01*
G01*
X147700000Y-100900000D01*
G75*
G02*
X147625000Y-100825000I0J75000D01*
G01*
G37*
%TD.AperFunction*%
%TO.P,U5,6*%
%TA.AperFunction,SMDPad,CuDef*%
G36*
G01*
X147625000Y-101325000D02*
X147625000Y-101175000D01*
G75*
G02*
X147700000Y-101100000I75000J0D01*
G01*
X148400000Y-101100000D01*
G75*
G02*
X148475000Y-101175000I0J-75000D01*
G01*
X148475000Y-101325000D01*
G75*
G02*
X148400000Y-101400000I-75000J0D01*
G01*
X147700000Y-101400000D01*
G75*
G02*
X147625000Y-101325000I0J75000D01*
G01*
G37*
%TD.AperFunction*%
%TO.P,U5,7*%
%TA.AperFunction,SMDPad,CuDef*%
G36*
G01*
X148825000Y-102375000D02*
X148675000Y-102375000D01*
G75*
G02*
X148600000Y-102300000I0J75000D01*
G01*
X148600000Y-101600000D01*
G75*
G02*
X148675000Y-101525000I75000J0D01*
G01*
X148825000Y-101525000D01*
G75*
G02*
X148900000Y-101600000I0J-75000D01*
G01*
X148900000Y-102300000D01*
G75*
G02*
X148825000Y-102375000I-75000J0D01*
G01*
G37*
%TD.AperFunction*%
%TO.P,U5,8*%
%TO.N,gyro1_cs*%
%TA.AperFunction,SMDPad,CuDef*%
G36*
G01*
X149325000Y-102375000D02*
X149175000Y-102375000D01*
G75*
G02*
X149100000Y-102300000I0J75000D01*
G01*
X149100000Y-101600000D01*
G75*
G02*
X149175000Y-101525000I75000J0D01*
G01*
X149325000Y-101525000D01*
G75*
G02*
X149400000Y-101600000I0J-75000D01*
G01*
X149400000Y-102300000D01*
G75*
G02*
X149325000Y-102375000I-75000J0D01*
G01*
G37*
%TD.AperFunction*%
%TO.P,U5,9*%
%TO.N,spi1_miso*%
%TA.AperFunction,SMDPad,CuDef*%
G36*
G01*
X149825000Y-102375000D02*
X149675000Y-102375000D01*
G75*
G02*
X149600000Y-102300000I0J75000D01*
G01*
X149600000Y-101600000D01*
G75*
G02*
X149675000Y-101525000I75000J0D01*
G01*
X149825000Y-101525000D01*
G75*
G02*
X149900000Y-101600000I0J-75000D01*
G01*
X149900000Y-102300000D01*
G75*
G02*
X149825000Y-102375000I-75000J0D01*
G01*
G37*
%TD.AperFunction*%
%TO.P,U5,10*%
%TO.N,Net-(C2-Pad1)*%
%TA.AperFunction,SMDPad,CuDef*%
G36*
G01*
X150325000Y-102375000D02*
X150175000Y-102375000D01*
G75*
G02*
X150100000Y-102300000I0J75000D01*
G01*
X150100000Y-101600000D01*
G75*
G02*
X150175000Y-101525000I75000J0D01*
G01*
X150325000Y-101525000D01*
G75*
G02*
X150400000Y-101600000I0J-75000D01*
G01*
X150400000Y-102300000D01*
G75*
G02*
X150325000Y-102375000I-75000J0D01*
G01*
G37*
%TD.AperFunction*%
%TO.P,U5,11*%
%TO.N,GND*%
%TA.AperFunction,SMDPad,CuDef*%
G36*
G01*
X150825000Y-102375000D02*
X150675000Y-102375000D01*
G75*
G02*
X150600000Y-102300000I0J75000D01*
G01*
X150600000Y-101600000D01*
G75*
G02*
X150675000Y-101525000I75000J0D01*
G01*
X150825000Y-101525000D01*
G75*
G02*
X150900000Y-101600000I0J-75000D01*
G01*
X150900000Y-102300000D01*
G75*
G02*
X150825000Y-102375000I-75000J0D01*
G01*
G37*
%TD.AperFunction*%
%TO.P,U5,12*%
%TO.N,gyro1_exti*%
%TA.AperFunction,SMDPad,CuDef*%
G36*
G01*
X151325000Y-102375000D02*
X151175000Y-102375000D01*
G75*
G02*
X151100000Y-102300000I0J75000D01*
G01*
X151100000Y-101600000D01*
G75*
G02*
X151175000Y-101525000I75000J0D01*
G01*
X151325000Y-101525000D01*
G75*
G02*
X151400000Y-101600000I0J-75000D01*
G01*
X151400000Y-102300000D01*
G75*
G02*
X151325000Y-102375000I-75000J0D01*
G01*
G37*
%TD.AperFunction*%
%TO.P,U5,13*%
%TO.N,+3V3*%
%TA.AperFunction,SMDPad,CuDef*%
G36*
G01*
X151525000Y-101325000D02*
X151525000Y-101175000D01*
G75*
G02*
X151600000Y-101100000I75000J0D01*
G01*
X152300000Y-101100000D01*
G75*
G02*
X152375000Y-101175000I0J-75000D01*
G01*
X152375000Y-101325000D01*
G75*
G02*
X152300000Y-101400000I-75000J0D01*
G01*
X151600000Y-101400000D01*
G75*
G02*
X151525000Y-101325000I0J75000D01*
G01*
G37*
%TD.AperFunction*%
%TO.P,U5,14*%
%TO.N,N/C*%
%TA.AperFunction,SMDPad,CuDef*%
G36*
G01*
X151525000Y-100825000D02*
X151525000Y-100675000D01*
G75*
G02*
X151600000Y-100600000I75000J0D01*
G01*
X152300000Y-100600000D01*
G75*
G02*
X152375000Y-100675000I0J-75000D01*
G01*
X152375000Y-100825000D01*
G75*
G02*
X152300000Y-100900000I-75000J0D01*
G01*
X151600000Y-100900000D01*
G75*
G02*
X151525000Y-100825000I0J75000D01*
G01*
G37*
%TD.AperFunction*%
%TO.P,U5,15*%
%TA.AperFunction,SMDPad,CuDef*%
G36*
G01*
X151525000Y-100325000D02*
X151525000Y-100175000D01*
G75*
G02*
X151600000Y-100100000I75000J0D01*
G01*
X152300000Y-100100000D01*
G75*
G02*
X152375000Y-100175000I0J-75000D01*
G01*
X152375000Y-100325000D01*
G75*
G02*
X152300000Y-100400000I-75000J0D01*
G01*
X151600000Y-100400000D01*
G75*
G02*
X151525000Y-100325000I0J75000D01*
G01*
G37*
%TD.AperFunction*%
%TO.P,U5,16*%
%TA.AperFunction,SMDPad,CuDef*%
G36*
G01*
X151525000Y-99825000D02*
X151525000Y-99675000D01*
G75*
G02*
X151600000Y-99600000I75000J0D01*
G01*
X152300000Y-99600000D01*
G75*
G02*
X152375000Y-99675000I0J-75000D01*
G01*
X152375000Y-99825000D01*
G75*
G02*
X152300000Y-99900000I-75000J0D01*
G01*
X151600000Y-99900000D01*
G75*
G02*
X151525000Y-99825000I0J75000D01*
G01*
G37*
%TD.AperFunction*%
%TO.P,U5,17*%
%TA.AperFunction,SMDPad,CuDef*%
G36*
G01*
X151525000Y-99325000D02*
X151525000Y-99175000D01*
G75*
G02*
X151600000Y-99100000I75000J0D01*
G01*
X152300000Y-99100000D01*
G75*
G02*
X152375000Y-99175000I0J-75000D01*
G01*
X152375000Y-99325000D01*
G75*
G02*
X152300000Y-99400000I-75000J0D01*
G01*
X151600000Y-99400000D01*
G75*
G02*
X151525000Y-99325000I0J75000D01*
G01*
G37*
%TD.AperFunction*%
%TO.P,U5,18*%
%TO.N,GND*%
%TA.AperFunction,SMDPad,CuDef*%
G36*
G01*
X151525000Y-98825000D02*
X151525000Y-98675000D01*
G75*
G02*
X151600000Y-98600000I75000J0D01*
G01*
X152300000Y-98600000D01*
G75*
G02*
X152375000Y-98675000I0J-75000D01*
G01*
X152375000Y-98825000D01*
G75*
G02*
X152300000Y-98900000I-75000J0D01*
G01*
X151600000Y-98900000D01*
G75*
G02*
X151525000Y-98825000I0J75000D01*
G01*
G37*
%TD.AperFunction*%
%TO.P,U5,19*%
%TO.N,N/C*%
%TA.AperFunction,SMDPad,CuDef*%
G36*
G01*
X151325000Y-98475000D02*
X151175000Y-98475000D01*
G75*
G02*
X151100000Y-98400000I0J75000D01*
G01*
X151100000Y-97700000D01*
G75*
G02*
X151175000Y-97625000I75000J0D01*
G01*
X151325000Y-97625000D01*
G75*
G02*
X151400000Y-97700000I0J-75000D01*
G01*
X151400000Y-98400000D01*
G75*
G02*
X151325000Y-98475000I-75000J0D01*
G01*
G37*
%TD.AperFunction*%
%TO.P,U5,20*%
%TO.N,Net-(C3-Pad1)*%
%TA.AperFunction,SMDPad,CuDef*%
G36*
G01*
X150825000Y-98475000D02*
X150675000Y-98475000D01*
G75*
G02*
X150600000Y-98400000I0J75000D01*
G01*
X150600000Y-97700000D01*
G75*
G02*
X150675000Y-97625000I75000J0D01*
G01*
X150825000Y-97625000D01*
G75*
G02*
X150900000Y-97700000I0J-75000D01*
G01*
X150900000Y-98400000D01*
G75*
G02*
X150825000Y-98475000I-75000J0D01*
G01*
G37*
%TD.AperFunction*%
%TO.P,U5,21*%
%TO.N,N/C*%
%TA.AperFunction,SMDPad,CuDef*%
G36*
G01*
X150325000Y-98475000D02*
X150175000Y-98475000D01*
G75*
G02*
X150100000Y-98400000I0J75000D01*
G01*
X150100000Y-97700000D01*
G75*
G02*
X150175000Y-97625000I75000J0D01*
G01*
X150325000Y-97625000D01*
G75*
G02*
X150400000Y-97700000I0J-75000D01*
G01*
X150400000Y-98400000D01*
G75*
G02*
X150325000Y-98475000I-75000J0D01*
G01*
G37*
%TD.AperFunction*%
%TO.P,U5,22*%
%TA.AperFunction,SMDPad,CuDef*%
G36*
G01*
X149825000Y-98475000D02*
X149675000Y-98475000D01*
G75*
G02*
X149600000Y-98400000I0J75000D01*
G01*
X149600000Y-97700000D01*
G75*
G02*
X149675000Y-97625000I75000J0D01*
G01*
X149825000Y-97625000D01*
G75*
G02*
X149900000Y-97700000I0J-75000D01*
G01*
X149900000Y-98400000D01*
G75*
G02*
X149825000Y-98475000I-75000J0D01*
G01*
G37*
%TD.AperFunction*%
%TO.P,U5,23*%
%TO.N,spi1_sck*%
%TA.AperFunction,SMDPad,CuDef*%
G36*
G01*
X149325000Y-98475000D02*
X149175000Y-98475000D01*
G75*
G02*
X149100000Y-98400000I0J75000D01*
G01*
X149100000Y-97700000D01*
G75*
G02*
X149175000Y-97625000I75000J0D01*
G01*
X149325000Y-97625000D01*
G75*
G02*
X149400000Y-97700000I0J-75000D01*
G01*
X149400000Y-98400000D01*
G75*
G02*
X149325000Y-98475000I-75000J0D01*
G01*
G37*
%TD.AperFunction*%
%TO.P,U5,24*%
%TO.N,spi1_mosi*%
%TA.AperFunction,SMDPad,CuDef*%
G36*
G01*
X148825000Y-98475000D02*
X148675000Y-98475000D01*
G75*
G02*
X148600000Y-98400000I0J75000D01*
G01*
X148600000Y-97700000D01*
G75*
G02*
X148675000Y-97625000I75000J0D01*
G01*
X148825000Y-97625000D01*
G75*
G02*
X148900000Y-97700000I0J-75000D01*
G01*
X148900000Y-98400000D01*
G75*
G02*
X148825000Y-98475000I-75000J0D01*
G01*
G37*
%TD.AperFunction*%
%TD*%
%TO.P,C1,1*%
%TO.N,GND*%
%TA.AperFunction,SMDPad,CuDef*%
G36*
G01*
X156105000Y-105160000D02*
X155155000Y-105160000D01*
G75*
G02*
X154905000Y-104910000I0J250000D01*
G01*
X154905000Y-104410000D01*
G75*
G02*
X155155000Y-104160000I250000J0D01*
G01*
X156105000Y-104160000D01*
G75*
G02*
X156355000Y-104410000I0J-250000D01*
G01*
X156355000Y-104910000D01*
G75*
G02*
X156105000Y-105160000I-250000J0D01*
G01*
G37*
%TD.AperFunction*%
%TO.P,C1,2*%
%TO.N,Net-(C1-Pad2)*%
%TA.AperFunction,SMDPad,CuDef*%
G36*
G01*
X156105000Y-103260000D02*
X155155000Y-103260000D01*
G75*
G02*
X154905000Y-103010000I0J250000D01*
G01*
X154905000Y-102510000D01*
G75*
G02*
X155155000Y-102260000I250000J0D01*
G01*
X156105000Y-102260000D01*
G75*
G02*
X156355000Y-102510000I0J-250000D01*
G01*
X156355000Y-103010000D01*
G75*
G02*
X156105000Y-103260000I-250000J0D01*
G01*
G37*
%TD.AperFunction*%
%TD*%
%TO.P,C2,2*%
%TO.N,GND*%
%TA.AperFunction,SMDPad,CuDef*%
G36*
G01*
X151485000Y-103680000D02*
X151485000Y-103180000D01*
G75*
G02*
X151710000Y-102955000I225000J0D01*
G01*
X152160000Y-102955000D01*
G75*
G02*
X152385000Y-103180000I0J-225000D01*
G01*
X152385000Y-103680000D01*
G75*
G02*
X152160000Y-103905000I-225000J0D01*
G01*
X151710000Y-103905000D01*
G75*
G02*
X151485000Y-103680000I0J225000D01*
G01*
G37*
%TD.AperFunction*%
%TO.P,C2,1*%
%TO.N,Net-(C2-Pad1)*%
%TA.AperFunction,SMDPad,CuDef*%
G36*
G01*
X149935000Y-103680000D02*
X149935000Y-103180000D01*
G75*
G02*
X150160000Y-102955000I225000J0D01*
G01*
X150610000Y-102955000D01*
G75*
G02*
X150835000Y-103180000I0J-225000D01*
G01*
X150835000Y-103680000D01*
G75*
G02*
X150610000Y-103905000I-225000J0D01*
G01*
X150160000Y-103905000D01*
G75*
G02*
X149935000Y-103680000I0J225000D01*
G01*
G37*
%TD.AperFunction*%
%TD*%
%TO.P,C3,1*%
%TO.N,Net-(C3-Pad1)*%
%TA.AperFunction,SMDPad,CuDef*%
G36*
G01*
X150305000Y-96800000D02*
X150305000Y-96300000D01*
G75*
G02*
X150530000Y-96075000I225000J0D01*
G01*
X150980000Y-96075000D01*
G75*
G02*
X151205000Y-96300000I0J-225000D01*
G01*
X151205000Y-96800000D01*
G75*
G02*
X150980000Y-97025000I-225000J0D01*
G01*
X150530000Y-97025000D01*
G75*
G02*
X150305000Y-96800000I0J225000D01*
G01*
G37*
%TD.AperFunction*%
%TO.P,C3,2*%
%TO.N,GND*%
%TA.AperFunction,SMDPad,CuDef*%
G36*
G01*
X151855000Y-96800000D02*
X151855000Y-96300000D01*
G75*
G02*
X152080000Y-96075000I225000J0D01*
G01*
X152530000Y-96075000D01*
G75*
G02*
X152755000Y-96300000I0J-225000D01*
G01*
X152755000Y-96800000D01*
G75*
G02*
X152530000Y-97025000I-225000J0D01*
G01*
X152080000Y-97025000D01*
G75*
G02*
X151855000Y-96800000I0J225000D01*
G01*
G37*
%TD.AperFunction*%
%TD*%
%TO.P,D3,1*%
%TO.N,+3V3*%
%TA.AperFunction,SMDPad,CuDef*%
G36*
G01*
X159449750Y-103841000D02*
X159962250Y-103841000D01*
G75*
G02*
X160181000Y-104059750I0J-218750D01*
G01*
X160181000Y-104497250D01*
G75*
G02*
X159962250Y-104716000I-218750J0D01*
G01*
X159449750Y-104716000D01*
G75*
G02*
X159231000Y-104497250I0J218750D01*
G01*
X159231000Y-104059750D01*
G75*
G02*
X159449750Y-103841000I218750J0D01*
G01*
G37*
%TD.AperFunction*%
%TO.P,D3,2*%
%TO.N,Net-(D3-Pad2)*%
%TA.AperFunction,SMDPad,CuDef*%
G36*
G01*
X159449750Y-105416000D02*
X159962250Y-105416000D01*
G75*
G02*
X160181000Y-105634750I0J-218750D01*
G01*
X160181000Y-106072250D01*
G75*
G02*
X159962250Y-106291000I-218750J0D01*
G01*
X159449750Y-106291000D01*
G75*
G02*
X159231000Y-106072250I0J218750D01*
G01*
X159231000Y-105634750D01*
G75*
G02*
X159449750Y-105416000I218750J0D01*
G01*
G37*
%TD.AperFunction*%
%TD*%
%TO.P,R6,2*%
%TO.N,vbat_adc*%
%TA.AperFunction,SMDPad,CuDef*%
G36*
G01*
X160885000Y-94185000D02*
X160885000Y-94735000D01*
G75*
G02*
X160685000Y-94935000I-200000J0D01*
G01*
X160285000Y-94935000D01*
G75*
G02*
X160085000Y-94735000I0J200000D01*
G01*
X160085000Y-94185000D01*
G75*
G02*
X160285000Y-93985000I200000J0D01*
G01*
X160685000Y-93985000D01*
G75*
G02*
X160885000Y-94185000I0J-200000D01*
G01*
G37*
%TD.AperFunction*%
%TO.P,R6,1*%
%TO.N,vbat*%
%TA.AperFunction,SMDPad,CuDef*%
G36*
G01*
X162535000Y-94185000D02*
X162535000Y-94735000D01*
G75*
G02*
X162335000Y-94935000I-200000J0D01*
G01*
X161935000Y-94935000D01*
G75*
G02*
X161735000Y-94735000I0J200000D01*
G01*
X161735000Y-94185000D01*
G75*
G02*
X161935000Y-93985000I200000J0D01*
G01*
X162335000Y-93985000D01*
G75*
G02*
X162535000Y-94185000I0J-200000D01*
G01*
G37*
%TD.AperFunction*%
%TD*%
%TO.P,R7,1*%
%TO.N,vbat_adc*%
%TA.AperFunction,SMDPad,CuDef*%
G36*
G01*
X159525000Y-94185000D02*
X159525000Y-94735000D01*
G75*
G02*
X159325000Y-94935000I-200000J0D01*
G01*
X158925000Y-94935000D01*
G75*
G02*
X158725000Y-94735000I0J200000D01*
G01*
X158725000Y-94185000D01*
G75*
G02*
X158925000Y-93985000I200000J0D01*
G01*
X159325000Y-93985000D01*
G75*
G02*
X159525000Y-94185000I0J-200000D01*
G01*
G37*
%TD.AperFunction*%
%TO.P,R7,2*%
%TO.N,GND*%
%TA.AperFunction,SMDPad,CuDef*%
G36*
G01*
X157875000Y-94185000D02*
X157875000Y-94735000D01*
G75*
G02*
X157675000Y-94935000I-200000J0D01*
G01*
X157275000Y-94935000D01*
G75*
G02*
X157075000Y-94735000I0J200000D01*
G01*
X157075000Y-94185000D01*
G75*
G02*
X157275000Y-93985000I200000J0D01*
G01*
X157675000Y-93985000D01*
G75*
G02*
X157875000Y-94185000I0J-200000D01*
G01*
G37*
%TD.AperFunction*%
%TD*%
%TO.P,R9,1*%
%TO.N,led0*%
%TA.AperFunction,SMDPad,CuDef*%
G36*
G01*
X160981000Y-103811000D02*
X161531000Y-103811000D01*
G75*
G02*
X161731000Y-104011000I0J-200000D01*
G01*
X161731000Y-104411000D01*
G75*
G02*
X161531000Y-104611000I-200000J0D01*
G01*
X160981000Y-104611000D01*
G75*
G02*
X160781000Y-104411000I0J200000D01*
G01*
X160781000Y-104011000D01*
G75*
G02*
X160981000Y-103811000I200000J0D01*
G01*
G37*
%TD.AperFunction*%
%TO.P,R9,2*%
%TO.N,Net-(D3-Pad2)*%
%TA.AperFunction,SMDPad,CuDef*%
G36*
G01*
X160981000Y-105461000D02*
X161531000Y-105461000D01*
G75*
G02*
X161731000Y-105661000I0J-200000D01*
G01*
X161731000Y-106061000D01*
G75*
G02*
X161531000Y-106261000I-200000J0D01*
G01*
X160981000Y-106261000D01*
G75*
G02*
X160781000Y-106061000I0J200000D01*
G01*
X160781000Y-105661000D01*
G75*
G02*
X160981000Y-105461000I200000J0D01*
G01*
G37*
%TD.AperFunction*%
%TD*%
D12*
%TO.P,U6,1*%
%TO.N,Net-(C6-Pad2)*%
X142676000Y-110818000D03*
%TO.P,U6,2*%
%TO.N,GND*%
X142676000Y-109868000D03*
%TO.P,U6,3*%
%TO.N,Net-(C6-Pad2)*%
X142676000Y-108918000D03*
%TO.P,U6,4*%
%TO.N,N/C*%
X140476000Y-108918000D03*
%TO.P,U6,5*%
%TO.N,+3V3*%
X140476000Y-110818000D03*
%TD*%
%TO.P,C17,2*%
%TO.N,vbat*%
%TA.AperFunction,SMDPad,CuDef*%
G36*
G01*
X160930000Y-93185000D02*
X160930000Y-92235000D01*
G75*
G02*
X161180000Y-91985000I250000J0D01*
G01*
X161680000Y-91985000D01*
G75*
G02*
X161930000Y-92235000I0J-250000D01*
G01*
X161930000Y-93185000D01*
G75*
G02*
X161680000Y-93435000I-250000J0D01*
G01*
X161180000Y-93435000D01*
G75*
G02*
X160930000Y-93185000I0J250000D01*
G01*
G37*
%TD.AperFunction*%
%TO.P,C17,1*%
%TO.N,GND*%
%TA.AperFunction,SMDPad,CuDef*%
G36*
G01*
X159030000Y-93185000D02*
X159030000Y-92235000D01*
G75*
G02*
X159280000Y-91985000I250000J0D01*
G01*
X159780000Y-91985000D01*
G75*
G02*
X160030000Y-92235000I0J-250000D01*
G01*
X160030000Y-93185000D01*
G75*
G02*
X159780000Y-93435000I-250000J0D01*
G01*
X159280000Y-93435000D01*
G75*
G02*
X159030000Y-93185000I0J250000D01*
G01*
G37*
%TD.AperFunction*%
%TD*%
%TO.P,C18,1*%
%TO.N,Net-(C18-Pad1)*%
%TA.AperFunction,SMDPad,CuDef*%
G36*
G01*
X157654000Y-88575000D02*
X158154000Y-88575000D01*
G75*
G02*
X158379000Y-88800000I0J-225000D01*
G01*
X158379000Y-89250000D01*
G75*
G02*
X158154000Y-89475000I-225000J0D01*
G01*
X157654000Y-89475000D01*
G75*
G02*
X157429000Y-89250000I0J225000D01*
G01*
X157429000Y-88800000D01*
G75*
G02*
X157654000Y-88575000I225000J0D01*
G01*
G37*
%TD.AperFunction*%
%TO.P,C18,2*%
%TO.N,Net-(C18-Pad2)*%
%TA.AperFunction,SMDPad,CuDef*%
G36*
G01*
X157654000Y-90125000D02*
X158154000Y-90125000D01*
G75*
G02*
X158379000Y-90350000I0J-225000D01*
G01*
X158379000Y-90800000D01*
G75*
G02*
X158154000Y-91025000I-225000J0D01*
G01*
X157654000Y-91025000D01*
G75*
G02*
X157429000Y-90800000I0J225000D01*
G01*
X157429000Y-90350000D01*
G75*
G02*
X157654000Y-90125000I225000J0D01*
G01*
G37*
%TD.AperFunction*%
%TD*%
%TO.P,C19,1*%
%TO.N,Net-(C19-Pad1)*%
%TA.AperFunction,SMDPad,CuDef*%
G36*
G01*
X151085000Y-86630000D02*
X152035000Y-86630000D01*
G75*
G02*
X152285000Y-86880000I0J-250000D01*
G01*
X152285000Y-87380000D01*
G75*
G02*
X152035000Y-87630000I-250000J0D01*
G01*
X151085000Y-87630000D01*
G75*
G02*
X150835000Y-87380000I0J250000D01*
G01*
X150835000Y-86880000D01*
G75*
G02*
X151085000Y-86630000I250000J0D01*
G01*
G37*
%TD.AperFunction*%
%TO.P,C19,2*%
%TO.N,GND*%
%TA.AperFunction,SMDPad,CuDef*%
G36*
G01*
X151085000Y-88530000D02*
X152035000Y-88530000D01*
G75*
G02*
X152285000Y-88780000I0J-250000D01*
G01*
X152285000Y-89280000D01*
G75*
G02*
X152035000Y-89530000I-250000J0D01*
G01*
X151085000Y-89530000D01*
G75*
G02*
X150835000Y-89280000I0J250000D01*
G01*
X150835000Y-88780000D01*
G75*
G02*
X151085000Y-88530000I250000J0D01*
G01*
G37*
%TD.AperFunction*%
%TD*%
%TO.P,D4,1*%
%TO.N,Net-(C18-Pad2)*%
%TA.AperFunction,SMDPad,CuDef*%
G36*
G01*
X154575000Y-92696250D02*
X154575000Y-92183750D01*
G75*
G02*
X154793750Y-91965000I218750J0D01*
G01*
X155231250Y-91965000D01*
G75*
G02*
X155450000Y-92183750I0J-218750D01*
G01*
X155450000Y-92696250D01*
G75*
G02*
X155231250Y-92915000I-218750J0D01*
G01*
X154793750Y-92915000D01*
G75*
G02*
X154575000Y-92696250I0J218750D01*
G01*
G37*
%TD.AperFunction*%
%TO.P,D4,2*%
%TO.N,GND*%
%TA.AperFunction,SMDPad,CuDef*%
G36*
G01*
X156150000Y-92696250D02*
X156150000Y-92183750D01*
G75*
G02*
X156368750Y-91965000I218750J0D01*
G01*
X156806250Y-91965000D01*
G75*
G02*
X157025000Y-92183750I0J-218750D01*
G01*
X157025000Y-92696250D01*
G75*
G02*
X156806250Y-92915000I-218750J0D01*
G01*
X156368750Y-92915000D01*
G75*
G02*
X156150000Y-92696250I0J218750D01*
G01*
G37*
%TD.AperFunction*%
%TD*%
%TO.P,D2,2*%
%TO.N,Net-(C19-Pad1)*%
%TA.AperFunction,SMDPad,CuDef*%
G36*
G01*
X154640000Y-85083750D02*
X154640000Y-85596250D01*
G75*
G02*
X154421250Y-85815000I-218750J0D01*
G01*
X153983750Y-85815000D01*
G75*
G02*
X153765000Y-85596250I0J218750D01*
G01*
X153765000Y-85083750D01*
G75*
G02*
X153983750Y-84865000I218750J0D01*
G01*
X154421250Y-84865000D01*
G75*
G02*
X154640000Y-85083750I0J-218750D01*
G01*
G37*
%TD.AperFunction*%
%TO.P,D2,1*%
%TO.N,+5V*%
%TA.AperFunction,SMDPad,CuDef*%
G36*
G01*
X156215000Y-85083750D02*
X156215000Y-85596250D01*
G75*
G02*
X155996250Y-85815000I-218750J0D01*
G01*
X155558750Y-85815000D01*
G75*
G02*
X155340000Y-85596250I0J218750D01*
G01*
X155340000Y-85083750D01*
G75*
G02*
X155558750Y-84865000I218750J0D01*
G01*
X155996250Y-84865000D01*
G75*
G02*
X156215000Y-85083750I0J-218750D01*
G01*
G37*
%TD.AperFunction*%
%TD*%
%TO.P,R10,2*%
%TO.N,Net-(R10-Pad2)*%
%TA.AperFunction,SMDPad,CuDef*%
G36*
G01*
X159679000Y-87375000D02*
X159679000Y-86825000D01*
G75*
G02*
X159879000Y-86625000I200000J0D01*
G01*
X160279000Y-86625000D01*
G75*
G02*
X160479000Y-86825000I0J-200000D01*
G01*
X160479000Y-87375000D01*
G75*
G02*
X160279000Y-87575000I-200000J0D01*
G01*
X159879000Y-87575000D01*
G75*
G02*
X159679000Y-87375000I0J200000D01*
G01*
G37*
%TD.AperFunction*%
%TO.P,R10,1*%
%TO.N,Net-(C19-Pad1)*%
%TA.AperFunction,SMDPad,CuDef*%
G36*
G01*
X158029000Y-87375000D02*
X158029000Y-86825000D01*
G75*
G02*
X158229000Y-86625000I200000J0D01*
G01*
X158629000Y-86625000D01*
G75*
G02*
X158829000Y-86825000I0J-200000D01*
G01*
X158829000Y-87375000D01*
G75*
G02*
X158629000Y-87575000I-200000J0D01*
G01*
X158229000Y-87575000D01*
G75*
G02*
X158029000Y-87375000I0J200000D01*
G01*
G37*
%TD.AperFunction*%
%TD*%
D13*
%TO.P,U7,1*%
%TO.N,Net-(C18-Pad2)*%
X159534000Y-90890000D03*
%TO.P,U7,2*%
%TO.N,vbat*%
X160484000Y-90890000D03*
%TO.P,U7,3*%
%TO.N,N/C*%
X161434000Y-90890000D03*
%TO.P,U7,4*%
%TO.N,Net-(R10-Pad2)*%
X161434000Y-88690000D03*
%TO.P,U7,6*%
%TO.N,Net-(C18-Pad1)*%
X159534000Y-88690000D03*
%TO.P,U7,5*%
%TO.N,GND*%
X160484000Y-88690000D03*
%TD*%
%TO.P,FB1,1*%
%TO.N,Net-(C6-Pad2)*%
%TA.AperFunction,SMDPad,CuDef*%
G36*
G01*
X145978750Y-108380000D02*
X146741250Y-108380000D01*
G75*
G02*
X146960000Y-108598750I0J-218750D01*
G01*
X146960000Y-109036250D01*
G75*
G02*
X146741250Y-109255000I-218750J0D01*
G01*
X145978750Y-109255000D01*
G75*
G02*
X145760000Y-109036250I0J218750D01*
G01*
X145760000Y-108598750D01*
G75*
G02*
X145978750Y-108380000I218750J0D01*
G01*
G37*
%TD.AperFunction*%
%TO.P,FB1,2*%
%TO.N,+5V*%
%TA.AperFunction,SMDPad,CuDef*%
G36*
G01*
X145978750Y-110505000D02*
X146741250Y-110505000D01*
G75*
G02*
X146960000Y-110723750I0J-218750D01*
G01*
X146960000Y-111161250D01*
G75*
G02*
X146741250Y-111380000I-218750J0D01*
G01*
X145978750Y-111380000D01*
G75*
G02*
X145760000Y-111161250I0J218750D01*
G01*
X145760000Y-110723750D01*
G75*
G02*
X145978750Y-110505000I218750J0D01*
G01*
G37*
%TD.AperFunction*%
%TD*%
%TO.P,C4,1*%
%TO.N,vbat*%
%TA.AperFunction,SMDPad,CuDef*%
G36*
G01*
X163380000Y-92670000D02*
X162880000Y-92670000D01*
G75*
G02*
X162655000Y-92445000I0J225000D01*
G01*
X162655000Y-91995000D01*
G75*
G02*
X162880000Y-91770000I225000J0D01*
G01*
X163380000Y-91770000D01*
G75*
G02*
X163605000Y-91995000I0J-225000D01*
G01*
X163605000Y-92445000D01*
G75*
G02*
X163380000Y-92670000I-225000J0D01*
G01*
G37*
%TD.AperFunction*%
%TO.P,C4,2*%
%TO.N,GND*%
%TA.AperFunction,SMDPad,CuDef*%
G36*
G01*
X163380000Y-91120000D02*
X162880000Y-91120000D01*
G75*
G02*
X162655000Y-90895000I0J225000D01*
G01*
X162655000Y-90445000D01*
G75*
G02*
X162880000Y-90220000I225000J0D01*
G01*
X163380000Y-90220000D01*
G75*
G02*
X163605000Y-90445000I0J-225000D01*
G01*
X163605000Y-90895000D01*
G75*
G02*
X163380000Y-91120000I-225000J0D01*
G01*
G37*
%TD.AperFunction*%
%TD*%
%TO.P,C5,2*%
%TO.N,GND*%
%TA.AperFunction,SMDPad,CuDef*%
G36*
G01*
X152345000Y-85590000D02*
X152345000Y-85090000D01*
G75*
G02*
X152570000Y-84865000I225000J0D01*
G01*
X153020000Y-84865000D01*
G75*
G02*
X153245000Y-85090000I0J-225000D01*
G01*
X153245000Y-85590000D01*
G75*
G02*
X153020000Y-85815000I-225000J0D01*
G01*
X152570000Y-85815000D01*
G75*
G02*
X152345000Y-85590000I0J225000D01*
G01*
G37*
%TD.AperFunction*%
%TO.P,C5,1*%
%TO.N,Net-(C19-Pad1)*%
%TA.AperFunction,SMDPad,CuDef*%
G36*
G01*
X150795000Y-85590000D02*
X150795000Y-85090000D01*
G75*
G02*
X151020000Y-84865000I225000J0D01*
G01*
X151470000Y-84865000D01*
G75*
G02*
X151695000Y-85090000I0J-225000D01*
G01*
X151695000Y-85590000D01*
G75*
G02*
X151470000Y-85815000I-225000J0D01*
G01*
X151020000Y-85815000D01*
G75*
G02*
X150795000Y-85590000I0J225000D01*
G01*
G37*
%TD.AperFunction*%
%TD*%
%TO.P,J3,MP*%
%TO.N,N/C*%
%TA.AperFunction,SMDPad,CuDef*%
G36*
G01*
X152200000Y-119425001D02*
X152200000Y-118124999D01*
G75*
G02*
X152449999Y-117875000I249999J0D01*
G01*
X153150001Y-117875000D01*
G75*
G02*
X153400000Y-118124999I0J-249999D01*
G01*
X153400000Y-119425001D01*
G75*
G02*
X153150001Y-119675000I-249999J0D01*
G01*
X152449999Y-119675000D01*
G75*
G02*
X152200000Y-119425001I0J249999D01*
G01*
G37*
%TD.AperFunction*%
%TA.AperFunction,SMDPad,CuDef*%
G36*
G01*
X146600000Y-119425001D02*
X146600000Y-118124999D01*
G75*
G02*
X146849999Y-117875000I249999J0D01*
G01*
X147550001Y-117875000D01*
G75*
G02*
X147800000Y-118124999I0J-249999D01*
G01*
X147800000Y-119425001D01*
G75*
G02*
X147550001Y-119675000I-249999J0D01*
G01*
X146849999Y-119675000D01*
G75*
G02*
X146600000Y-119425001I0J249999D01*
G01*
G37*
%TD.AperFunction*%
%TO.P,J3,4*%
%TO.N,usart1_rx*%
%TA.AperFunction,SMDPad,CuDef*%
G36*
G01*
X151200000Y-115525000D02*
X151200000Y-114275000D01*
G75*
G02*
X151350000Y-114125000I150000J0D01*
G01*
X151650000Y-114125000D01*
G75*
G02*
X151800000Y-114275000I0J-150000D01*
G01*
X151800000Y-115525000D01*
G75*
G02*
X151650000Y-115675000I-150000J0D01*
G01*
X151350000Y-115675000D01*
G75*
G02*
X151200000Y-115525000I0J150000D01*
G01*
G37*
%TD.AperFunction*%
%TO.P,J3,3*%
%TO.N,usart1_tx*%
%TA.AperFunction,SMDPad,CuDef*%
G36*
G01*
X150200000Y-115525000D02*
X150200000Y-114275000D01*
G75*
G02*
X150350000Y-114125000I150000J0D01*
G01*
X150650000Y-114125000D01*
G75*
G02*
X150800000Y-114275000I0J-150000D01*
G01*
X150800000Y-115525000D01*
G75*
G02*
X150650000Y-115675000I-150000J0D01*
G01*
X150350000Y-115675000D01*
G75*
G02*
X150200000Y-115525000I0J150000D01*
G01*
G37*
%TD.AperFunction*%
%TO.P,J3,2*%
%TO.N,GND*%
%TA.AperFunction,SMDPad,CuDef*%
G36*
G01*
X149200000Y-115525000D02*
X149200000Y-114275000D01*
G75*
G02*
X149350000Y-114125000I150000J0D01*
G01*
X149650000Y-114125000D01*
G75*
G02*
X149800000Y-114275000I0J-150000D01*
G01*
X149800000Y-115525000D01*
G75*
G02*
X149650000Y-115675000I-150000J0D01*
G01*
X149350000Y-115675000D01*
G75*
G02*
X149200000Y-115525000I0J150000D01*
G01*
G37*
%TD.AperFunction*%
%TO.P,J3,1*%
%TO.N,+5V*%
%TA.AperFunction,SMDPad,CuDef*%
G36*
G01*
X148200000Y-115525000D02*
X148200000Y-114275000D01*
G75*
G02*
X148350000Y-114125000I150000J0D01*
G01*
X148650000Y-114125000D01*
G75*
G02*
X148800000Y-114275000I0J-150000D01*
G01*
X148800000Y-115525000D01*
G75*
G02*
X148650000Y-115675000I-150000J0D01*
G01*
X148350000Y-115675000D01*
G75*
G02*
X148200000Y-115525000I0J150000D01*
G01*
G37*
%TD.AperFunction*%
%TD*%
%TO.P,J7,MP*%
%TO.N,N/C*%
%TA.AperFunction,SMDPad,CuDef*%
G36*
G01*
X169525001Y-94800000D02*
X168224999Y-94800000D01*
G75*
G02*
X167975000Y-94550001I0J249999D01*
G01*
X167975000Y-93849999D01*
G75*
G02*
X168224999Y-93600000I249999J0D01*
G01*
X169525001Y-93600000D01*
G75*
G02*
X169775000Y-93849999I0J-249999D01*
G01*
X169775000Y-94550001D01*
G75*
G02*
X169525001Y-94800000I-249999J0D01*
G01*
G37*
%TD.AperFunction*%
%TA.AperFunction,SMDPad,CuDef*%
G36*
G01*
X169525001Y-106400000D02*
X168224999Y-106400000D01*
G75*
G02*
X167975000Y-106150001I0J249999D01*
G01*
X167975000Y-105449999D01*
G75*
G02*
X168224999Y-105200000I249999J0D01*
G01*
X169525001Y-105200000D01*
G75*
G02*
X169775000Y-105449999I0J-249999D01*
G01*
X169775000Y-106150001D01*
G75*
G02*
X169525001Y-106400000I-249999J0D01*
G01*
G37*
%TD.AperFunction*%
%TO.P,J7,10*%
%TO.N,uart6_rxtx*%
%TA.AperFunction,SMDPad,CuDef*%
G36*
G01*
X165625000Y-95800000D02*
X164375000Y-95800000D01*
G75*
G02*
X164225000Y-95650000I0J150000D01*
G01*
X164225000Y-95350000D01*
G75*
G02*
X164375000Y-95200000I150000J0D01*
G01*
X165625000Y-95200000D01*
G75*
G02*
X165775000Y-95350000I0J-150000D01*
G01*
X165775000Y-95650000D01*
G75*
G02*
X165625000Y-95800000I-150000J0D01*
G01*
G37*
%TD.AperFunction*%
%TO.P,J7,9*%
%TO.N,GND*%
%TA.AperFunction,SMDPad,CuDef*%
G36*
G01*
X165625000Y-96800000D02*
X164375000Y-96800000D01*
G75*
G02*
X164225000Y-96650000I0J150000D01*
G01*
X164225000Y-96350000D01*
G75*
G02*
X164375000Y-96200000I150000J0D01*
G01*
X165625000Y-96200000D01*
G75*
G02*
X165775000Y-96350000I0J-150000D01*
G01*
X165775000Y-96650000D01*
G75*
G02*
X165625000Y-96800000I-150000J0D01*
G01*
G37*
%TD.AperFunction*%
%TO.P,J7,8*%
%TO.N,vbat*%
%TA.AperFunction,SMDPad,CuDef*%
G36*
G01*
X165625000Y-97800000D02*
X164375000Y-97800000D01*
G75*
G02*
X164225000Y-97650000I0J150000D01*
G01*
X164225000Y-97350000D01*
G75*
G02*
X164375000Y-97200000I150000J0D01*
G01*
X165625000Y-97200000D01*
G75*
G02*
X165775000Y-97350000I0J-150000D01*
G01*
X165775000Y-97650000D01*
G75*
G02*
X165625000Y-97800000I-150000J0D01*
G01*
G37*
%TD.AperFunction*%
%TO.P,J7,7*%
%TO.N,current_adc*%
%TA.AperFunction,SMDPad,CuDef*%
G36*
G01*
X165625000Y-98800000D02*
X164375000Y-98800000D01*
G75*
G02*
X164225000Y-98650000I0J150000D01*
G01*
X164225000Y-98350000D01*
G75*
G02*
X164375000Y-98200000I150000J0D01*
G01*
X165625000Y-98200000D01*
G75*
G02*
X165775000Y-98350000I0J-150000D01*
G01*
X165775000Y-98650000D01*
G75*
G02*
X165625000Y-98800000I-150000J0D01*
G01*
G37*
%TD.AperFunction*%
%TO.P,J7,6*%
%TO.N,GND*%
%TA.AperFunction,SMDPad,CuDef*%
G36*
G01*
X165625000Y-99800000D02*
X164375000Y-99800000D01*
G75*
G02*
X164225000Y-99650000I0J150000D01*
G01*
X164225000Y-99350000D01*
G75*
G02*
X164375000Y-99200000I150000J0D01*
G01*
X165625000Y-99200000D01*
G75*
G02*
X165775000Y-99350000I0J-150000D01*
G01*
X165775000Y-99650000D01*
G75*
G02*
X165625000Y-99800000I-150000J0D01*
G01*
G37*
%TD.AperFunction*%
%TO.P,J7,5*%
%TO.N,N/C*%
%TA.AperFunction,SMDPad,CuDef*%
G36*
G01*
X165625000Y-100800000D02*
X164375000Y-100800000D01*
G75*
G02*
X164225000Y-100650000I0J150000D01*
G01*
X164225000Y-100350000D01*
G75*
G02*
X164375000Y-100200000I150000J0D01*
G01*
X165625000Y-100200000D01*
G75*
G02*
X165775000Y-100350000I0J-150000D01*
G01*
X165775000Y-100650000D01*
G75*
G02*
X165625000Y-100800000I-150000J0D01*
G01*
G37*
%TD.AperFunction*%
%TO.P,J7,4*%
%TO.N,m1*%
%TA.AperFunction,SMDPad,CuDef*%
G36*
G01*
X165625000Y-101800000D02*
X164375000Y-101800000D01*
G75*
G02*
X164225000Y-101650000I0J150000D01*
G01*
X164225000Y-101350000D01*
G75*
G02*
X164375000Y-101200000I150000J0D01*
G01*
X165625000Y-101200000D01*
G75*
G02*
X165775000Y-101350000I0J-150000D01*
G01*
X165775000Y-101650000D01*
G75*
G02*
X165625000Y-101800000I-150000J0D01*
G01*
G37*
%TD.AperFunction*%
%TO.P,J7,3*%
%TO.N,m2*%
%TA.AperFunction,SMDPad,CuDef*%
G36*
G01*
X165625000Y-102800000D02*
X164375000Y-102800000D01*
G75*
G02*
X164225000Y-102650000I0J150000D01*
G01*
X164225000Y-102350000D01*
G75*
G02*
X164375000Y-102200000I150000J0D01*
G01*
X165625000Y-102200000D01*
G75*
G02*
X165775000Y-102350000I0J-150000D01*
G01*
X165775000Y-102650000D01*
G75*
G02*
X165625000Y-102800000I-150000J0D01*
G01*
G37*
%TD.AperFunction*%
%TO.P,J7,2*%
%TO.N,m3*%
%TA.AperFunction,SMDPad,CuDef*%
G36*
G01*
X165625000Y-103800000D02*
X164375000Y-103800000D01*
G75*
G02*
X164225000Y-103650000I0J150000D01*
G01*
X164225000Y-103350000D01*
G75*
G02*
X164375000Y-103200000I150000J0D01*
G01*
X165625000Y-103200000D01*
G75*
G02*
X165775000Y-103350000I0J-150000D01*
G01*
X165775000Y-103650000D01*
G75*
G02*
X165625000Y-103800000I-150000J0D01*
G01*
G37*
%TD.AperFunction*%
%TO.P,J7,1*%
%TO.N,m4*%
%TA.AperFunction,SMDPad,CuDef*%
G36*
G01*
X165625000Y-104800000D02*
X164375000Y-104800000D01*
G75*
G02*
X164225000Y-104650000I0J150000D01*
G01*
X164225000Y-104350000D01*
G75*
G02*
X164375000Y-104200000I150000J0D01*
G01*
X165625000Y-104200000D01*
G75*
G02*
X165775000Y-104350000I0J-150000D01*
G01*
X165775000Y-104650000D01*
G75*
G02*
X165625000Y-104800000I-150000J0D01*
G01*
G37*
%TD.AperFunction*%
%TD*%
D14*
%TO.P,J1,S1*%
%TO.N,GND*%
X145680000Y-113970000D03*
X154320000Y-113970000D03*
D15*
X154320000Y-118150000D03*
X145680000Y-118150000D03*
%TD*%
%TO.P,U4,1*%
%TO.N,flash_cs*%
%TA.AperFunction,SMDPad,CuDef*%
G36*
G01*
X141375000Y-95750000D02*
X141675000Y-95750000D01*
G75*
G02*
X141825000Y-95900000I0J-150000D01*
G01*
X141825000Y-97200000D01*
G75*
G02*
X141675000Y-97350000I-150000J0D01*
G01*
X141375000Y-97350000D01*
G75*
G02*
X141225000Y-97200000I0J150000D01*
G01*
X141225000Y-95900000D01*
G75*
G02*
X141375000Y-95750000I150000J0D01*
G01*
G37*
%TD.AperFunction*%
%TO.P,U4,2*%
%TO.N,spi3_miso*%
%TA.AperFunction,SMDPad,CuDef*%
G36*
G01*
X140105000Y-95750000D02*
X140405000Y-95750000D01*
G75*
G02*
X140555000Y-95900000I0J-150000D01*
G01*
X140555000Y-97200000D01*
G75*
G02*
X140405000Y-97350000I-150000J0D01*
G01*
X140105000Y-97350000D01*
G75*
G02*
X139955000Y-97200000I0J150000D01*
G01*
X139955000Y-95900000D01*
G75*
G02*
X140105000Y-95750000I150000J0D01*
G01*
G37*
%TD.AperFunction*%
%TO.P,U4,3*%
%TO.N,+3V3*%
%TA.AperFunction,SMDPad,CuDef*%
G36*
G01*
X138835000Y-95750000D02*
X139135000Y-95750000D01*
G75*
G02*
X139285000Y-95900000I0J-150000D01*
G01*
X139285000Y-97200000D01*
G75*
G02*
X139135000Y-97350000I-150000J0D01*
G01*
X138835000Y-97350000D01*
G75*
G02*
X138685000Y-97200000I0J150000D01*
G01*
X138685000Y-95900000D01*
G75*
G02*
X138835000Y-95750000I150000J0D01*
G01*
G37*
%TD.AperFunction*%
%TO.P,U4,4*%
%TO.N,GND*%
%TA.AperFunction,SMDPad,CuDef*%
G36*
G01*
X137565000Y-95750000D02*
X137865000Y-95750000D01*
G75*
G02*
X138015000Y-95900000I0J-150000D01*
G01*
X138015000Y-97200000D01*
G75*
G02*
X137865000Y-97350000I-150000J0D01*
G01*
X137565000Y-97350000D01*
G75*
G02*
X137415000Y-97200000I0J150000D01*
G01*
X137415000Y-95900000D01*
G75*
G02*
X137565000Y-95750000I150000J0D01*
G01*
G37*
%TD.AperFunction*%
%TO.P,U4,5*%
%TO.N,spi3_mosi*%
%TA.AperFunction,SMDPad,CuDef*%
G36*
G01*
X137565000Y-102950000D02*
X137865000Y-102950000D01*
G75*
G02*
X138015000Y-103100000I0J-150000D01*
G01*
X138015000Y-104400000D01*
G75*
G02*
X137865000Y-104550000I-150000J0D01*
G01*
X137565000Y-104550000D01*
G75*
G02*
X137415000Y-104400000I0J150000D01*
G01*
X137415000Y-103100000D01*
G75*
G02*
X137565000Y-102950000I150000J0D01*
G01*
G37*
%TD.AperFunction*%
%TO.P,U4,6*%
%TO.N,spi3_sck*%
%TA.AperFunction,SMDPad,CuDef*%
G36*
G01*
X138835000Y-102950000D02*
X139135000Y-102950000D01*
G75*
G02*
X139285000Y-103100000I0J-150000D01*
G01*
X139285000Y-104400000D01*
G75*
G02*
X139135000Y-104550000I-150000J0D01*
G01*
X138835000Y-104550000D01*
G75*
G02*
X138685000Y-104400000I0J150000D01*
G01*
X138685000Y-103100000D01*
G75*
G02*
X138835000Y-102950000I150000J0D01*
G01*
G37*
%TD.AperFunction*%
%TO.P,U4,7*%
%TO.N,+3V3*%
%TA.AperFunction,SMDPad,CuDef*%
G36*
G01*
X140105000Y-102950000D02*
X140405000Y-102950000D01*
G75*
G02*
X140555000Y-103100000I0J-150000D01*
G01*
X140555000Y-104400000D01*
G75*
G02*
X140405000Y-104550000I-150000J0D01*
G01*
X140105000Y-104550000D01*
G75*
G02*
X139955000Y-104400000I0J150000D01*
G01*
X139955000Y-103100000D01*
G75*
G02*
X140105000Y-102950000I150000J0D01*
G01*
G37*
%TD.AperFunction*%
%TO.P,U4,8*%
%TA.AperFunction,SMDPad,CuDef*%
G36*
G01*
X141375000Y-102950000D02*
X141675000Y-102950000D01*
G75*
G02*
X141825000Y-103100000I0J-150000D01*
G01*
X141825000Y-104400000D01*
G75*
G02*
X141675000Y-104550000I-150000J0D01*
G01*
X141375000Y-104550000D01*
G75*
G02*
X141225000Y-104400000I0J150000D01*
G01*
X141225000Y-103100000D01*
G75*
G02*
X141375000Y-102950000I150000J0D01*
G01*
G37*
%TD.AperFunction*%
%TD*%
D16*
%TO.P,TP1,1*%
%TO.N,+5V*%
X141000000Y-86360000D03*
%TD*%
%TO.P,TP2,1*%
%TO.N,Net-(Q1-Pad2)*%
X141000000Y-88910000D03*
%TD*%
%TO.P,TP3,1*%
%TO.N,m5*%
X141100000Y-81400000D03*
%TD*%
%TO.P,TP4,1*%
%TO.N,m6*%
X143650000Y-81400000D03*
%TD*%
%TO.P,TP5,1*%
%TO.N,ppm*%
X146200000Y-81400000D03*
%TD*%
%TO.P,TP6,1*%
%TO.N,camera*%
X148750000Y-81400000D03*
%TD*%
%TO.P,TP7,1*%
%TO.N,rssi_adc*%
X151300000Y-81400000D03*
%TD*%
%TO.P,TP8,1*%
%TO.N,GND*%
X153850000Y-81400000D03*
%TD*%
%TO.P,TP9,1*%
%TO.N,+3V3*%
X156400000Y-81400000D03*
%TD*%
%TO.P,TP10,1*%
%TO.N,+5V*%
X158950000Y-81400000D03*
%TD*%
%TO.P,TP11,1*%
%TO.N,GND*%
X131490000Y-97410000D03*
%TD*%
%TO.P,TP12,1*%
%TO.N,swclk*%
X131490000Y-99950000D03*
%TD*%
%TO.P,TP13,1*%
%TO.N,swdio*%
X131490000Y-102480000D03*
%TD*%
%TO.P,TP14,1*%
%TO.N,GND*%
X158970000Y-118480000D03*
%TD*%
%TO.P,TP15,1*%
%TO.N,+5V*%
X158970000Y-115930000D03*
%TD*%
%TO.P,TP16,1*%
%TO.N,led*%
X158970000Y-113390000D03*
%TD*%
D17*
%TO.P,SW1,1*%
%TO.N,+3V3*%
X146320000Y-92990000D03*
%TO.P,SW1,2*%
%TO.N,boot0*%
X138320000Y-92990000D03*
%TD*%
D18*
%TO.N,GND*%
X149510000Y-116270000D03*
D19*
X146490000Y-87130000D03*
X163720000Y-94490000D03*
X139030000Y-105560000D03*
X160468000Y-89809998D03*
X153234990Y-96591657D03*
X153430000Y-103750000D03*
X158450000Y-103060000D03*
X152080000Y-104380000D03*
X145620000Y-100190000D03*
X148050000Y-98139998D03*
X136170000Y-93420000D03*
X148210000Y-88060004D03*
X166230002Y-99500000D03*
X150215707Y-91860000D03*
X151570000Y-90130000D03*
X157640000Y-91730000D03*
X163130000Y-89620000D03*
X152830000Y-84270000D03*
X145510000Y-95620000D03*
X146750000Y-106950000D03*
X143560000Y-105049996D03*
X138660000Y-107910000D03*
X144500000Y-109920000D03*
X137710000Y-97849998D03*
X143690000Y-95570000D03*
X143540006Y-93000000D03*
X161064000Y-89810000D03*
X159864000Y-89810000D03*
X159274000Y-89810000D03*
X161664000Y-89810000D03*
X158450000Y-96230000D03*
X157430000Y-85590002D03*
X158650511Y-92589493D03*
X154410000Y-104660002D03*
X153860000Y-82650000D03*
X157720000Y-118480000D03*
X166280000Y-96500008D03*
X156160000Y-95140000D03*
X166290000Y-103500000D03*
X151950000Y-98100000D03*
X133730000Y-104400000D03*
X131480000Y-96150000D03*
X144710000Y-89150002D03*
X133730000Y-96499998D03*
%TO.N,Net-(C1-Pad2)*%
X154405002Y-102815002D03*
%TO.N,+5V*%
X133730002Y-97500000D03*
X158950000Y-82650000D03*
X157720000Y-115930000D03*
X142460000Y-112210000D03*
%TO.N,usart1_tx*%
X150180000Y-110760000D03*
%TO.N,usart1_rx*%
X149310000Y-108960000D03*
%TO.N,m4*%
X161210000Y-101810000D03*
%TO.N,m3*%
X161250000Y-100780000D03*
%TO.N,m2*%
X162000000Y-107050000D03*
%TO.N,m1*%
X162580000Y-107870000D03*
%TO.N,current_adc*%
X154432000Y-95504000D03*
%TO.N,uart6_rxtx*%
X160609998Y-107050000D03*
%TO.N,swclk*%
X136419984Y-103766085D03*
%TO.N,swdio*%
X136360000Y-104670000D03*
%TO.N,m5*%
X146439963Y-95721185D03*
%TO.N,m6*%
X143650000Y-82650000D03*
%TO.N,ppm*%
X148530000Y-95710000D03*
%TO.N,camera*%
X142320000Y-95300000D03*
X148760000Y-82650000D03*
X143803051Y-86966949D03*
%TO.N,rssi_adc*%
X150840717Y-92927909D03*
%TO.N,led*%
X157720000Y-113390000D03*
%TO.N,boot0*%
X138320000Y-94490000D03*
%TO.N,vbat_adc*%
X149940000Y-92950000D03*
%TO.N,led0*%
X161255952Y-103264048D03*
%TO.N,spi3_miso*%
X140230000Y-97850000D03*
%TO.N,spi3_sck*%
X141260000Y-100550000D03*
%TO.N,spi3_mosi*%
X142416898Y-99795010D03*
%TO.N,baro_cs*%
X145660000Y-101749998D03*
%TO.N,gyro1_cs*%
X154219999Y-97519999D03*
%TO.N,spi1_sck*%
X149375010Y-97020000D03*
%TO.N,spi1_miso*%
X149410004Y-103430000D03*
%TO.N,spi1_mosi*%
X156950000Y-99250000D03*
%TO.N,gyro1_exti*%
X151930000Y-102020000D03*
%TO.N,flash_cs*%
X147260000Y-103630000D03*
%TO.N,+3V3*%
X153720000Y-91860000D03*
X142470000Y-105560000D03*
X158460000Y-104600000D03*
X154180000Y-100520000D03*
X146460000Y-98130000D03*
X145120000Y-105050000D03*
X138700000Y-111810000D03*
X138980001Y-97849999D03*
X142068051Y-98541949D03*
X145079998Y-93000000D03*
X158440000Y-97780000D03*
X156410000Y-82650000D03*
%TO.N,Net-(Q1-Pad2)*%
X140999998Y-90160000D03*
%TD*%
D20*
%TO.N,GND*%
X149500000Y-116260000D02*
X149510000Y-116270000D01*
D21*
X149500000Y-114900000D02*
X149500000Y-116260000D01*
X152305000Y-96550000D02*
X153193333Y-96550000D01*
D20*
X153193333Y-96550000D02*
X153234990Y-96591657D01*
D21*
X152075000Y-103410000D02*
X152075000Y-104375000D01*
D20*
X152075000Y-104375000D02*
X152080000Y-104380000D01*
X153420000Y-103740000D02*
X153430000Y-103750000D01*
D21*
X153420000Y-102805000D02*
X153420000Y-103740000D01*
D22*
X145265000Y-100545000D02*
X145620000Y-100190000D01*
X145265000Y-100970000D02*
X145265000Y-100545000D01*
X145074998Y-100190000D02*
X145620000Y-100190000D01*
X144615000Y-99730002D02*
X145074998Y-100190000D01*
X144615000Y-99370000D02*
X144615000Y-99730002D01*
X148050000Y-98750000D02*
X148050000Y-98139998D01*
D21*
X165000000Y-99500000D02*
X166230002Y-99500000D01*
D20*
X145490000Y-95640000D02*
X145510000Y-95620000D01*
D21*
X145490000Y-96565000D02*
X145490000Y-95640000D01*
D22*
X151690000Y-103430000D02*
X151935000Y-103430000D01*
X150750000Y-102490000D02*
X151690000Y-103430000D01*
X150750000Y-101950000D02*
X150750000Y-102490000D01*
D21*
X139975000Y-105560000D02*
X139030000Y-105560000D01*
D23*
X137715000Y-96550000D02*
X137715000Y-97844998D01*
D20*
X137715000Y-97844998D02*
X137710000Y-97849998D01*
D21*
X144000000Y-95880000D02*
X143690000Y-95570000D01*
X144000000Y-96575000D02*
X144000000Y-95880000D01*
X158030002Y-85590000D02*
X158030000Y-85590002D01*
X163130000Y-90670000D02*
X163130000Y-89620000D01*
D20*
X160484000Y-89793998D02*
X160468000Y-89809998D01*
D21*
X160484000Y-88690000D02*
X160484000Y-89793998D01*
D20*
X160468002Y-89810000D02*
X160468000Y-89809998D01*
D21*
X161064000Y-89810000D02*
X160468002Y-89810000D01*
X161664000Y-89810000D02*
X161064000Y-89810000D01*
D20*
X159864002Y-89809998D02*
X159864000Y-89810000D01*
D21*
X160468000Y-89809998D02*
X159864002Y-89809998D01*
X159864000Y-89810000D02*
X159274000Y-89810000D01*
D20*
X157430002Y-85590000D02*
X157430000Y-85590002D01*
D21*
X158435000Y-85590000D02*
X157430002Y-85590000D01*
D20*
X152795000Y-84305000D02*
X152830000Y-84270000D01*
D21*
X152795000Y-85340000D02*
X152795000Y-84305000D01*
D20*
X151570000Y-89040000D02*
X151560000Y-89030000D01*
D21*
X151570000Y-90130000D02*
X151570000Y-89040000D01*
X156930000Y-92440000D02*
X157640000Y-91730000D01*
X156587500Y-92440000D02*
X156930000Y-92440000D01*
X158771018Y-92710000D02*
X158650511Y-92589493D01*
X159530000Y-92710000D02*
X158771018Y-92710000D01*
X155630000Y-104660000D02*
X154410002Y-104660000D01*
D20*
X154410002Y-104660000D02*
X154410000Y-104660002D01*
X153850000Y-82640000D02*
X153860000Y-82650000D01*
D21*
X153850000Y-81400000D02*
X153850000Y-82640000D01*
X158970000Y-118480000D02*
X157720000Y-118480000D01*
D20*
X166279992Y-96500000D02*
X166280000Y-96500008D01*
D21*
X165000000Y-96500000D02*
X166279992Y-96500000D01*
X156840000Y-94460000D02*
X156160000Y-95140000D01*
X157475000Y-94460000D02*
X156840000Y-94460000D01*
D22*
X151950000Y-98750000D02*
X151950000Y-98100000D01*
D21*
X131490000Y-97410000D02*
X131490000Y-96160000D01*
X131490000Y-96160000D02*
X131480000Y-96150000D01*
D24*
X138660000Y-108900000D02*
X138650000Y-108910000D01*
D21*
X138660000Y-107910000D02*
X138660000Y-108900000D01*
X144500000Y-110810000D02*
X144490000Y-110820000D01*
X144500000Y-109920000D02*
X144500000Y-110810000D01*
X144270000Y-110820000D02*
X144490000Y-110820000D01*
X143318000Y-109868000D02*
X144270000Y-110820000D01*
X142676000Y-109868000D02*
X143318000Y-109868000D01*
%TO.N,Net-(C1-Pad2)*%
X154460004Y-102760000D02*
X154405002Y-102815002D01*
X155630000Y-102760000D02*
X154460004Y-102760000D01*
D20*
%TO.N,Net-(C2-Pad1)*%
X150250000Y-103135000D02*
X150525000Y-103410000D01*
X150250000Y-101950000D02*
X150250000Y-103135000D01*
%TO.N,Net-(C3-Pad1)*%
X150750000Y-96555000D02*
X150755000Y-96550000D01*
D22*
X150750000Y-98050000D02*
X150750000Y-96555000D01*
D21*
%TO.N,vbat*%
X160484000Y-91764000D02*
X161430000Y-92710000D01*
X160484000Y-90890000D02*
X160484000Y-91764000D01*
X161920000Y-92220000D02*
X161430000Y-92710000D01*
X163130000Y-92220000D02*
X161920000Y-92220000D01*
X162135000Y-93415000D02*
X161430000Y-92710000D01*
X162135000Y-94460000D02*
X162135000Y-93415000D01*
X162135000Y-95865000D02*
X162135000Y-94460000D01*
X163770000Y-97500000D02*
X162135000Y-95865000D01*
X165000000Y-97500000D02*
X163770000Y-97500000D01*
%TO.N,+5V*%
X158950000Y-81400000D02*
X158950000Y-82650000D01*
X158970000Y-115930000D02*
X157720000Y-115930000D01*
X157930000Y-83670000D02*
X158950000Y-82650000D01*
X156460000Y-83670000D02*
X157930000Y-83670000D01*
X155777500Y-84352500D02*
X156460000Y-83670000D01*
X155777500Y-85340000D02*
X155777500Y-84352500D01*
X145092500Y-112210000D02*
X146360000Y-110942500D01*
X142460000Y-112210000D02*
X145092500Y-112210000D01*
X148500000Y-113082500D02*
X146360000Y-110942500D01*
X148500000Y-114900000D02*
X148500000Y-113082500D01*
X153010000Y-115930000D02*
X157720000Y-115930000D01*
X151810000Y-117130000D02*
X153010000Y-115930000D01*
X149030000Y-117130000D02*
X151810000Y-117130000D01*
X148500000Y-116600000D02*
X149030000Y-117130000D01*
X148500000Y-114900000D02*
X148500000Y-116600000D01*
X133800000Y-97500000D02*
X133730002Y-97500000D01*
X134980000Y-96320000D02*
X133800000Y-97500000D01*
X134980000Y-92380000D02*
X134980000Y-96320000D01*
X141000000Y-86360000D02*
X134980000Y-92380000D01*
D20*
%TO.N,Net-(D3-Pad2)*%
X159713500Y-105861000D02*
X159706000Y-105853500D01*
X161256000Y-105861000D02*
X159713500Y-105861000D01*
%TO.N,usart1_tx*%
X150500000Y-111080000D02*
X150180000Y-110760000D01*
X150500000Y-114900000D02*
X150500000Y-111080000D01*
%TO.N,usart1_rx*%
X151500000Y-111150000D02*
X149310000Y-108960000D01*
X151500000Y-114900000D02*
X151500000Y-111150000D01*
%TO.N,m4*%
X165000000Y-104500000D02*
X163900000Y-104500000D01*
X163900000Y-104500000D02*
X161210000Y-101810000D01*
%TO.N,m3*%
X165000000Y-103500000D02*
X163970000Y-103500000D01*
X163970000Y-103500000D02*
X161250000Y-100780000D01*
%TO.N,m2*%
X165000000Y-102500000D02*
X166450000Y-102500000D01*
X166450000Y-102500000D02*
X166970000Y-103020000D01*
X166970000Y-103020000D02*
X166970000Y-104310000D01*
X166970000Y-104310000D02*
X164230000Y-107050000D01*
X164230000Y-107050000D02*
X162000000Y-107050000D01*
%TO.N,m1*%
X165000000Y-101500000D02*
X166400000Y-101500000D01*
X166400000Y-101500000D02*
X167420011Y-102520011D01*
X167420011Y-102520011D02*
X167420011Y-104496400D01*
X167420011Y-104496400D02*
X164046411Y-107870000D01*
X164046411Y-107870000D02*
X162580000Y-107870000D01*
%TO.N,current_adc*%
X157428000Y-98500000D02*
X154432000Y-95504000D01*
X165000000Y-98500000D02*
X157428000Y-98500000D01*
%TO.N,uart6_rxtx*%
X165000000Y-95500000D02*
X166610000Y-95500000D01*
X162239998Y-108680000D02*
X160609998Y-107050000D01*
X167870022Y-104682800D02*
X163872822Y-108680000D01*
X167870022Y-96760022D02*
X167870022Y-104682800D01*
X163872822Y-108680000D02*
X162239998Y-108680000D01*
X166610000Y-95500000D02*
X167870022Y-96760022D01*
%TO.N,swclk*%
X132603899Y-99950000D02*
X131490000Y-99950000D01*
X136419984Y-103766085D02*
X132603899Y-99950000D01*
%TO.N,swdio*%
X134170000Y-102480000D02*
X131490000Y-102480000D01*
X136360000Y-104670000D02*
X134170000Y-102480000D01*
%TO.N,m5*%
X147770000Y-89690000D02*
X141100000Y-83020000D01*
X141100000Y-83020000D02*
X141100000Y-81400000D01*
X147770000Y-94391148D02*
X147770000Y-89690000D01*
X146439963Y-95721185D02*
X147770000Y-94391148D01*
%TO.N,m6*%
X143650000Y-81400000D02*
X143650000Y-82650000D01*
%TO.N,ppm*%
X147580000Y-82780000D02*
X146200000Y-81400000D01*
X147580000Y-88640000D02*
X147580000Y-82780000D01*
X148530000Y-89590000D02*
X147580000Y-88640000D01*
X148530000Y-95710000D02*
X148530000Y-89590000D01*
%TO.N,camera*%
X148750000Y-82640000D02*
X148760000Y-82650000D01*
X148750000Y-81400000D02*
X148750000Y-82640000D01*
X142320000Y-88450000D02*
X143803051Y-86966949D01*
X142320000Y-95300000D02*
X142320000Y-88450000D01*
%TO.N,rssi_adc*%
X150450000Y-90860000D02*
X150840717Y-91250717D01*
X150450000Y-83210000D02*
X150450000Y-90860000D01*
X150840717Y-91250717D02*
X150840717Y-92927909D01*
X151300000Y-82360000D02*
X150450000Y-83210000D01*
X151300000Y-81400000D02*
X151300000Y-82360000D01*
%TO.N,led*%
X158970000Y-113390000D02*
X157720000Y-113390000D01*
%TO.N,boot0*%
X138320000Y-92990000D02*
X138320000Y-94580000D01*
%TO.N,vbat_adc*%
X160485000Y-94460000D02*
X159125000Y-94460000D01*
X159061810Y-93780000D02*
X159061810Y-94396810D01*
X158834720Y-93552910D02*
X159061810Y-93780000D01*
X159061810Y-94396810D02*
X159125000Y-94460000D01*
X150542910Y-93552910D02*
X158834720Y-93552910D01*
X149940000Y-92950000D02*
X150542910Y-93552910D01*
%TO.N,led0*%
X161256000Y-104211000D02*
X161256000Y-103264096D01*
X161256000Y-103264096D02*
X161255952Y-103264048D01*
%TO.N,spi3_miso*%
X140255000Y-97825000D02*
X140230000Y-97850000D01*
X140255000Y-96550000D02*
X140255000Y-97825000D01*
X140230000Y-98530000D02*
X140230000Y-97850000D01*
X140866951Y-99166951D02*
X140230000Y-98530000D01*
X143111951Y-99166951D02*
X140866951Y-99166951D01*
X143315000Y-99370000D02*
X143111951Y-99166951D01*
%TO.N,spi3_sck*%
X143315000Y-100970000D02*
X141680000Y-100970000D01*
X141680000Y-100970000D02*
X141260000Y-100550000D01*
X141040000Y-100550000D02*
X141260000Y-100550000D01*
X138985000Y-102605000D02*
X141040000Y-100550000D01*
X138985000Y-103750000D02*
X138985000Y-102605000D01*
%TO.N,spi3_mosi*%
X137715000Y-103750000D02*
X137715000Y-102695000D01*
X137715000Y-102695000D02*
X140614990Y-99795010D01*
X140614990Y-99795010D02*
X142416898Y-99795010D01*
X142771888Y-100150000D02*
X142416898Y-99795010D01*
X143645000Y-100150000D02*
X142771888Y-100150000D01*
X143965000Y-100470000D02*
X143645000Y-100150000D01*
X143965000Y-100970000D02*
X143965000Y-100470000D01*
%TO.N,baro_cs*%
X144615000Y-101470000D02*
X144894998Y-101749998D01*
X144615000Y-100970000D02*
X144615000Y-101470000D01*
X144894998Y-101749998D02*
X145660000Y-101749998D01*
%TO.N,gyro1_cs*%
X148760000Y-103695002D02*
X148760000Y-103110000D01*
X149250000Y-102620000D02*
X149250000Y-101950000D01*
X148760000Y-103110000D02*
X149250000Y-102620000D01*
X150804998Y-105740000D02*
X148760000Y-103695002D01*
X156565000Y-105740000D02*
X150804998Y-105740000D01*
X157330000Y-104975000D02*
X156565000Y-105740000D01*
X157330000Y-100630000D02*
X157330000Y-104975000D01*
X154219999Y-97519999D02*
X157330000Y-100630000D01*
%TO.N,spi1_sck*%
X149250000Y-98050000D02*
X149250000Y-97145010D01*
X149250000Y-97145010D02*
X149375010Y-97020000D01*
%TO.N,spi1_miso*%
X149410004Y-103099996D02*
X149410004Y-103430000D01*
X149750000Y-102760000D02*
X149410004Y-103099996D01*
X149750000Y-101950000D02*
X149750000Y-102760000D01*
%TO.N,spi1_mosi*%
X156939998Y-99213002D02*
X156939998Y-99260002D01*
X156939998Y-99260002D02*
X156950000Y-99250000D01*
X153356996Y-95656996D02*
X156950000Y-99250000D01*
X153356996Y-95630000D02*
X153356996Y-95656996D01*
X149636998Y-95630000D02*
X153356996Y-95630000D01*
X148750000Y-98050000D02*
X148750000Y-96516998D01*
X148750000Y-96516998D02*
X149636998Y-95630000D01*
%TO.N,gyro1_exti*%
X151250000Y-101950000D02*
X151860000Y-101950000D01*
X151860000Y-101950000D02*
X151930000Y-102020000D01*
D24*
%TO.N,flash_cs*%
X147260000Y-98041998D02*
X147260000Y-103630000D01*
X146568002Y-97350000D02*
X147260000Y-98041998D01*
X143030000Y-97350000D02*
X146568002Y-97350000D01*
X142230000Y-96550000D02*
X143030000Y-97350000D01*
X141525000Y-96550000D02*
X142230000Y-96550000D01*
D20*
%TO.N,+3V3*%
X153415000Y-101250000D02*
X153420000Y-101255000D01*
D22*
X151950000Y-101250000D02*
X153415000Y-101250000D01*
D21*
X153420000Y-101255000D02*
X154155000Y-100520000D01*
D20*
X154155000Y-100520000D02*
X154180000Y-100520000D01*
X143965000Y-98160000D02*
X144000000Y-98125000D01*
D22*
X143965000Y-99370000D02*
X143965000Y-98160000D01*
D20*
X145505000Y-98130000D02*
X145490000Y-98115000D01*
D21*
X146460000Y-98130000D02*
X145505000Y-98130000D01*
D20*
X145265000Y-98340000D02*
X145490000Y-98115000D01*
D22*
X145265000Y-99370000D02*
X145265000Y-98340000D01*
D23*
X141525000Y-103750000D02*
X141525000Y-105560000D01*
D21*
X141525000Y-105560000D02*
X142470000Y-105560000D01*
D20*
X138860000Y-111599998D02*
X138859998Y-111600000D01*
D23*
X141525000Y-103750000D02*
X140255000Y-103750000D01*
X138985000Y-96550000D02*
X138985000Y-97845000D01*
D20*
X138985000Y-97845000D02*
X138980001Y-97849999D01*
D21*
X142485000Y-98125000D02*
X142068051Y-98541949D01*
X144000000Y-98125000D02*
X142485000Y-98125000D01*
D20*
X156400000Y-82640000D02*
X156410000Y-82650000D01*
D21*
X156400000Y-81400000D02*
X156400000Y-82640000D01*
X138658000Y-110818000D02*
X138650000Y-110810000D01*
X140476000Y-110818000D02*
X138658000Y-110818000D01*
D24*
X138700000Y-110860000D02*
X138650000Y-110810000D01*
D21*
X138700000Y-111810000D02*
X138700000Y-110860000D01*
D20*
X145089998Y-92990000D02*
X145079998Y-93000000D01*
X146320000Y-92990000D02*
X145089998Y-92990000D01*
X158781500Y-104278500D02*
X158460000Y-104600000D01*
X159706000Y-104278500D02*
X158781500Y-104278500D01*
D21*
%TO.N,Net-(C18-Pad1)*%
X158239000Y-88690000D02*
X157904000Y-89025000D01*
X159534000Y-88690000D02*
X158239000Y-88690000D01*
%TO.N,Net-(C18-Pad2)*%
X155012500Y-91034500D02*
X154844000Y-90866000D01*
X155012500Y-92440000D02*
X155012500Y-91034500D01*
X157613000Y-90866000D02*
X157904000Y-90575000D01*
X154844000Y-90866000D02*
X157613000Y-90866000D01*
X158219000Y-90890000D02*
X157904000Y-90575000D01*
X159534000Y-90890000D02*
X158219000Y-90890000D01*
D20*
%TO.N,Net-(C19-Pad1)*%
X152196000Y-87166000D02*
X152160000Y-87130000D01*
X154910000Y-87100000D02*
X154844000Y-87166000D01*
D21*
X158429000Y-87100000D02*
X154910000Y-87100000D01*
D20*
X151596000Y-87166000D02*
X151560000Y-87130000D01*
D21*
X154844000Y-87166000D02*
X151596000Y-87166000D01*
X151245000Y-86815000D02*
X151560000Y-87130000D01*
X151245000Y-85340000D02*
X151245000Y-86815000D01*
X154844000Y-85981500D02*
X154844000Y-87166000D01*
X154202500Y-85340000D02*
X154844000Y-85981500D01*
D20*
%TO.N,Net-(R10-Pad2)*%
X160085000Y-87094000D02*
X160079000Y-87100000D01*
D21*
X160085000Y-85590000D02*
X160085000Y-87094000D01*
X161434000Y-87764000D02*
X161434000Y-88690000D01*
X160770000Y-87100000D02*
X161434000Y-87764000D01*
X160079000Y-87100000D02*
X160770000Y-87100000D01*
%TO.N,Net-(C6-Pad2)*%
X141896000Y-108918000D02*
X142676000Y-108918000D01*
X141570000Y-109244000D02*
X141896000Y-108918000D01*
X141570000Y-110520000D02*
X141570000Y-109244000D01*
X141868000Y-110818000D02*
X141570000Y-110520000D01*
X142676000Y-110818000D02*
X141868000Y-110818000D01*
D20*
X144488000Y-108918000D02*
X144490000Y-108920000D01*
D21*
X142676000Y-108918000D02*
X144488000Y-108918000D01*
D20*
X146257500Y-108920000D02*
X146360000Y-108817500D01*
D21*
X144490000Y-108920000D02*
X146257500Y-108920000D01*
D20*
%TO.N,Net-(Q1-Pad2)*%
X140999998Y-88910002D02*
X141000000Y-88910000D01*
X140999998Y-90160000D02*
X140999998Y-88910002D01*
%TD*%
M02*
