%TF.GenerationSoftware,KiCad,Pcbnew,5.1.8-db9833491~87~ubuntu20.04.1*%
%TF.CreationDate,2020-11-23T13:43:30+01:00*%
%TF.ProjectId,rosalyn-fc,726f7361-6c79-46e2-9d66-632e6b696361,v0.1*%
%TF.SameCoordinates,Original*%
%TF.FileFunction,Copper,L3,Inr*%
%TF.FilePolarity,Positive*%
%FSLAX46Y46*%
G04 Gerber Fmt 4.6, Leading zero omitted, Abs format (unit mm)*
G04 Created by KiCad (PCBNEW 5.1.8-db9833491~87~ubuntu20.04.1) date 2020-11-23 13:43:30*
%MOMM*%
%LPD*%
G01*
G04 APERTURE LIST*
%TA.AperFunction,ComponentPad*%
%ADD10O,1.000000X2.100000*%
%TD*%
%TA.AperFunction,ComponentPad*%
%ADD11O,1.000000X1.600000*%
%TD*%
%TA.AperFunction,ViaPad*%
%ADD12C,0.800000*%
%TD*%
%TA.AperFunction,ViaPad*%
%ADD13C,0.600000*%
%TD*%
%TA.AperFunction,Conductor*%
%ADD14C,0.254000*%
%TD*%
%TA.AperFunction,Conductor*%
%ADD15C,0.100000*%
%TD*%
G04 APERTURE END LIST*
D10*
%TO.N,GND*%
%TO.C,J1*%
X145680000Y-113970000D03*
X154320000Y-113970000D03*
D11*
X154320000Y-118150000D03*
X145680000Y-118150000D03*
%TD*%
D12*
%TO.N,GND*%
X149510000Y-116270000D03*
D13*
X146490000Y-87130000D03*
X163720000Y-94490000D03*
X139030000Y-105560000D03*
X160468000Y-89809998D03*
X153234990Y-96591657D03*
X153430000Y-103750000D03*
X158450000Y-103060000D03*
X152080000Y-104380000D03*
X145620000Y-100190000D03*
X148050000Y-98139998D03*
X136170000Y-93420000D03*
X148210000Y-88060004D03*
X166230002Y-99500000D03*
X150215707Y-91860000D03*
X151570000Y-90130000D03*
X157640000Y-91730000D03*
X163130000Y-89620000D03*
X152830000Y-84270000D03*
X145510000Y-95620000D03*
X146750000Y-106950000D03*
X143560000Y-105049996D03*
X138660000Y-107910000D03*
X144500000Y-109920000D03*
X137710000Y-97849998D03*
X143690000Y-95570000D03*
X143540006Y-93000000D03*
X161064000Y-89810000D03*
X159864000Y-89810000D03*
X159274000Y-89810000D03*
X161664000Y-89810000D03*
X158450000Y-96230000D03*
X157430000Y-85590002D03*
X158650511Y-92589493D03*
X154410000Y-104660002D03*
X153860000Y-82650000D03*
X157720000Y-118480000D03*
X166280000Y-96500008D03*
X156160000Y-95140000D03*
X166290000Y-103500000D03*
X151950000Y-98100000D03*
X133730000Y-104400000D03*
X131480000Y-96150000D03*
X144710000Y-89150002D03*
X133730000Y-96499998D03*
%TO.N,Net-(C1-Pad2)*%
X154405002Y-102815002D03*
%TO.N,+5V*%
X133730002Y-97500000D03*
X158950000Y-82650000D03*
X157720000Y-115930000D03*
X142460000Y-112210000D03*
%TO.N,usart1_tx*%
X150180000Y-110760000D03*
%TO.N,usart1_rx*%
X149310000Y-108960000D03*
%TO.N,m4*%
X161210000Y-101810000D03*
%TO.N,m3*%
X161250000Y-100780000D03*
%TO.N,m2*%
X162000000Y-107050000D03*
%TO.N,m1*%
X162580000Y-107870000D03*
%TO.N,current_adc*%
X154432000Y-95504000D03*
%TO.N,uart6_rxtx*%
X160609998Y-107050000D03*
%TO.N,swclk*%
X136419984Y-103766085D03*
%TO.N,swdio*%
X136360000Y-104670000D03*
%TO.N,m5*%
X146439963Y-95721185D03*
%TO.N,m6*%
X143650000Y-82650000D03*
%TO.N,ppm*%
X148530000Y-95710000D03*
%TO.N,camera*%
X142320000Y-95300000D03*
X148760000Y-82650000D03*
X143803051Y-86966949D03*
%TO.N,rssi_adc*%
X150840717Y-92927909D03*
%TO.N,led*%
X157720000Y-113390000D03*
%TO.N,boot0*%
X138320000Y-94490000D03*
%TO.N,vbat_adc*%
X149940000Y-92950000D03*
%TO.N,led0*%
X161255952Y-103264048D03*
%TO.N,spi3_miso*%
X140230000Y-97850000D03*
%TO.N,spi3_sck*%
X141260000Y-100550000D03*
%TO.N,spi3_mosi*%
X142416898Y-99795010D03*
%TO.N,baro_cs*%
X145660000Y-101749998D03*
%TO.N,gyro1_cs*%
X154219999Y-97519999D03*
%TO.N,spi1_sck*%
X149375010Y-97020000D03*
%TO.N,spi1_miso*%
X149410004Y-103430000D03*
%TO.N,spi1_mosi*%
X156950000Y-99250000D03*
%TO.N,gyro1_exti*%
X151930000Y-102020000D03*
%TO.N,flash_cs*%
X147260000Y-103630000D03*
%TO.N,+3V3*%
X153720000Y-91860000D03*
X142470000Y-105560000D03*
X158460000Y-104600000D03*
X154180000Y-100520000D03*
X146460000Y-98130000D03*
X145120000Y-105050000D03*
X138700000Y-111810000D03*
X138980001Y-97849999D03*
X142068051Y-98541949D03*
X145079998Y-93000000D03*
X158440000Y-97780000D03*
X156410000Y-82650000D03*
%TO.N,Net-(Q1-Pad2)*%
X140999998Y-90160000D03*
%TD*%
D14*
%TO.N,+3V3*%
X168259659Y-80688625D02*
X168509429Y-80764035D01*
X168739792Y-80886522D01*
X168941980Y-81051422D01*
X169108286Y-81252450D01*
X169232378Y-81481954D01*
X169309531Y-81731195D01*
X169340000Y-82021089D01*
X169340001Y-117967711D01*
X169311375Y-118259660D01*
X169235965Y-118509429D01*
X169113477Y-118739794D01*
X168948579Y-118941979D01*
X168747546Y-119108288D01*
X168518046Y-119232378D01*
X168268805Y-119309531D01*
X167978911Y-119340000D01*
X158087048Y-119340000D01*
X158162889Y-119308586D01*
X158316028Y-119206262D01*
X158446262Y-119076028D01*
X158548586Y-118922889D01*
X158619068Y-118752729D01*
X158655000Y-118572089D01*
X158655000Y-118387911D01*
X158619068Y-118207271D01*
X158548586Y-118037111D01*
X158446262Y-117883972D01*
X158316028Y-117753738D01*
X158162889Y-117651414D01*
X157992729Y-117580932D01*
X157812089Y-117545000D01*
X157627911Y-117545000D01*
X157447271Y-117580932D01*
X157277111Y-117651414D01*
X157123972Y-117753738D01*
X156993738Y-117883972D01*
X156891414Y-118037111D01*
X156820932Y-118207271D01*
X156785000Y-118387911D01*
X156785000Y-118572089D01*
X156820932Y-118752729D01*
X156891414Y-118922889D01*
X156993738Y-119076028D01*
X157123972Y-119206262D01*
X157277111Y-119308586D01*
X157352952Y-119340000D01*
X155024642Y-119340000D01*
X155126449Y-119256449D01*
X155268284Y-119083623D01*
X155373676Y-118886447D01*
X155438577Y-118672499D01*
X155455000Y-118505752D01*
X155455000Y-117794249D01*
X155438577Y-117627502D01*
X155373676Y-117413554D01*
X155268284Y-117216377D01*
X155126449Y-117043551D01*
X154953623Y-116901716D01*
X154756447Y-116796324D01*
X154542499Y-116731423D01*
X154320000Y-116709509D01*
X154097502Y-116731423D01*
X153883554Y-116796324D01*
X153686378Y-116901716D01*
X153513552Y-117043551D01*
X153371717Y-117216377D01*
X153266324Y-117413553D01*
X153201423Y-117627501D01*
X153185000Y-117794248D01*
X153185000Y-118505751D01*
X153201423Y-118672498D01*
X153266324Y-118886446D01*
X153371716Y-119083623D01*
X153513551Y-119256449D01*
X153615358Y-119340000D01*
X146384642Y-119340000D01*
X146486449Y-119256449D01*
X146628284Y-119083623D01*
X146733676Y-118886447D01*
X146798577Y-118672499D01*
X146815000Y-118505752D01*
X146815000Y-117794249D01*
X146798577Y-117627502D01*
X146733676Y-117413554D01*
X146628284Y-117216377D01*
X146486449Y-117043551D01*
X146313623Y-116901716D01*
X146116447Y-116796324D01*
X145902499Y-116731423D01*
X145680000Y-116709509D01*
X145457502Y-116731423D01*
X145243554Y-116796324D01*
X145046378Y-116901716D01*
X144873552Y-117043551D01*
X144731717Y-117216377D01*
X144626324Y-117413553D01*
X144561423Y-117627501D01*
X144545000Y-117794248D01*
X144545000Y-118505751D01*
X144561423Y-118672498D01*
X144626324Y-118886446D01*
X144731716Y-119083623D01*
X144873551Y-119256449D01*
X144975358Y-119340000D01*
X132032279Y-119340000D01*
X131740340Y-119311375D01*
X131490571Y-119235965D01*
X131260206Y-119113477D01*
X131058021Y-118948579D01*
X130891712Y-118747546D01*
X130767622Y-118518046D01*
X130690469Y-118268805D01*
X130660000Y-117978911D01*
X130660000Y-114990475D01*
X132115000Y-114990475D01*
X132115000Y-115509525D01*
X132216261Y-116018601D01*
X132414893Y-116498141D01*
X132703262Y-116929715D01*
X133070285Y-117296738D01*
X133501859Y-117585107D01*
X133981399Y-117783739D01*
X134490475Y-117885000D01*
X135009525Y-117885000D01*
X135518601Y-117783739D01*
X135998141Y-117585107D01*
X136429715Y-117296738D01*
X136796738Y-116929715D01*
X137085107Y-116498141D01*
X137221830Y-116168061D01*
X148475000Y-116168061D01*
X148475000Y-116371939D01*
X148514774Y-116571898D01*
X148592795Y-116760256D01*
X148706063Y-116929774D01*
X148850226Y-117073937D01*
X149019744Y-117187205D01*
X149208102Y-117265226D01*
X149408061Y-117305000D01*
X149611939Y-117305000D01*
X149811898Y-117265226D01*
X150000256Y-117187205D01*
X150169774Y-117073937D01*
X150313937Y-116929774D01*
X150427205Y-116760256D01*
X150505226Y-116571898D01*
X150545000Y-116371939D01*
X150545000Y-116168061D01*
X150505226Y-115968102D01*
X150451299Y-115837911D01*
X156785000Y-115837911D01*
X156785000Y-116022089D01*
X156820932Y-116202729D01*
X156891414Y-116372889D01*
X156993738Y-116526028D01*
X157123972Y-116656262D01*
X157277111Y-116758586D01*
X157447271Y-116829068D01*
X157627911Y-116865000D01*
X157812089Y-116865000D01*
X157992729Y-116829068D01*
X158162889Y-116758586D01*
X158316028Y-116656262D01*
X158446262Y-116526028D01*
X158548586Y-116372889D01*
X158619068Y-116202729D01*
X158655000Y-116022089D01*
X158655000Y-115837911D01*
X158619068Y-115657271D01*
X158548586Y-115487111D01*
X158446262Y-115333972D01*
X158316028Y-115203738D01*
X158162889Y-115101414D01*
X157992729Y-115030932D01*
X157812089Y-114995000D01*
X157627911Y-114995000D01*
X157447271Y-115030932D01*
X157277111Y-115101414D01*
X157123972Y-115203738D01*
X156993738Y-115333972D01*
X156891414Y-115487111D01*
X156820932Y-115657271D01*
X156785000Y-115837911D01*
X150451299Y-115837911D01*
X150427205Y-115779744D01*
X150313937Y-115610226D01*
X150169774Y-115466063D01*
X150000256Y-115352795D01*
X149811898Y-115274774D01*
X149611939Y-115235000D01*
X149408061Y-115235000D01*
X149208102Y-115274774D01*
X149019744Y-115352795D01*
X148850226Y-115466063D01*
X148706063Y-115610226D01*
X148592795Y-115779744D01*
X148514774Y-115968102D01*
X148475000Y-116168061D01*
X137221830Y-116168061D01*
X137283739Y-116018601D01*
X137385000Y-115509525D01*
X137385000Y-114990475D01*
X137283739Y-114481399D01*
X137085107Y-114001859D01*
X136796738Y-113570285D01*
X136590701Y-113364248D01*
X144545000Y-113364248D01*
X144545000Y-114575751D01*
X144561423Y-114742498D01*
X144626324Y-114956446D01*
X144731716Y-115153623D01*
X144873551Y-115326449D01*
X145046377Y-115468284D01*
X145243553Y-115573676D01*
X145457501Y-115638577D01*
X145680000Y-115660491D01*
X145902498Y-115638577D01*
X146116446Y-115573676D01*
X146313623Y-115468284D01*
X146486449Y-115326449D01*
X146533362Y-115269285D01*
X146655269Y-115350741D01*
X146829978Y-115423108D01*
X147015448Y-115460000D01*
X147204552Y-115460000D01*
X147390022Y-115423108D01*
X147564731Y-115350741D01*
X147721964Y-115245681D01*
X147855681Y-115111964D01*
X147960741Y-114954731D01*
X148033108Y-114780022D01*
X148070000Y-114594552D01*
X148070000Y-114405448D01*
X151930000Y-114405448D01*
X151930000Y-114594552D01*
X151966892Y-114780022D01*
X152039259Y-114954731D01*
X152144319Y-115111964D01*
X152278036Y-115245681D01*
X152435269Y-115350741D01*
X152609978Y-115423108D01*
X152795448Y-115460000D01*
X152984552Y-115460000D01*
X153170022Y-115423108D01*
X153344731Y-115350741D01*
X153466638Y-115269285D01*
X153513551Y-115326449D01*
X153686377Y-115468284D01*
X153883553Y-115573676D01*
X154097501Y-115638577D01*
X154320000Y-115660491D01*
X154542498Y-115638577D01*
X154756446Y-115573676D01*
X154953623Y-115468284D01*
X155126449Y-115326449D01*
X155268284Y-115153623D01*
X155355487Y-114990475D01*
X162615000Y-114990475D01*
X162615000Y-115509525D01*
X162716261Y-116018601D01*
X162914893Y-116498141D01*
X163203262Y-116929715D01*
X163570285Y-117296738D01*
X164001859Y-117585107D01*
X164481399Y-117783739D01*
X164990475Y-117885000D01*
X165509525Y-117885000D01*
X166018601Y-117783739D01*
X166498141Y-117585107D01*
X166929715Y-117296738D01*
X167296738Y-116929715D01*
X167585107Y-116498141D01*
X167783739Y-116018601D01*
X167885000Y-115509525D01*
X167885000Y-114990475D01*
X167783739Y-114481399D01*
X167585107Y-114001859D01*
X167296738Y-113570285D01*
X166929715Y-113203262D01*
X166498141Y-112914893D01*
X166018601Y-112716261D01*
X165509525Y-112615000D01*
X164990475Y-112615000D01*
X164481399Y-112716261D01*
X164001859Y-112914893D01*
X163570285Y-113203262D01*
X163203262Y-113570285D01*
X162914893Y-114001859D01*
X162716261Y-114481399D01*
X162615000Y-114990475D01*
X155355487Y-114990475D01*
X155373676Y-114956447D01*
X155438577Y-114742499D01*
X155455000Y-114575752D01*
X155455000Y-113364248D01*
X155448467Y-113297911D01*
X156785000Y-113297911D01*
X156785000Y-113482089D01*
X156820932Y-113662729D01*
X156891414Y-113832889D01*
X156993738Y-113986028D01*
X157123972Y-114116262D01*
X157277111Y-114218586D01*
X157447271Y-114289068D01*
X157627911Y-114325000D01*
X157812089Y-114325000D01*
X157992729Y-114289068D01*
X158162889Y-114218586D01*
X158316028Y-114116262D01*
X158446262Y-113986028D01*
X158548586Y-113832889D01*
X158619068Y-113662729D01*
X158655000Y-113482089D01*
X158655000Y-113297911D01*
X158619068Y-113117271D01*
X158548586Y-112947111D01*
X158446262Y-112793972D01*
X158316028Y-112663738D01*
X158162889Y-112561414D01*
X157992729Y-112490932D01*
X157812089Y-112455000D01*
X157627911Y-112455000D01*
X157447271Y-112490932D01*
X157277111Y-112561414D01*
X157123972Y-112663738D01*
X156993738Y-112793972D01*
X156891414Y-112947111D01*
X156820932Y-113117271D01*
X156785000Y-113297911D01*
X155448467Y-113297911D01*
X155438577Y-113197501D01*
X155373676Y-112983553D01*
X155268284Y-112786377D01*
X155126449Y-112613551D01*
X154953623Y-112471716D01*
X154756447Y-112366324D01*
X154542499Y-112301423D01*
X154320000Y-112279509D01*
X154097502Y-112301423D01*
X153883554Y-112366324D01*
X153686378Y-112471716D01*
X153513552Y-112613551D01*
X153371717Y-112786377D01*
X153266324Y-112983553D01*
X153201423Y-113197501D01*
X153185000Y-113364248D01*
X153185000Y-113583096D01*
X153170022Y-113576892D01*
X152984552Y-113540000D01*
X152795448Y-113540000D01*
X152609978Y-113576892D01*
X152435269Y-113649259D01*
X152278036Y-113754319D01*
X152144319Y-113888036D01*
X152039259Y-114045269D01*
X151966892Y-114219978D01*
X151930000Y-114405448D01*
X148070000Y-114405448D01*
X148033108Y-114219978D01*
X147960741Y-114045269D01*
X147855681Y-113888036D01*
X147721964Y-113754319D01*
X147564731Y-113649259D01*
X147390022Y-113576892D01*
X147204552Y-113540000D01*
X147015448Y-113540000D01*
X146829978Y-113576892D01*
X146815000Y-113583096D01*
X146815000Y-113364248D01*
X146798577Y-113197501D01*
X146733676Y-112983553D01*
X146628284Y-112786377D01*
X146486449Y-112613551D01*
X146313623Y-112471716D01*
X146116447Y-112366324D01*
X145902499Y-112301423D01*
X145680000Y-112279509D01*
X145457502Y-112301423D01*
X145243554Y-112366324D01*
X145046378Y-112471716D01*
X144873552Y-112613551D01*
X144731717Y-112786377D01*
X144626324Y-112983553D01*
X144561423Y-113197501D01*
X144545000Y-113364248D01*
X136590701Y-113364248D01*
X136429715Y-113203262D01*
X135998141Y-112914893D01*
X135518601Y-112716261D01*
X135009525Y-112615000D01*
X134490475Y-112615000D01*
X133981399Y-112716261D01*
X133501859Y-112914893D01*
X133070285Y-113203262D01*
X132703262Y-113570285D01*
X132414893Y-114001859D01*
X132216261Y-114481399D01*
X132115000Y-114990475D01*
X130660000Y-114990475D01*
X130660000Y-112117911D01*
X141525000Y-112117911D01*
X141525000Y-112302089D01*
X141560932Y-112482729D01*
X141631414Y-112652889D01*
X141733738Y-112806028D01*
X141863972Y-112936262D01*
X142017111Y-113038586D01*
X142187271Y-113109068D01*
X142367911Y-113145000D01*
X142552089Y-113145000D01*
X142732729Y-113109068D01*
X142902889Y-113038586D01*
X143056028Y-112936262D01*
X143186262Y-112806028D01*
X143288586Y-112652889D01*
X143359068Y-112482729D01*
X143395000Y-112302089D01*
X143395000Y-112117911D01*
X143359068Y-111937271D01*
X143288586Y-111767111D01*
X143186262Y-111613972D01*
X143056028Y-111483738D01*
X142902889Y-111381414D01*
X142732729Y-111310932D01*
X142552089Y-111275000D01*
X142367911Y-111275000D01*
X142187271Y-111310932D01*
X142017111Y-111381414D01*
X141863972Y-111483738D01*
X141733738Y-111613972D01*
X141631414Y-111767111D01*
X141560932Y-111937271D01*
X141525000Y-112117911D01*
X130660000Y-112117911D01*
X130660000Y-109827911D01*
X143565000Y-109827911D01*
X143565000Y-110012089D01*
X143600932Y-110192729D01*
X143671414Y-110362889D01*
X143773738Y-110516028D01*
X143903972Y-110646262D01*
X144057111Y-110748586D01*
X144227271Y-110819068D01*
X144407911Y-110855000D01*
X144592089Y-110855000D01*
X144772729Y-110819068D01*
X144942889Y-110748586D01*
X145063627Y-110667911D01*
X149245000Y-110667911D01*
X149245000Y-110852089D01*
X149280932Y-111032729D01*
X149351414Y-111202889D01*
X149453738Y-111356028D01*
X149583972Y-111486262D01*
X149737111Y-111588586D01*
X149907271Y-111659068D01*
X150087911Y-111695000D01*
X150272089Y-111695000D01*
X150452729Y-111659068D01*
X150622889Y-111588586D01*
X150776028Y-111486262D01*
X150906262Y-111356028D01*
X151008586Y-111202889D01*
X151079068Y-111032729D01*
X151115000Y-110852089D01*
X151115000Y-110667911D01*
X151079068Y-110487271D01*
X151008586Y-110317111D01*
X150906262Y-110163972D01*
X150776028Y-110033738D01*
X150622889Y-109931414D01*
X150452729Y-109860932D01*
X150272089Y-109825000D01*
X150087911Y-109825000D01*
X149907271Y-109860932D01*
X149737111Y-109931414D01*
X149583972Y-110033738D01*
X149453738Y-110163972D01*
X149351414Y-110317111D01*
X149280932Y-110487271D01*
X149245000Y-110667911D01*
X145063627Y-110667911D01*
X145096028Y-110646262D01*
X145226262Y-110516028D01*
X145328586Y-110362889D01*
X145399068Y-110192729D01*
X145435000Y-110012089D01*
X145435000Y-109827911D01*
X145399068Y-109647271D01*
X145328586Y-109477111D01*
X145226262Y-109323972D01*
X145096028Y-109193738D01*
X144942889Y-109091414D01*
X144772729Y-109020932D01*
X144592089Y-108985000D01*
X144407911Y-108985000D01*
X144227271Y-109020932D01*
X144057111Y-109091414D01*
X143903972Y-109193738D01*
X143773738Y-109323972D01*
X143671414Y-109477111D01*
X143600932Y-109647271D01*
X143565000Y-109827911D01*
X130660000Y-109827911D01*
X130660000Y-108867911D01*
X148375000Y-108867911D01*
X148375000Y-109052089D01*
X148410932Y-109232729D01*
X148481414Y-109402889D01*
X148583738Y-109556028D01*
X148713972Y-109686262D01*
X148867111Y-109788586D01*
X149037271Y-109859068D01*
X149217911Y-109895000D01*
X149402089Y-109895000D01*
X149582729Y-109859068D01*
X149752889Y-109788586D01*
X149906028Y-109686262D01*
X150036262Y-109556028D01*
X150138586Y-109402889D01*
X150209068Y-109232729D01*
X150245000Y-109052089D01*
X150245000Y-108867911D01*
X150209068Y-108687271D01*
X150138586Y-108517111D01*
X150036262Y-108363972D01*
X149906028Y-108233738D01*
X149752889Y-108131414D01*
X149582729Y-108060932D01*
X149402089Y-108025000D01*
X149217911Y-108025000D01*
X149037271Y-108060932D01*
X148867111Y-108131414D01*
X148713972Y-108233738D01*
X148583738Y-108363972D01*
X148481414Y-108517111D01*
X148410932Y-108687271D01*
X148375000Y-108867911D01*
X130660000Y-108867911D01*
X130660000Y-107817911D01*
X137725000Y-107817911D01*
X137725000Y-108002089D01*
X137760932Y-108182729D01*
X137831414Y-108352889D01*
X137933738Y-108506028D01*
X138063972Y-108636262D01*
X138217111Y-108738586D01*
X138387271Y-108809068D01*
X138567911Y-108845000D01*
X138752089Y-108845000D01*
X138932729Y-108809068D01*
X139102889Y-108738586D01*
X139256028Y-108636262D01*
X139386262Y-108506028D01*
X139488586Y-108352889D01*
X139559068Y-108182729D01*
X139595000Y-108002089D01*
X139595000Y-107817911D01*
X139559068Y-107637271D01*
X139488586Y-107467111D01*
X139386262Y-107313972D01*
X139256028Y-107183738D01*
X139102889Y-107081414D01*
X138932729Y-107010932D01*
X138752089Y-106975000D01*
X138567911Y-106975000D01*
X138387271Y-107010932D01*
X138217111Y-107081414D01*
X138063972Y-107183738D01*
X137933738Y-107313972D01*
X137831414Y-107467111D01*
X137760932Y-107637271D01*
X137725000Y-107817911D01*
X130660000Y-107817911D01*
X130660000Y-106857911D01*
X145815000Y-106857911D01*
X145815000Y-107042089D01*
X145850932Y-107222729D01*
X145921414Y-107392889D01*
X146023738Y-107546028D01*
X146153972Y-107676262D01*
X146307111Y-107778586D01*
X146477271Y-107849068D01*
X146657911Y-107885000D01*
X146842089Y-107885000D01*
X147022729Y-107849068D01*
X147192889Y-107778586D01*
X147346028Y-107676262D01*
X147476262Y-107546028D01*
X147578586Y-107392889D01*
X147649068Y-107222729D01*
X147685000Y-107042089D01*
X147685000Y-106957911D01*
X159674998Y-106957911D01*
X159674998Y-107142089D01*
X159710930Y-107322729D01*
X159781412Y-107492889D01*
X159883736Y-107646028D01*
X160013970Y-107776262D01*
X160167109Y-107878586D01*
X160337269Y-107949068D01*
X160517909Y-107985000D01*
X160702087Y-107985000D01*
X160882727Y-107949068D01*
X161052887Y-107878586D01*
X161206026Y-107776262D01*
X161304999Y-107677289D01*
X161403972Y-107776262D01*
X161557111Y-107878586D01*
X161645000Y-107914991D01*
X161645000Y-107962089D01*
X161680932Y-108142729D01*
X161751414Y-108312889D01*
X161853738Y-108466028D01*
X161983972Y-108596262D01*
X162137111Y-108698586D01*
X162307271Y-108769068D01*
X162487911Y-108805000D01*
X162672089Y-108805000D01*
X162852729Y-108769068D01*
X163022889Y-108698586D01*
X163176028Y-108596262D01*
X163306262Y-108466028D01*
X163408586Y-108312889D01*
X163479068Y-108142729D01*
X163515000Y-107962089D01*
X163515000Y-107777911D01*
X163479068Y-107597271D01*
X163408586Y-107427111D01*
X163306262Y-107273972D01*
X163176028Y-107143738D01*
X163022889Y-107041414D01*
X162935000Y-107005009D01*
X162935000Y-106957911D01*
X162899068Y-106777271D01*
X162828586Y-106607111D01*
X162726262Y-106453972D01*
X162596028Y-106323738D01*
X162442889Y-106221414D01*
X162272729Y-106150932D01*
X162092089Y-106115000D01*
X161907911Y-106115000D01*
X161727271Y-106150932D01*
X161557111Y-106221414D01*
X161403972Y-106323738D01*
X161304999Y-106422711D01*
X161206026Y-106323738D01*
X161052887Y-106221414D01*
X160882727Y-106150932D01*
X160702087Y-106115000D01*
X160517909Y-106115000D01*
X160337269Y-106150932D01*
X160167109Y-106221414D01*
X160013970Y-106323738D01*
X159883736Y-106453972D01*
X159781412Y-106607111D01*
X159710930Y-106777271D01*
X159674998Y-106957911D01*
X147685000Y-106957911D01*
X147685000Y-106857911D01*
X147649068Y-106677271D01*
X147578586Y-106507111D01*
X147476262Y-106353972D01*
X147346028Y-106223738D01*
X147192889Y-106121414D01*
X147022729Y-106050932D01*
X146842089Y-106015000D01*
X146657911Y-106015000D01*
X146477271Y-106050932D01*
X146307111Y-106121414D01*
X146153972Y-106223738D01*
X146023738Y-106353972D01*
X145921414Y-106507111D01*
X145850932Y-106677271D01*
X145815000Y-106857911D01*
X130660000Y-106857911D01*
X130660000Y-104307911D01*
X132795000Y-104307911D01*
X132795000Y-104492089D01*
X132830932Y-104672729D01*
X132901414Y-104842889D01*
X133003738Y-104996028D01*
X133133972Y-105126262D01*
X133287111Y-105228586D01*
X133457271Y-105299068D01*
X133637911Y-105335000D01*
X133822089Y-105335000D01*
X134002729Y-105299068D01*
X134172889Y-105228586D01*
X134326028Y-105126262D01*
X134456262Y-104996028D01*
X134558586Y-104842889D01*
X134629068Y-104672729D01*
X134647928Y-104577911D01*
X135425000Y-104577911D01*
X135425000Y-104762089D01*
X135460932Y-104942729D01*
X135531414Y-105112889D01*
X135633738Y-105266028D01*
X135763972Y-105396262D01*
X135917111Y-105498586D01*
X136087271Y-105569068D01*
X136267911Y-105605000D01*
X136452089Y-105605000D01*
X136632729Y-105569068D01*
X136802889Y-105498586D01*
X136848797Y-105467911D01*
X138095000Y-105467911D01*
X138095000Y-105652089D01*
X138130932Y-105832729D01*
X138201414Y-106002889D01*
X138303738Y-106156028D01*
X138433972Y-106286262D01*
X138587111Y-106388586D01*
X138757271Y-106459068D01*
X138937911Y-106495000D01*
X139122089Y-106495000D01*
X139302729Y-106459068D01*
X139472889Y-106388586D01*
X139626028Y-106286262D01*
X139756262Y-106156028D01*
X139858586Y-106002889D01*
X139929068Y-105832729D01*
X139965000Y-105652089D01*
X139965000Y-105467911D01*
X139929068Y-105287271D01*
X139858586Y-105117111D01*
X139756262Y-104963972D01*
X139750197Y-104957907D01*
X142625000Y-104957907D01*
X142625000Y-105142085D01*
X142660932Y-105322725D01*
X142731414Y-105492885D01*
X142833738Y-105646024D01*
X142963972Y-105776258D01*
X143117111Y-105878582D01*
X143287271Y-105949064D01*
X143467911Y-105984996D01*
X143652089Y-105984996D01*
X143832729Y-105949064D01*
X144002889Y-105878582D01*
X144156028Y-105776258D01*
X144286262Y-105646024D01*
X144388586Y-105492885D01*
X144459068Y-105322725D01*
X144495000Y-105142085D01*
X144495000Y-104957907D01*
X144459068Y-104777267D01*
X144388586Y-104607107D01*
X144286262Y-104453968D01*
X144156028Y-104323734D01*
X144002889Y-104221410D01*
X143832729Y-104150928D01*
X143652089Y-104114996D01*
X143467911Y-104114996D01*
X143287271Y-104150928D01*
X143117111Y-104221410D01*
X142963972Y-104323734D01*
X142833738Y-104453968D01*
X142731414Y-104607107D01*
X142660932Y-104777267D01*
X142625000Y-104957907D01*
X139750197Y-104957907D01*
X139626028Y-104833738D01*
X139472889Y-104731414D01*
X139302729Y-104660932D01*
X139122089Y-104625000D01*
X138937911Y-104625000D01*
X138757271Y-104660932D01*
X138587111Y-104731414D01*
X138433972Y-104833738D01*
X138303738Y-104963972D01*
X138201414Y-105117111D01*
X138130932Y-105287271D01*
X138095000Y-105467911D01*
X136848797Y-105467911D01*
X136956028Y-105396262D01*
X137086262Y-105266028D01*
X137188586Y-105112889D01*
X137259068Y-104942729D01*
X137295000Y-104762089D01*
X137295000Y-104577911D01*
X137259068Y-104397271D01*
X137206903Y-104271333D01*
X137248570Y-104208974D01*
X137319052Y-104038814D01*
X137354984Y-103858174D01*
X137354984Y-103673996D01*
X137327915Y-103537911D01*
X146325000Y-103537911D01*
X146325000Y-103722089D01*
X146360932Y-103902729D01*
X146431414Y-104072889D01*
X146533738Y-104226028D01*
X146663972Y-104356262D01*
X146817111Y-104458586D01*
X146987271Y-104529068D01*
X147167911Y-104565000D01*
X147352089Y-104565000D01*
X147532729Y-104529068D01*
X147702889Y-104458586D01*
X147856028Y-104356262D01*
X147986262Y-104226028D01*
X148088586Y-104072889D01*
X148159068Y-103902729D01*
X148195000Y-103722089D01*
X148195000Y-103537911D01*
X148159068Y-103357271D01*
X148151049Y-103337911D01*
X148475004Y-103337911D01*
X148475004Y-103522089D01*
X148510936Y-103702729D01*
X148581418Y-103872889D01*
X148683742Y-104026028D01*
X148813976Y-104156262D01*
X148967115Y-104258586D01*
X149137275Y-104329068D01*
X149317915Y-104365000D01*
X149502093Y-104365000D01*
X149682733Y-104329068D01*
X149782095Y-104287911D01*
X151145000Y-104287911D01*
X151145000Y-104472089D01*
X151180932Y-104652729D01*
X151251414Y-104822889D01*
X151353738Y-104976028D01*
X151483972Y-105106262D01*
X151637111Y-105208586D01*
X151807271Y-105279068D01*
X151987911Y-105315000D01*
X152172089Y-105315000D01*
X152352729Y-105279068D01*
X152522889Y-105208586D01*
X152676028Y-105106262D01*
X152806262Y-104976028D01*
X152908586Y-104822889D01*
X152979068Y-104652729D01*
X152993306Y-104581152D01*
X153157271Y-104649068D01*
X153337911Y-104685000D01*
X153475000Y-104685000D01*
X153475000Y-104752091D01*
X153510932Y-104932731D01*
X153581414Y-105102891D01*
X153683738Y-105256030D01*
X153813972Y-105386264D01*
X153967111Y-105488588D01*
X154137271Y-105559070D01*
X154317911Y-105595002D01*
X154502089Y-105595002D01*
X154682729Y-105559070D01*
X154852889Y-105488588D01*
X155006028Y-105386264D01*
X155136262Y-105256030D01*
X155238586Y-105102891D01*
X155309068Y-104932731D01*
X155345000Y-104752091D01*
X155345000Y-104567913D01*
X155309068Y-104387273D01*
X155238586Y-104217113D01*
X155136262Y-104063974D01*
X155006028Y-103933740D01*
X154852889Y-103831416D01*
X154682729Y-103760934D01*
X154562431Y-103737005D01*
X154677731Y-103714070D01*
X154847891Y-103643588D01*
X155001030Y-103541264D01*
X155131264Y-103411030D01*
X155233588Y-103257891D01*
X155304070Y-103087731D01*
X155327903Y-102967911D01*
X157515000Y-102967911D01*
X157515000Y-103152089D01*
X157550932Y-103332729D01*
X157621414Y-103502889D01*
X157723738Y-103656028D01*
X157853972Y-103786262D01*
X158007111Y-103888586D01*
X158177271Y-103959068D01*
X158357911Y-103995000D01*
X158542089Y-103995000D01*
X158722729Y-103959068D01*
X158892889Y-103888586D01*
X159046028Y-103786262D01*
X159176262Y-103656028D01*
X159278586Y-103502889D01*
X159349068Y-103332729D01*
X159385000Y-103152089D01*
X159385000Y-102967911D01*
X159349068Y-102787271D01*
X159278586Y-102617111D01*
X159176262Y-102463972D01*
X159046028Y-102333738D01*
X158892889Y-102231414D01*
X158722729Y-102160932D01*
X158542089Y-102125000D01*
X158357911Y-102125000D01*
X158177271Y-102160932D01*
X158007111Y-102231414D01*
X157853972Y-102333738D01*
X157723738Y-102463972D01*
X157621414Y-102617111D01*
X157550932Y-102787271D01*
X157515000Y-102967911D01*
X155327903Y-102967911D01*
X155340002Y-102907091D01*
X155340002Y-102722913D01*
X155304070Y-102542273D01*
X155233588Y-102372113D01*
X155131264Y-102218974D01*
X155001030Y-102088740D01*
X154847891Y-101986416D01*
X154677731Y-101915934D01*
X154497091Y-101880002D01*
X154312913Y-101880002D01*
X154132273Y-101915934D01*
X153962113Y-101986416D01*
X153808974Y-102088740D01*
X153678740Y-102218974D01*
X153576416Y-102372113D01*
X153505934Y-102542273D01*
X153470002Y-102722913D01*
X153470002Y-102815000D01*
X153337911Y-102815000D01*
X153157271Y-102850932D01*
X152987111Y-102921414D01*
X152833972Y-103023738D01*
X152703738Y-103153972D01*
X152601414Y-103307111D01*
X152530932Y-103477271D01*
X152516694Y-103548848D01*
X152352729Y-103480932D01*
X152172089Y-103445000D01*
X151987911Y-103445000D01*
X151807271Y-103480932D01*
X151637111Y-103551414D01*
X151483972Y-103653738D01*
X151353738Y-103783972D01*
X151251414Y-103937111D01*
X151180932Y-104107271D01*
X151145000Y-104287911D01*
X149782095Y-104287911D01*
X149852893Y-104258586D01*
X150006032Y-104156262D01*
X150136266Y-104026028D01*
X150238590Y-103872889D01*
X150309072Y-103702729D01*
X150345004Y-103522089D01*
X150345004Y-103337911D01*
X150309072Y-103157271D01*
X150238590Y-102987111D01*
X150136266Y-102833972D01*
X150006032Y-102703738D01*
X149852893Y-102601414D01*
X149682733Y-102530932D01*
X149502093Y-102495000D01*
X149317915Y-102495000D01*
X149137275Y-102530932D01*
X148967115Y-102601414D01*
X148813976Y-102703738D01*
X148683742Y-102833972D01*
X148581418Y-102987111D01*
X148510936Y-103157271D01*
X148475004Y-103337911D01*
X148151049Y-103337911D01*
X148088586Y-103187111D01*
X147986262Y-103033972D01*
X147856028Y-102903738D01*
X147702889Y-102801414D01*
X147532729Y-102730932D01*
X147352089Y-102695000D01*
X147167911Y-102695000D01*
X146987271Y-102730932D01*
X146817111Y-102801414D01*
X146663972Y-102903738D01*
X146533738Y-103033972D01*
X146431414Y-103187111D01*
X146360932Y-103357271D01*
X146325000Y-103537911D01*
X137327915Y-103537911D01*
X137319052Y-103493356D01*
X137248570Y-103323196D01*
X137146246Y-103170057D01*
X137016012Y-103039823D01*
X136862873Y-102937499D01*
X136692713Y-102867017D01*
X136512073Y-102831085D01*
X136327895Y-102831085D01*
X136147255Y-102867017D01*
X135977095Y-102937499D01*
X135823956Y-103039823D01*
X135693722Y-103170057D01*
X135591398Y-103323196D01*
X135520916Y-103493356D01*
X135484984Y-103673996D01*
X135484984Y-103858174D01*
X135520916Y-104038814D01*
X135573081Y-104164752D01*
X135531414Y-104227111D01*
X135460932Y-104397271D01*
X135425000Y-104577911D01*
X134647928Y-104577911D01*
X134665000Y-104492089D01*
X134665000Y-104307911D01*
X134629068Y-104127271D01*
X134558586Y-103957111D01*
X134456262Y-103803972D01*
X134326028Y-103673738D01*
X134172889Y-103571414D01*
X134002729Y-103500932D01*
X133822089Y-103465000D01*
X133637911Y-103465000D01*
X133457271Y-103500932D01*
X133287111Y-103571414D01*
X133133972Y-103673738D01*
X133003738Y-103803972D01*
X132901414Y-103957111D01*
X132830932Y-104127271D01*
X132795000Y-104307911D01*
X130660000Y-104307911D01*
X130660000Y-100457911D01*
X140325000Y-100457911D01*
X140325000Y-100642089D01*
X140360932Y-100822729D01*
X140431414Y-100992889D01*
X140533738Y-101146028D01*
X140663972Y-101276262D01*
X140817111Y-101378586D01*
X140987271Y-101449068D01*
X141167911Y-101485000D01*
X141352089Y-101485000D01*
X141532729Y-101449068D01*
X141702889Y-101378586D01*
X141856028Y-101276262D01*
X141986262Y-101146028D01*
X142088586Y-100992889D01*
X142159068Y-100822729D01*
X142183118Y-100701825D01*
X142324809Y-100730010D01*
X142508987Y-100730010D01*
X142689627Y-100694078D01*
X142859787Y-100623596D01*
X143012926Y-100521272D01*
X143143160Y-100391038D01*
X143245484Y-100237899D01*
X143303468Y-100097911D01*
X144685000Y-100097911D01*
X144685000Y-100282089D01*
X144720932Y-100462729D01*
X144791414Y-100632889D01*
X144893738Y-100786028D01*
X145023972Y-100916262D01*
X145124395Y-100983363D01*
X145063972Y-101023736D01*
X144933738Y-101153970D01*
X144831414Y-101307109D01*
X144760932Y-101477269D01*
X144725000Y-101657909D01*
X144725000Y-101842087D01*
X144760932Y-102022727D01*
X144831414Y-102192887D01*
X144933738Y-102346026D01*
X145063972Y-102476260D01*
X145217111Y-102578584D01*
X145387271Y-102649066D01*
X145567911Y-102684998D01*
X145752089Y-102684998D01*
X145932729Y-102649066D01*
X146102889Y-102578584D01*
X146256028Y-102476260D01*
X146386262Y-102346026D01*
X146488586Y-102192887D01*
X146559068Y-102022727D01*
X146577928Y-101927911D01*
X150995000Y-101927911D01*
X150995000Y-102112089D01*
X151030932Y-102292729D01*
X151101414Y-102462889D01*
X151203738Y-102616028D01*
X151333972Y-102746262D01*
X151487111Y-102848586D01*
X151657271Y-102919068D01*
X151837911Y-102955000D01*
X152022089Y-102955000D01*
X152202729Y-102919068D01*
X152372889Y-102848586D01*
X152526028Y-102746262D01*
X152656262Y-102616028D01*
X152758586Y-102462889D01*
X152829068Y-102292729D01*
X152865000Y-102112089D01*
X152865000Y-101927911D01*
X152829068Y-101747271D01*
X152816907Y-101717911D01*
X160275000Y-101717911D01*
X160275000Y-101902089D01*
X160310932Y-102082729D01*
X160381414Y-102252889D01*
X160483738Y-102406028D01*
X160613972Y-102536262D01*
X160642432Y-102555278D01*
X160529690Y-102668020D01*
X160427366Y-102821159D01*
X160356884Y-102991319D01*
X160320952Y-103171959D01*
X160320952Y-103356137D01*
X160356884Y-103536777D01*
X160427366Y-103706937D01*
X160529690Y-103860076D01*
X160659924Y-103990310D01*
X160813063Y-104092634D01*
X160983223Y-104163116D01*
X161163863Y-104199048D01*
X161348041Y-104199048D01*
X161528681Y-104163116D01*
X161698841Y-104092634D01*
X161851980Y-103990310D01*
X161982214Y-103860076D01*
X162084538Y-103706937D01*
X162155020Y-103536777D01*
X162180653Y-103407911D01*
X165355000Y-103407911D01*
X165355000Y-103592089D01*
X165390932Y-103772729D01*
X165461414Y-103942889D01*
X165563738Y-104096028D01*
X165693972Y-104226262D01*
X165847111Y-104328586D01*
X166017271Y-104399068D01*
X166197911Y-104435000D01*
X166382089Y-104435000D01*
X166562729Y-104399068D01*
X166732889Y-104328586D01*
X166886028Y-104226262D01*
X167016262Y-104096028D01*
X167118586Y-103942889D01*
X167189068Y-103772729D01*
X167225000Y-103592089D01*
X167225000Y-103407911D01*
X167189068Y-103227271D01*
X167118586Y-103057111D01*
X167016262Y-102903972D01*
X166886028Y-102773738D01*
X166732889Y-102671414D01*
X166562729Y-102600932D01*
X166382089Y-102565000D01*
X166197911Y-102565000D01*
X166017271Y-102600932D01*
X165847111Y-102671414D01*
X165693972Y-102773738D01*
X165563738Y-102903972D01*
X165461414Y-103057111D01*
X165390932Y-103227271D01*
X165355000Y-103407911D01*
X162180653Y-103407911D01*
X162190952Y-103356137D01*
X162190952Y-103171959D01*
X162155020Y-102991319D01*
X162084538Y-102821159D01*
X161982214Y-102668020D01*
X161851980Y-102537786D01*
X161823520Y-102518770D01*
X161936262Y-102406028D01*
X162038586Y-102252889D01*
X162109068Y-102082729D01*
X162145000Y-101902089D01*
X162145000Y-101717911D01*
X162109068Y-101537271D01*
X162038586Y-101367111D01*
X162010403Y-101324932D01*
X162078586Y-101222889D01*
X162149068Y-101052729D01*
X162185000Y-100872089D01*
X162185000Y-100687911D01*
X162149068Y-100507271D01*
X162078586Y-100337111D01*
X161976262Y-100183972D01*
X161846028Y-100053738D01*
X161692889Y-99951414D01*
X161522729Y-99880932D01*
X161342089Y-99845000D01*
X161157911Y-99845000D01*
X160977271Y-99880932D01*
X160807111Y-99951414D01*
X160653972Y-100053738D01*
X160523738Y-100183972D01*
X160421414Y-100337111D01*
X160350932Y-100507271D01*
X160315000Y-100687911D01*
X160315000Y-100872089D01*
X160350932Y-101052729D01*
X160421414Y-101222889D01*
X160449597Y-101265068D01*
X160381414Y-101367111D01*
X160310932Y-101537271D01*
X160275000Y-101717911D01*
X152816907Y-101717911D01*
X152758586Y-101577111D01*
X152656262Y-101423972D01*
X152526028Y-101293738D01*
X152372889Y-101191414D01*
X152202729Y-101120932D01*
X152022089Y-101085000D01*
X151837911Y-101085000D01*
X151657271Y-101120932D01*
X151487111Y-101191414D01*
X151333972Y-101293738D01*
X151203738Y-101423972D01*
X151101414Y-101577111D01*
X151030932Y-101747271D01*
X150995000Y-101927911D01*
X146577928Y-101927911D01*
X146595000Y-101842087D01*
X146595000Y-101657909D01*
X146559068Y-101477269D01*
X146488586Y-101307109D01*
X146386262Y-101153970D01*
X146256028Y-101023736D01*
X146155605Y-100956635D01*
X146216028Y-100916262D01*
X146346262Y-100786028D01*
X146448586Y-100632889D01*
X146519068Y-100462729D01*
X146555000Y-100282089D01*
X146555000Y-100097911D01*
X146519068Y-99917271D01*
X146448586Y-99747111D01*
X146346262Y-99593972D01*
X146216028Y-99463738D01*
X146062889Y-99361414D01*
X145892729Y-99290932D01*
X145712089Y-99255000D01*
X145527911Y-99255000D01*
X145347271Y-99290932D01*
X145177111Y-99361414D01*
X145023972Y-99463738D01*
X144893738Y-99593972D01*
X144791414Y-99747111D01*
X144720932Y-99917271D01*
X144685000Y-100097911D01*
X143303468Y-100097911D01*
X143315966Y-100067739D01*
X143351898Y-99887099D01*
X143351898Y-99702921D01*
X143315966Y-99522281D01*
X143245484Y-99352121D01*
X143143160Y-99198982D01*
X143102089Y-99157911D01*
X156015000Y-99157911D01*
X156015000Y-99342089D01*
X156050932Y-99522729D01*
X156121414Y-99692889D01*
X156223738Y-99846028D01*
X156353972Y-99976262D01*
X156507111Y-100078586D01*
X156677271Y-100149068D01*
X156857911Y-100185000D01*
X157042089Y-100185000D01*
X157222729Y-100149068D01*
X157392889Y-100078586D01*
X157546028Y-99976262D01*
X157676262Y-99846028D01*
X157778586Y-99692889D01*
X157849068Y-99522729D01*
X157871907Y-99407911D01*
X165295002Y-99407911D01*
X165295002Y-99592089D01*
X165330934Y-99772729D01*
X165401416Y-99942889D01*
X165503740Y-100096028D01*
X165633974Y-100226262D01*
X165787113Y-100328586D01*
X165957273Y-100399068D01*
X166137913Y-100435000D01*
X166322091Y-100435000D01*
X166502731Y-100399068D01*
X166672891Y-100328586D01*
X166826030Y-100226262D01*
X166956264Y-100096028D01*
X167058588Y-99942889D01*
X167129070Y-99772729D01*
X167165002Y-99592089D01*
X167165002Y-99407911D01*
X167129070Y-99227271D01*
X167058588Y-99057111D01*
X166956264Y-98903972D01*
X166826030Y-98773738D01*
X166672891Y-98671414D01*
X166502731Y-98600932D01*
X166322091Y-98565000D01*
X166137913Y-98565000D01*
X165957273Y-98600932D01*
X165787113Y-98671414D01*
X165633974Y-98773738D01*
X165503740Y-98903972D01*
X165401416Y-99057111D01*
X165330934Y-99227271D01*
X165295002Y-99407911D01*
X157871907Y-99407911D01*
X157885000Y-99342089D01*
X157885000Y-99157911D01*
X157849068Y-98977271D01*
X157778586Y-98807111D01*
X157676262Y-98653972D01*
X157546028Y-98523738D01*
X157392889Y-98421414D01*
X157222729Y-98350932D01*
X157042089Y-98315000D01*
X156857911Y-98315000D01*
X156677271Y-98350932D01*
X156507111Y-98421414D01*
X156353972Y-98523738D01*
X156223738Y-98653972D01*
X156121414Y-98807111D01*
X156050932Y-98977271D01*
X156015000Y-99157911D01*
X143102089Y-99157911D01*
X143012926Y-99068748D01*
X142859787Y-98966424D01*
X142689627Y-98895942D01*
X142508987Y-98860010D01*
X142324809Y-98860010D01*
X142144169Y-98895942D01*
X141974009Y-98966424D01*
X141820870Y-99068748D01*
X141690636Y-99198982D01*
X141588312Y-99352121D01*
X141517830Y-99522281D01*
X141493780Y-99643185D01*
X141352089Y-99615000D01*
X141167911Y-99615000D01*
X140987271Y-99650932D01*
X140817111Y-99721414D01*
X140663972Y-99823738D01*
X140533738Y-99953972D01*
X140431414Y-100107111D01*
X140360932Y-100277271D01*
X140325000Y-100457911D01*
X130660000Y-100457911D01*
X130660000Y-96605739D01*
X130753738Y-96746028D01*
X130883972Y-96876262D01*
X131037111Y-96978586D01*
X131207271Y-97049068D01*
X131387911Y-97085000D01*
X131572089Y-97085000D01*
X131752729Y-97049068D01*
X131922889Y-96978586D01*
X132076028Y-96876262D01*
X132206262Y-96746028D01*
X132308586Y-96592889D01*
X132379068Y-96422729D01*
X132382015Y-96407909D01*
X132795000Y-96407909D01*
X132795000Y-96592087D01*
X132830932Y-96772727D01*
X132901414Y-96942887D01*
X132939576Y-97000000D01*
X132901416Y-97057111D01*
X132830934Y-97227271D01*
X132795002Y-97407911D01*
X132795002Y-97592089D01*
X132830934Y-97772729D01*
X132901416Y-97942889D01*
X133003740Y-98096028D01*
X133133974Y-98226262D01*
X133287113Y-98328586D01*
X133457273Y-98399068D01*
X133637913Y-98435000D01*
X133822091Y-98435000D01*
X134002731Y-98399068D01*
X134172891Y-98328586D01*
X134326030Y-98226262D01*
X134456264Y-98096028D01*
X134558588Y-97942889D01*
X134629070Y-97772729D01*
X134632017Y-97757909D01*
X136775000Y-97757909D01*
X136775000Y-97942087D01*
X136810932Y-98122727D01*
X136881414Y-98292887D01*
X136983738Y-98446026D01*
X137113972Y-98576260D01*
X137267111Y-98678584D01*
X137437271Y-98749066D01*
X137617911Y-98784998D01*
X137802089Y-98784998D01*
X137982729Y-98749066D01*
X138152889Y-98678584D01*
X138306028Y-98576260D01*
X138436262Y-98446026D01*
X138538586Y-98292887D01*
X138609068Y-98122727D01*
X138645000Y-97942087D01*
X138645000Y-97757911D01*
X139295000Y-97757911D01*
X139295000Y-97942089D01*
X139330932Y-98122729D01*
X139401414Y-98292889D01*
X139503738Y-98446028D01*
X139633972Y-98576262D01*
X139787111Y-98678586D01*
X139957271Y-98749068D01*
X140137911Y-98785000D01*
X140322089Y-98785000D01*
X140502729Y-98749068D01*
X140672889Y-98678586D01*
X140826028Y-98576262D01*
X140956262Y-98446028D01*
X141058586Y-98292889D01*
X141129068Y-98122729D01*
X141143950Y-98047909D01*
X147115000Y-98047909D01*
X147115000Y-98232087D01*
X147150932Y-98412727D01*
X147221414Y-98582887D01*
X147323738Y-98736026D01*
X147453972Y-98866260D01*
X147607111Y-98968584D01*
X147777271Y-99039066D01*
X147957911Y-99074998D01*
X148142089Y-99074998D01*
X148322729Y-99039066D01*
X148492889Y-98968584D01*
X148646028Y-98866260D01*
X148776262Y-98736026D01*
X148878586Y-98582887D01*
X148949068Y-98412727D01*
X148985000Y-98232087D01*
X148985000Y-98047909D01*
X148977044Y-98007911D01*
X151015000Y-98007911D01*
X151015000Y-98192089D01*
X151050932Y-98372729D01*
X151121414Y-98542889D01*
X151223738Y-98696028D01*
X151353972Y-98826262D01*
X151507111Y-98928586D01*
X151677271Y-98999068D01*
X151857911Y-99035000D01*
X152042089Y-99035000D01*
X152222729Y-98999068D01*
X152392889Y-98928586D01*
X152546028Y-98826262D01*
X152676262Y-98696028D01*
X152778586Y-98542889D01*
X152849068Y-98372729D01*
X152885000Y-98192089D01*
X152885000Y-98007911D01*
X152849068Y-97827271D01*
X152778586Y-97657111D01*
X152676262Y-97503972D01*
X152546028Y-97373738D01*
X152392889Y-97271414D01*
X152222729Y-97200932D01*
X152042089Y-97165000D01*
X151857911Y-97165000D01*
X151677271Y-97200932D01*
X151507111Y-97271414D01*
X151353972Y-97373738D01*
X151223738Y-97503972D01*
X151121414Y-97657111D01*
X151050932Y-97827271D01*
X151015000Y-98007911D01*
X148977044Y-98007911D01*
X148949068Y-97867269D01*
X148943236Y-97853190D01*
X149102281Y-97919068D01*
X149282921Y-97955000D01*
X149467099Y-97955000D01*
X149647739Y-97919068D01*
X149817899Y-97848586D01*
X149971038Y-97746262D01*
X150101272Y-97616028D01*
X150203596Y-97462889D01*
X150274078Y-97292729D01*
X150310010Y-97112089D01*
X150310010Y-96927911D01*
X150274078Y-96747271D01*
X150203596Y-96577111D01*
X150151784Y-96499568D01*
X152299990Y-96499568D01*
X152299990Y-96683746D01*
X152335922Y-96864386D01*
X152406404Y-97034546D01*
X152508728Y-97187685D01*
X152638962Y-97317919D01*
X152792101Y-97420243D01*
X152962261Y-97490725D01*
X153142901Y-97526657D01*
X153284999Y-97526657D01*
X153284999Y-97612088D01*
X153320931Y-97792728D01*
X153391413Y-97962888D01*
X153493737Y-98116027D01*
X153623971Y-98246261D01*
X153777110Y-98348585D01*
X153947270Y-98419067D01*
X154127910Y-98454999D01*
X154312088Y-98454999D01*
X154492728Y-98419067D01*
X154662888Y-98348585D01*
X154816027Y-98246261D01*
X154946261Y-98116027D01*
X155048585Y-97962888D01*
X155119067Y-97792728D01*
X155154999Y-97612088D01*
X155154999Y-97427910D01*
X155119067Y-97247270D01*
X155048585Y-97077110D01*
X154946261Y-96923971D01*
X154816027Y-96793737D01*
X154662888Y-96691413D01*
X154492728Y-96620931D01*
X154312088Y-96584999D01*
X154169990Y-96584999D01*
X154169990Y-96499568D01*
X154150034Y-96399242D01*
X154159271Y-96403068D01*
X154339911Y-96439000D01*
X154524089Y-96439000D01*
X154704729Y-96403068D01*
X154874889Y-96332586D01*
X155028028Y-96230262D01*
X155120379Y-96137911D01*
X157515000Y-96137911D01*
X157515000Y-96322089D01*
X157550932Y-96502729D01*
X157621414Y-96672889D01*
X157723738Y-96826028D01*
X157853972Y-96956262D01*
X158007111Y-97058586D01*
X158177271Y-97129068D01*
X158357911Y-97165000D01*
X158542089Y-97165000D01*
X158722729Y-97129068D01*
X158892889Y-97058586D01*
X159046028Y-96956262D01*
X159176262Y-96826028D01*
X159278586Y-96672889D01*
X159349068Y-96502729D01*
X159367927Y-96407919D01*
X165345000Y-96407919D01*
X165345000Y-96592097D01*
X165380932Y-96772737D01*
X165451414Y-96942897D01*
X165553738Y-97096036D01*
X165683972Y-97226270D01*
X165837111Y-97328594D01*
X166007271Y-97399076D01*
X166187911Y-97435008D01*
X166372089Y-97435008D01*
X166552729Y-97399076D01*
X166722889Y-97328594D01*
X166876028Y-97226270D01*
X167006262Y-97096036D01*
X167108586Y-96942897D01*
X167179068Y-96772737D01*
X167215000Y-96592097D01*
X167215000Y-96407919D01*
X167179068Y-96227279D01*
X167108586Y-96057119D01*
X167006262Y-95903980D01*
X166876028Y-95773746D01*
X166722889Y-95671422D01*
X166552729Y-95600940D01*
X166372089Y-95565008D01*
X166187911Y-95565008D01*
X166007271Y-95600940D01*
X165837111Y-95671422D01*
X165683972Y-95773746D01*
X165553738Y-95903980D01*
X165451414Y-96057119D01*
X165380932Y-96227279D01*
X165345000Y-96407919D01*
X159367927Y-96407919D01*
X159385000Y-96322089D01*
X159385000Y-96137911D01*
X159349068Y-95957271D01*
X159278586Y-95787111D01*
X159176262Y-95633972D01*
X159046028Y-95503738D01*
X158892889Y-95401414D01*
X158722729Y-95330932D01*
X158542089Y-95295000D01*
X158357911Y-95295000D01*
X158177271Y-95330932D01*
X158007111Y-95401414D01*
X157853972Y-95503738D01*
X157723738Y-95633972D01*
X157621414Y-95787111D01*
X157550932Y-95957271D01*
X157515000Y-96137911D01*
X155120379Y-96137911D01*
X155158262Y-96100028D01*
X155260586Y-95946889D01*
X155331068Y-95776729D01*
X155360860Y-95626958D01*
X155433738Y-95736028D01*
X155563972Y-95866262D01*
X155717111Y-95968586D01*
X155887271Y-96039068D01*
X156067911Y-96075000D01*
X156252089Y-96075000D01*
X156432729Y-96039068D01*
X156602889Y-95968586D01*
X156756028Y-95866262D01*
X156886262Y-95736028D01*
X156988586Y-95582889D01*
X157059068Y-95412729D01*
X157095000Y-95232089D01*
X157095000Y-95047911D01*
X157059068Y-94867271D01*
X156988586Y-94697111D01*
X156886262Y-94543972D01*
X156756028Y-94413738D01*
X156732342Y-94397911D01*
X162785000Y-94397911D01*
X162785000Y-94582089D01*
X162820932Y-94762729D01*
X162891414Y-94932889D01*
X162993738Y-95086028D01*
X163123972Y-95216262D01*
X163277111Y-95318586D01*
X163447271Y-95389068D01*
X163627911Y-95425000D01*
X163812089Y-95425000D01*
X163992729Y-95389068D01*
X164162889Y-95318586D01*
X164316028Y-95216262D01*
X164446262Y-95086028D01*
X164548586Y-94932889D01*
X164619068Y-94762729D01*
X164655000Y-94582089D01*
X164655000Y-94397911D01*
X164619068Y-94217271D01*
X164548586Y-94047111D01*
X164446262Y-93893972D01*
X164316028Y-93763738D01*
X164162889Y-93661414D01*
X163992729Y-93590932D01*
X163812089Y-93555000D01*
X163627911Y-93555000D01*
X163447271Y-93590932D01*
X163277111Y-93661414D01*
X163123972Y-93763738D01*
X162993738Y-93893972D01*
X162891414Y-94047111D01*
X162820932Y-94217271D01*
X162785000Y-94397911D01*
X156732342Y-94397911D01*
X156602889Y-94311414D01*
X156432729Y-94240932D01*
X156252089Y-94205000D01*
X156067911Y-94205000D01*
X155887271Y-94240932D01*
X155717111Y-94311414D01*
X155563972Y-94413738D01*
X155433738Y-94543972D01*
X155331414Y-94697111D01*
X155260932Y-94867271D01*
X155231140Y-95017042D01*
X155158262Y-94907972D01*
X155028028Y-94777738D01*
X154874889Y-94675414D01*
X154704729Y-94604932D01*
X154524089Y-94569000D01*
X154339911Y-94569000D01*
X154159271Y-94604932D01*
X153989111Y-94675414D01*
X153835972Y-94777738D01*
X153705738Y-94907972D01*
X153603414Y-95061111D01*
X153532932Y-95231271D01*
X153497000Y-95411911D01*
X153497000Y-95596089D01*
X153516956Y-95696415D01*
X153507719Y-95692589D01*
X153327079Y-95656657D01*
X153142901Y-95656657D01*
X152962261Y-95692589D01*
X152792101Y-95763071D01*
X152638962Y-95865395D01*
X152508728Y-95995629D01*
X152406404Y-96148768D01*
X152335922Y-96318928D01*
X152299990Y-96499568D01*
X150151784Y-96499568D01*
X150101272Y-96423972D01*
X149971038Y-96293738D01*
X149817899Y-96191414D01*
X149647739Y-96120932D01*
X149467099Y-96085000D01*
X149386706Y-96085000D01*
X149429068Y-95982729D01*
X149465000Y-95802089D01*
X149465000Y-95617911D01*
X149429068Y-95437271D01*
X149358586Y-95267111D01*
X149256262Y-95113972D01*
X149126028Y-94983738D01*
X148972889Y-94881414D01*
X148802729Y-94810932D01*
X148622089Y-94775000D01*
X148437911Y-94775000D01*
X148257271Y-94810932D01*
X148087111Y-94881414D01*
X147933972Y-94983738D01*
X147803738Y-95113972D01*
X147701414Y-95267111D01*
X147630932Y-95437271D01*
X147595000Y-95617911D01*
X147595000Y-95802089D01*
X147630932Y-95982729D01*
X147701414Y-96152889D01*
X147803738Y-96306028D01*
X147933972Y-96436262D01*
X148087111Y-96538586D01*
X148257271Y-96609068D01*
X148437911Y-96645000D01*
X148518304Y-96645000D01*
X148475942Y-96747271D01*
X148440010Y-96927911D01*
X148440010Y-97112089D01*
X148475942Y-97292729D01*
X148481774Y-97306808D01*
X148322729Y-97240930D01*
X148142089Y-97204998D01*
X147957911Y-97204998D01*
X147777271Y-97240930D01*
X147607111Y-97311412D01*
X147453972Y-97413736D01*
X147323738Y-97543970D01*
X147221414Y-97697109D01*
X147150932Y-97867269D01*
X147115000Y-98047909D01*
X141143950Y-98047909D01*
X141165000Y-97942089D01*
X141165000Y-97757911D01*
X141129068Y-97577271D01*
X141058586Y-97407111D01*
X140956262Y-97253972D01*
X140826028Y-97123738D01*
X140672889Y-97021414D01*
X140502729Y-96950932D01*
X140322089Y-96915000D01*
X140137911Y-96915000D01*
X139957271Y-96950932D01*
X139787111Y-97021414D01*
X139633972Y-97123738D01*
X139503738Y-97253972D01*
X139401414Y-97407111D01*
X139330932Y-97577271D01*
X139295000Y-97757911D01*
X138645000Y-97757911D01*
X138645000Y-97757909D01*
X138609068Y-97577269D01*
X138538586Y-97407109D01*
X138436262Y-97253970D01*
X138306028Y-97123736D01*
X138152889Y-97021412D01*
X137982729Y-96950930D01*
X137802089Y-96914998D01*
X137617911Y-96914998D01*
X137437271Y-96950930D01*
X137267111Y-97021412D01*
X137113972Y-97123736D01*
X136983738Y-97253970D01*
X136881414Y-97407109D01*
X136810932Y-97577269D01*
X136775000Y-97757909D01*
X134632017Y-97757909D01*
X134665002Y-97592089D01*
X134665002Y-97407911D01*
X134629070Y-97227271D01*
X134558588Y-97057111D01*
X134520426Y-96999998D01*
X134558586Y-96942887D01*
X134629068Y-96772727D01*
X134665000Y-96592087D01*
X134665000Y-96407909D01*
X134629068Y-96227269D01*
X134558586Y-96057109D01*
X134456262Y-95903970D01*
X134326028Y-95773736D01*
X134172889Y-95671412D01*
X134002729Y-95600930D01*
X133822089Y-95564998D01*
X133637911Y-95564998D01*
X133457271Y-95600930D01*
X133287111Y-95671412D01*
X133133972Y-95773736D01*
X133003738Y-95903970D01*
X132901414Y-96057109D01*
X132830932Y-96227269D01*
X132795000Y-96407909D01*
X132382015Y-96407909D01*
X132415000Y-96242089D01*
X132415000Y-96057911D01*
X132379068Y-95877271D01*
X132308586Y-95707111D01*
X132206262Y-95553972D01*
X132076028Y-95423738D01*
X131922889Y-95321414D01*
X131752729Y-95250932D01*
X131572089Y-95215000D01*
X131387911Y-95215000D01*
X131207271Y-95250932D01*
X131037111Y-95321414D01*
X130883972Y-95423738D01*
X130753738Y-95553972D01*
X130660000Y-95694261D01*
X130660000Y-94397911D01*
X137385000Y-94397911D01*
X137385000Y-94582089D01*
X137420932Y-94762729D01*
X137491414Y-94932889D01*
X137593738Y-95086028D01*
X137723972Y-95216262D01*
X137877111Y-95318586D01*
X138047271Y-95389068D01*
X138227911Y-95425000D01*
X138412089Y-95425000D01*
X138592729Y-95389068D01*
X138762889Y-95318586D01*
X138916028Y-95216262D01*
X138924379Y-95207911D01*
X141385000Y-95207911D01*
X141385000Y-95392089D01*
X141420932Y-95572729D01*
X141491414Y-95742889D01*
X141593738Y-95896028D01*
X141723972Y-96026262D01*
X141877111Y-96128586D01*
X142047271Y-96199068D01*
X142227911Y-96235000D01*
X142412089Y-96235000D01*
X142592729Y-96199068D01*
X142762889Y-96128586D01*
X142884449Y-96047363D01*
X142963738Y-96166028D01*
X143093972Y-96296262D01*
X143247111Y-96398586D01*
X143417271Y-96469068D01*
X143597911Y-96505000D01*
X143782089Y-96505000D01*
X143962729Y-96469068D01*
X144132889Y-96398586D01*
X144286028Y-96296262D01*
X144416262Y-96166028D01*
X144518586Y-96012889D01*
X144589068Y-95842729D01*
X144595027Y-95812771D01*
X144610932Y-95892729D01*
X144681414Y-96062889D01*
X144783738Y-96216028D01*
X144913972Y-96346262D01*
X145067111Y-96448586D01*
X145237271Y-96519068D01*
X145417911Y-96555000D01*
X145602089Y-96555000D01*
X145782729Y-96519068D01*
X145886682Y-96476010D01*
X145997074Y-96549771D01*
X146167234Y-96620253D01*
X146347874Y-96656185D01*
X146532052Y-96656185D01*
X146712692Y-96620253D01*
X146882852Y-96549771D01*
X147035991Y-96447447D01*
X147166225Y-96317213D01*
X147268549Y-96164074D01*
X147339031Y-95993914D01*
X147374963Y-95813274D01*
X147374963Y-95629096D01*
X147339031Y-95448456D01*
X147268549Y-95278296D01*
X147166225Y-95125157D01*
X147035991Y-94994923D01*
X146882852Y-94892599D01*
X146712692Y-94822117D01*
X146532052Y-94786185D01*
X146347874Y-94786185D01*
X146167234Y-94822117D01*
X146063281Y-94865175D01*
X145952889Y-94791414D01*
X145782729Y-94720932D01*
X145602089Y-94685000D01*
X145417911Y-94685000D01*
X145237271Y-94720932D01*
X145067111Y-94791414D01*
X144913972Y-94893738D01*
X144783738Y-95023972D01*
X144681414Y-95177111D01*
X144610932Y-95347271D01*
X144604973Y-95377229D01*
X144589068Y-95297271D01*
X144518586Y-95127111D01*
X144416262Y-94973972D01*
X144286028Y-94843738D01*
X144132889Y-94741414D01*
X143962729Y-94670932D01*
X143782089Y-94635000D01*
X143597911Y-94635000D01*
X143417271Y-94670932D01*
X143247111Y-94741414D01*
X143125551Y-94822637D01*
X143046262Y-94703972D01*
X142916028Y-94573738D01*
X142762889Y-94471414D01*
X142592729Y-94400932D01*
X142412089Y-94365000D01*
X142227911Y-94365000D01*
X142047271Y-94400932D01*
X141877111Y-94471414D01*
X141723972Y-94573738D01*
X141593738Y-94703972D01*
X141491414Y-94857111D01*
X141420932Y-95027271D01*
X141385000Y-95207911D01*
X138924379Y-95207911D01*
X139046262Y-95086028D01*
X139148586Y-94932889D01*
X139219068Y-94762729D01*
X139255000Y-94582089D01*
X139255000Y-94397911D01*
X139219068Y-94217271D01*
X139148586Y-94047111D01*
X139046262Y-93893972D01*
X138916028Y-93763738D01*
X138762889Y-93661414D01*
X138592729Y-93590932D01*
X138412089Y-93555000D01*
X138227911Y-93555000D01*
X138047271Y-93590932D01*
X137877111Y-93661414D01*
X137723972Y-93763738D01*
X137593738Y-93893972D01*
X137491414Y-94047111D01*
X137420932Y-94217271D01*
X137385000Y-94397911D01*
X130660000Y-94397911D01*
X130660000Y-93327911D01*
X135235000Y-93327911D01*
X135235000Y-93512089D01*
X135270932Y-93692729D01*
X135341414Y-93862889D01*
X135443738Y-94016028D01*
X135573972Y-94146262D01*
X135727111Y-94248586D01*
X135897271Y-94319068D01*
X136077911Y-94355000D01*
X136262089Y-94355000D01*
X136442729Y-94319068D01*
X136612889Y-94248586D01*
X136766028Y-94146262D01*
X136896262Y-94016028D01*
X136998586Y-93862889D01*
X137069068Y-93692729D01*
X137105000Y-93512089D01*
X137105000Y-93327911D01*
X137069068Y-93147271D01*
X136998586Y-92977111D01*
X136952349Y-92907911D01*
X142605006Y-92907911D01*
X142605006Y-93092089D01*
X142640938Y-93272729D01*
X142711420Y-93442889D01*
X142813744Y-93596028D01*
X142943978Y-93726262D01*
X143097117Y-93828586D01*
X143267277Y-93899068D01*
X143447917Y-93935000D01*
X143632095Y-93935000D01*
X143812735Y-93899068D01*
X143982895Y-93828586D01*
X144136034Y-93726262D01*
X144266268Y-93596028D01*
X144368592Y-93442889D01*
X144439074Y-93272729D01*
X144475006Y-93092089D01*
X144475006Y-92907911D01*
X144465061Y-92857911D01*
X149005000Y-92857911D01*
X149005000Y-93042089D01*
X149040932Y-93222729D01*
X149111414Y-93392889D01*
X149213738Y-93546028D01*
X149343972Y-93676262D01*
X149497111Y-93778586D01*
X149667271Y-93849068D01*
X149847911Y-93885000D01*
X150032089Y-93885000D01*
X150212729Y-93849068D01*
X150382889Y-93778586D01*
X150409015Y-93761129D01*
X150567988Y-93826977D01*
X150748628Y-93862909D01*
X150932806Y-93862909D01*
X151113446Y-93826977D01*
X151283606Y-93756495D01*
X151436745Y-93654171D01*
X151566979Y-93523937D01*
X151669303Y-93370798D01*
X151739785Y-93200638D01*
X151775717Y-93019998D01*
X151775717Y-92835820D01*
X151739785Y-92655180D01*
X151669303Y-92485020D01*
X151566979Y-92331881D01*
X151436745Y-92201647D01*
X151283606Y-92099323D01*
X151133766Y-92037258D01*
X151150707Y-91952089D01*
X151150707Y-91767911D01*
X151124849Y-91637911D01*
X156705000Y-91637911D01*
X156705000Y-91822089D01*
X156740932Y-92002729D01*
X156811414Y-92172889D01*
X156913738Y-92326028D01*
X157043972Y-92456262D01*
X157197111Y-92558586D01*
X157367271Y-92629068D01*
X157547911Y-92665000D01*
X157715511Y-92665000D01*
X157715511Y-92681582D01*
X157751443Y-92862222D01*
X157821925Y-93032382D01*
X157924249Y-93185521D01*
X158054483Y-93315755D01*
X158207622Y-93418079D01*
X158377782Y-93488561D01*
X158558422Y-93524493D01*
X158742600Y-93524493D01*
X158923240Y-93488561D01*
X159093400Y-93418079D01*
X159246539Y-93315755D01*
X159376773Y-93185521D01*
X159479097Y-93032382D01*
X159549579Y-92862222D01*
X159585511Y-92681582D01*
X159585511Y-92497404D01*
X159549579Y-92316764D01*
X159479097Y-92146604D01*
X159376773Y-91993465D01*
X159246539Y-91863231D01*
X159093400Y-91760907D01*
X158923240Y-91690425D01*
X158742600Y-91654493D01*
X158575000Y-91654493D01*
X158575000Y-91637911D01*
X158539068Y-91457271D01*
X158468586Y-91287111D01*
X158366262Y-91133972D01*
X158236028Y-91003738D01*
X158082889Y-90901414D01*
X157912729Y-90830932D01*
X157732089Y-90795000D01*
X157547911Y-90795000D01*
X157367271Y-90830932D01*
X157197111Y-90901414D01*
X157043972Y-91003738D01*
X156913738Y-91133972D01*
X156811414Y-91287111D01*
X156740932Y-91457271D01*
X156705000Y-91637911D01*
X151124849Y-91637911D01*
X151114775Y-91587271D01*
X151044293Y-91417111D01*
X150941969Y-91263972D01*
X150811735Y-91133738D01*
X150658596Y-91031414D01*
X150488436Y-90960932D01*
X150307796Y-90925000D01*
X150123618Y-90925000D01*
X149942978Y-90960932D01*
X149772818Y-91031414D01*
X149619679Y-91133738D01*
X149489445Y-91263972D01*
X149387121Y-91417111D01*
X149316639Y-91587271D01*
X149280707Y-91767911D01*
X149280707Y-91952089D01*
X149316639Y-92132729D01*
X149352089Y-92218314D01*
X149343972Y-92223738D01*
X149213738Y-92353972D01*
X149111414Y-92507111D01*
X149040932Y-92677271D01*
X149005000Y-92857911D01*
X144465061Y-92857911D01*
X144439074Y-92727271D01*
X144368592Y-92557111D01*
X144266268Y-92403972D01*
X144136034Y-92273738D01*
X143982895Y-92171414D01*
X143812735Y-92100932D01*
X143632095Y-92065000D01*
X143447917Y-92065000D01*
X143267277Y-92100932D01*
X143097117Y-92171414D01*
X142943978Y-92273738D01*
X142813744Y-92403972D01*
X142711420Y-92557111D01*
X142640938Y-92727271D01*
X142605006Y-92907911D01*
X136952349Y-92907911D01*
X136896262Y-92823972D01*
X136766028Y-92693738D01*
X136612889Y-92591414D01*
X136442729Y-92520932D01*
X136262089Y-92485000D01*
X136077911Y-92485000D01*
X135897271Y-92520932D01*
X135727111Y-92591414D01*
X135573972Y-92693738D01*
X135443738Y-92823972D01*
X135341414Y-92977111D01*
X135270932Y-93147271D01*
X135235000Y-93327911D01*
X130660000Y-93327911D01*
X130660000Y-90067911D01*
X140064998Y-90067911D01*
X140064998Y-90252089D01*
X140100930Y-90432729D01*
X140171412Y-90602889D01*
X140273736Y-90756028D01*
X140403970Y-90886262D01*
X140557109Y-90988586D01*
X140727269Y-91059068D01*
X140907909Y-91095000D01*
X141092087Y-91095000D01*
X141272727Y-91059068D01*
X141442887Y-90988586D01*
X141596026Y-90886262D01*
X141726260Y-90756028D01*
X141828584Y-90602889D01*
X141899066Y-90432729D01*
X141934998Y-90252089D01*
X141934998Y-90067911D01*
X141899066Y-89887271D01*
X141828584Y-89717111D01*
X141726260Y-89563972D01*
X141596026Y-89433738D01*
X141442887Y-89331414D01*
X141272727Y-89260932D01*
X141092087Y-89225000D01*
X140907909Y-89225000D01*
X140727269Y-89260932D01*
X140557109Y-89331414D01*
X140403970Y-89433738D01*
X140273736Y-89563972D01*
X140171412Y-89717111D01*
X140100930Y-89887271D01*
X140064998Y-90067911D01*
X130660000Y-90067911D01*
X130660000Y-89057913D01*
X143775000Y-89057913D01*
X143775000Y-89242091D01*
X143810932Y-89422731D01*
X143881414Y-89592891D01*
X143983738Y-89746030D01*
X144113972Y-89876264D01*
X144267111Y-89978588D01*
X144437271Y-90049070D01*
X144617911Y-90085002D01*
X144802089Y-90085002D01*
X144982729Y-90049070D01*
X145009669Y-90037911D01*
X150635000Y-90037911D01*
X150635000Y-90222089D01*
X150670932Y-90402729D01*
X150741414Y-90572889D01*
X150843738Y-90726028D01*
X150973972Y-90856262D01*
X151127111Y-90958586D01*
X151297271Y-91029068D01*
X151477911Y-91065000D01*
X151662089Y-91065000D01*
X151842729Y-91029068D01*
X152012889Y-90958586D01*
X152166028Y-90856262D01*
X152296262Y-90726028D01*
X152398586Y-90572889D01*
X152469068Y-90402729D01*
X152505000Y-90222089D01*
X152505000Y-90037911D01*
X152469068Y-89857271D01*
X152411344Y-89717911D01*
X158339000Y-89717911D01*
X158339000Y-89902089D01*
X158374932Y-90082729D01*
X158445414Y-90252889D01*
X158547738Y-90406028D01*
X158677972Y-90536262D01*
X158831111Y-90638586D01*
X159001271Y-90709068D01*
X159181911Y-90745000D01*
X159366089Y-90745000D01*
X159546729Y-90709068D01*
X159569000Y-90699843D01*
X159591271Y-90709068D01*
X159771911Y-90745000D01*
X159956089Y-90745000D01*
X160136729Y-90709068D01*
X160166002Y-90696943D01*
X160195271Y-90709066D01*
X160375911Y-90744998D01*
X160560089Y-90744998D01*
X160740729Y-90709066D01*
X160765998Y-90698599D01*
X160791271Y-90709068D01*
X160971911Y-90745000D01*
X161156089Y-90745000D01*
X161336729Y-90709068D01*
X161364000Y-90697772D01*
X161391271Y-90709068D01*
X161571911Y-90745000D01*
X161756089Y-90745000D01*
X161936729Y-90709068D01*
X162106889Y-90638586D01*
X162260028Y-90536262D01*
X162390262Y-90406028D01*
X162471763Y-90284053D01*
X162533972Y-90346262D01*
X162687111Y-90448586D01*
X162857271Y-90519068D01*
X163037911Y-90555000D01*
X163222089Y-90555000D01*
X163402729Y-90519068D01*
X163572889Y-90448586D01*
X163726028Y-90346262D01*
X163856262Y-90216028D01*
X163958586Y-90062889D01*
X164029068Y-89892729D01*
X164065000Y-89712089D01*
X164065000Y-89527911D01*
X164029068Y-89347271D01*
X163958586Y-89177111D01*
X163856262Y-89023972D01*
X163726028Y-88893738D01*
X163572889Y-88791414D01*
X163402729Y-88720932D01*
X163222089Y-88685000D01*
X163037911Y-88685000D01*
X162857271Y-88720932D01*
X162687111Y-88791414D01*
X162533972Y-88893738D01*
X162403738Y-89023972D01*
X162322237Y-89145947D01*
X162260028Y-89083738D01*
X162106889Y-88981414D01*
X161936729Y-88910932D01*
X161756089Y-88875000D01*
X161571911Y-88875000D01*
X161391271Y-88910932D01*
X161364000Y-88922228D01*
X161336729Y-88910932D01*
X161156089Y-88875000D01*
X160971911Y-88875000D01*
X160791271Y-88910932D01*
X160766002Y-88921399D01*
X160740729Y-88910930D01*
X160560089Y-88874998D01*
X160375911Y-88874998D01*
X160195271Y-88910930D01*
X160165998Y-88923055D01*
X160136729Y-88910932D01*
X159956089Y-88875000D01*
X159771911Y-88875000D01*
X159591271Y-88910932D01*
X159569000Y-88920157D01*
X159546729Y-88910932D01*
X159366089Y-88875000D01*
X159181911Y-88875000D01*
X159001271Y-88910932D01*
X158831111Y-88981414D01*
X158677972Y-89083738D01*
X158547738Y-89213972D01*
X158445414Y-89367111D01*
X158374932Y-89537271D01*
X158339000Y-89717911D01*
X152411344Y-89717911D01*
X152398586Y-89687111D01*
X152296262Y-89533972D01*
X152166028Y-89403738D01*
X152012889Y-89301414D01*
X151842729Y-89230932D01*
X151662089Y-89195000D01*
X151477911Y-89195000D01*
X151297271Y-89230932D01*
X151127111Y-89301414D01*
X150973972Y-89403738D01*
X150843738Y-89533972D01*
X150741414Y-89687111D01*
X150670932Y-89857271D01*
X150635000Y-90037911D01*
X145009669Y-90037911D01*
X145152889Y-89978588D01*
X145306028Y-89876264D01*
X145436262Y-89746030D01*
X145538586Y-89592891D01*
X145609068Y-89422731D01*
X145645000Y-89242091D01*
X145645000Y-89057913D01*
X145609068Y-88877273D01*
X145538586Y-88707113D01*
X145436262Y-88553974D01*
X145306028Y-88423740D01*
X145152889Y-88321416D01*
X144982729Y-88250934D01*
X144802089Y-88215002D01*
X144617911Y-88215002D01*
X144437271Y-88250934D01*
X144267111Y-88321416D01*
X144113972Y-88423740D01*
X143983738Y-88553974D01*
X143881414Y-88707113D01*
X143810932Y-88877273D01*
X143775000Y-89057913D01*
X130660000Y-89057913D01*
X130660000Y-84490475D01*
X132115000Y-84490475D01*
X132115000Y-85009525D01*
X132216261Y-85518601D01*
X132414893Y-85998141D01*
X132703262Y-86429715D01*
X133070285Y-86796738D01*
X133501859Y-87085107D01*
X133981399Y-87283739D01*
X134490475Y-87385000D01*
X135009525Y-87385000D01*
X135518601Y-87283739D01*
X135998141Y-87085107D01*
X136312797Y-86874860D01*
X142868051Y-86874860D01*
X142868051Y-87059038D01*
X142903983Y-87239678D01*
X142974465Y-87409838D01*
X143076789Y-87562977D01*
X143207023Y-87693211D01*
X143360162Y-87795535D01*
X143530322Y-87866017D01*
X143710962Y-87901949D01*
X143895140Y-87901949D01*
X144075780Y-87866017D01*
X144245940Y-87795535D01*
X144399079Y-87693211D01*
X144529313Y-87562977D01*
X144631637Y-87409838D01*
X144702119Y-87239678D01*
X144738051Y-87059038D01*
X144738051Y-87037911D01*
X145555000Y-87037911D01*
X145555000Y-87222089D01*
X145590932Y-87402729D01*
X145661414Y-87572889D01*
X145763738Y-87726028D01*
X145893972Y-87856262D01*
X146047111Y-87958586D01*
X146217271Y-88029068D01*
X146397911Y-88065000D01*
X146582089Y-88065000D01*
X146762729Y-88029068D01*
X146910366Y-87967915D01*
X147275000Y-87967915D01*
X147275000Y-88152093D01*
X147310932Y-88332733D01*
X147381414Y-88502893D01*
X147483738Y-88656032D01*
X147613972Y-88786266D01*
X147767111Y-88888590D01*
X147937271Y-88959072D01*
X148117911Y-88995004D01*
X148302089Y-88995004D01*
X148482729Y-88959072D01*
X148652889Y-88888590D01*
X148806028Y-88786266D01*
X148936262Y-88656032D01*
X149038586Y-88502893D01*
X149109068Y-88332733D01*
X149145000Y-88152093D01*
X149145000Y-87967915D01*
X149109068Y-87787275D01*
X149038586Y-87617115D01*
X148936262Y-87463976D01*
X148806028Y-87333742D01*
X148652889Y-87231418D01*
X148482729Y-87160936D01*
X148302089Y-87125004D01*
X148117911Y-87125004D01*
X147937271Y-87160936D01*
X147767111Y-87231418D01*
X147613972Y-87333742D01*
X147483738Y-87463976D01*
X147381414Y-87617115D01*
X147310932Y-87787275D01*
X147275000Y-87967915D01*
X146910366Y-87967915D01*
X146932889Y-87958586D01*
X147086028Y-87856262D01*
X147216262Y-87726028D01*
X147318586Y-87572889D01*
X147389068Y-87402729D01*
X147425000Y-87222089D01*
X147425000Y-87037911D01*
X147389068Y-86857271D01*
X147318586Y-86687111D01*
X147216262Y-86533972D01*
X147086028Y-86403738D01*
X146932889Y-86301414D01*
X146762729Y-86230932D01*
X146582089Y-86195000D01*
X146397911Y-86195000D01*
X146217271Y-86230932D01*
X146047111Y-86301414D01*
X145893972Y-86403738D01*
X145763738Y-86533972D01*
X145661414Y-86687111D01*
X145590932Y-86857271D01*
X145555000Y-87037911D01*
X144738051Y-87037911D01*
X144738051Y-86874860D01*
X144702119Y-86694220D01*
X144631637Y-86524060D01*
X144529313Y-86370921D01*
X144399079Y-86240687D01*
X144245940Y-86138363D01*
X144075780Y-86067881D01*
X143895140Y-86031949D01*
X143710962Y-86031949D01*
X143530322Y-86067881D01*
X143360162Y-86138363D01*
X143207023Y-86240687D01*
X143076789Y-86370921D01*
X142974465Y-86524060D01*
X142903983Y-86694220D01*
X142868051Y-86874860D01*
X136312797Y-86874860D01*
X136429715Y-86796738D01*
X136796738Y-86429715D01*
X137085107Y-85998141D01*
X137283739Y-85518601D01*
X137287854Y-85497913D01*
X156495000Y-85497913D01*
X156495000Y-85682091D01*
X156530932Y-85862731D01*
X156601414Y-86032891D01*
X156703738Y-86186030D01*
X156833972Y-86316264D01*
X156987111Y-86418588D01*
X157157271Y-86489070D01*
X157337911Y-86525002D01*
X157522089Y-86525002D01*
X157702729Y-86489070D01*
X157872889Y-86418588D01*
X158026028Y-86316264D01*
X158156262Y-86186030D01*
X158258586Y-86032891D01*
X158329068Y-85862731D01*
X158365000Y-85682091D01*
X158365000Y-85497913D01*
X158329068Y-85317273D01*
X158258586Y-85147113D01*
X158156262Y-84993974D01*
X158026028Y-84863740D01*
X157872889Y-84761416D01*
X157702729Y-84690934D01*
X157522089Y-84655002D01*
X157337911Y-84655002D01*
X157157271Y-84690934D01*
X156987111Y-84761416D01*
X156833972Y-84863740D01*
X156703738Y-84993974D01*
X156601414Y-85147113D01*
X156530932Y-85317273D01*
X156495000Y-85497913D01*
X137287854Y-85497913D01*
X137385000Y-85009525D01*
X137385000Y-84490475D01*
X137322828Y-84177911D01*
X151895000Y-84177911D01*
X151895000Y-84362089D01*
X151930932Y-84542729D01*
X152001414Y-84712889D01*
X152103738Y-84866028D01*
X152233972Y-84996262D01*
X152387111Y-85098586D01*
X152557271Y-85169068D01*
X152737911Y-85205000D01*
X152922089Y-85205000D01*
X153102729Y-85169068D01*
X153272889Y-85098586D01*
X153426028Y-84996262D01*
X153556262Y-84866028D01*
X153658586Y-84712889D01*
X153729068Y-84542729D01*
X153739462Y-84490475D01*
X162615000Y-84490475D01*
X162615000Y-85009525D01*
X162716261Y-85518601D01*
X162914893Y-85998141D01*
X163203262Y-86429715D01*
X163570285Y-86796738D01*
X164001859Y-87085107D01*
X164481399Y-87283739D01*
X164990475Y-87385000D01*
X165509525Y-87385000D01*
X166018601Y-87283739D01*
X166498141Y-87085107D01*
X166929715Y-86796738D01*
X167296738Y-86429715D01*
X167585107Y-85998141D01*
X167783739Y-85518601D01*
X167885000Y-85009525D01*
X167885000Y-84490475D01*
X167783739Y-83981399D01*
X167585107Y-83501859D01*
X167296738Y-83070285D01*
X166929715Y-82703262D01*
X166498141Y-82414893D01*
X166018601Y-82216261D01*
X165509525Y-82115000D01*
X164990475Y-82115000D01*
X164481399Y-82216261D01*
X164001859Y-82414893D01*
X163570285Y-82703262D01*
X163203262Y-83070285D01*
X162914893Y-83501859D01*
X162716261Y-83981399D01*
X162615000Y-84490475D01*
X153739462Y-84490475D01*
X153765000Y-84362089D01*
X153765000Y-84177911D01*
X153729068Y-83997271D01*
X153658586Y-83827111D01*
X153556262Y-83673972D01*
X153426028Y-83543738D01*
X153272889Y-83441414D01*
X153102729Y-83370932D01*
X152922089Y-83335000D01*
X152737911Y-83335000D01*
X152557271Y-83370932D01*
X152387111Y-83441414D01*
X152233972Y-83543738D01*
X152103738Y-83673972D01*
X152001414Y-83827111D01*
X151930932Y-83997271D01*
X151895000Y-84177911D01*
X137322828Y-84177911D01*
X137283739Y-83981399D01*
X137085107Y-83501859D01*
X136796738Y-83070285D01*
X136429715Y-82703262D01*
X136212183Y-82557911D01*
X142715000Y-82557911D01*
X142715000Y-82742089D01*
X142750932Y-82922729D01*
X142821414Y-83092889D01*
X142923738Y-83246028D01*
X143053972Y-83376262D01*
X143207111Y-83478586D01*
X143377271Y-83549068D01*
X143557911Y-83585000D01*
X143742089Y-83585000D01*
X143922729Y-83549068D01*
X144092889Y-83478586D01*
X144246028Y-83376262D01*
X144376262Y-83246028D01*
X144478586Y-83092889D01*
X144549068Y-82922729D01*
X144585000Y-82742089D01*
X144585000Y-82557911D01*
X147825000Y-82557911D01*
X147825000Y-82742089D01*
X147860932Y-82922729D01*
X147931414Y-83092889D01*
X148033738Y-83246028D01*
X148163972Y-83376262D01*
X148317111Y-83478586D01*
X148487271Y-83549068D01*
X148667911Y-83585000D01*
X148852089Y-83585000D01*
X149032729Y-83549068D01*
X149202889Y-83478586D01*
X149356028Y-83376262D01*
X149486262Y-83246028D01*
X149588586Y-83092889D01*
X149659068Y-82922729D01*
X149695000Y-82742089D01*
X149695000Y-82557911D01*
X152925000Y-82557911D01*
X152925000Y-82742089D01*
X152960932Y-82922729D01*
X153031414Y-83092889D01*
X153133738Y-83246028D01*
X153263972Y-83376262D01*
X153417111Y-83478586D01*
X153587271Y-83549068D01*
X153767911Y-83585000D01*
X153952089Y-83585000D01*
X154132729Y-83549068D01*
X154302889Y-83478586D01*
X154456028Y-83376262D01*
X154586262Y-83246028D01*
X154688586Y-83092889D01*
X154759068Y-82922729D01*
X154795000Y-82742089D01*
X154795000Y-82557911D01*
X158015000Y-82557911D01*
X158015000Y-82742089D01*
X158050932Y-82922729D01*
X158121414Y-83092889D01*
X158223738Y-83246028D01*
X158353972Y-83376262D01*
X158507111Y-83478586D01*
X158677271Y-83549068D01*
X158857911Y-83585000D01*
X159042089Y-83585000D01*
X159222729Y-83549068D01*
X159392889Y-83478586D01*
X159546028Y-83376262D01*
X159676262Y-83246028D01*
X159778586Y-83092889D01*
X159849068Y-82922729D01*
X159885000Y-82742089D01*
X159885000Y-82557911D01*
X159849068Y-82377271D01*
X159778586Y-82207111D01*
X159676262Y-82053972D01*
X159546028Y-81923738D01*
X159392889Y-81821414D01*
X159222729Y-81750932D01*
X159042089Y-81715000D01*
X158857911Y-81715000D01*
X158677271Y-81750932D01*
X158507111Y-81821414D01*
X158353972Y-81923738D01*
X158223738Y-82053972D01*
X158121414Y-82207111D01*
X158050932Y-82377271D01*
X158015000Y-82557911D01*
X154795000Y-82557911D01*
X154759068Y-82377271D01*
X154688586Y-82207111D01*
X154586262Y-82053972D01*
X154456028Y-81923738D01*
X154302889Y-81821414D01*
X154132729Y-81750932D01*
X153952089Y-81715000D01*
X153767911Y-81715000D01*
X153587271Y-81750932D01*
X153417111Y-81821414D01*
X153263972Y-81923738D01*
X153133738Y-82053972D01*
X153031414Y-82207111D01*
X152960932Y-82377271D01*
X152925000Y-82557911D01*
X149695000Y-82557911D01*
X149659068Y-82377271D01*
X149588586Y-82207111D01*
X149486262Y-82053972D01*
X149356028Y-81923738D01*
X149202889Y-81821414D01*
X149032729Y-81750932D01*
X148852089Y-81715000D01*
X148667911Y-81715000D01*
X148487271Y-81750932D01*
X148317111Y-81821414D01*
X148163972Y-81923738D01*
X148033738Y-82053972D01*
X147931414Y-82207111D01*
X147860932Y-82377271D01*
X147825000Y-82557911D01*
X144585000Y-82557911D01*
X144549068Y-82377271D01*
X144478586Y-82207111D01*
X144376262Y-82053972D01*
X144246028Y-81923738D01*
X144092889Y-81821414D01*
X143922729Y-81750932D01*
X143742089Y-81715000D01*
X143557911Y-81715000D01*
X143377271Y-81750932D01*
X143207111Y-81821414D01*
X143053972Y-81923738D01*
X142923738Y-82053972D01*
X142821414Y-82207111D01*
X142750932Y-82377271D01*
X142715000Y-82557911D01*
X136212183Y-82557911D01*
X135998141Y-82414893D01*
X135518601Y-82216261D01*
X135009525Y-82115000D01*
X134490475Y-82115000D01*
X133981399Y-82216261D01*
X133501859Y-82414893D01*
X133070285Y-82703262D01*
X132703262Y-83070285D01*
X132414893Y-83501859D01*
X132216261Y-83981399D01*
X132115000Y-84490475D01*
X130660000Y-84490475D01*
X130660000Y-82032279D01*
X130688625Y-81740341D01*
X130764035Y-81490571D01*
X130886522Y-81260208D01*
X131051422Y-81058020D01*
X131252450Y-80891714D01*
X131481954Y-80767622D01*
X131731195Y-80690469D01*
X132021088Y-80660000D01*
X167967721Y-80660000D01*
X168259659Y-80688625D01*
%TA.AperFunction,Conductor*%
D15*
G36*
X168259659Y-80688625D02*
G01*
X168509429Y-80764035D01*
X168739792Y-80886522D01*
X168941980Y-81051422D01*
X169108286Y-81252450D01*
X169232378Y-81481954D01*
X169309531Y-81731195D01*
X169340000Y-82021089D01*
X169340001Y-117967711D01*
X169311375Y-118259660D01*
X169235965Y-118509429D01*
X169113477Y-118739794D01*
X168948579Y-118941979D01*
X168747546Y-119108288D01*
X168518046Y-119232378D01*
X168268805Y-119309531D01*
X167978911Y-119340000D01*
X158087048Y-119340000D01*
X158162889Y-119308586D01*
X158316028Y-119206262D01*
X158446262Y-119076028D01*
X158548586Y-118922889D01*
X158619068Y-118752729D01*
X158655000Y-118572089D01*
X158655000Y-118387911D01*
X158619068Y-118207271D01*
X158548586Y-118037111D01*
X158446262Y-117883972D01*
X158316028Y-117753738D01*
X158162889Y-117651414D01*
X157992729Y-117580932D01*
X157812089Y-117545000D01*
X157627911Y-117545000D01*
X157447271Y-117580932D01*
X157277111Y-117651414D01*
X157123972Y-117753738D01*
X156993738Y-117883972D01*
X156891414Y-118037111D01*
X156820932Y-118207271D01*
X156785000Y-118387911D01*
X156785000Y-118572089D01*
X156820932Y-118752729D01*
X156891414Y-118922889D01*
X156993738Y-119076028D01*
X157123972Y-119206262D01*
X157277111Y-119308586D01*
X157352952Y-119340000D01*
X155024642Y-119340000D01*
X155126449Y-119256449D01*
X155268284Y-119083623D01*
X155373676Y-118886447D01*
X155438577Y-118672499D01*
X155455000Y-118505752D01*
X155455000Y-117794249D01*
X155438577Y-117627502D01*
X155373676Y-117413554D01*
X155268284Y-117216377D01*
X155126449Y-117043551D01*
X154953623Y-116901716D01*
X154756447Y-116796324D01*
X154542499Y-116731423D01*
X154320000Y-116709509D01*
X154097502Y-116731423D01*
X153883554Y-116796324D01*
X153686378Y-116901716D01*
X153513552Y-117043551D01*
X153371717Y-117216377D01*
X153266324Y-117413553D01*
X153201423Y-117627501D01*
X153185000Y-117794248D01*
X153185000Y-118505751D01*
X153201423Y-118672498D01*
X153266324Y-118886446D01*
X153371716Y-119083623D01*
X153513551Y-119256449D01*
X153615358Y-119340000D01*
X146384642Y-119340000D01*
X146486449Y-119256449D01*
X146628284Y-119083623D01*
X146733676Y-118886447D01*
X146798577Y-118672499D01*
X146815000Y-118505752D01*
X146815000Y-117794249D01*
X146798577Y-117627502D01*
X146733676Y-117413554D01*
X146628284Y-117216377D01*
X146486449Y-117043551D01*
X146313623Y-116901716D01*
X146116447Y-116796324D01*
X145902499Y-116731423D01*
X145680000Y-116709509D01*
X145457502Y-116731423D01*
X145243554Y-116796324D01*
X145046378Y-116901716D01*
X144873552Y-117043551D01*
X144731717Y-117216377D01*
X144626324Y-117413553D01*
X144561423Y-117627501D01*
X144545000Y-117794248D01*
X144545000Y-118505751D01*
X144561423Y-118672498D01*
X144626324Y-118886446D01*
X144731716Y-119083623D01*
X144873551Y-119256449D01*
X144975358Y-119340000D01*
X132032279Y-119340000D01*
X131740340Y-119311375D01*
X131490571Y-119235965D01*
X131260206Y-119113477D01*
X131058021Y-118948579D01*
X130891712Y-118747546D01*
X130767622Y-118518046D01*
X130690469Y-118268805D01*
X130660000Y-117978911D01*
X130660000Y-114990475D01*
X132115000Y-114990475D01*
X132115000Y-115509525D01*
X132216261Y-116018601D01*
X132414893Y-116498141D01*
X132703262Y-116929715D01*
X133070285Y-117296738D01*
X133501859Y-117585107D01*
X133981399Y-117783739D01*
X134490475Y-117885000D01*
X135009525Y-117885000D01*
X135518601Y-117783739D01*
X135998141Y-117585107D01*
X136429715Y-117296738D01*
X136796738Y-116929715D01*
X137085107Y-116498141D01*
X137221830Y-116168061D01*
X148475000Y-116168061D01*
X148475000Y-116371939D01*
X148514774Y-116571898D01*
X148592795Y-116760256D01*
X148706063Y-116929774D01*
X148850226Y-117073937D01*
X149019744Y-117187205D01*
X149208102Y-117265226D01*
X149408061Y-117305000D01*
X149611939Y-117305000D01*
X149811898Y-117265226D01*
X150000256Y-117187205D01*
X150169774Y-117073937D01*
X150313937Y-116929774D01*
X150427205Y-116760256D01*
X150505226Y-116571898D01*
X150545000Y-116371939D01*
X150545000Y-116168061D01*
X150505226Y-115968102D01*
X150451299Y-115837911D01*
X156785000Y-115837911D01*
X156785000Y-116022089D01*
X156820932Y-116202729D01*
X156891414Y-116372889D01*
X156993738Y-116526028D01*
X157123972Y-116656262D01*
X157277111Y-116758586D01*
X157447271Y-116829068D01*
X157627911Y-116865000D01*
X157812089Y-116865000D01*
X157992729Y-116829068D01*
X158162889Y-116758586D01*
X158316028Y-116656262D01*
X158446262Y-116526028D01*
X158548586Y-116372889D01*
X158619068Y-116202729D01*
X158655000Y-116022089D01*
X158655000Y-115837911D01*
X158619068Y-115657271D01*
X158548586Y-115487111D01*
X158446262Y-115333972D01*
X158316028Y-115203738D01*
X158162889Y-115101414D01*
X157992729Y-115030932D01*
X157812089Y-114995000D01*
X157627911Y-114995000D01*
X157447271Y-115030932D01*
X157277111Y-115101414D01*
X157123972Y-115203738D01*
X156993738Y-115333972D01*
X156891414Y-115487111D01*
X156820932Y-115657271D01*
X156785000Y-115837911D01*
X150451299Y-115837911D01*
X150427205Y-115779744D01*
X150313937Y-115610226D01*
X150169774Y-115466063D01*
X150000256Y-115352795D01*
X149811898Y-115274774D01*
X149611939Y-115235000D01*
X149408061Y-115235000D01*
X149208102Y-115274774D01*
X149019744Y-115352795D01*
X148850226Y-115466063D01*
X148706063Y-115610226D01*
X148592795Y-115779744D01*
X148514774Y-115968102D01*
X148475000Y-116168061D01*
X137221830Y-116168061D01*
X137283739Y-116018601D01*
X137385000Y-115509525D01*
X137385000Y-114990475D01*
X137283739Y-114481399D01*
X137085107Y-114001859D01*
X136796738Y-113570285D01*
X136590701Y-113364248D01*
X144545000Y-113364248D01*
X144545000Y-114575751D01*
X144561423Y-114742498D01*
X144626324Y-114956446D01*
X144731716Y-115153623D01*
X144873551Y-115326449D01*
X145046377Y-115468284D01*
X145243553Y-115573676D01*
X145457501Y-115638577D01*
X145680000Y-115660491D01*
X145902498Y-115638577D01*
X146116446Y-115573676D01*
X146313623Y-115468284D01*
X146486449Y-115326449D01*
X146533362Y-115269285D01*
X146655269Y-115350741D01*
X146829978Y-115423108D01*
X147015448Y-115460000D01*
X147204552Y-115460000D01*
X147390022Y-115423108D01*
X147564731Y-115350741D01*
X147721964Y-115245681D01*
X147855681Y-115111964D01*
X147960741Y-114954731D01*
X148033108Y-114780022D01*
X148070000Y-114594552D01*
X148070000Y-114405448D01*
X151930000Y-114405448D01*
X151930000Y-114594552D01*
X151966892Y-114780022D01*
X152039259Y-114954731D01*
X152144319Y-115111964D01*
X152278036Y-115245681D01*
X152435269Y-115350741D01*
X152609978Y-115423108D01*
X152795448Y-115460000D01*
X152984552Y-115460000D01*
X153170022Y-115423108D01*
X153344731Y-115350741D01*
X153466638Y-115269285D01*
X153513551Y-115326449D01*
X153686377Y-115468284D01*
X153883553Y-115573676D01*
X154097501Y-115638577D01*
X154320000Y-115660491D01*
X154542498Y-115638577D01*
X154756446Y-115573676D01*
X154953623Y-115468284D01*
X155126449Y-115326449D01*
X155268284Y-115153623D01*
X155355487Y-114990475D01*
X162615000Y-114990475D01*
X162615000Y-115509525D01*
X162716261Y-116018601D01*
X162914893Y-116498141D01*
X163203262Y-116929715D01*
X163570285Y-117296738D01*
X164001859Y-117585107D01*
X164481399Y-117783739D01*
X164990475Y-117885000D01*
X165509525Y-117885000D01*
X166018601Y-117783739D01*
X166498141Y-117585107D01*
X166929715Y-117296738D01*
X167296738Y-116929715D01*
X167585107Y-116498141D01*
X167783739Y-116018601D01*
X167885000Y-115509525D01*
X167885000Y-114990475D01*
X167783739Y-114481399D01*
X167585107Y-114001859D01*
X167296738Y-113570285D01*
X166929715Y-113203262D01*
X166498141Y-112914893D01*
X166018601Y-112716261D01*
X165509525Y-112615000D01*
X164990475Y-112615000D01*
X164481399Y-112716261D01*
X164001859Y-112914893D01*
X163570285Y-113203262D01*
X163203262Y-113570285D01*
X162914893Y-114001859D01*
X162716261Y-114481399D01*
X162615000Y-114990475D01*
X155355487Y-114990475D01*
X155373676Y-114956447D01*
X155438577Y-114742499D01*
X155455000Y-114575752D01*
X155455000Y-113364248D01*
X155448467Y-113297911D01*
X156785000Y-113297911D01*
X156785000Y-113482089D01*
X156820932Y-113662729D01*
X156891414Y-113832889D01*
X156993738Y-113986028D01*
X157123972Y-114116262D01*
X157277111Y-114218586D01*
X157447271Y-114289068D01*
X157627911Y-114325000D01*
X157812089Y-114325000D01*
X157992729Y-114289068D01*
X158162889Y-114218586D01*
X158316028Y-114116262D01*
X158446262Y-113986028D01*
X158548586Y-113832889D01*
X158619068Y-113662729D01*
X158655000Y-113482089D01*
X158655000Y-113297911D01*
X158619068Y-113117271D01*
X158548586Y-112947111D01*
X158446262Y-112793972D01*
X158316028Y-112663738D01*
X158162889Y-112561414D01*
X157992729Y-112490932D01*
X157812089Y-112455000D01*
X157627911Y-112455000D01*
X157447271Y-112490932D01*
X157277111Y-112561414D01*
X157123972Y-112663738D01*
X156993738Y-112793972D01*
X156891414Y-112947111D01*
X156820932Y-113117271D01*
X156785000Y-113297911D01*
X155448467Y-113297911D01*
X155438577Y-113197501D01*
X155373676Y-112983553D01*
X155268284Y-112786377D01*
X155126449Y-112613551D01*
X154953623Y-112471716D01*
X154756447Y-112366324D01*
X154542499Y-112301423D01*
X154320000Y-112279509D01*
X154097502Y-112301423D01*
X153883554Y-112366324D01*
X153686378Y-112471716D01*
X153513552Y-112613551D01*
X153371717Y-112786377D01*
X153266324Y-112983553D01*
X153201423Y-113197501D01*
X153185000Y-113364248D01*
X153185000Y-113583096D01*
X153170022Y-113576892D01*
X152984552Y-113540000D01*
X152795448Y-113540000D01*
X152609978Y-113576892D01*
X152435269Y-113649259D01*
X152278036Y-113754319D01*
X152144319Y-113888036D01*
X152039259Y-114045269D01*
X151966892Y-114219978D01*
X151930000Y-114405448D01*
X148070000Y-114405448D01*
X148033108Y-114219978D01*
X147960741Y-114045269D01*
X147855681Y-113888036D01*
X147721964Y-113754319D01*
X147564731Y-113649259D01*
X147390022Y-113576892D01*
X147204552Y-113540000D01*
X147015448Y-113540000D01*
X146829978Y-113576892D01*
X146815000Y-113583096D01*
X146815000Y-113364248D01*
X146798577Y-113197501D01*
X146733676Y-112983553D01*
X146628284Y-112786377D01*
X146486449Y-112613551D01*
X146313623Y-112471716D01*
X146116447Y-112366324D01*
X145902499Y-112301423D01*
X145680000Y-112279509D01*
X145457502Y-112301423D01*
X145243554Y-112366324D01*
X145046378Y-112471716D01*
X144873552Y-112613551D01*
X144731717Y-112786377D01*
X144626324Y-112983553D01*
X144561423Y-113197501D01*
X144545000Y-113364248D01*
X136590701Y-113364248D01*
X136429715Y-113203262D01*
X135998141Y-112914893D01*
X135518601Y-112716261D01*
X135009525Y-112615000D01*
X134490475Y-112615000D01*
X133981399Y-112716261D01*
X133501859Y-112914893D01*
X133070285Y-113203262D01*
X132703262Y-113570285D01*
X132414893Y-114001859D01*
X132216261Y-114481399D01*
X132115000Y-114990475D01*
X130660000Y-114990475D01*
X130660000Y-112117911D01*
X141525000Y-112117911D01*
X141525000Y-112302089D01*
X141560932Y-112482729D01*
X141631414Y-112652889D01*
X141733738Y-112806028D01*
X141863972Y-112936262D01*
X142017111Y-113038586D01*
X142187271Y-113109068D01*
X142367911Y-113145000D01*
X142552089Y-113145000D01*
X142732729Y-113109068D01*
X142902889Y-113038586D01*
X143056028Y-112936262D01*
X143186262Y-112806028D01*
X143288586Y-112652889D01*
X143359068Y-112482729D01*
X143395000Y-112302089D01*
X143395000Y-112117911D01*
X143359068Y-111937271D01*
X143288586Y-111767111D01*
X143186262Y-111613972D01*
X143056028Y-111483738D01*
X142902889Y-111381414D01*
X142732729Y-111310932D01*
X142552089Y-111275000D01*
X142367911Y-111275000D01*
X142187271Y-111310932D01*
X142017111Y-111381414D01*
X141863972Y-111483738D01*
X141733738Y-111613972D01*
X141631414Y-111767111D01*
X141560932Y-111937271D01*
X141525000Y-112117911D01*
X130660000Y-112117911D01*
X130660000Y-109827911D01*
X143565000Y-109827911D01*
X143565000Y-110012089D01*
X143600932Y-110192729D01*
X143671414Y-110362889D01*
X143773738Y-110516028D01*
X143903972Y-110646262D01*
X144057111Y-110748586D01*
X144227271Y-110819068D01*
X144407911Y-110855000D01*
X144592089Y-110855000D01*
X144772729Y-110819068D01*
X144942889Y-110748586D01*
X145063627Y-110667911D01*
X149245000Y-110667911D01*
X149245000Y-110852089D01*
X149280932Y-111032729D01*
X149351414Y-111202889D01*
X149453738Y-111356028D01*
X149583972Y-111486262D01*
X149737111Y-111588586D01*
X149907271Y-111659068D01*
X150087911Y-111695000D01*
X150272089Y-111695000D01*
X150452729Y-111659068D01*
X150622889Y-111588586D01*
X150776028Y-111486262D01*
X150906262Y-111356028D01*
X151008586Y-111202889D01*
X151079068Y-111032729D01*
X151115000Y-110852089D01*
X151115000Y-110667911D01*
X151079068Y-110487271D01*
X151008586Y-110317111D01*
X150906262Y-110163972D01*
X150776028Y-110033738D01*
X150622889Y-109931414D01*
X150452729Y-109860932D01*
X150272089Y-109825000D01*
X150087911Y-109825000D01*
X149907271Y-109860932D01*
X149737111Y-109931414D01*
X149583972Y-110033738D01*
X149453738Y-110163972D01*
X149351414Y-110317111D01*
X149280932Y-110487271D01*
X149245000Y-110667911D01*
X145063627Y-110667911D01*
X145096028Y-110646262D01*
X145226262Y-110516028D01*
X145328586Y-110362889D01*
X145399068Y-110192729D01*
X145435000Y-110012089D01*
X145435000Y-109827911D01*
X145399068Y-109647271D01*
X145328586Y-109477111D01*
X145226262Y-109323972D01*
X145096028Y-109193738D01*
X144942889Y-109091414D01*
X144772729Y-109020932D01*
X144592089Y-108985000D01*
X144407911Y-108985000D01*
X144227271Y-109020932D01*
X144057111Y-109091414D01*
X143903972Y-109193738D01*
X143773738Y-109323972D01*
X143671414Y-109477111D01*
X143600932Y-109647271D01*
X143565000Y-109827911D01*
X130660000Y-109827911D01*
X130660000Y-108867911D01*
X148375000Y-108867911D01*
X148375000Y-109052089D01*
X148410932Y-109232729D01*
X148481414Y-109402889D01*
X148583738Y-109556028D01*
X148713972Y-109686262D01*
X148867111Y-109788586D01*
X149037271Y-109859068D01*
X149217911Y-109895000D01*
X149402089Y-109895000D01*
X149582729Y-109859068D01*
X149752889Y-109788586D01*
X149906028Y-109686262D01*
X150036262Y-109556028D01*
X150138586Y-109402889D01*
X150209068Y-109232729D01*
X150245000Y-109052089D01*
X150245000Y-108867911D01*
X150209068Y-108687271D01*
X150138586Y-108517111D01*
X150036262Y-108363972D01*
X149906028Y-108233738D01*
X149752889Y-108131414D01*
X149582729Y-108060932D01*
X149402089Y-108025000D01*
X149217911Y-108025000D01*
X149037271Y-108060932D01*
X148867111Y-108131414D01*
X148713972Y-108233738D01*
X148583738Y-108363972D01*
X148481414Y-108517111D01*
X148410932Y-108687271D01*
X148375000Y-108867911D01*
X130660000Y-108867911D01*
X130660000Y-107817911D01*
X137725000Y-107817911D01*
X137725000Y-108002089D01*
X137760932Y-108182729D01*
X137831414Y-108352889D01*
X137933738Y-108506028D01*
X138063972Y-108636262D01*
X138217111Y-108738586D01*
X138387271Y-108809068D01*
X138567911Y-108845000D01*
X138752089Y-108845000D01*
X138932729Y-108809068D01*
X139102889Y-108738586D01*
X139256028Y-108636262D01*
X139386262Y-108506028D01*
X139488586Y-108352889D01*
X139559068Y-108182729D01*
X139595000Y-108002089D01*
X139595000Y-107817911D01*
X139559068Y-107637271D01*
X139488586Y-107467111D01*
X139386262Y-107313972D01*
X139256028Y-107183738D01*
X139102889Y-107081414D01*
X138932729Y-107010932D01*
X138752089Y-106975000D01*
X138567911Y-106975000D01*
X138387271Y-107010932D01*
X138217111Y-107081414D01*
X138063972Y-107183738D01*
X137933738Y-107313972D01*
X137831414Y-107467111D01*
X137760932Y-107637271D01*
X137725000Y-107817911D01*
X130660000Y-107817911D01*
X130660000Y-106857911D01*
X145815000Y-106857911D01*
X145815000Y-107042089D01*
X145850932Y-107222729D01*
X145921414Y-107392889D01*
X146023738Y-107546028D01*
X146153972Y-107676262D01*
X146307111Y-107778586D01*
X146477271Y-107849068D01*
X146657911Y-107885000D01*
X146842089Y-107885000D01*
X147022729Y-107849068D01*
X147192889Y-107778586D01*
X147346028Y-107676262D01*
X147476262Y-107546028D01*
X147578586Y-107392889D01*
X147649068Y-107222729D01*
X147685000Y-107042089D01*
X147685000Y-106957911D01*
X159674998Y-106957911D01*
X159674998Y-107142089D01*
X159710930Y-107322729D01*
X159781412Y-107492889D01*
X159883736Y-107646028D01*
X160013970Y-107776262D01*
X160167109Y-107878586D01*
X160337269Y-107949068D01*
X160517909Y-107985000D01*
X160702087Y-107985000D01*
X160882727Y-107949068D01*
X161052887Y-107878586D01*
X161206026Y-107776262D01*
X161304999Y-107677289D01*
X161403972Y-107776262D01*
X161557111Y-107878586D01*
X161645000Y-107914991D01*
X161645000Y-107962089D01*
X161680932Y-108142729D01*
X161751414Y-108312889D01*
X161853738Y-108466028D01*
X161983972Y-108596262D01*
X162137111Y-108698586D01*
X162307271Y-108769068D01*
X162487911Y-108805000D01*
X162672089Y-108805000D01*
X162852729Y-108769068D01*
X163022889Y-108698586D01*
X163176028Y-108596262D01*
X163306262Y-108466028D01*
X163408586Y-108312889D01*
X163479068Y-108142729D01*
X163515000Y-107962089D01*
X163515000Y-107777911D01*
X163479068Y-107597271D01*
X163408586Y-107427111D01*
X163306262Y-107273972D01*
X163176028Y-107143738D01*
X163022889Y-107041414D01*
X162935000Y-107005009D01*
X162935000Y-106957911D01*
X162899068Y-106777271D01*
X162828586Y-106607111D01*
X162726262Y-106453972D01*
X162596028Y-106323738D01*
X162442889Y-106221414D01*
X162272729Y-106150932D01*
X162092089Y-106115000D01*
X161907911Y-106115000D01*
X161727271Y-106150932D01*
X161557111Y-106221414D01*
X161403972Y-106323738D01*
X161304999Y-106422711D01*
X161206026Y-106323738D01*
X161052887Y-106221414D01*
X160882727Y-106150932D01*
X160702087Y-106115000D01*
X160517909Y-106115000D01*
X160337269Y-106150932D01*
X160167109Y-106221414D01*
X160013970Y-106323738D01*
X159883736Y-106453972D01*
X159781412Y-106607111D01*
X159710930Y-106777271D01*
X159674998Y-106957911D01*
X147685000Y-106957911D01*
X147685000Y-106857911D01*
X147649068Y-106677271D01*
X147578586Y-106507111D01*
X147476262Y-106353972D01*
X147346028Y-106223738D01*
X147192889Y-106121414D01*
X147022729Y-106050932D01*
X146842089Y-106015000D01*
X146657911Y-106015000D01*
X146477271Y-106050932D01*
X146307111Y-106121414D01*
X146153972Y-106223738D01*
X146023738Y-106353972D01*
X145921414Y-106507111D01*
X145850932Y-106677271D01*
X145815000Y-106857911D01*
X130660000Y-106857911D01*
X130660000Y-104307911D01*
X132795000Y-104307911D01*
X132795000Y-104492089D01*
X132830932Y-104672729D01*
X132901414Y-104842889D01*
X133003738Y-104996028D01*
X133133972Y-105126262D01*
X133287111Y-105228586D01*
X133457271Y-105299068D01*
X133637911Y-105335000D01*
X133822089Y-105335000D01*
X134002729Y-105299068D01*
X134172889Y-105228586D01*
X134326028Y-105126262D01*
X134456262Y-104996028D01*
X134558586Y-104842889D01*
X134629068Y-104672729D01*
X134647928Y-104577911D01*
X135425000Y-104577911D01*
X135425000Y-104762089D01*
X135460932Y-104942729D01*
X135531414Y-105112889D01*
X135633738Y-105266028D01*
X135763972Y-105396262D01*
X135917111Y-105498586D01*
X136087271Y-105569068D01*
X136267911Y-105605000D01*
X136452089Y-105605000D01*
X136632729Y-105569068D01*
X136802889Y-105498586D01*
X136848797Y-105467911D01*
X138095000Y-105467911D01*
X138095000Y-105652089D01*
X138130932Y-105832729D01*
X138201414Y-106002889D01*
X138303738Y-106156028D01*
X138433972Y-106286262D01*
X138587111Y-106388586D01*
X138757271Y-106459068D01*
X138937911Y-106495000D01*
X139122089Y-106495000D01*
X139302729Y-106459068D01*
X139472889Y-106388586D01*
X139626028Y-106286262D01*
X139756262Y-106156028D01*
X139858586Y-106002889D01*
X139929068Y-105832729D01*
X139965000Y-105652089D01*
X139965000Y-105467911D01*
X139929068Y-105287271D01*
X139858586Y-105117111D01*
X139756262Y-104963972D01*
X139750197Y-104957907D01*
X142625000Y-104957907D01*
X142625000Y-105142085D01*
X142660932Y-105322725D01*
X142731414Y-105492885D01*
X142833738Y-105646024D01*
X142963972Y-105776258D01*
X143117111Y-105878582D01*
X143287271Y-105949064D01*
X143467911Y-105984996D01*
X143652089Y-105984996D01*
X143832729Y-105949064D01*
X144002889Y-105878582D01*
X144156028Y-105776258D01*
X144286262Y-105646024D01*
X144388586Y-105492885D01*
X144459068Y-105322725D01*
X144495000Y-105142085D01*
X144495000Y-104957907D01*
X144459068Y-104777267D01*
X144388586Y-104607107D01*
X144286262Y-104453968D01*
X144156028Y-104323734D01*
X144002889Y-104221410D01*
X143832729Y-104150928D01*
X143652089Y-104114996D01*
X143467911Y-104114996D01*
X143287271Y-104150928D01*
X143117111Y-104221410D01*
X142963972Y-104323734D01*
X142833738Y-104453968D01*
X142731414Y-104607107D01*
X142660932Y-104777267D01*
X142625000Y-104957907D01*
X139750197Y-104957907D01*
X139626028Y-104833738D01*
X139472889Y-104731414D01*
X139302729Y-104660932D01*
X139122089Y-104625000D01*
X138937911Y-104625000D01*
X138757271Y-104660932D01*
X138587111Y-104731414D01*
X138433972Y-104833738D01*
X138303738Y-104963972D01*
X138201414Y-105117111D01*
X138130932Y-105287271D01*
X138095000Y-105467911D01*
X136848797Y-105467911D01*
X136956028Y-105396262D01*
X137086262Y-105266028D01*
X137188586Y-105112889D01*
X137259068Y-104942729D01*
X137295000Y-104762089D01*
X137295000Y-104577911D01*
X137259068Y-104397271D01*
X137206903Y-104271333D01*
X137248570Y-104208974D01*
X137319052Y-104038814D01*
X137354984Y-103858174D01*
X137354984Y-103673996D01*
X137327915Y-103537911D01*
X146325000Y-103537911D01*
X146325000Y-103722089D01*
X146360932Y-103902729D01*
X146431414Y-104072889D01*
X146533738Y-104226028D01*
X146663972Y-104356262D01*
X146817111Y-104458586D01*
X146987271Y-104529068D01*
X147167911Y-104565000D01*
X147352089Y-104565000D01*
X147532729Y-104529068D01*
X147702889Y-104458586D01*
X147856028Y-104356262D01*
X147986262Y-104226028D01*
X148088586Y-104072889D01*
X148159068Y-103902729D01*
X148195000Y-103722089D01*
X148195000Y-103537911D01*
X148159068Y-103357271D01*
X148151049Y-103337911D01*
X148475004Y-103337911D01*
X148475004Y-103522089D01*
X148510936Y-103702729D01*
X148581418Y-103872889D01*
X148683742Y-104026028D01*
X148813976Y-104156262D01*
X148967115Y-104258586D01*
X149137275Y-104329068D01*
X149317915Y-104365000D01*
X149502093Y-104365000D01*
X149682733Y-104329068D01*
X149782095Y-104287911D01*
X151145000Y-104287911D01*
X151145000Y-104472089D01*
X151180932Y-104652729D01*
X151251414Y-104822889D01*
X151353738Y-104976028D01*
X151483972Y-105106262D01*
X151637111Y-105208586D01*
X151807271Y-105279068D01*
X151987911Y-105315000D01*
X152172089Y-105315000D01*
X152352729Y-105279068D01*
X152522889Y-105208586D01*
X152676028Y-105106262D01*
X152806262Y-104976028D01*
X152908586Y-104822889D01*
X152979068Y-104652729D01*
X152993306Y-104581152D01*
X153157271Y-104649068D01*
X153337911Y-104685000D01*
X153475000Y-104685000D01*
X153475000Y-104752091D01*
X153510932Y-104932731D01*
X153581414Y-105102891D01*
X153683738Y-105256030D01*
X153813972Y-105386264D01*
X153967111Y-105488588D01*
X154137271Y-105559070D01*
X154317911Y-105595002D01*
X154502089Y-105595002D01*
X154682729Y-105559070D01*
X154852889Y-105488588D01*
X155006028Y-105386264D01*
X155136262Y-105256030D01*
X155238586Y-105102891D01*
X155309068Y-104932731D01*
X155345000Y-104752091D01*
X155345000Y-104567913D01*
X155309068Y-104387273D01*
X155238586Y-104217113D01*
X155136262Y-104063974D01*
X155006028Y-103933740D01*
X154852889Y-103831416D01*
X154682729Y-103760934D01*
X154562431Y-103737005D01*
X154677731Y-103714070D01*
X154847891Y-103643588D01*
X155001030Y-103541264D01*
X155131264Y-103411030D01*
X155233588Y-103257891D01*
X155304070Y-103087731D01*
X155327903Y-102967911D01*
X157515000Y-102967911D01*
X157515000Y-103152089D01*
X157550932Y-103332729D01*
X157621414Y-103502889D01*
X157723738Y-103656028D01*
X157853972Y-103786262D01*
X158007111Y-103888586D01*
X158177271Y-103959068D01*
X158357911Y-103995000D01*
X158542089Y-103995000D01*
X158722729Y-103959068D01*
X158892889Y-103888586D01*
X159046028Y-103786262D01*
X159176262Y-103656028D01*
X159278586Y-103502889D01*
X159349068Y-103332729D01*
X159385000Y-103152089D01*
X159385000Y-102967911D01*
X159349068Y-102787271D01*
X159278586Y-102617111D01*
X159176262Y-102463972D01*
X159046028Y-102333738D01*
X158892889Y-102231414D01*
X158722729Y-102160932D01*
X158542089Y-102125000D01*
X158357911Y-102125000D01*
X158177271Y-102160932D01*
X158007111Y-102231414D01*
X157853972Y-102333738D01*
X157723738Y-102463972D01*
X157621414Y-102617111D01*
X157550932Y-102787271D01*
X157515000Y-102967911D01*
X155327903Y-102967911D01*
X155340002Y-102907091D01*
X155340002Y-102722913D01*
X155304070Y-102542273D01*
X155233588Y-102372113D01*
X155131264Y-102218974D01*
X155001030Y-102088740D01*
X154847891Y-101986416D01*
X154677731Y-101915934D01*
X154497091Y-101880002D01*
X154312913Y-101880002D01*
X154132273Y-101915934D01*
X153962113Y-101986416D01*
X153808974Y-102088740D01*
X153678740Y-102218974D01*
X153576416Y-102372113D01*
X153505934Y-102542273D01*
X153470002Y-102722913D01*
X153470002Y-102815000D01*
X153337911Y-102815000D01*
X153157271Y-102850932D01*
X152987111Y-102921414D01*
X152833972Y-103023738D01*
X152703738Y-103153972D01*
X152601414Y-103307111D01*
X152530932Y-103477271D01*
X152516694Y-103548848D01*
X152352729Y-103480932D01*
X152172089Y-103445000D01*
X151987911Y-103445000D01*
X151807271Y-103480932D01*
X151637111Y-103551414D01*
X151483972Y-103653738D01*
X151353738Y-103783972D01*
X151251414Y-103937111D01*
X151180932Y-104107271D01*
X151145000Y-104287911D01*
X149782095Y-104287911D01*
X149852893Y-104258586D01*
X150006032Y-104156262D01*
X150136266Y-104026028D01*
X150238590Y-103872889D01*
X150309072Y-103702729D01*
X150345004Y-103522089D01*
X150345004Y-103337911D01*
X150309072Y-103157271D01*
X150238590Y-102987111D01*
X150136266Y-102833972D01*
X150006032Y-102703738D01*
X149852893Y-102601414D01*
X149682733Y-102530932D01*
X149502093Y-102495000D01*
X149317915Y-102495000D01*
X149137275Y-102530932D01*
X148967115Y-102601414D01*
X148813976Y-102703738D01*
X148683742Y-102833972D01*
X148581418Y-102987111D01*
X148510936Y-103157271D01*
X148475004Y-103337911D01*
X148151049Y-103337911D01*
X148088586Y-103187111D01*
X147986262Y-103033972D01*
X147856028Y-102903738D01*
X147702889Y-102801414D01*
X147532729Y-102730932D01*
X147352089Y-102695000D01*
X147167911Y-102695000D01*
X146987271Y-102730932D01*
X146817111Y-102801414D01*
X146663972Y-102903738D01*
X146533738Y-103033972D01*
X146431414Y-103187111D01*
X146360932Y-103357271D01*
X146325000Y-103537911D01*
X137327915Y-103537911D01*
X137319052Y-103493356D01*
X137248570Y-103323196D01*
X137146246Y-103170057D01*
X137016012Y-103039823D01*
X136862873Y-102937499D01*
X136692713Y-102867017D01*
X136512073Y-102831085D01*
X136327895Y-102831085D01*
X136147255Y-102867017D01*
X135977095Y-102937499D01*
X135823956Y-103039823D01*
X135693722Y-103170057D01*
X135591398Y-103323196D01*
X135520916Y-103493356D01*
X135484984Y-103673996D01*
X135484984Y-103858174D01*
X135520916Y-104038814D01*
X135573081Y-104164752D01*
X135531414Y-104227111D01*
X135460932Y-104397271D01*
X135425000Y-104577911D01*
X134647928Y-104577911D01*
X134665000Y-104492089D01*
X134665000Y-104307911D01*
X134629068Y-104127271D01*
X134558586Y-103957111D01*
X134456262Y-103803972D01*
X134326028Y-103673738D01*
X134172889Y-103571414D01*
X134002729Y-103500932D01*
X133822089Y-103465000D01*
X133637911Y-103465000D01*
X133457271Y-103500932D01*
X133287111Y-103571414D01*
X133133972Y-103673738D01*
X133003738Y-103803972D01*
X132901414Y-103957111D01*
X132830932Y-104127271D01*
X132795000Y-104307911D01*
X130660000Y-104307911D01*
X130660000Y-100457911D01*
X140325000Y-100457911D01*
X140325000Y-100642089D01*
X140360932Y-100822729D01*
X140431414Y-100992889D01*
X140533738Y-101146028D01*
X140663972Y-101276262D01*
X140817111Y-101378586D01*
X140987271Y-101449068D01*
X141167911Y-101485000D01*
X141352089Y-101485000D01*
X141532729Y-101449068D01*
X141702889Y-101378586D01*
X141856028Y-101276262D01*
X141986262Y-101146028D01*
X142088586Y-100992889D01*
X142159068Y-100822729D01*
X142183118Y-100701825D01*
X142324809Y-100730010D01*
X142508987Y-100730010D01*
X142689627Y-100694078D01*
X142859787Y-100623596D01*
X143012926Y-100521272D01*
X143143160Y-100391038D01*
X143245484Y-100237899D01*
X143303468Y-100097911D01*
X144685000Y-100097911D01*
X144685000Y-100282089D01*
X144720932Y-100462729D01*
X144791414Y-100632889D01*
X144893738Y-100786028D01*
X145023972Y-100916262D01*
X145124395Y-100983363D01*
X145063972Y-101023736D01*
X144933738Y-101153970D01*
X144831414Y-101307109D01*
X144760932Y-101477269D01*
X144725000Y-101657909D01*
X144725000Y-101842087D01*
X144760932Y-102022727D01*
X144831414Y-102192887D01*
X144933738Y-102346026D01*
X145063972Y-102476260D01*
X145217111Y-102578584D01*
X145387271Y-102649066D01*
X145567911Y-102684998D01*
X145752089Y-102684998D01*
X145932729Y-102649066D01*
X146102889Y-102578584D01*
X146256028Y-102476260D01*
X146386262Y-102346026D01*
X146488586Y-102192887D01*
X146559068Y-102022727D01*
X146577928Y-101927911D01*
X150995000Y-101927911D01*
X150995000Y-102112089D01*
X151030932Y-102292729D01*
X151101414Y-102462889D01*
X151203738Y-102616028D01*
X151333972Y-102746262D01*
X151487111Y-102848586D01*
X151657271Y-102919068D01*
X151837911Y-102955000D01*
X152022089Y-102955000D01*
X152202729Y-102919068D01*
X152372889Y-102848586D01*
X152526028Y-102746262D01*
X152656262Y-102616028D01*
X152758586Y-102462889D01*
X152829068Y-102292729D01*
X152865000Y-102112089D01*
X152865000Y-101927911D01*
X152829068Y-101747271D01*
X152816907Y-101717911D01*
X160275000Y-101717911D01*
X160275000Y-101902089D01*
X160310932Y-102082729D01*
X160381414Y-102252889D01*
X160483738Y-102406028D01*
X160613972Y-102536262D01*
X160642432Y-102555278D01*
X160529690Y-102668020D01*
X160427366Y-102821159D01*
X160356884Y-102991319D01*
X160320952Y-103171959D01*
X160320952Y-103356137D01*
X160356884Y-103536777D01*
X160427366Y-103706937D01*
X160529690Y-103860076D01*
X160659924Y-103990310D01*
X160813063Y-104092634D01*
X160983223Y-104163116D01*
X161163863Y-104199048D01*
X161348041Y-104199048D01*
X161528681Y-104163116D01*
X161698841Y-104092634D01*
X161851980Y-103990310D01*
X161982214Y-103860076D01*
X162084538Y-103706937D01*
X162155020Y-103536777D01*
X162180653Y-103407911D01*
X165355000Y-103407911D01*
X165355000Y-103592089D01*
X165390932Y-103772729D01*
X165461414Y-103942889D01*
X165563738Y-104096028D01*
X165693972Y-104226262D01*
X165847111Y-104328586D01*
X166017271Y-104399068D01*
X166197911Y-104435000D01*
X166382089Y-104435000D01*
X166562729Y-104399068D01*
X166732889Y-104328586D01*
X166886028Y-104226262D01*
X167016262Y-104096028D01*
X167118586Y-103942889D01*
X167189068Y-103772729D01*
X167225000Y-103592089D01*
X167225000Y-103407911D01*
X167189068Y-103227271D01*
X167118586Y-103057111D01*
X167016262Y-102903972D01*
X166886028Y-102773738D01*
X166732889Y-102671414D01*
X166562729Y-102600932D01*
X166382089Y-102565000D01*
X166197911Y-102565000D01*
X166017271Y-102600932D01*
X165847111Y-102671414D01*
X165693972Y-102773738D01*
X165563738Y-102903972D01*
X165461414Y-103057111D01*
X165390932Y-103227271D01*
X165355000Y-103407911D01*
X162180653Y-103407911D01*
X162190952Y-103356137D01*
X162190952Y-103171959D01*
X162155020Y-102991319D01*
X162084538Y-102821159D01*
X161982214Y-102668020D01*
X161851980Y-102537786D01*
X161823520Y-102518770D01*
X161936262Y-102406028D01*
X162038586Y-102252889D01*
X162109068Y-102082729D01*
X162145000Y-101902089D01*
X162145000Y-101717911D01*
X162109068Y-101537271D01*
X162038586Y-101367111D01*
X162010403Y-101324932D01*
X162078586Y-101222889D01*
X162149068Y-101052729D01*
X162185000Y-100872089D01*
X162185000Y-100687911D01*
X162149068Y-100507271D01*
X162078586Y-100337111D01*
X161976262Y-100183972D01*
X161846028Y-100053738D01*
X161692889Y-99951414D01*
X161522729Y-99880932D01*
X161342089Y-99845000D01*
X161157911Y-99845000D01*
X160977271Y-99880932D01*
X160807111Y-99951414D01*
X160653972Y-100053738D01*
X160523738Y-100183972D01*
X160421414Y-100337111D01*
X160350932Y-100507271D01*
X160315000Y-100687911D01*
X160315000Y-100872089D01*
X160350932Y-101052729D01*
X160421414Y-101222889D01*
X160449597Y-101265068D01*
X160381414Y-101367111D01*
X160310932Y-101537271D01*
X160275000Y-101717911D01*
X152816907Y-101717911D01*
X152758586Y-101577111D01*
X152656262Y-101423972D01*
X152526028Y-101293738D01*
X152372889Y-101191414D01*
X152202729Y-101120932D01*
X152022089Y-101085000D01*
X151837911Y-101085000D01*
X151657271Y-101120932D01*
X151487111Y-101191414D01*
X151333972Y-101293738D01*
X151203738Y-101423972D01*
X151101414Y-101577111D01*
X151030932Y-101747271D01*
X150995000Y-101927911D01*
X146577928Y-101927911D01*
X146595000Y-101842087D01*
X146595000Y-101657909D01*
X146559068Y-101477269D01*
X146488586Y-101307109D01*
X146386262Y-101153970D01*
X146256028Y-101023736D01*
X146155605Y-100956635D01*
X146216028Y-100916262D01*
X146346262Y-100786028D01*
X146448586Y-100632889D01*
X146519068Y-100462729D01*
X146555000Y-100282089D01*
X146555000Y-100097911D01*
X146519068Y-99917271D01*
X146448586Y-99747111D01*
X146346262Y-99593972D01*
X146216028Y-99463738D01*
X146062889Y-99361414D01*
X145892729Y-99290932D01*
X145712089Y-99255000D01*
X145527911Y-99255000D01*
X145347271Y-99290932D01*
X145177111Y-99361414D01*
X145023972Y-99463738D01*
X144893738Y-99593972D01*
X144791414Y-99747111D01*
X144720932Y-99917271D01*
X144685000Y-100097911D01*
X143303468Y-100097911D01*
X143315966Y-100067739D01*
X143351898Y-99887099D01*
X143351898Y-99702921D01*
X143315966Y-99522281D01*
X143245484Y-99352121D01*
X143143160Y-99198982D01*
X143102089Y-99157911D01*
X156015000Y-99157911D01*
X156015000Y-99342089D01*
X156050932Y-99522729D01*
X156121414Y-99692889D01*
X156223738Y-99846028D01*
X156353972Y-99976262D01*
X156507111Y-100078586D01*
X156677271Y-100149068D01*
X156857911Y-100185000D01*
X157042089Y-100185000D01*
X157222729Y-100149068D01*
X157392889Y-100078586D01*
X157546028Y-99976262D01*
X157676262Y-99846028D01*
X157778586Y-99692889D01*
X157849068Y-99522729D01*
X157871907Y-99407911D01*
X165295002Y-99407911D01*
X165295002Y-99592089D01*
X165330934Y-99772729D01*
X165401416Y-99942889D01*
X165503740Y-100096028D01*
X165633974Y-100226262D01*
X165787113Y-100328586D01*
X165957273Y-100399068D01*
X166137913Y-100435000D01*
X166322091Y-100435000D01*
X166502731Y-100399068D01*
X166672891Y-100328586D01*
X166826030Y-100226262D01*
X166956264Y-100096028D01*
X167058588Y-99942889D01*
X167129070Y-99772729D01*
X167165002Y-99592089D01*
X167165002Y-99407911D01*
X167129070Y-99227271D01*
X167058588Y-99057111D01*
X166956264Y-98903972D01*
X166826030Y-98773738D01*
X166672891Y-98671414D01*
X166502731Y-98600932D01*
X166322091Y-98565000D01*
X166137913Y-98565000D01*
X165957273Y-98600932D01*
X165787113Y-98671414D01*
X165633974Y-98773738D01*
X165503740Y-98903972D01*
X165401416Y-99057111D01*
X165330934Y-99227271D01*
X165295002Y-99407911D01*
X157871907Y-99407911D01*
X157885000Y-99342089D01*
X157885000Y-99157911D01*
X157849068Y-98977271D01*
X157778586Y-98807111D01*
X157676262Y-98653972D01*
X157546028Y-98523738D01*
X157392889Y-98421414D01*
X157222729Y-98350932D01*
X157042089Y-98315000D01*
X156857911Y-98315000D01*
X156677271Y-98350932D01*
X156507111Y-98421414D01*
X156353972Y-98523738D01*
X156223738Y-98653972D01*
X156121414Y-98807111D01*
X156050932Y-98977271D01*
X156015000Y-99157911D01*
X143102089Y-99157911D01*
X143012926Y-99068748D01*
X142859787Y-98966424D01*
X142689627Y-98895942D01*
X142508987Y-98860010D01*
X142324809Y-98860010D01*
X142144169Y-98895942D01*
X141974009Y-98966424D01*
X141820870Y-99068748D01*
X141690636Y-99198982D01*
X141588312Y-99352121D01*
X141517830Y-99522281D01*
X141493780Y-99643185D01*
X141352089Y-99615000D01*
X141167911Y-99615000D01*
X140987271Y-99650932D01*
X140817111Y-99721414D01*
X140663972Y-99823738D01*
X140533738Y-99953972D01*
X140431414Y-100107111D01*
X140360932Y-100277271D01*
X140325000Y-100457911D01*
X130660000Y-100457911D01*
X130660000Y-96605739D01*
X130753738Y-96746028D01*
X130883972Y-96876262D01*
X131037111Y-96978586D01*
X131207271Y-97049068D01*
X131387911Y-97085000D01*
X131572089Y-97085000D01*
X131752729Y-97049068D01*
X131922889Y-96978586D01*
X132076028Y-96876262D01*
X132206262Y-96746028D01*
X132308586Y-96592889D01*
X132379068Y-96422729D01*
X132382015Y-96407909D01*
X132795000Y-96407909D01*
X132795000Y-96592087D01*
X132830932Y-96772727D01*
X132901414Y-96942887D01*
X132939576Y-97000000D01*
X132901416Y-97057111D01*
X132830934Y-97227271D01*
X132795002Y-97407911D01*
X132795002Y-97592089D01*
X132830934Y-97772729D01*
X132901416Y-97942889D01*
X133003740Y-98096028D01*
X133133974Y-98226262D01*
X133287113Y-98328586D01*
X133457273Y-98399068D01*
X133637913Y-98435000D01*
X133822091Y-98435000D01*
X134002731Y-98399068D01*
X134172891Y-98328586D01*
X134326030Y-98226262D01*
X134456264Y-98096028D01*
X134558588Y-97942889D01*
X134629070Y-97772729D01*
X134632017Y-97757909D01*
X136775000Y-97757909D01*
X136775000Y-97942087D01*
X136810932Y-98122727D01*
X136881414Y-98292887D01*
X136983738Y-98446026D01*
X137113972Y-98576260D01*
X137267111Y-98678584D01*
X137437271Y-98749066D01*
X137617911Y-98784998D01*
X137802089Y-98784998D01*
X137982729Y-98749066D01*
X138152889Y-98678584D01*
X138306028Y-98576260D01*
X138436262Y-98446026D01*
X138538586Y-98292887D01*
X138609068Y-98122727D01*
X138645000Y-97942087D01*
X138645000Y-97757911D01*
X139295000Y-97757911D01*
X139295000Y-97942089D01*
X139330932Y-98122729D01*
X139401414Y-98292889D01*
X139503738Y-98446028D01*
X139633972Y-98576262D01*
X139787111Y-98678586D01*
X139957271Y-98749068D01*
X140137911Y-98785000D01*
X140322089Y-98785000D01*
X140502729Y-98749068D01*
X140672889Y-98678586D01*
X140826028Y-98576262D01*
X140956262Y-98446028D01*
X141058586Y-98292889D01*
X141129068Y-98122729D01*
X141143950Y-98047909D01*
X147115000Y-98047909D01*
X147115000Y-98232087D01*
X147150932Y-98412727D01*
X147221414Y-98582887D01*
X147323738Y-98736026D01*
X147453972Y-98866260D01*
X147607111Y-98968584D01*
X147777271Y-99039066D01*
X147957911Y-99074998D01*
X148142089Y-99074998D01*
X148322729Y-99039066D01*
X148492889Y-98968584D01*
X148646028Y-98866260D01*
X148776262Y-98736026D01*
X148878586Y-98582887D01*
X148949068Y-98412727D01*
X148985000Y-98232087D01*
X148985000Y-98047909D01*
X148977044Y-98007911D01*
X151015000Y-98007911D01*
X151015000Y-98192089D01*
X151050932Y-98372729D01*
X151121414Y-98542889D01*
X151223738Y-98696028D01*
X151353972Y-98826262D01*
X151507111Y-98928586D01*
X151677271Y-98999068D01*
X151857911Y-99035000D01*
X152042089Y-99035000D01*
X152222729Y-98999068D01*
X152392889Y-98928586D01*
X152546028Y-98826262D01*
X152676262Y-98696028D01*
X152778586Y-98542889D01*
X152849068Y-98372729D01*
X152885000Y-98192089D01*
X152885000Y-98007911D01*
X152849068Y-97827271D01*
X152778586Y-97657111D01*
X152676262Y-97503972D01*
X152546028Y-97373738D01*
X152392889Y-97271414D01*
X152222729Y-97200932D01*
X152042089Y-97165000D01*
X151857911Y-97165000D01*
X151677271Y-97200932D01*
X151507111Y-97271414D01*
X151353972Y-97373738D01*
X151223738Y-97503972D01*
X151121414Y-97657111D01*
X151050932Y-97827271D01*
X151015000Y-98007911D01*
X148977044Y-98007911D01*
X148949068Y-97867269D01*
X148943236Y-97853190D01*
X149102281Y-97919068D01*
X149282921Y-97955000D01*
X149467099Y-97955000D01*
X149647739Y-97919068D01*
X149817899Y-97848586D01*
X149971038Y-97746262D01*
X150101272Y-97616028D01*
X150203596Y-97462889D01*
X150274078Y-97292729D01*
X150310010Y-97112089D01*
X150310010Y-96927911D01*
X150274078Y-96747271D01*
X150203596Y-96577111D01*
X150151784Y-96499568D01*
X152299990Y-96499568D01*
X152299990Y-96683746D01*
X152335922Y-96864386D01*
X152406404Y-97034546D01*
X152508728Y-97187685D01*
X152638962Y-97317919D01*
X152792101Y-97420243D01*
X152962261Y-97490725D01*
X153142901Y-97526657D01*
X153284999Y-97526657D01*
X153284999Y-97612088D01*
X153320931Y-97792728D01*
X153391413Y-97962888D01*
X153493737Y-98116027D01*
X153623971Y-98246261D01*
X153777110Y-98348585D01*
X153947270Y-98419067D01*
X154127910Y-98454999D01*
X154312088Y-98454999D01*
X154492728Y-98419067D01*
X154662888Y-98348585D01*
X154816027Y-98246261D01*
X154946261Y-98116027D01*
X155048585Y-97962888D01*
X155119067Y-97792728D01*
X155154999Y-97612088D01*
X155154999Y-97427910D01*
X155119067Y-97247270D01*
X155048585Y-97077110D01*
X154946261Y-96923971D01*
X154816027Y-96793737D01*
X154662888Y-96691413D01*
X154492728Y-96620931D01*
X154312088Y-96584999D01*
X154169990Y-96584999D01*
X154169990Y-96499568D01*
X154150034Y-96399242D01*
X154159271Y-96403068D01*
X154339911Y-96439000D01*
X154524089Y-96439000D01*
X154704729Y-96403068D01*
X154874889Y-96332586D01*
X155028028Y-96230262D01*
X155120379Y-96137911D01*
X157515000Y-96137911D01*
X157515000Y-96322089D01*
X157550932Y-96502729D01*
X157621414Y-96672889D01*
X157723738Y-96826028D01*
X157853972Y-96956262D01*
X158007111Y-97058586D01*
X158177271Y-97129068D01*
X158357911Y-97165000D01*
X158542089Y-97165000D01*
X158722729Y-97129068D01*
X158892889Y-97058586D01*
X159046028Y-96956262D01*
X159176262Y-96826028D01*
X159278586Y-96672889D01*
X159349068Y-96502729D01*
X159367927Y-96407919D01*
X165345000Y-96407919D01*
X165345000Y-96592097D01*
X165380932Y-96772737D01*
X165451414Y-96942897D01*
X165553738Y-97096036D01*
X165683972Y-97226270D01*
X165837111Y-97328594D01*
X166007271Y-97399076D01*
X166187911Y-97435008D01*
X166372089Y-97435008D01*
X166552729Y-97399076D01*
X166722889Y-97328594D01*
X166876028Y-97226270D01*
X167006262Y-97096036D01*
X167108586Y-96942897D01*
X167179068Y-96772737D01*
X167215000Y-96592097D01*
X167215000Y-96407919D01*
X167179068Y-96227279D01*
X167108586Y-96057119D01*
X167006262Y-95903980D01*
X166876028Y-95773746D01*
X166722889Y-95671422D01*
X166552729Y-95600940D01*
X166372089Y-95565008D01*
X166187911Y-95565008D01*
X166007271Y-95600940D01*
X165837111Y-95671422D01*
X165683972Y-95773746D01*
X165553738Y-95903980D01*
X165451414Y-96057119D01*
X165380932Y-96227279D01*
X165345000Y-96407919D01*
X159367927Y-96407919D01*
X159385000Y-96322089D01*
X159385000Y-96137911D01*
X159349068Y-95957271D01*
X159278586Y-95787111D01*
X159176262Y-95633972D01*
X159046028Y-95503738D01*
X158892889Y-95401414D01*
X158722729Y-95330932D01*
X158542089Y-95295000D01*
X158357911Y-95295000D01*
X158177271Y-95330932D01*
X158007111Y-95401414D01*
X157853972Y-95503738D01*
X157723738Y-95633972D01*
X157621414Y-95787111D01*
X157550932Y-95957271D01*
X157515000Y-96137911D01*
X155120379Y-96137911D01*
X155158262Y-96100028D01*
X155260586Y-95946889D01*
X155331068Y-95776729D01*
X155360860Y-95626958D01*
X155433738Y-95736028D01*
X155563972Y-95866262D01*
X155717111Y-95968586D01*
X155887271Y-96039068D01*
X156067911Y-96075000D01*
X156252089Y-96075000D01*
X156432729Y-96039068D01*
X156602889Y-95968586D01*
X156756028Y-95866262D01*
X156886262Y-95736028D01*
X156988586Y-95582889D01*
X157059068Y-95412729D01*
X157095000Y-95232089D01*
X157095000Y-95047911D01*
X157059068Y-94867271D01*
X156988586Y-94697111D01*
X156886262Y-94543972D01*
X156756028Y-94413738D01*
X156732342Y-94397911D01*
X162785000Y-94397911D01*
X162785000Y-94582089D01*
X162820932Y-94762729D01*
X162891414Y-94932889D01*
X162993738Y-95086028D01*
X163123972Y-95216262D01*
X163277111Y-95318586D01*
X163447271Y-95389068D01*
X163627911Y-95425000D01*
X163812089Y-95425000D01*
X163992729Y-95389068D01*
X164162889Y-95318586D01*
X164316028Y-95216262D01*
X164446262Y-95086028D01*
X164548586Y-94932889D01*
X164619068Y-94762729D01*
X164655000Y-94582089D01*
X164655000Y-94397911D01*
X164619068Y-94217271D01*
X164548586Y-94047111D01*
X164446262Y-93893972D01*
X164316028Y-93763738D01*
X164162889Y-93661414D01*
X163992729Y-93590932D01*
X163812089Y-93555000D01*
X163627911Y-93555000D01*
X163447271Y-93590932D01*
X163277111Y-93661414D01*
X163123972Y-93763738D01*
X162993738Y-93893972D01*
X162891414Y-94047111D01*
X162820932Y-94217271D01*
X162785000Y-94397911D01*
X156732342Y-94397911D01*
X156602889Y-94311414D01*
X156432729Y-94240932D01*
X156252089Y-94205000D01*
X156067911Y-94205000D01*
X155887271Y-94240932D01*
X155717111Y-94311414D01*
X155563972Y-94413738D01*
X155433738Y-94543972D01*
X155331414Y-94697111D01*
X155260932Y-94867271D01*
X155231140Y-95017042D01*
X155158262Y-94907972D01*
X155028028Y-94777738D01*
X154874889Y-94675414D01*
X154704729Y-94604932D01*
X154524089Y-94569000D01*
X154339911Y-94569000D01*
X154159271Y-94604932D01*
X153989111Y-94675414D01*
X153835972Y-94777738D01*
X153705738Y-94907972D01*
X153603414Y-95061111D01*
X153532932Y-95231271D01*
X153497000Y-95411911D01*
X153497000Y-95596089D01*
X153516956Y-95696415D01*
X153507719Y-95692589D01*
X153327079Y-95656657D01*
X153142901Y-95656657D01*
X152962261Y-95692589D01*
X152792101Y-95763071D01*
X152638962Y-95865395D01*
X152508728Y-95995629D01*
X152406404Y-96148768D01*
X152335922Y-96318928D01*
X152299990Y-96499568D01*
X150151784Y-96499568D01*
X150101272Y-96423972D01*
X149971038Y-96293738D01*
X149817899Y-96191414D01*
X149647739Y-96120932D01*
X149467099Y-96085000D01*
X149386706Y-96085000D01*
X149429068Y-95982729D01*
X149465000Y-95802089D01*
X149465000Y-95617911D01*
X149429068Y-95437271D01*
X149358586Y-95267111D01*
X149256262Y-95113972D01*
X149126028Y-94983738D01*
X148972889Y-94881414D01*
X148802729Y-94810932D01*
X148622089Y-94775000D01*
X148437911Y-94775000D01*
X148257271Y-94810932D01*
X148087111Y-94881414D01*
X147933972Y-94983738D01*
X147803738Y-95113972D01*
X147701414Y-95267111D01*
X147630932Y-95437271D01*
X147595000Y-95617911D01*
X147595000Y-95802089D01*
X147630932Y-95982729D01*
X147701414Y-96152889D01*
X147803738Y-96306028D01*
X147933972Y-96436262D01*
X148087111Y-96538586D01*
X148257271Y-96609068D01*
X148437911Y-96645000D01*
X148518304Y-96645000D01*
X148475942Y-96747271D01*
X148440010Y-96927911D01*
X148440010Y-97112089D01*
X148475942Y-97292729D01*
X148481774Y-97306808D01*
X148322729Y-97240930D01*
X148142089Y-97204998D01*
X147957911Y-97204998D01*
X147777271Y-97240930D01*
X147607111Y-97311412D01*
X147453972Y-97413736D01*
X147323738Y-97543970D01*
X147221414Y-97697109D01*
X147150932Y-97867269D01*
X147115000Y-98047909D01*
X141143950Y-98047909D01*
X141165000Y-97942089D01*
X141165000Y-97757911D01*
X141129068Y-97577271D01*
X141058586Y-97407111D01*
X140956262Y-97253972D01*
X140826028Y-97123738D01*
X140672889Y-97021414D01*
X140502729Y-96950932D01*
X140322089Y-96915000D01*
X140137911Y-96915000D01*
X139957271Y-96950932D01*
X139787111Y-97021414D01*
X139633972Y-97123738D01*
X139503738Y-97253972D01*
X139401414Y-97407111D01*
X139330932Y-97577271D01*
X139295000Y-97757911D01*
X138645000Y-97757911D01*
X138645000Y-97757909D01*
X138609068Y-97577269D01*
X138538586Y-97407109D01*
X138436262Y-97253970D01*
X138306028Y-97123736D01*
X138152889Y-97021412D01*
X137982729Y-96950930D01*
X137802089Y-96914998D01*
X137617911Y-96914998D01*
X137437271Y-96950930D01*
X137267111Y-97021412D01*
X137113972Y-97123736D01*
X136983738Y-97253970D01*
X136881414Y-97407109D01*
X136810932Y-97577269D01*
X136775000Y-97757909D01*
X134632017Y-97757909D01*
X134665002Y-97592089D01*
X134665002Y-97407911D01*
X134629070Y-97227271D01*
X134558588Y-97057111D01*
X134520426Y-96999998D01*
X134558586Y-96942887D01*
X134629068Y-96772727D01*
X134665000Y-96592087D01*
X134665000Y-96407909D01*
X134629068Y-96227269D01*
X134558586Y-96057109D01*
X134456262Y-95903970D01*
X134326028Y-95773736D01*
X134172889Y-95671412D01*
X134002729Y-95600930D01*
X133822089Y-95564998D01*
X133637911Y-95564998D01*
X133457271Y-95600930D01*
X133287111Y-95671412D01*
X133133972Y-95773736D01*
X133003738Y-95903970D01*
X132901414Y-96057109D01*
X132830932Y-96227269D01*
X132795000Y-96407909D01*
X132382015Y-96407909D01*
X132415000Y-96242089D01*
X132415000Y-96057911D01*
X132379068Y-95877271D01*
X132308586Y-95707111D01*
X132206262Y-95553972D01*
X132076028Y-95423738D01*
X131922889Y-95321414D01*
X131752729Y-95250932D01*
X131572089Y-95215000D01*
X131387911Y-95215000D01*
X131207271Y-95250932D01*
X131037111Y-95321414D01*
X130883972Y-95423738D01*
X130753738Y-95553972D01*
X130660000Y-95694261D01*
X130660000Y-94397911D01*
X137385000Y-94397911D01*
X137385000Y-94582089D01*
X137420932Y-94762729D01*
X137491414Y-94932889D01*
X137593738Y-95086028D01*
X137723972Y-95216262D01*
X137877111Y-95318586D01*
X138047271Y-95389068D01*
X138227911Y-95425000D01*
X138412089Y-95425000D01*
X138592729Y-95389068D01*
X138762889Y-95318586D01*
X138916028Y-95216262D01*
X138924379Y-95207911D01*
X141385000Y-95207911D01*
X141385000Y-95392089D01*
X141420932Y-95572729D01*
X141491414Y-95742889D01*
X141593738Y-95896028D01*
X141723972Y-96026262D01*
X141877111Y-96128586D01*
X142047271Y-96199068D01*
X142227911Y-96235000D01*
X142412089Y-96235000D01*
X142592729Y-96199068D01*
X142762889Y-96128586D01*
X142884449Y-96047363D01*
X142963738Y-96166028D01*
X143093972Y-96296262D01*
X143247111Y-96398586D01*
X143417271Y-96469068D01*
X143597911Y-96505000D01*
X143782089Y-96505000D01*
X143962729Y-96469068D01*
X144132889Y-96398586D01*
X144286028Y-96296262D01*
X144416262Y-96166028D01*
X144518586Y-96012889D01*
X144589068Y-95842729D01*
X144595027Y-95812771D01*
X144610932Y-95892729D01*
X144681414Y-96062889D01*
X144783738Y-96216028D01*
X144913972Y-96346262D01*
X145067111Y-96448586D01*
X145237271Y-96519068D01*
X145417911Y-96555000D01*
X145602089Y-96555000D01*
X145782729Y-96519068D01*
X145886682Y-96476010D01*
X145997074Y-96549771D01*
X146167234Y-96620253D01*
X146347874Y-96656185D01*
X146532052Y-96656185D01*
X146712692Y-96620253D01*
X146882852Y-96549771D01*
X147035991Y-96447447D01*
X147166225Y-96317213D01*
X147268549Y-96164074D01*
X147339031Y-95993914D01*
X147374963Y-95813274D01*
X147374963Y-95629096D01*
X147339031Y-95448456D01*
X147268549Y-95278296D01*
X147166225Y-95125157D01*
X147035991Y-94994923D01*
X146882852Y-94892599D01*
X146712692Y-94822117D01*
X146532052Y-94786185D01*
X146347874Y-94786185D01*
X146167234Y-94822117D01*
X146063281Y-94865175D01*
X145952889Y-94791414D01*
X145782729Y-94720932D01*
X145602089Y-94685000D01*
X145417911Y-94685000D01*
X145237271Y-94720932D01*
X145067111Y-94791414D01*
X144913972Y-94893738D01*
X144783738Y-95023972D01*
X144681414Y-95177111D01*
X144610932Y-95347271D01*
X144604973Y-95377229D01*
X144589068Y-95297271D01*
X144518586Y-95127111D01*
X144416262Y-94973972D01*
X144286028Y-94843738D01*
X144132889Y-94741414D01*
X143962729Y-94670932D01*
X143782089Y-94635000D01*
X143597911Y-94635000D01*
X143417271Y-94670932D01*
X143247111Y-94741414D01*
X143125551Y-94822637D01*
X143046262Y-94703972D01*
X142916028Y-94573738D01*
X142762889Y-94471414D01*
X142592729Y-94400932D01*
X142412089Y-94365000D01*
X142227911Y-94365000D01*
X142047271Y-94400932D01*
X141877111Y-94471414D01*
X141723972Y-94573738D01*
X141593738Y-94703972D01*
X141491414Y-94857111D01*
X141420932Y-95027271D01*
X141385000Y-95207911D01*
X138924379Y-95207911D01*
X139046262Y-95086028D01*
X139148586Y-94932889D01*
X139219068Y-94762729D01*
X139255000Y-94582089D01*
X139255000Y-94397911D01*
X139219068Y-94217271D01*
X139148586Y-94047111D01*
X139046262Y-93893972D01*
X138916028Y-93763738D01*
X138762889Y-93661414D01*
X138592729Y-93590932D01*
X138412089Y-93555000D01*
X138227911Y-93555000D01*
X138047271Y-93590932D01*
X137877111Y-93661414D01*
X137723972Y-93763738D01*
X137593738Y-93893972D01*
X137491414Y-94047111D01*
X137420932Y-94217271D01*
X137385000Y-94397911D01*
X130660000Y-94397911D01*
X130660000Y-93327911D01*
X135235000Y-93327911D01*
X135235000Y-93512089D01*
X135270932Y-93692729D01*
X135341414Y-93862889D01*
X135443738Y-94016028D01*
X135573972Y-94146262D01*
X135727111Y-94248586D01*
X135897271Y-94319068D01*
X136077911Y-94355000D01*
X136262089Y-94355000D01*
X136442729Y-94319068D01*
X136612889Y-94248586D01*
X136766028Y-94146262D01*
X136896262Y-94016028D01*
X136998586Y-93862889D01*
X137069068Y-93692729D01*
X137105000Y-93512089D01*
X137105000Y-93327911D01*
X137069068Y-93147271D01*
X136998586Y-92977111D01*
X136952349Y-92907911D01*
X142605006Y-92907911D01*
X142605006Y-93092089D01*
X142640938Y-93272729D01*
X142711420Y-93442889D01*
X142813744Y-93596028D01*
X142943978Y-93726262D01*
X143097117Y-93828586D01*
X143267277Y-93899068D01*
X143447917Y-93935000D01*
X143632095Y-93935000D01*
X143812735Y-93899068D01*
X143982895Y-93828586D01*
X144136034Y-93726262D01*
X144266268Y-93596028D01*
X144368592Y-93442889D01*
X144439074Y-93272729D01*
X144475006Y-93092089D01*
X144475006Y-92907911D01*
X144465061Y-92857911D01*
X149005000Y-92857911D01*
X149005000Y-93042089D01*
X149040932Y-93222729D01*
X149111414Y-93392889D01*
X149213738Y-93546028D01*
X149343972Y-93676262D01*
X149497111Y-93778586D01*
X149667271Y-93849068D01*
X149847911Y-93885000D01*
X150032089Y-93885000D01*
X150212729Y-93849068D01*
X150382889Y-93778586D01*
X150409015Y-93761129D01*
X150567988Y-93826977D01*
X150748628Y-93862909D01*
X150932806Y-93862909D01*
X151113446Y-93826977D01*
X151283606Y-93756495D01*
X151436745Y-93654171D01*
X151566979Y-93523937D01*
X151669303Y-93370798D01*
X151739785Y-93200638D01*
X151775717Y-93019998D01*
X151775717Y-92835820D01*
X151739785Y-92655180D01*
X151669303Y-92485020D01*
X151566979Y-92331881D01*
X151436745Y-92201647D01*
X151283606Y-92099323D01*
X151133766Y-92037258D01*
X151150707Y-91952089D01*
X151150707Y-91767911D01*
X151124849Y-91637911D01*
X156705000Y-91637911D01*
X156705000Y-91822089D01*
X156740932Y-92002729D01*
X156811414Y-92172889D01*
X156913738Y-92326028D01*
X157043972Y-92456262D01*
X157197111Y-92558586D01*
X157367271Y-92629068D01*
X157547911Y-92665000D01*
X157715511Y-92665000D01*
X157715511Y-92681582D01*
X157751443Y-92862222D01*
X157821925Y-93032382D01*
X157924249Y-93185521D01*
X158054483Y-93315755D01*
X158207622Y-93418079D01*
X158377782Y-93488561D01*
X158558422Y-93524493D01*
X158742600Y-93524493D01*
X158923240Y-93488561D01*
X159093400Y-93418079D01*
X159246539Y-93315755D01*
X159376773Y-93185521D01*
X159479097Y-93032382D01*
X159549579Y-92862222D01*
X159585511Y-92681582D01*
X159585511Y-92497404D01*
X159549579Y-92316764D01*
X159479097Y-92146604D01*
X159376773Y-91993465D01*
X159246539Y-91863231D01*
X159093400Y-91760907D01*
X158923240Y-91690425D01*
X158742600Y-91654493D01*
X158575000Y-91654493D01*
X158575000Y-91637911D01*
X158539068Y-91457271D01*
X158468586Y-91287111D01*
X158366262Y-91133972D01*
X158236028Y-91003738D01*
X158082889Y-90901414D01*
X157912729Y-90830932D01*
X157732089Y-90795000D01*
X157547911Y-90795000D01*
X157367271Y-90830932D01*
X157197111Y-90901414D01*
X157043972Y-91003738D01*
X156913738Y-91133972D01*
X156811414Y-91287111D01*
X156740932Y-91457271D01*
X156705000Y-91637911D01*
X151124849Y-91637911D01*
X151114775Y-91587271D01*
X151044293Y-91417111D01*
X150941969Y-91263972D01*
X150811735Y-91133738D01*
X150658596Y-91031414D01*
X150488436Y-90960932D01*
X150307796Y-90925000D01*
X150123618Y-90925000D01*
X149942978Y-90960932D01*
X149772818Y-91031414D01*
X149619679Y-91133738D01*
X149489445Y-91263972D01*
X149387121Y-91417111D01*
X149316639Y-91587271D01*
X149280707Y-91767911D01*
X149280707Y-91952089D01*
X149316639Y-92132729D01*
X149352089Y-92218314D01*
X149343972Y-92223738D01*
X149213738Y-92353972D01*
X149111414Y-92507111D01*
X149040932Y-92677271D01*
X149005000Y-92857911D01*
X144465061Y-92857911D01*
X144439074Y-92727271D01*
X144368592Y-92557111D01*
X144266268Y-92403972D01*
X144136034Y-92273738D01*
X143982895Y-92171414D01*
X143812735Y-92100932D01*
X143632095Y-92065000D01*
X143447917Y-92065000D01*
X143267277Y-92100932D01*
X143097117Y-92171414D01*
X142943978Y-92273738D01*
X142813744Y-92403972D01*
X142711420Y-92557111D01*
X142640938Y-92727271D01*
X142605006Y-92907911D01*
X136952349Y-92907911D01*
X136896262Y-92823972D01*
X136766028Y-92693738D01*
X136612889Y-92591414D01*
X136442729Y-92520932D01*
X136262089Y-92485000D01*
X136077911Y-92485000D01*
X135897271Y-92520932D01*
X135727111Y-92591414D01*
X135573972Y-92693738D01*
X135443738Y-92823972D01*
X135341414Y-92977111D01*
X135270932Y-93147271D01*
X135235000Y-93327911D01*
X130660000Y-93327911D01*
X130660000Y-90067911D01*
X140064998Y-90067911D01*
X140064998Y-90252089D01*
X140100930Y-90432729D01*
X140171412Y-90602889D01*
X140273736Y-90756028D01*
X140403970Y-90886262D01*
X140557109Y-90988586D01*
X140727269Y-91059068D01*
X140907909Y-91095000D01*
X141092087Y-91095000D01*
X141272727Y-91059068D01*
X141442887Y-90988586D01*
X141596026Y-90886262D01*
X141726260Y-90756028D01*
X141828584Y-90602889D01*
X141899066Y-90432729D01*
X141934998Y-90252089D01*
X141934998Y-90067911D01*
X141899066Y-89887271D01*
X141828584Y-89717111D01*
X141726260Y-89563972D01*
X141596026Y-89433738D01*
X141442887Y-89331414D01*
X141272727Y-89260932D01*
X141092087Y-89225000D01*
X140907909Y-89225000D01*
X140727269Y-89260932D01*
X140557109Y-89331414D01*
X140403970Y-89433738D01*
X140273736Y-89563972D01*
X140171412Y-89717111D01*
X140100930Y-89887271D01*
X140064998Y-90067911D01*
X130660000Y-90067911D01*
X130660000Y-89057913D01*
X143775000Y-89057913D01*
X143775000Y-89242091D01*
X143810932Y-89422731D01*
X143881414Y-89592891D01*
X143983738Y-89746030D01*
X144113972Y-89876264D01*
X144267111Y-89978588D01*
X144437271Y-90049070D01*
X144617911Y-90085002D01*
X144802089Y-90085002D01*
X144982729Y-90049070D01*
X145009669Y-90037911D01*
X150635000Y-90037911D01*
X150635000Y-90222089D01*
X150670932Y-90402729D01*
X150741414Y-90572889D01*
X150843738Y-90726028D01*
X150973972Y-90856262D01*
X151127111Y-90958586D01*
X151297271Y-91029068D01*
X151477911Y-91065000D01*
X151662089Y-91065000D01*
X151842729Y-91029068D01*
X152012889Y-90958586D01*
X152166028Y-90856262D01*
X152296262Y-90726028D01*
X152398586Y-90572889D01*
X152469068Y-90402729D01*
X152505000Y-90222089D01*
X152505000Y-90037911D01*
X152469068Y-89857271D01*
X152411344Y-89717911D01*
X158339000Y-89717911D01*
X158339000Y-89902089D01*
X158374932Y-90082729D01*
X158445414Y-90252889D01*
X158547738Y-90406028D01*
X158677972Y-90536262D01*
X158831111Y-90638586D01*
X159001271Y-90709068D01*
X159181911Y-90745000D01*
X159366089Y-90745000D01*
X159546729Y-90709068D01*
X159569000Y-90699843D01*
X159591271Y-90709068D01*
X159771911Y-90745000D01*
X159956089Y-90745000D01*
X160136729Y-90709068D01*
X160166002Y-90696943D01*
X160195271Y-90709066D01*
X160375911Y-90744998D01*
X160560089Y-90744998D01*
X160740729Y-90709066D01*
X160765998Y-90698599D01*
X160791271Y-90709068D01*
X160971911Y-90745000D01*
X161156089Y-90745000D01*
X161336729Y-90709068D01*
X161364000Y-90697772D01*
X161391271Y-90709068D01*
X161571911Y-90745000D01*
X161756089Y-90745000D01*
X161936729Y-90709068D01*
X162106889Y-90638586D01*
X162260028Y-90536262D01*
X162390262Y-90406028D01*
X162471763Y-90284053D01*
X162533972Y-90346262D01*
X162687111Y-90448586D01*
X162857271Y-90519068D01*
X163037911Y-90555000D01*
X163222089Y-90555000D01*
X163402729Y-90519068D01*
X163572889Y-90448586D01*
X163726028Y-90346262D01*
X163856262Y-90216028D01*
X163958586Y-90062889D01*
X164029068Y-89892729D01*
X164065000Y-89712089D01*
X164065000Y-89527911D01*
X164029068Y-89347271D01*
X163958586Y-89177111D01*
X163856262Y-89023972D01*
X163726028Y-88893738D01*
X163572889Y-88791414D01*
X163402729Y-88720932D01*
X163222089Y-88685000D01*
X163037911Y-88685000D01*
X162857271Y-88720932D01*
X162687111Y-88791414D01*
X162533972Y-88893738D01*
X162403738Y-89023972D01*
X162322237Y-89145947D01*
X162260028Y-89083738D01*
X162106889Y-88981414D01*
X161936729Y-88910932D01*
X161756089Y-88875000D01*
X161571911Y-88875000D01*
X161391271Y-88910932D01*
X161364000Y-88922228D01*
X161336729Y-88910932D01*
X161156089Y-88875000D01*
X160971911Y-88875000D01*
X160791271Y-88910932D01*
X160766002Y-88921399D01*
X160740729Y-88910930D01*
X160560089Y-88874998D01*
X160375911Y-88874998D01*
X160195271Y-88910930D01*
X160165998Y-88923055D01*
X160136729Y-88910932D01*
X159956089Y-88875000D01*
X159771911Y-88875000D01*
X159591271Y-88910932D01*
X159569000Y-88920157D01*
X159546729Y-88910932D01*
X159366089Y-88875000D01*
X159181911Y-88875000D01*
X159001271Y-88910932D01*
X158831111Y-88981414D01*
X158677972Y-89083738D01*
X158547738Y-89213972D01*
X158445414Y-89367111D01*
X158374932Y-89537271D01*
X158339000Y-89717911D01*
X152411344Y-89717911D01*
X152398586Y-89687111D01*
X152296262Y-89533972D01*
X152166028Y-89403738D01*
X152012889Y-89301414D01*
X151842729Y-89230932D01*
X151662089Y-89195000D01*
X151477911Y-89195000D01*
X151297271Y-89230932D01*
X151127111Y-89301414D01*
X150973972Y-89403738D01*
X150843738Y-89533972D01*
X150741414Y-89687111D01*
X150670932Y-89857271D01*
X150635000Y-90037911D01*
X145009669Y-90037911D01*
X145152889Y-89978588D01*
X145306028Y-89876264D01*
X145436262Y-89746030D01*
X145538586Y-89592891D01*
X145609068Y-89422731D01*
X145645000Y-89242091D01*
X145645000Y-89057913D01*
X145609068Y-88877273D01*
X145538586Y-88707113D01*
X145436262Y-88553974D01*
X145306028Y-88423740D01*
X145152889Y-88321416D01*
X144982729Y-88250934D01*
X144802089Y-88215002D01*
X144617911Y-88215002D01*
X144437271Y-88250934D01*
X144267111Y-88321416D01*
X144113972Y-88423740D01*
X143983738Y-88553974D01*
X143881414Y-88707113D01*
X143810932Y-88877273D01*
X143775000Y-89057913D01*
X130660000Y-89057913D01*
X130660000Y-84490475D01*
X132115000Y-84490475D01*
X132115000Y-85009525D01*
X132216261Y-85518601D01*
X132414893Y-85998141D01*
X132703262Y-86429715D01*
X133070285Y-86796738D01*
X133501859Y-87085107D01*
X133981399Y-87283739D01*
X134490475Y-87385000D01*
X135009525Y-87385000D01*
X135518601Y-87283739D01*
X135998141Y-87085107D01*
X136312797Y-86874860D01*
X142868051Y-86874860D01*
X142868051Y-87059038D01*
X142903983Y-87239678D01*
X142974465Y-87409838D01*
X143076789Y-87562977D01*
X143207023Y-87693211D01*
X143360162Y-87795535D01*
X143530322Y-87866017D01*
X143710962Y-87901949D01*
X143895140Y-87901949D01*
X144075780Y-87866017D01*
X144245940Y-87795535D01*
X144399079Y-87693211D01*
X144529313Y-87562977D01*
X144631637Y-87409838D01*
X144702119Y-87239678D01*
X144738051Y-87059038D01*
X144738051Y-87037911D01*
X145555000Y-87037911D01*
X145555000Y-87222089D01*
X145590932Y-87402729D01*
X145661414Y-87572889D01*
X145763738Y-87726028D01*
X145893972Y-87856262D01*
X146047111Y-87958586D01*
X146217271Y-88029068D01*
X146397911Y-88065000D01*
X146582089Y-88065000D01*
X146762729Y-88029068D01*
X146910366Y-87967915D01*
X147275000Y-87967915D01*
X147275000Y-88152093D01*
X147310932Y-88332733D01*
X147381414Y-88502893D01*
X147483738Y-88656032D01*
X147613972Y-88786266D01*
X147767111Y-88888590D01*
X147937271Y-88959072D01*
X148117911Y-88995004D01*
X148302089Y-88995004D01*
X148482729Y-88959072D01*
X148652889Y-88888590D01*
X148806028Y-88786266D01*
X148936262Y-88656032D01*
X149038586Y-88502893D01*
X149109068Y-88332733D01*
X149145000Y-88152093D01*
X149145000Y-87967915D01*
X149109068Y-87787275D01*
X149038586Y-87617115D01*
X148936262Y-87463976D01*
X148806028Y-87333742D01*
X148652889Y-87231418D01*
X148482729Y-87160936D01*
X148302089Y-87125004D01*
X148117911Y-87125004D01*
X147937271Y-87160936D01*
X147767111Y-87231418D01*
X147613972Y-87333742D01*
X147483738Y-87463976D01*
X147381414Y-87617115D01*
X147310932Y-87787275D01*
X147275000Y-87967915D01*
X146910366Y-87967915D01*
X146932889Y-87958586D01*
X147086028Y-87856262D01*
X147216262Y-87726028D01*
X147318586Y-87572889D01*
X147389068Y-87402729D01*
X147425000Y-87222089D01*
X147425000Y-87037911D01*
X147389068Y-86857271D01*
X147318586Y-86687111D01*
X147216262Y-86533972D01*
X147086028Y-86403738D01*
X146932889Y-86301414D01*
X146762729Y-86230932D01*
X146582089Y-86195000D01*
X146397911Y-86195000D01*
X146217271Y-86230932D01*
X146047111Y-86301414D01*
X145893972Y-86403738D01*
X145763738Y-86533972D01*
X145661414Y-86687111D01*
X145590932Y-86857271D01*
X145555000Y-87037911D01*
X144738051Y-87037911D01*
X144738051Y-86874860D01*
X144702119Y-86694220D01*
X144631637Y-86524060D01*
X144529313Y-86370921D01*
X144399079Y-86240687D01*
X144245940Y-86138363D01*
X144075780Y-86067881D01*
X143895140Y-86031949D01*
X143710962Y-86031949D01*
X143530322Y-86067881D01*
X143360162Y-86138363D01*
X143207023Y-86240687D01*
X143076789Y-86370921D01*
X142974465Y-86524060D01*
X142903983Y-86694220D01*
X142868051Y-86874860D01*
X136312797Y-86874860D01*
X136429715Y-86796738D01*
X136796738Y-86429715D01*
X137085107Y-85998141D01*
X137283739Y-85518601D01*
X137287854Y-85497913D01*
X156495000Y-85497913D01*
X156495000Y-85682091D01*
X156530932Y-85862731D01*
X156601414Y-86032891D01*
X156703738Y-86186030D01*
X156833972Y-86316264D01*
X156987111Y-86418588D01*
X157157271Y-86489070D01*
X157337911Y-86525002D01*
X157522089Y-86525002D01*
X157702729Y-86489070D01*
X157872889Y-86418588D01*
X158026028Y-86316264D01*
X158156262Y-86186030D01*
X158258586Y-86032891D01*
X158329068Y-85862731D01*
X158365000Y-85682091D01*
X158365000Y-85497913D01*
X158329068Y-85317273D01*
X158258586Y-85147113D01*
X158156262Y-84993974D01*
X158026028Y-84863740D01*
X157872889Y-84761416D01*
X157702729Y-84690934D01*
X157522089Y-84655002D01*
X157337911Y-84655002D01*
X157157271Y-84690934D01*
X156987111Y-84761416D01*
X156833972Y-84863740D01*
X156703738Y-84993974D01*
X156601414Y-85147113D01*
X156530932Y-85317273D01*
X156495000Y-85497913D01*
X137287854Y-85497913D01*
X137385000Y-85009525D01*
X137385000Y-84490475D01*
X137322828Y-84177911D01*
X151895000Y-84177911D01*
X151895000Y-84362089D01*
X151930932Y-84542729D01*
X152001414Y-84712889D01*
X152103738Y-84866028D01*
X152233972Y-84996262D01*
X152387111Y-85098586D01*
X152557271Y-85169068D01*
X152737911Y-85205000D01*
X152922089Y-85205000D01*
X153102729Y-85169068D01*
X153272889Y-85098586D01*
X153426028Y-84996262D01*
X153556262Y-84866028D01*
X153658586Y-84712889D01*
X153729068Y-84542729D01*
X153739462Y-84490475D01*
X162615000Y-84490475D01*
X162615000Y-85009525D01*
X162716261Y-85518601D01*
X162914893Y-85998141D01*
X163203262Y-86429715D01*
X163570285Y-86796738D01*
X164001859Y-87085107D01*
X164481399Y-87283739D01*
X164990475Y-87385000D01*
X165509525Y-87385000D01*
X166018601Y-87283739D01*
X166498141Y-87085107D01*
X166929715Y-86796738D01*
X167296738Y-86429715D01*
X167585107Y-85998141D01*
X167783739Y-85518601D01*
X167885000Y-85009525D01*
X167885000Y-84490475D01*
X167783739Y-83981399D01*
X167585107Y-83501859D01*
X167296738Y-83070285D01*
X166929715Y-82703262D01*
X166498141Y-82414893D01*
X166018601Y-82216261D01*
X165509525Y-82115000D01*
X164990475Y-82115000D01*
X164481399Y-82216261D01*
X164001859Y-82414893D01*
X163570285Y-82703262D01*
X163203262Y-83070285D01*
X162914893Y-83501859D01*
X162716261Y-83981399D01*
X162615000Y-84490475D01*
X153739462Y-84490475D01*
X153765000Y-84362089D01*
X153765000Y-84177911D01*
X153729068Y-83997271D01*
X153658586Y-83827111D01*
X153556262Y-83673972D01*
X153426028Y-83543738D01*
X153272889Y-83441414D01*
X153102729Y-83370932D01*
X152922089Y-83335000D01*
X152737911Y-83335000D01*
X152557271Y-83370932D01*
X152387111Y-83441414D01*
X152233972Y-83543738D01*
X152103738Y-83673972D01*
X152001414Y-83827111D01*
X151930932Y-83997271D01*
X151895000Y-84177911D01*
X137322828Y-84177911D01*
X137283739Y-83981399D01*
X137085107Y-83501859D01*
X136796738Y-83070285D01*
X136429715Y-82703262D01*
X136212183Y-82557911D01*
X142715000Y-82557911D01*
X142715000Y-82742089D01*
X142750932Y-82922729D01*
X142821414Y-83092889D01*
X142923738Y-83246028D01*
X143053972Y-83376262D01*
X143207111Y-83478586D01*
X143377271Y-83549068D01*
X143557911Y-83585000D01*
X143742089Y-83585000D01*
X143922729Y-83549068D01*
X144092889Y-83478586D01*
X144246028Y-83376262D01*
X144376262Y-83246028D01*
X144478586Y-83092889D01*
X144549068Y-82922729D01*
X144585000Y-82742089D01*
X144585000Y-82557911D01*
X147825000Y-82557911D01*
X147825000Y-82742089D01*
X147860932Y-82922729D01*
X147931414Y-83092889D01*
X148033738Y-83246028D01*
X148163972Y-83376262D01*
X148317111Y-83478586D01*
X148487271Y-83549068D01*
X148667911Y-83585000D01*
X148852089Y-83585000D01*
X149032729Y-83549068D01*
X149202889Y-83478586D01*
X149356028Y-83376262D01*
X149486262Y-83246028D01*
X149588586Y-83092889D01*
X149659068Y-82922729D01*
X149695000Y-82742089D01*
X149695000Y-82557911D01*
X152925000Y-82557911D01*
X152925000Y-82742089D01*
X152960932Y-82922729D01*
X153031414Y-83092889D01*
X153133738Y-83246028D01*
X153263972Y-83376262D01*
X153417111Y-83478586D01*
X153587271Y-83549068D01*
X153767911Y-83585000D01*
X153952089Y-83585000D01*
X154132729Y-83549068D01*
X154302889Y-83478586D01*
X154456028Y-83376262D01*
X154586262Y-83246028D01*
X154688586Y-83092889D01*
X154759068Y-82922729D01*
X154795000Y-82742089D01*
X154795000Y-82557911D01*
X158015000Y-82557911D01*
X158015000Y-82742089D01*
X158050932Y-82922729D01*
X158121414Y-83092889D01*
X158223738Y-83246028D01*
X158353972Y-83376262D01*
X158507111Y-83478586D01*
X158677271Y-83549068D01*
X158857911Y-83585000D01*
X159042089Y-83585000D01*
X159222729Y-83549068D01*
X159392889Y-83478586D01*
X159546028Y-83376262D01*
X159676262Y-83246028D01*
X159778586Y-83092889D01*
X159849068Y-82922729D01*
X159885000Y-82742089D01*
X159885000Y-82557911D01*
X159849068Y-82377271D01*
X159778586Y-82207111D01*
X159676262Y-82053972D01*
X159546028Y-81923738D01*
X159392889Y-81821414D01*
X159222729Y-81750932D01*
X159042089Y-81715000D01*
X158857911Y-81715000D01*
X158677271Y-81750932D01*
X158507111Y-81821414D01*
X158353972Y-81923738D01*
X158223738Y-82053972D01*
X158121414Y-82207111D01*
X158050932Y-82377271D01*
X158015000Y-82557911D01*
X154795000Y-82557911D01*
X154759068Y-82377271D01*
X154688586Y-82207111D01*
X154586262Y-82053972D01*
X154456028Y-81923738D01*
X154302889Y-81821414D01*
X154132729Y-81750932D01*
X153952089Y-81715000D01*
X153767911Y-81715000D01*
X153587271Y-81750932D01*
X153417111Y-81821414D01*
X153263972Y-81923738D01*
X153133738Y-82053972D01*
X153031414Y-82207111D01*
X152960932Y-82377271D01*
X152925000Y-82557911D01*
X149695000Y-82557911D01*
X149659068Y-82377271D01*
X149588586Y-82207111D01*
X149486262Y-82053972D01*
X149356028Y-81923738D01*
X149202889Y-81821414D01*
X149032729Y-81750932D01*
X148852089Y-81715000D01*
X148667911Y-81715000D01*
X148487271Y-81750932D01*
X148317111Y-81821414D01*
X148163972Y-81923738D01*
X148033738Y-82053972D01*
X147931414Y-82207111D01*
X147860932Y-82377271D01*
X147825000Y-82557911D01*
X144585000Y-82557911D01*
X144549068Y-82377271D01*
X144478586Y-82207111D01*
X144376262Y-82053972D01*
X144246028Y-81923738D01*
X144092889Y-81821414D01*
X143922729Y-81750932D01*
X143742089Y-81715000D01*
X143557911Y-81715000D01*
X143377271Y-81750932D01*
X143207111Y-81821414D01*
X143053972Y-81923738D01*
X142923738Y-82053972D01*
X142821414Y-82207111D01*
X142750932Y-82377271D01*
X142715000Y-82557911D01*
X136212183Y-82557911D01*
X135998141Y-82414893D01*
X135518601Y-82216261D01*
X135009525Y-82115000D01*
X134490475Y-82115000D01*
X133981399Y-82216261D01*
X133501859Y-82414893D01*
X133070285Y-82703262D01*
X132703262Y-83070285D01*
X132414893Y-83501859D01*
X132216261Y-83981399D01*
X132115000Y-84490475D01*
X130660000Y-84490475D01*
X130660000Y-82032279D01*
X130688625Y-81740341D01*
X130764035Y-81490571D01*
X130886522Y-81260208D01*
X131051422Y-81058020D01*
X131252450Y-80891714D01*
X131481954Y-80767622D01*
X131731195Y-80690469D01*
X132021088Y-80660000D01*
X167967721Y-80660000D01*
X168259659Y-80688625D01*
G37*
%TD.AperFunction*%
%TD*%
M02*
