M48
; DRILL file {KiCad 5.1.8-db9833491~87~ubuntu20.04.1} date Mon Nov 23 13:43:27 2020
; FORMAT={-:-/ absolute / inch / decimal}
; #@! TF.CreationDate,2020-11-23T13:43:27+01:00
; #@! TF.GenerationSoftware,Kicad,Pcbnew,5.1.8-db9833491~87~ubuntu20.04.1
; #@! TF.FileFunction,Plated,1,4,PTH
FMAT,2
INCH
T1C0.0118
T2C0.0157
T3C0.0236
%
G90
G05
T1
X5.1764Y-3.7854
X5.265Y-3.7992
X5.265Y-4.1102
X5.265Y-3.8386
X5.361Y-3.678
X5.3685Y-4.1209
X5.3709Y-4.0853
X5.4217Y-3.8524
X5.4457Y-3.7201
X5.4591Y-4.2484
X5.4606Y-4.402
X5.4717Y-3.8524
X5.4736Y-4.1559
X5.5209Y-3.8524
X5.5512Y-3.5496
X5.5614Y-3.9587
X5.5932Y-3.8796
X5.6031Y-3.752
X5.607Y-3.9289
X5.6087Y-4.4177
X5.6091Y-4.1559
X5.6512Y-3.6614
X5.652Y-4.1358
X5.6555Y-3.2539
X5.6571Y-3.7626
X5.6615Y-3.4239
X5.689Y-4.3276
X5.6972Y-3.5098
X5.7118Y-3.6614
X5.7134Y-4.1358
X5.7287Y-3.7646
X5.7331Y-3.9445
X5.7346Y-4.0059
X5.7654Y-3.7686
X5.7661Y-3.8634
X5.7673Y-3.4303
X5.7776Y-4.2106
X5.7976Y-4.0799
X5.8287Y-3.8638
X5.835Y-3.4669
X5.8476Y-3.7681
X5.8567Y-3.2539
X5.8783Y-4.2898
X5.8809Y-3.8197
X5.8823Y-4.072
X5.9031Y-3.6594
X5.9126Y-4.3606
X5.914Y-3.6165
X5.9386Y-3.6586
X5.9673Y-3.5484
X5.9815Y-4.0165
X5.9823Y-3.8622
X5.9874Y-4.1094
X6.0169Y-3.3177
X6.0329Y-3.8028
X6.0406Y-4.0846
X6.052Y-3.6165
X6.0575Y-3.2539
X6.0701Y-3.9575
X6.0717Y-3.8394
X6.0789Y-4.0478
X6.0791Y-4.1205
X6.08Y-3.76
X6.148Y-3.7457
X6.1579Y-3.2539
X6.1791Y-3.9075
X6.198Y-3.3697
X6.2063Y-3.6114
X6.2094Y-4.4642
X6.2094Y-4.5642
X6.2094Y-4.6646
X6.2378Y-3.8496
X6.2382Y-3.7886
X6.2382Y-4.0575
X6.2386Y-4.1181
X6.2461Y-3.6453
X6.2579Y-3.2539
X6.2706Y-3.5358
X6.2939Y-3.5358
X6.3176Y-3.5358
X6.3232Y-4.2146
X6.3411Y-3.5358
X6.3469Y-4.0083
X6.3484Y-3.9677
X6.3487Y-4.0655
X6.3647Y-3.5358
X6.378Y-4.2146
X6.4008Y-4.2469
X6.4224Y-3.5283
X6.4457Y-3.7201
X6.5445Y-3.9173
X6.5465Y-3.7992
X6.5469Y-4.0748
T2
X5.8862Y-4.5776
T3
G00X5.7354Y-4.5087
M15
G01X5.7354Y-4.4654
M16
G05
G00X5.7354Y-4.6634
M15
G01X5.7354Y-4.6398
M16
G05
G00X6.0756Y-4.5087
M15
G01X6.0756Y-4.4654
M16
G05
G00X6.0756Y-4.6634
M15
G01X6.0756Y-4.6398
M16
G05
T0
M30
