%TF.GenerationSoftware,KiCad,Pcbnew,5.1.8-db9833491~87~ubuntu20.04.1*%
%TF.CreationDate,2020-11-23T17:18:25+01:00*%
%TF.ProjectId,rosalyn-fc,726f7361-6c79-46e2-9d66-632e6b696361,v0.1*%
%TF.SameCoordinates,Original*%
%TF.FileFunction,Soldermask,Top*%
%TF.FilePolarity,Negative*%
%FSLAX46Y46*%
G04 Gerber Fmt 4.6, Leading zero omitted, Abs format (unit mm)*
G04 Created by KiCad (PCBNEW 5.1.8-db9833491~87~ubuntu20.04.1) date 2020-11-23 17:18:25*
%MOMM*%
%LPD*%
G01*
G04 APERTURE LIST*
%ADD10C,4.000000*%
%ADD11R,1.600000X1.000000*%
%ADD12R,0.350000X0.500000*%
%ADD13R,1.060000X0.650000*%
%ADD14R,0.650000X1.060000*%
%ADD15O,1.000000X2.100000*%
%ADD16C,0.650000*%
%ADD17O,1.000000X1.600000*%
%ADD18R,1.500000X1.500000*%
%ADD19R,1.500000X2.000000*%
G04 APERTURE END LIST*
D10*
%TO.C,H2*%
X134750000Y-115250000D03*
%TD*%
%TO.C,C7*%
G36*
G01*
X139125000Y-109410000D02*
X138175000Y-109410000D01*
G75*
G02*
X137925000Y-109160000I0J250000D01*
G01*
X137925000Y-108660000D01*
G75*
G02*
X138175000Y-108410000I250000J0D01*
G01*
X139125000Y-108410000D01*
G75*
G02*
X139375000Y-108660000I0J-250000D01*
G01*
X139375000Y-109160000D01*
G75*
G02*
X139125000Y-109410000I-250000J0D01*
G01*
G37*
G36*
G01*
X139125000Y-111310000D02*
X138175000Y-111310000D01*
G75*
G02*
X137925000Y-111060000I0J250000D01*
G01*
X137925000Y-110560000D01*
G75*
G02*
X138175000Y-110310000I250000J0D01*
G01*
X139125000Y-110310000D01*
G75*
G02*
X139375000Y-110560000I0J-250000D01*
G01*
X139375000Y-111060000D01*
G75*
G02*
X139125000Y-111310000I-250000J0D01*
G01*
G37*
%TD*%
%TO.C,C6*%
G36*
G01*
X144965000Y-109420000D02*
X144015000Y-109420000D01*
G75*
G02*
X143765000Y-109170000I0J250000D01*
G01*
X143765000Y-108670000D01*
G75*
G02*
X144015000Y-108420000I250000J0D01*
G01*
X144965000Y-108420000D01*
G75*
G02*
X145215000Y-108670000I0J-250000D01*
G01*
X145215000Y-109170000D01*
G75*
G02*
X144965000Y-109420000I-250000J0D01*
G01*
G37*
G36*
G01*
X144965000Y-111320000D02*
X144015000Y-111320000D01*
G75*
G02*
X143765000Y-111070000I0J250000D01*
G01*
X143765000Y-110570000D01*
G75*
G02*
X144015000Y-110320000I250000J0D01*
G01*
X144965000Y-110320000D01*
G75*
G02*
X145215000Y-110570000I0J-250000D01*
G01*
X145215000Y-111070000D01*
G75*
G02*
X144965000Y-111320000I-250000J0D01*
G01*
G37*
%TD*%
%TO.C,C20*%
G36*
G01*
X144250000Y-97025000D02*
X143750000Y-97025000D01*
G75*
G02*
X143525000Y-96800000I0J225000D01*
G01*
X143525000Y-96350000D01*
G75*
G02*
X143750000Y-96125000I225000J0D01*
G01*
X144250000Y-96125000D01*
G75*
G02*
X144475000Y-96350000I0J-225000D01*
G01*
X144475000Y-96800000D01*
G75*
G02*
X144250000Y-97025000I-225000J0D01*
G01*
G37*
G36*
G01*
X144250000Y-98575000D02*
X143750000Y-98575000D01*
G75*
G02*
X143525000Y-98350000I0J225000D01*
G01*
X143525000Y-97900000D01*
G75*
G02*
X143750000Y-97675000I225000J0D01*
G01*
X144250000Y-97675000D01*
G75*
G02*
X144475000Y-97900000I0J-225000D01*
G01*
X144475000Y-98350000D01*
G75*
G02*
X144250000Y-98575000I-225000J0D01*
G01*
G37*
%TD*%
D11*
%TO.C,L1*%
X154844000Y-90866000D03*
X154844000Y-87166000D03*
%TD*%
%TO.C,R11*%
G36*
G01*
X160485000Y-85315000D02*
X160485000Y-85865000D01*
G75*
G02*
X160285000Y-86065000I-200000J0D01*
G01*
X159885000Y-86065000D01*
G75*
G02*
X159685000Y-85865000I0J200000D01*
G01*
X159685000Y-85315000D01*
G75*
G02*
X159885000Y-85115000I200000J0D01*
G01*
X160285000Y-85115000D01*
G75*
G02*
X160485000Y-85315000I0J-200000D01*
G01*
G37*
G36*
G01*
X158835000Y-85315000D02*
X158835000Y-85865000D01*
G75*
G02*
X158635000Y-86065000I-200000J0D01*
G01*
X158235000Y-86065000D01*
G75*
G02*
X158035000Y-85865000I0J200000D01*
G01*
X158035000Y-85315000D01*
G75*
G02*
X158235000Y-85115000I200000J0D01*
G01*
X158635000Y-85115000D01*
G75*
G02*
X158835000Y-85315000I0J-200000D01*
G01*
G37*
%TD*%
%TO.C,C15*%
G36*
G01*
X140425000Y-105310000D02*
X140425000Y-105810000D01*
G75*
G02*
X140200000Y-106035000I-225000J0D01*
G01*
X139750000Y-106035000D01*
G75*
G02*
X139525000Y-105810000I0J225000D01*
G01*
X139525000Y-105310000D01*
G75*
G02*
X139750000Y-105085000I225000J0D01*
G01*
X140200000Y-105085000D01*
G75*
G02*
X140425000Y-105310000I0J-225000D01*
G01*
G37*
G36*
G01*
X141975000Y-105310000D02*
X141975000Y-105810000D01*
G75*
G02*
X141750000Y-106035000I-225000J0D01*
G01*
X141300000Y-106035000D01*
G75*
G02*
X141075000Y-105810000I0J225000D01*
G01*
X141075000Y-105310000D01*
G75*
G02*
X141300000Y-105085000I225000J0D01*
G01*
X141750000Y-105085000D01*
G75*
G02*
X141975000Y-105310000I0J-225000D01*
G01*
G37*
%TD*%
%TO.C,C14*%
G36*
G01*
X145740000Y-97015000D02*
X145240000Y-97015000D01*
G75*
G02*
X145015000Y-96790000I0J225000D01*
G01*
X145015000Y-96340000D01*
G75*
G02*
X145240000Y-96115000I225000J0D01*
G01*
X145740000Y-96115000D01*
G75*
G02*
X145965000Y-96340000I0J-225000D01*
G01*
X145965000Y-96790000D01*
G75*
G02*
X145740000Y-97015000I-225000J0D01*
G01*
G37*
G36*
G01*
X145740000Y-98565000D02*
X145240000Y-98565000D01*
G75*
G02*
X145015000Y-98340000I0J225000D01*
G01*
X145015000Y-97890000D01*
G75*
G02*
X145240000Y-97665000I225000J0D01*
G01*
X145740000Y-97665000D01*
G75*
G02*
X145965000Y-97890000I0J-225000D01*
G01*
X145965000Y-98340000D01*
G75*
G02*
X145740000Y-98565000I-225000J0D01*
G01*
G37*
%TD*%
%TO.C,C13*%
G36*
G01*
X153170000Y-102355000D02*
X153670000Y-102355000D01*
G75*
G02*
X153895000Y-102580000I0J-225000D01*
G01*
X153895000Y-103030000D01*
G75*
G02*
X153670000Y-103255000I-225000J0D01*
G01*
X153170000Y-103255000D01*
G75*
G02*
X152945000Y-103030000I0J225000D01*
G01*
X152945000Y-102580000D01*
G75*
G02*
X153170000Y-102355000I225000J0D01*
G01*
G37*
G36*
G01*
X153170000Y-100805000D02*
X153670000Y-100805000D01*
G75*
G02*
X153895000Y-101030000I0J-225000D01*
G01*
X153895000Y-101480000D01*
G75*
G02*
X153670000Y-101705000I-225000J0D01*
G01*
X153170000Y-101705000D01*
G75*
G02*
X152945000Y-101480000I0J225000D01*
G01*
X152945000Y-101030000D01*
G75*
G02*
X153170000Y-100805000I225000J0D01*
G01*
G37*
%TD*%
D12*
%TO.C,U1*%
X145265000Y-100970000D03*
X143315000Y-99370000D03*
X143965000Y-99370000D03*
X144615000Y-99370000D03*
X143315000Y-100970000D03*
X143965000Y-100970000D03*
X144615000Y-100970000D03*
X145265000Y-99370000D03*
%TD*%
%TO.C,U5*%
G36*
G01*
X147625000Y-98825000D02*
X147625000Y-98675000D01*
G75*
G02*
X147700000Y-98600000I75000J0D01*
G01*
X148400000Y-98600000D01*
G75*
G02*
X148475000Y-98675000I0J-75000D01*
G01*
X148475000Y-98825000D01*
G75*
G02*
X148400000Y-98900000I-75000J0D01*
G01*
X147700000Y-98900000D01*
G75*
G02*
X147625000Y-98825000I0J75000D01*
G01*
G37*
G36*
G01*
X147625000Y-99325000D02*
X147625000Y-99175000D01*
G75*
G02*
X147700000Y-99100000I75000J0D01*
G01*
X148400000Y-99100000D01*
G75*
G02*
X148475000Y-99175000I0J-75000D01*
G01*
X148475000Y-99325000D01*
G75*
G02*
X148400000Y-99400000I-75000J0D01*
G01*
X147700000Y-99400000D01*
G75*
G02*
X147625000Y-99325000I0J75000D01*
G01*
G37*
G36*
G01*
X147625000Y-99825000D02*
X147625000Y-99675000D01*
G75*
G02*
X147700000Y-99600000I75000J0D01*
G01*
X148400000Y-99600000D01*
G75*
G02*
X148475000Y-99675000I0J-75000D01*
G01*
X148475000Y-99825000D01*
G75*
G02*
X148400000Y-99900000I-75000J0D01*
G01*
X147700000Y-99900000D01*
G75*
G02*
X147625000Y-99825000I0J75000D01*
G01*
G37*
G36*
G01*
X147625000Y-100325000D02*
X147625000Y-100175000D01*
G75*
G02*
X147700000Y-100100000I75000J0D01*
G01*
X148400000Y-100100000D01*
G75*
G02*
X148475000Y-100175000I0J-75000D01*
G01*
X148475000Y-100325000D01*
G75*
G02*
X148400000Y-100400000I-75000J0D01*
G01*
X147700000Y-100400000D01*
G75*
G02*
X147625000Y-100325000I0J75000D01*
G01*
G37*
G36*
G01*
X147625000Y-100825000D02*
X147625000Y-100675000D01*
G75*
G02*
X147700000Y-100600000I75000J0D01*
G01*
X148400000Y-100600000D01*
G75*
G02*
X148475000Y-100675000I0J-75000D01*
G01*
X148475000Y-100825000D01*
G75*
G02*
X148400000Y-100900000I-75000J0D01*
G01*
X147700000Y-100900000D01*
G75*
G02*
X147625000Y-100825000I0J75000D01*
G01*
G37*
G36*
G01*
X147625000Y-101325000D02*
X147625000Y-101175000D01*
G75*
G02*
X147700000Y-101100000I75000J0D01*
G01*
X148400000Y-101100000D01*
G75*
G02*
X148475000Y-101175000I0J-75000D01*
G01*
X148475000Y-101325000D01*
G75*
G02*
X148400000Y-101400000I-75000J0D01*
G01*
X147700000Y-101400000D01*
G75*
G02*
X147625000Y-101325000I0J75000D01*
G01*
G37*
G36*
G01*
X148825000Y-102375000D02*
X148675000Y-102375000D01*
G75*
G02*
X148600000Y-102300000I0J75000D01*
G01*
X148600000Y-101600000D01*
G75*
G02*
X148675000Y-101525000I75000J0D01*
G01*
X148825000Y-101525000D01*
G75*
G02*
X148900000Y-101600000I0J-75000D01*
G01*
X148900000Y-102300000D01*
G75*
G02*
X148825000Y-102375000I-75000J0D01*
G01*
G37*
G36*
G01*
X149325000Y-102375000D02*
X149175000Y-102375000D01*
G75*
G02*
X149100000Y-102300000I0J75000D01*
G01*
X149100000Y-101600000D01*
G75*
G02*
X149175000Y-101525000I75000J0D01*
G01*
X149325000Y-101525000D01*
G75*
G02*
X149400000Y-101600000I0J-75000D01*
G01*
X149400000Y-102300000D01*
G75*
G02*
X149325000Y-102375000I-75000J0D01*
G01*
G37*
G36*
G01*
X149825000Y-102375000D02*
X149675000Y-102375000D01*
G75*
G02*
X149600000Y-102300000I0J75000D01*
G01*
X149600000Y-101600000D01*
G75*
G02*
X149675000Y-101525000I75000J0D01*
G01*
X149825000Y-101525000D01*
G75*
G02*
X149900000Y-101600000I0J-75000D01*
G01*
X149900000Y-102300000D01*
G75*
G02*
X149825000Y-102375000I-75000J0D01*
G01*
G37*
G36*
G01*
X150325000Y-102375000D02*
X150175000Y-102375000D01*
G75*
G02*
X150100000Y-102300000I0J75000D01*
G01*
X150100000Y-101600000D01*
G75*
G02*
X150175000Y-101525000I75000J0D01*
G01*
X150325000Y-101525000D01*
G75*
G02*
X150400000Y-101600000I0J-75000D01*
G01*
X150400000Y-102300000D01*
G75*
G02*
X150325000Y-102375000I-75000J0D01*
G01*
G37*
G36*
G01*
X150825000Y-102375000D02*
X150675000Y-102375000D01*
G75*
G02*
X150600000Y-102300000I0J75000D01*
G01*
X150600000Y-101600000D01*
G75*
G02*
X150675000Y-101525000I75000J0D01*
G01*
X150825000Y-101525000D01*
G75*
G02*
X150900000Y-101600000I0J-75000D01*
G01*
X150900000Y-102300000D01*
G75*
G02*
X150825000Y-102375000I-75000J0D01*
G01*
G37*
G36*
G01*
X151325000Y-102375000D02*
X151175000Y-102375000D01*
G75*
G02*
X151100000Y-102300000I0J75000D01*
G01*
X151100000Y-101600000D01*
G75*
G02*
X151175000Y-101525000I75000J0D01*
G01*
X151325000Y-101525000D01*
G75*
G02*
X151400000Y-101600000I0J-75000D01*
G01*
X151400000Y-102300000D01*
G75*
G02*
X151325000Y-102375000I-75000J0D01*
G01*
G37*
G36*
G01*
X151525000Y-101325000D02*
X151525000Y-101175000D01*
G75*
G02*
X151600000Y-101100000I75000J0D01*
G01*
X152300000Y-101100000D01*
G75*
G02*
X152375000Y-101175000I0J-75000D01*
G01*
X152375000Y-101325000D01*
G75*
G02*
X152300000Y-101400000I-75000J0D01*
G01*
X151600000Y-101400000D01*
G75*
G02*
X151525000Y-101325000I0J75000D01*
G01*
G37*
G36*
G01*
X151525000Y-100825000D02*
X151525000Y-100675000D01*
G75*
G02*
X151600000Y-100600000I75000J0D01*
G01*
X152300000Y-100600000D01*
G75*
G02*
X152375000Y-100675000I0J-75000D01*
G01*
X152375000Y-100825000D01*
G75*
G02*
X152300000Y-100900000I-75000J0D01*
G01*
X151600000Y-100900000D01*
G75*
G02*
X151525000Y-100825000I0J75000D01*
G01*
G37*
G36*
G01*
X151525000Y-100325000D02*
X151525000Y-100175000D01*
G75*
G02*
X151600000Y-100100000I75000J0D01*
G01*
X152300000Y-100100000D01*
G75*
G02*
X152375000Y-100175000I0J-75000D01*
G01*
X152375000Y-100325000D01*
G75*
G02*
X152300000Y-100400000I-75000J0D01*
G01*
X151600000Y-100400000D01*
G75*
G02*
X151525000Y-100325000I0J75000D01*
G01*
G37*
G36*
G01*
X151525000Y-99825000D02*
X151525000Y-99675000D01*
G75*
G02*
X151600000Y-99600000I75000J0D01*
G01*
X152300000Y-99600000D01*
G75*
G02*
X152375000Y-99675000I0J-75000D01*
G01*
X152375000Y-99825000D01*
G75*
G02*
X152300000Y-99900000I-75000J0D01*
G01*
X151600000Y-99900000D01*
G75*
G02*
X151525000Y-99825000I0J75000D01*
G01*
G37*
G36*
G01*
X151525000Y-99325000D02*
X151525000Y-99175000D01*
G75*
G02*
X151600000Y-99100000I75000J0D01*
G01*
X152300000Y-99100000D01*
G75*
G02*
X152375000Y-99175000I0J-75000D01*
G01*
X152375000Y-99325000D01*
G75*
G02*
X152300000Y-99400000I-75000J0D01*
G01*
X151600000Y-99400000D01*
G75*
G02*
X151525000Y-99325000I0J75000D01*
G01*
G37*
G36*
G01*
X151525000Y-98825000D02*
X151525000Y-98675000D01*
G75*
G02*
X151600000Y-98600000I75000J0D01*
G01*
X152300000Y-98600000D01*
G75*
G02*
X152375000Y-98675000I0J-75000D01*
G01*
X152375000Y-98825000D01*
G75*
G02*
X152300000Y-98900000I-75000J0D01*
G01*
X151600000Y-98900000D01*
G75*
G02*
X151525000Y-98825000I0J75000D01*
G01*
G37*
G36*
G01*
X151325000Y-98475000D02*
X151175000Y-98475000D01*
G75*
G02*
X151100000Y-98400000I0J75000D01*
G01*
X151100000Y-97700000D01*
G75*
G02*
X151175000Y-97625000I75000J0D01*
G01*
X151325000Y-97625000D01*
G75*
G02*
X151400000Y-97700000I0J-75000D01*
G01*
X151400000Y-98400000D01*
G75*
G02*
X151325000Y-98475000I-75000J0D01*
G01*
G37*
G36*
G01*
X150825000Y-98475000D02*
X150675000Y-98475000D01*
G75*
G02*
X150600000Y-98400000I0J75000D01*
G01*
X150600000Y-97700000D01*
G75*
G02*
X150675000Y-97625000I75000J0D01*
G01*
X150825000Y-97625000D01*
G75*
G02*
X150900000Y-97700000I0J-75000D01*
G01*
X150900000Y-98400000D01*
G75*
G02*
X150825000Y-98475000I-75000J0D01*
G01*
G37*
G36*
G01*
X150325000Y-98475000D02*
X150175000Y-98475000D01*
G75*
G02*
X150100000Y-98400000I0J75000D01*
G01*
X150100000Y-97700000D01*
G75*
G02*
X150175000Y-97625000I75000J0D01*
G01*
X150325000Y-97625000D01*
G75*
G02*
X150400000Y-97700000I0J-75000D01*
G01*
X150400000Y-98400000D01*
G75*
G02*
X150325000Y-98475000I-75000J0D01*
G01*
G37*
G36*
G01*
X149825000Y-98475000D02*
X149675000Y-98475000D01*
G75*
G02*
X149600000Y-98400000I0J75000D01*
G01*
X149600000Y-97700000D01*
G75*
G02*
X149675000Y-97625000I75000J0D01*
G01*
X149825000Y-97625000D01*
G75*
G02*
X149900000Y-97700000I0J-75000D01*
G01*
X149900000Y-98400000D01*
G75*
G02*
X149825000Y-98475000I-75000J0D01*
G01*
G37*
G36*
G01*
X149325000Y-98475000D02*
X149175000Y-98475000D01*
G75*
G02*
X149100000Y-98400000I0J75000D01*
G01*
X149100000Y-97700000D01*
G75*
G02*
X149175000Y-97625000I75000J0D01*
G01*
X149325000Y-97625000D01*
G75*
G02*
X149400000Y-97700000I0J-75000D01*
G01*
X149400000Y-98400000D01*
G75*
G02*
X149325000Y-98475000I-75000J0D01*
G01*
G37*
G36*
G01*
X148825000Y-98475000D02*
X148675000Y-98475000D01*
G75*
G02*
X148600000Y-98400000I0J75000D01*
G01*
X148600000Y-97700000D01*
G75*
G02*
X148675000Y-97625000I75000J0D01*
G01*
X148825000Y-97625000D01*
G75*
G02*
X148900000Y-97700000I0J-75000D01*
G01*
X148900000Y-98400000D01*
G75*
G02*
X148825000Y-98475000I-75000J0D01*
G01*
G37*
%TD*%
%TO.C,C1*%
G36*
G01*
X156105000Y-105160000D02*
X155155000Y-105160000D01*
G75*
G02*
X154905000Y-104910000I0J250000D01*
G01*
X154905000Y-104410000D01*
G75*
G02*
X155155000Y-104160000I250000J0D01*
G01*
X156105000Y-104160000D01*
G75*
G02*
X156355000Y-104410000I0J-250000D01*
G01*
X156355000Y-104910000D01*
G75*
G02*
X156105000Y-105160000I-250000J0D01*
G01*
G37*
G36*
G01*
X156105000Y-103260000D02*
X155155000Y-103260000D01*
G75*
G02*
X154905000Y-103010000I0J250000D01*
G01*
X154905000Y-102510000D01*
G75*
G02*
X155155000Y-102260000I250000J0D01*
G01*
X156105000Y-102260000D01*
G75*
G02*
X156355000Y-102510000I0J-250000D01*
G01*
X156355000Y-103010000D01*
G75*
G02*
X156105000Y-103260000I-250000J0D01*
G01*
G37*
%TD*%
%TO.C,C2*%
G36*
G01*
X151485000Y-103680000D02*
X151485000Y-103180000D01*
G75*
G02*
X151710000Y-102955000I225000J0D01*
G01*
X152160000Y-102955000D01*
G75*
G02*
X152385000Y-103180000I0J-225000D01*
G01*
X152385000Y-103680000D01*
G75*
G02*
X152160000Y-103905000I-225000J0D01*
G01*
X151710000Y-103905000D01*
G75*
G02*
X151485000Y-103680000I0J225000D01*
G01*
G37*
G36*
G01*
X149935000Y-103680000D02*
X149935000Y-103180000D01*
G75*
G02*
X150160000Y-102955000I225000J0D01*
G01*
X150610000Y-102955000D01*
G75*
G02*
X150835000Y-103180000I0J-225000D01*
G01*
X150835000Y-103680000D01*
G75*
G02*
X150610000Y-103905000I-225000J0D01*
G01*
X150160000Y-103905000D01*
G75*
G02*
X149935000Y-103680000I0J225000D01*
G01*
G37*
%TD*%
%TO.C,C3*%
G36*
G01*
X150305000Y-96800000D02*
X150305000Y-96300000D01*
G75*
G02*
X150530000Y-96075000I225000J0D01*
G01*
X150980000Y-96075000D01*
G75*
G02*
X151205000Y-96300000I0J-225000D01*
G01*
X151205000Y-96800000D01*
G75*
G02*
X150980000Y-97025000I-225000J0D01*
G01*
X150530000Y-97025000D01*
G75*
G02*
X150305000Y-96800000I0J225000D01*
G01*
G37*
G36*
G01*
X151855000Y-96800000D02*
X151855000Y-96300000D01*
G75*
G02*
X152080000Y-96075000I225000J0D01*
G01*
X152530000Y-96075000D01*
G75*
G02*
X152755000Y-96300000I0J-225000D01*
G01*
X152755000Y-96800000D01*
G75*
G02*
X152530000Y-97025000I-225000J0D01*
G01*
X152080000Y-97025000D01*
G75*
G02*
X151855000Y-96800000I0J225000D01*
G01*
G37*
%TD*%
%TO.C,D3*%
G36*
G01*
X159449750Y-103841000D02*
X159962250Y-103841000D01*
G75*
G02*
X160181000Y-104059750I0J-218750D01*
G01*
X160181000Y-104497250D01*
G75*
G02*
X159962250Y-104716000I-218750J0D01*
G01*
X159449750Y-104716000D01*
G75*
G02*
X159231000Y-104497250I0J218750D01*
G01*
X159231000Y-104059750D01*
G75*
G02*
X159449750Y-103841000I218750J0D01*
G01*
G37*
G36*
G01*
X159449750Y-105416000D02*
X159962250Y-105416000D01*
G75*
G02*
X160181000Y-105634750I0J-218750D01*
G01*
X160181000Y-106072250D01*
G75*
G02*
X159962250Y-106291000I-218750J0D01*
G01*
X159449750Y-106291000D01*
G75*
G02*
X159231000Y-106072250I0J218750D01*
G01*
X159231000Y-105634750D01*
G75*
G02*
X159449750Y-105416000I218750J0D01*
G01*
G37*
%TD*%
%TO.C,R6*%
G36*
G01*
X160885000Y-94185000D02*
X160885000Y-94735000D01*
G75*
G02*
X160685000Y-94935000I-200000J0D01*
G01*
X160285000Y-94935000D01*
G75*
G02*
X160085000Y-94735000I0J200000D01*
G01*
X160085000Y-94185000D01*
G75*
G02*
X160285000Y-93985000I200000J0D01*
G01*
X160685000Y-93985000D01*
G75*
G02*
X160885000Y-94185000I0J-200000D01*
G01*
G37*
G36*
G01*
X162535000Y-94185000D02*
X162535000Y-94735000D01*
G75*
G02*
X162335000Y-94935000I-200000J0D01*
G01*
X161935000Y-94935000D01*
G75*
G02*
X161735000Y-94735000I0J200000D01*
G01*
X161735000Y-94185000D01*
G75*
G02*
X161935000Y-93985000I200000J0D01*
G01*
X162335000Y-93985000D01*
G75*
G02*
X162535000Y-94185000I0J-200000D01*
G01*
G37*
%TD*%
%TO.C,R7*%
G36*
G01*
X159525000Y-94185000D02*
X159525000Y-94735000D01*
G75*
G02*
X159325000Y-94935000I-200000J0D01*
G01*
X158925000Y-94935000D01*
G75*
G02*
X158725000Y-94735000I0J200000D01*
G01*
X158725000Y-94185000D01*
G75*
G02*
X158925000Y-93985000I200000J0D01*
G01*
X159325000Y-93985000D01*
G75*
G02*
X159525000Y-94185000I0J-200000D01*
G01*
G37*
G36*
G01*
X157875000Y-94185000D02*
X157875000Y-94735000D01*
G75*
G02*
X157675000Y-94935000I-200000J0D01*
G01*
X157275000Y-94935000D01*
G75*
G02*
X157075000Y-94735000I0J200000D01*
G01*
X157075000Y-94185000D01*
G75*
G02*
X157275000Y-93985000I200000J0D01*
G01*
X157675000Y-93985000D01*
G75*
G02*
X157875000Y-94185000I0J-200000D01*
G01*
G37*
%TD*%
%TO.C,R9*%
G36*
G01*
X160981000Y-103811000D02*
X161531000Y-103811000D01*
G75*
G02*
X161731000Y-104011000I0J-200000D01*
G01*
X161731000Y-104411000D01*
G75*
G02*
X161531000Y-104611000I-200000J0D01*
G01*
X160981000Y-104611000D01*
G75*
G02*
X160781000Y-104411000I0J200000D01*
G01*
X160781000Y-104011000D01*
G75*
G02*
X160981000Y-103811000I200000J0D01*
G01*
G37*
G36*
G01*
X160981000Y-105461000D02*
X161531000Y-105461000D01*
G75*
G02*
X161731000Y-105661000I0J-200000D01*
G01*
X161731000Y-106061000D01*
G75*
G02*
X161531000Y-106261000I-200000J0D01*
G01*
X160981000Y-106261000D01*
G75*
G02*
X160781000Y-106061000I0J200000D01*
G01*
X160781000Y-105661000D01*
G75*
G02*
X160981000Y-105461000I200000J0D01*
G01*
G37*
%TD*%
D13*
%TO.C,U6*%
X142676000Y-110818000D03*
X142676000Y-109868000D03*
X142676000Y-108918000D03*
X140476000Y-108918000D03*
X140476000Y-110818000D03*
%TD*%
%TO.C,C17*%
G36*
G01*
X160930000Y-93185000D02*
X160930000Y-92235000D01*
G75*
G02*
X161180000Y-91985000I250000J0D01*
G01*
X161680000Y-91985000D01*
G75*
G02*
X161930000Y-92235000I0J-250000D01*
G01*
X161930000Y-93185000D01*
G75*
G02*
X161680000Y-93435000I-250000J0D01*
G01*
X161180000Y-93435000D01*
G75*
G02*
X160930000Y-93185000I0J250000D01*
G01*
G37*
G36*
G01*
X159030000Y-93185000D02*
X159030000Y-92235000D01*
G75*
G02*
X159280000Y-91985000I250000J0D01*
G01*
X159780000Y-91985000D01*
G75*
G02*
X160030000Y-92235000I0J-250000D01*
G01*
X160030000Y-93185000D01*
G75*
G02*
X159780000Y-93435000I-250000J0D01*
G01*
X159280000Y-93435000D01*
G75*
G02*
X159030000Y-93185000I0J250000D01*
G01*
G37*
%TD*%
%TO.C,C18*%
G36*
G01*
X157654000Y-88575000D02*
X158154000Y-88575000D01*
G75*
G02*
X158379000Y-88800000I0J-225000D01*
G01*
X158379000Y-89250000D01*
G75*
G02*
X158154000Y-89475000I-225000J0D01*
G01*
X157654000Y-89475000D01*
G75*
G02*
X157429000Y-89250000I0J225000D01*
G01*
X157429000Y-88800000D01*
G75*
G02*
X157654000Y-88575000I225000J0D01*
G01*
G37*
G36*
G01*
X157654000Y-90125000D02*
X158154000Y-90125000D01*
G75*
G02*
X158379000Y-90350000I0J-225000D01*
G01*
X158379000Y-90800000D01*
G75*
G02*
X158154000Y-91025000I-225000J0D01*
G01*
X157654000Y-91025000D01*
G75*
G02*
X157429000Y-90800000I0J225000D01*
G01*
X157429000Y-90350000D01*
G75*
G02*
X157654000Y-90125000I225000J0D01*
G01*
G37*
%TD*%
%TO.C,C19*%
G36*
G01*
X151085000Y-86630000D02*
X152035000Y-86630000D01*
G75*
G02*
X152285000Y-86880000I0J-250000D01*
G01*
X152285000Y-87380000D01*
G75*
G02*
X152035000Y-87630000I-250000J0D01*
G01*
X151085000Y-87630000D01*
G75*
G02*
X150835000Y-87380000I0J250000D01*
G01*
X150835000Y-86880000D01*
G75*
G02*
X151085000Y-86630000I250000J0D01*
G01*
G37*
G36*
G01*
X151085000Y-88530000D02*
X152035000Y-88530000D01*
G75*
G02*
X152285000Y-88780000I0J-250000D01*
G01*
X152285000Y-89280000D01*
G75*
G02*
X152035000Y-89530000I-250000J0D01*
G01*
X151085000Y-89530000D01*
G75*
G02*
X150835000Y-89280000I0J250000D01*
G01*
X150835000Y-88780000D01*
G75*
G02*
X151085000Y-88530000I250000J0D01*
G01*
G37*
%TD*%
%TO.C,D4*%
G36*
G01*
X154575000Y-92696250D02*
X154575000Y-92183750D01*
G75*
G02*
X154793750Y-91965000I218750J0D01*
G01*
X155231250Y-91965000D01*
G75*
G02*
X155450000Y-92183750I0J-218750D01*
G01*
X155450000Y-92696250D01*
G75*
G02*
X155231250Y-92915000I-218750J0D01*
G01*
X154793750Y-92915000D01*
G75*
G02*
X154575000Y-92696250I0J218750D01*
G01*
G37*
G36*
G01*
X156150000Y-92696250D02*
X156150000Y-92183750D01*
G75*
G02*
X156368750Y-91965000I218750J0D01*
G01*
X156806250Y-91965000D01*
G75*
G02*
X157025000Y-92183750I0J-218750D01*
G01*
X157025000Y-92696250D01*
G75*
G02*
X156806250Y-92915000I-218750J0D01*
G01*
X156368750Y-92915000D01*
G75*
G02*
X156150000Y-92696250I0J218750D01*
G01*
G37*
%TD*%
%TO.C,D2*%
G36*
G01*
X154640000Y-85083750D02*
X154640000Y-85596250D01*
G75*
G02*
X154421250Y-85815000I-218750J0D01*
G01*
X153983750Y-85815000D01*
G75*
G02*
X153765000Y-85596250I0J218750D01*
G01*
X153765000Y-85083750D01*
G75*
G02*
X153983750Y-84865000I218750J0D01*
G01*
X154421250Y-84865000D01*
G75*
G02*
X154640000Y-85083750I0J-218750D01*
G01*
G37*
G36*
G01*
X156215000Y-85083750D02*
X156215000Y-85596250D01*
G75*
G02*
X155996250Y-85815000I-218750J0D01*
G01*
X155558750Y-85815000D01*
G75*
G02*
X155340000Y-85596250I0J218750D01*
G01*
X155340000Y-85083750D01*
G75*
G02*
X155558750Y-84865000I218750J0D01*
G01*
X155996250Y-84865000D01*
G75*
G02*
X156215000Y-85083750I0J-218750D01*
G01*
G37*
%TD*%
%TO.C,R10*%
G36*
G01*
X159679000Y-87375000D02*
X159679000Y-86825000D01*
G75*
G02*
X159879000Y-86625000I200000J0D01*
G01*
X160279000Y-86625000D01*
G75*
G02*
X160479000Y-86825000I0J-200000D01*
G01*
X160479000Y-87375000D01*
G75*
G02*
X160279000Y-87575000I-200000J0D01*
G01*
X159879000Y-87575000D01*
G75*
G02*
X159679000Y-87375000I0J200000D01*
G01*
G37*
G36*
G01*
X158029000Y-87375000D02*
X158029000Y-86825000D01*
G75*
G02*
X158229000Y-86625000I200000J0D01*
G01*
X158629000Y-86625000D01*
G75*
G02*
X158829000Y-86825000I0J-200000D01*
G01*
X158829000Y-87375000D01*
G75*
G02*
X158629000Y-87575000I-200000J0D01*
G01*
X158229000Y-87575000D01*
G75*
G02*
X158029000Y-87375000I0J200000D01*
G01*
G37*
%TD*%
D14*
%TO.C,U7*%
X159534000Y-90890000D03*
X160484000Y-90890000D03*
X161434000Y-90890000D03*
X161434000Y-88690000D03*
X159534000Y-88690000D03*
X160484000Y-88690000D03*
%TD*%
%TO.C,FB1*%
G36*
G01*
X145978750Y-108380000D02*
X146741250Y-108380000D01*
G75*
G02*
X146960000Y-108598750I0J-218750D01*
G01*
X146960000Y-109036250D01*
G75*
G02*
X146741250Y-109255000I-218750J0D01*
G01*
X145978750Y-109255000D01*
G75*
G02*
X145760000Y-109036250I0J218750D01*
G01*
X145760000Y-108598750D01*
G75*
G02*
X145978750Y-108380000I218750J0D01*
G01*
G37*
G36*
G01*
X145978750Y-110505000D02*
X146741250Y-110505000D01*
G75*
G02*
X146960000Y-110723750I0J-218750D01*
G01*
X146960000Y-111161250D01*
G75*
G02*
X146741250Y-111380000I-218750J0D01*
G01*
X145978750Y-111380000D01*
G75*
G02*
X145760000Y-111161250I0J218750D01*
G01*
X145760000Y-110723750D01*
G75*
G02*
X145978750Y-110505000I218750J0D01*
G01*
G37*
%TD*%
%TO.C,C4*%
G36*
G01*
X163380000Y-92670000D02*
X162880000Y-92670000D01*
G75*
G02*
X162655000Y-92445000I0J225000D01*
G01*
X162655000Y-91995000D01*
G75*
G02*
X162880000Y-91770000I225000J0D01*
G01*
X163380000Y-91770000D01*
G75*
G02*
X163605000Y-91995000I0J-225000D01*
G01*
X163605000Y-92445000D01*
G75*
G02*
X163380000Y-92670000I-225000J0D01*
G01*
G37*
G36*
G01*
X163380000Y-91120000D02*
X162880000Y-91120000D01*
G75*
G02*
X162655000Y-90895000I0J225000D01*
G01*
X162655000Y-90445000D01*
G75*
G02*
X162880000Y-90220000I225000J0D01*
G01*
X163380000Y-90220000D01*
G75*
G02*
X163605000Y-90445000I0J-225000D01*
G01*
X163605000Y-90895000D01*
G75*
G02*
X163380000Y-91120000I-225000J0D01*
G01*
G37*
%TD*%
%TO.C,C5*%
G36*
G01*
X152345000Y-85590000D02*
X152345000Y-85090000D01*
G75*
G02*
X152570000Y-84865000I225000J0D01*
G01*
X153020000Y-84865000D01*
G75*
G02*
X153245000Y-85090000I0J-225000D01*
G01*
X153245000Y-85590000D01*
G75*
G02*
X153020000Y-85815000I-225000J0D01*
G01*
X152570000Y-85815000D01*
G75*
G02*
X152345000Y-85590000I0J225000D01*
G01*
G37*
G36*
G01*
X150795000Y-85590000D02*
X150795000Y-85090000D01*
G75*
G02*
X151020000Y-84865000I225000J0D01*
G01*
X151470000Y-84865000D01*
G75*
G02*
X151695000Y-85090000I0J-225000D01*
G01*
X151695000Y-85590000D01*
G75*
G02*
X151470000Y-85815000I-225000J0D01*
G01*
X151020000Y-85815000D01*
G75*
G02*
X150795000Y-85590000I0J225000D01*
G01*
G37*
%TD*%
%TO.C,J3*%
G36*
G01*
X152200000Y-119425001D02*
X152200000Y-118124999D01*
G75*
G02*
X152449999Y-117875000I249999J0D01*
G01*
X153150001Y-117875000D01*
G75*
G02*
X153400000Y-118124999I0J-249999D01*
G01*
X153400000Y-119425001D01*
G75*
G02*
X153150001Y-119675000I-249999J0D01*
G01*
X152449999Y-119675000D01*
G75*
G02*
X152200000Y-119425001I0J249999D01*
G01*
G37*
G36*
G01*
X146600000Y-119425001D02*
X146600000Y-118124999D01*
G75*
G02*
X146849999Y-117875000I249999J0D01*
G01*
X147550001Y-117875000D01*
G75*
G02*
X147800000Y-118124999I0J-249999D01*
G01*
X147800000Y-119425001D01*
G75*
G02*
X147550001Y-119675000I-249999J0D01*
G01*
X146849999Y-119675000D01*
G75*
G02*
X146600000Y-119425001I0J249999D01*
G01*
G37*
G36*
G01*
X151200000Y-115525000D02*
X151200000Y-114275000D01*
G75*
G02*
X151350000Y-114125000I150000J0D01*
G01*
X151650000Y-114125000D01*
G75*
G02*
X151800000Y-114275000I0J-150000D01*
G01*
X151800000Y-115525000D01*
G75*
G02*
X151650000Y-115675000I-150000J0D01*
G01*
X151350000Y-115675000D01*
G75*
G02*
X151200000Y-115525000I0J150000D01*
G01*
G37*
G36*
G01*
X150200000Y-115525000D02*
X150200000Y-114275000D01*
G75*
G02*
X150350000Y-114125000I150000J0D01*
G01*
X150650000Y-114125000D01*
G75*
G02*
X150800000Y-114275000I0J-150000D01*
G01*
X150800000Y-115525000D01*
G75*
G02*
X150650000Y-115675000I-150000J0D01*
G01*
X150350000Y-115675000D01*
G75*
G02*
X150200000Y-115525000I0J150000D01*
G01*
G37*
G36*
G01*
X149200000Y-115525000D02*
X149200000Y-114275000D01*
G75*
G02*
X149350000Y-114125000I150000J0D01*
G01*
X149650000Y-114125000D01*
G75*
G02*
X149800000Y-114275000I0J-150000D01*
G01*
X149800000Y-115525000D01*
G75*
G02*
X149650000Y-115675000I-150000J0D01*
G01*
X149350000Y-115675000D01*
G75*
G02*
X149200000Y-115525000I0J150000D01*
G01*
G37*
G36*
G01*
X148200000Y-115525000D02*
X148200000Y-114275000D01*
G75*
G02*
X148350000Y-114125000I150000J0D01*
G01*
X148650000Y-114125000D01*
G75*
G02*
X148800000Y-114275000I0J-150000D01*
G01*
X148800000Y-115525000D01*
G75*
G02*
X148650000Y-115675000I-150000J0D01*
G01*
X148350000Y-115675000D01*
G75*
G02*
X148200000Y-115525000I0J150000D01*
G01*
G37*
%TD*%
D10*
%TO.C,H1*%
X134750000Y-84750000D03*
%TD*%
%TO.C,H3*%
X165250000Y-115250000D03*
%TD*%
%TO.C,H4*%
X165250000Y-84750000D03*
%TD*%
%TO.C,J7*%
G36*
G01*
X169525001Y-94800000D02*
X168224999Y-94800000D01*
G75*
G02*
X167975000Y-94550001I0J249999D01*
G01*
X167975000Y-93849999D01*
G75*
G02*
X168224999Y-93600000I249999J0D01*
G01*
X169525001Y-93600000D01*
G75*
G02*
X169775000Y-93849999I0J-249999D01*
G01*
X169775000Y-94550001D01*
G75*
G02*
X169525001Y-94800000I-249999J0D01*
G01*
G37*
G36*
G01*
X169525001Y-106400000D02*
X168224999Y-106400000D01*
G75*
G02*
X167975000Y-106150001I0J249999D01*
G01*
X167975000Y-105449999D01*
G75*
G02*
X168224999Y-105200000I249999J0D01*
G01*
X169525001Y-105200000D01*
G75*
G02*
X169775000Y-105449999I0J-249999D01*
G01*
X169775000Y-106150001D01*
G75*
G02*
X169525001Y-106400000I-249999J0D01*
G01*
G37*
G36*
G01*
X165625000Y-95800000D02*
X164375000Y-95800000D01*
G75*
G02*
X164225000Y-95650000I0J150000D01*
G01*
X164225000Y-95350000D01*
G75*
G02*
X164375000Y-95200000I150000J0D01*
G01*
X165625000Y-95200000D01*
G75*
G02*
X165775000Y-95350000I0J-150000D01*
G01*
X165775000Y-95650000D01*
G75*
G02*
X165625000Y-95800000I-150000J0D01*
G01*
G37*
G36*
G01*
X165625000Y-96800000D02*
X164375000Y-96800000D01*
G75*
G02*
X164225000Y-96650000I0J150000D01*
G01*
X164225000Y-96350000D01*
G75*
G02*
X164375000Y-96200000I150000J0D01*
G01*
X165625000Y-96200000D01*
G75*
G02*
X165775000Y-96350000I0J-150000D01*
G01*
X165775000Y-96650000D01*
G75*
G02*
X165625000Y-96800000I-150000J0D01*
G01*
G37*
G36*
G01*
X165625000Y-97800000D02*
X164375000Y-97800000D01*
G75*
G02*
X164225000Y-97650000I0J150000D01*
G01*
X164225000Y-97350000D01*
G75*
G02*
X164375000Y-97200000I150000J0D01*
G01*
X165625000Y-97200000D01*
G75*
G02*
X165775000Y-97350000I0J-150000D01*
G01*
X165775000Y-97650000D01*
G75*
G02*
X165625000Y-97800000I-150000J0D01*
G01*
G37*
G36*
G01*
X165625000Y-98800000D02*
X164375000Y-98800000D01*
G75*
G02*
X164225000Y-98650000I0J150000D01*
G01*
X164225000Y-98350000D01*
G75*
G02*
X164375000Y-98200000I150000J0D01*
G01*
X165625000Y-98200000D01*
G75*
G02*
X165775000Y-98350000I0J-150000D01*
G01*
X165775000Y-98650000D01*
G75*
G02*
X165625000Y-98800000I-150000J0D01*
G01*
G37*
G36*
G01*
X165625000Y-99800000D02*
X164375000Y-99800000D01*
G75*
G02*
X164225000Y-99650000I0J150000D01*
G01*
X164225000Y-99350000D01*
G75*
G02*
X164375000Y-99200000I150000J0D01*
G01*
X165625000Y-99200000D01*
G75*
G02*
X165775000Y-99350000I0J-150000D01*
G01*
X165775000Y-99650000D01*
G75*
G02*
X165625000Y-99800000I-150000J0D01*
G01*
G37*
G36*
G01*
X165625000Y-100800000D02*
X164375000Y-100800000D01*
G75*
G02*
X164225000Y-100650000I0J150000D01*
G01*
X164225000Y-100350000D01*
G75*
G02*
X164375000Y-100200000I150000J0D01*
G01*
X165625000Y-100200000D01*
G75*
G02*
X165775000Y-100350000I0J-150000D01*
G01*
X165775000Y-100650000D01*
G75*
G02*
X165625000Y-100800000I-150000J0D01*
G01*
G37*
G36*
G01*
X165625000Y-101800000D02*
X164375000Y-101800000D01*
G75*
G02*
X164225000Y-101650000I0J150000D01*
G01*
X164225000Y-101350000D01*
G75*
G02*
X164375000Y-101200000I150000J0D01*
G01*
X165625000Y-101200000D01*
G75*
G02*
X165775000Y-101350000I0J-150000D01*
G01*
X165775000Y-101650000D01*
G75*
G02*
X165625000Y-101800000I-150000J0D01*
G01*
G37*
G36*
G01*
X165625000Y-102800000D02*
X164375000Y-102800000D01*
G75*
G02*
X164225000Y-102650000I0J150000D01*
G01*
X164225000Y-102350000D01*
G75*
G02*
X164375000Y-102200000I150000J0D01*
G01*
X165625000Y-102200000D01*
G75*
G02*
X165775000Y-102350000I0J-150000D01*
G01*
X165775000Y-102650000D01*
G75*
G02*
X165625000Y-102800000I-150000J0D01*
G01*
G37*
G36*
G01*
X165625000Y-103800000D02*
X164375000Y-103800000D01*
G75*
G02*
X164225000Y-103650000I0J150000D01*
G01*
X164225000Y-103350000D01*
G75*
G02*
X164375000Y-103200000I150000J0D01*
G01*
X165625000Y-103200000D01*
G75*
G02*
X165775000Y-103350000I0J-150000D01*
G01*
X165775000Y-103650000D01*
G75*
G02*
X165625000Y-103800000I-150000J0D01*
G01*
G37*
G36*
G01*
X165625000Y-104800000D02*
X164375000Y-104800000D01*
G75*
G02*
X164225000Y-104650000I0J150000D01*
G01*
X164225000Y-104350000D01*
G75*
G02*
X164375000Y-104200000I150000J0D01*
G01*
X165625000Y-104200000D01*
G75*
G02*
X165775000Y-104350000I0J-150000D01*
G01*
X165775000Y-104650000D01*
G75*
G02*
X165625000Y-104800000I-150000J0D01*
G01*
G37*
%TD*%
D15*
%TO.C,J1*%
X145680000Y-113970000D03*
X154320000Y-113970000D03*
D16*
X152890000Y-114500000D03*
D17*
X154320000Y-118150000D03*
D16*
X147110000Y-114500000D03*
D17*
X145680000Y-118150000D03*
%TD*%
%TO.C,U4*%
G36*
G01*
X141375000Y-95750000D02*
X141675000Y-95750000D01*
G75*
G02*
X141825000Y-95900000I0J-150000D01*
G01*
X141825000Y-97200000D01*
G75*
G02*
X141675000Y-97350000I-150000J0D01*
G01*
X141375000Y-97350000D01*
G75*
G02*
X141225000Y-97200000I0J150000D01*
G01*
X141225000Y-95900000D01*
G75*
G02*
X141375000Y-95750000I150000J0D01*
G01*
G37*
G36*
G01*
X140105000Y-95750000D02*
X140405000Y-95750000D01*
G75*
G02*
X140555000Y-95900000I0J-150000D01*
G01*
X140555000Y-97200000D01*
G75*
G02*
X140405000Y-97350000I-150000J0D01*
G01*
X140105000Y-97350000D01*
G75*
G02*
X139955000Y-97200000I0J150000D01*
G01*
X139955000Y-95900000D01*
G75*
G02*
X140105000Y-95750000I150000J0D01*
G01*
G37*
G36*
G01*
X138835000Y-95750000D02*
X139135000Y-95750000D01*
G75*
G02*
X139285000Y-95900000I0J-150000D01*
G01*
X139285000Y-97200000D01*
G75*
G02*
X139135000Y-97350000I-150000J0D01*
G01*
X138835000Y-97350000D01*
G75*
G02*
X138685000Y-97200000I0J150000D01*
G01*
X138685000Y-95900000D01*
G75*
G02*
X138835000Y-95750000I150000J0D01*
G01*
G37*
G36*
G01*
X137565000Y-95750000D02*
X137865000Y-95750000D01*
G75*
G02*
X138015000Y-95900000I0J-150000D01*
G01*
X138015000Y-97200000D01*
G75*
G02*
X137865000Y-97350000I-150000J0D01*
G01*
X137565000Y-97350000D01*
G75*
G02*
X137415000Y-97200000I0J150000D01*
G01*
X137415000Y-95900000D01*
G75*
G02*
X137565000Y-95750000I150000J0D01*
G01*
G37*
G36*
G01*
X137565000Y-102950000D02*
X137865000Y-102950000D01*
G75*
G02*
X138015000Y-103100000I0J-150000D01*
G01*
X138015000Y-104400000D01*
G75*
G02*
X137865000Y-104550000I-150000J0D01*
G01*
X137565000Y-104550000D01*
G75*
G02*
X137415000Y-104400000I0J150000D01*
G01*
X137415000Y-103100000D01*
G75*
G02*
X137565000Y-102950000I150000J0D01*
G01*
G37*
G36*
G01*
X138835000Y-102950000D02*
X139135000Y-102950000D01*
G75*
G02*
X139285000Y-103100000I0J-150000D01*
G01*
X139285000Y-104400000D01*
G75*
G02*
X139135000Y-104550000I-150000J0D01*
G01*
X138835000Y-104550000D01*
G75*
G02*
X138685000Y-104400000I0J150000D01*
G01*
X138685000Y-103100000D01*
G75*
G02*
X138835000Y-102950000I150000J0D01*
G01*
G37*
G36*
G01*
X140105000Y-102950000D02*
X140405000Y-102950000D01*
G75*
G02*
X140555000Y-103100000I0J-150000D01*
G01*
X140555000Y-104400000D01*
G75*
G02*
X140405000Y-104550000I-150000J0D01*
G01*
X140105000Y-104550000D01*
G75*
G02*
X139955000Y-104400000I0J150000D01*
G01*
X139955000Y-103100000D01*
G75*
G02*
X140105000Y-102950000I150000J0D01*
G01*
G37*
G36*
G01*
X141375000Y-102950000D02*
X141675000Y-102950000D01*
G75*
G02*
X141825000Y-103100000I0J-150000D01*
G01*
X141825000Y-104400000D01*
G75*
G02*
X141675000Y-104550000I-150000J0D01*
G01*
X141375000Y-104550000D01*
G75*
G02*
X141225000Y-104400000I0J150000D01*
G01*
X141225000Y-103100000D01*
G75*
G02*
X141375000Y-102950000I150000J0D01*
G01*
G37*
%TD*%
D18*
%TO.C,TP1*%
X141000000Y-86360000D03*
%TD*%
%TO.C,TP2*%
X141000000Y-88910000D03*
%TD*%
%TO.C,TP3*%
X141100000Y-81400000D03*
%TD*%
%TO.C,TP4*%
X143650000Y-81400000D03*
%TD*%
%TO.C,TP5*%
X146200000Y-81400000D03*
%TD*%
%TO.C,TP6*%
X148750000Y-81400000D03*
%TD*%
%TO.C,TP7*%
X151300000Y-81400000D03*
%TD*%
%TO.C,TP8*%
X153850000Y-81400000D03*
%TD*%
%TO.C,TP9*%
X156400000Y-81400000D03*
%TD*%
%TO.C,TP10*%
X158950000Y-81400000D03*
%TD*%
%TO.C,TP11*%
X131490000Y-97410000D03*
%TD*%
%TO.C,TP12*%
X131490000Y-99950000D03*
%TD*%
%TO.C,TP13*%
X131490000Y-102480000D03*
%TD*%
%TO.C,TP14*%
X158970000Y-118480000D03*
%TD*%
%TO.C,TP15*%
X158970000Y-115930000D03*
%TD*%
%TO.C,TP16*%
X158970000Y-113390000D03*
%TD*%
D19*
%TO.C,SW1*%
X146320000Y-92990000D03*
X138320000Y-92990000D03*
%TD*%
M02*
