%TF.GenerationSoftware,KiCad,Pcbnew,5.1.8-db9833491~87~ubuntu20.04.1*%
%TF.CreationDate,2020-11-23T13:43:30+01:00*%
%TF.ProjectId,rosalyn-fc,726f7361-6c79-46e2-9d66-632e6b696361,v0.1*%
%TF.SameCoordinates,Original*%
%TF.FileFunction,Copper,L4,Bot*%
%TF.FilePolarity,Positive*%
%FSLAX46Y46*%
G04 Gerber Fmt 4.6, Leading zero omitted, Abs format (unit mm)*
G04 Created by KiCad (PCBNEW 5.1.8-db9833491~87~ubuntu20.04.1) date 2020-11-23 13:43:30*
%MOMM*%
%LPD*%
G01*
G04 APERTURE LIST*
%TA.AperFunction,SMDPad,CuDef*%
%ADD10R,0.900000X0.800000*%
%TD*%
%TA.AperFunction,SMDPad,CuDef*%
%ADD11R,0.400000X1.900000*%
%TD*%
%TA.AperFunction,SMDPad,CuDef*%
%ADD12R,0.600000X1.450000*%
%TD*%
%TA.AperFunction,SMDPad,CuDef*%
%ADD13R,0.300000X1.450000*%
%TD*%
%TA.AperFunction,ComponentPad*%
%ADD14O,1.000000X2.100000*%
%TD*%
%TA.AperFunction,ComponentPad*%
%ADD15O,1.000000X1.600000*%
%TD*%
%TA.AperFunction,ViaPad*%
%ADD16C,0.800000*%
%TD*%
%TA.AperFunction,ViaPad*%
%ADD17C,0.600000*%
%TD*%
%TA.AperFunction,Conductor*%
%ADD18C,0.250000*%
%TD*%
%TA.AperFunction,Conductor*%
%ADD19C,0.300000*%
%TD*%
%TA.AperFunction,Conductor*%
%ADD20C,0.500000*%
%TD*%
%TA.AperFunction,Conductor*%
%ADD21C,0.200000*%
%TD*%
%TA.AperFunction,Conductor*%
%ADD22C,0.400000*%
%TD*%
G04 APERTURE END LIST*
%TO.P,C16,2*%
%TO.N,GND*%
%TA.AperFunction,SMDPad,CuDef*%
G36*
G01*
X151675000Y-91610000D02*
X151675000Y-92110000D01*
G75*
G02*
X151450000Y-92335000I-225000J0D01*
G01*
X151000000Y-92335000D01*
G75*
G02*
X150775000Y-92110000I0J225000D01*
G01*
X150775000Y-91610000D01*
G75*
G02*
X151000000Y-91385000I225000J0D01*
G01*
X151450000Y-91385000D01*
G75*
G02*
X151675000Y-91610000I0J-225000D01*
G01*
G37*
%TD.AperFunction*%
%TO.P,C16,1*%
%TO.N,+3V3*%
%TA.AperFunction,SMDPad,CuDef*%
G36*
G01*
X153225000Y-91610000D02*
X153225000Y-92110000D01*
G75*
G02*
X153000000Y-92335000I-225000J0D01*
G01*
X152550000Y-92335000D01*
G75*
G02*
X152325000Y-92110000I0J225000D01*
G01*
X152325000Y-91610000D01*
G75*
G02*
X152550000Y-91385000I225000J0D01*
G01*
X153000000Y-91385000D01*
G75*
G02*
X153225000Y-91610000I0J-225000D01*
G01*
G37*
%TD.AperFunction*%
%TD*%
%TO.P,C12,2*%
%TO.N,GND*%
%TA.AperFunction,SMDPad,CuDef*%
G36*
G01*
X143985000Y-93720000D02*
X143985000Y-94220000D01*
G75*
G02*
X143760000Y-94445000I-225000J0D01*
G01*
X143310000Y-94445000D01*
G75*
G02*
X143085000Y-94220000I0J225000D01*
G01*
X143085000Y-93720000D01*
G75*
G02*
X143310000Y-93495000I225000J0D01*
G01*
X143760000Y-93495000D01*
G75*
G02*
X143985000Y-93720000I0J-225000D01*
G01*
G37*
%TD.AperFunction*%
%TO.P,C12,1*%
%TO.N,+3V3*%
%TA.AperFunction,SMDPad,CuDef*%
G36*
G01*
X145535000Y-93720000D02*
X145535000Y-94220000D01*
G75*
G02*
X145310000Y-94445000I-225000J0D01*
G01*
X144860000Y-94445000D01*
G75*
G02*
X144635000Y-94220000I0J225000D01*
G01*
X144635000Y-93720000D01*
G75*
G02*
X144860000Y-93495000I225000J0D01*
G01*
X145310000Y-93495000D01*
G75*
G02*
X145535000Y-93720000I0J-225000D01*
G01*
G37*
%TD.AperFunction*%
%TD*%
%TO.P,C11,2*%
%TO.N,GND*%
%TA.AperFunction,SMDPad,CuDef*%
G36*
G01*
X144015000Y-105770000D02*
X144015000Y-106270000D01*
G75*
G02*
X143790000Y-106495000I-225000J0D01*
G01*
X143340000Y-106495000D01*
G75*
G02*
X143115000Y-106270000I0J225000D01*
G01*
X143115000Y-105770000D01*
G75*
G02*
X143340000Y-105545000I225000J0D01*
G01*
X143790000Y-105545000D01*
G75*
G02*
X144015000Y-105770000I0J-225000D01*
G01*
G37*
%TD.AperFunction*%
%TO.P,C11,1*%
%TO.N,+3V3*%
%TA.AperFunction,SMDPad,CuDef*%
G36*
G01*
X145565000Y-105770000D02*
X145565000Y-106270000D01*
G75*
G02*
X145340000Y-106495000I-225000J0D01*
G01*
X144890000Y-106495000D01*
G75*
G02*
X144665000Y-106270000I0J225000D01*
G01*
X144665000Y-105770000D01*
G75*
G02*
X144890000Y-105545000I225000J0D01*
G01*
X145340000Y-105545000D01*
G75*
G02*
X145565000Y-105770000I0J-225000D01*
G01*
G37*
%TD.AperFunction*%
%TD*%
%TO.P,C10,2*%
%TO.N,GND*%
%TA.AperFunction,SMDPad,CuDef*%
G36*
G01*
X157720000Y-96675000D02*
X157220000Y-96675000D01*
G75*
G02*
X156995000Y-96450000I0J225000D01*
G01*
X156995000Y-96000000D01*
G75*
G02*
X157220000Y-95775000I225000J0D01*
G01*
X157720000Y-95775000D01*
G75*
G02*
X157945000Y-96000000I0J-225000D01*
G01*
X157945000Y-96450000D01*
G75*
G02*
X157720000Y-96675000I-225000J0D01*
G01*
G37*
%TD.AperFunction*%
%TO.P,C10,1*%
%TO.N,+3V3*%
%TA.AperFunction,SMDPad,CuDef*%
G36*
G01*
X157720000Y-98225000D02*
X157220000Y-98225000D01*
G75*
G02*
X156995000Y-98000000I0J225000D01*
G01*
X156995000Y-97550000D01*
G75*
G02*
X157220000Y-97325000I225000J0D01*
G01*
X157720000Y-97325000D01*
G75*
G02*
X157945000Y-97550000I0J-225000D01*
G01*
X157945000Y-98000000D01*
G75*
G02*
X157720000Y-98225000I-225000J0D01*
G01*
G37*
%TD.AperFunction*%
%TD*%
%TO.P,C9,2*%
%TO.N,GND*%
%TA.AperFunction,SMDPad,CuDef*%
G36*
G01*
X157730000Y-103515000D02*
X157230000Y-103515000D01*
G75*
G02*
X157005000Y-103290000I0J225000D01*
G01*
X157005000Y-102840000D01*
G75*
G02*
X157230000Y-102615000I225000J0D01*
G01*
X157730000Y-102615000D01*
G75*
G02*
X157955000Y-102840000I0J-225000D01*
G01*
X157955000Y-103290000D01*
G75*
G02*
X157730000Y-103515000I-225000J0D01*
G01*
G37*
%TD.AperFunction*%
%TO.P,C9,1*%
%TO.N,+3V3*%
%TA.AperFunction,SMDPad,CuDef*%
G36*
G01*
X157730000Y-105065000D02*
X157230000Y-105065000D01*
G75*
G02*
X157005000Y-104840000I0J225000D01*
G01*
X157005000Y-104390000D01*
G75*
G02*
X157230000Y-104165000I225000J0D01*
G01*
X157730000Y-104165000D01*
G75*
G02*
X157955000Y-104390000I0J-225000D01*
G01*
X157955000Y-104840000D01*
G75*
G02*
X157730000Y-105065000I-225000J0D01*
G01*
G37*
%TD.AperFunction*%
%TD*%
%TO.P,U2,1*%
%TO.N,+3V3*%
%TA.AperFunction,SMDPad,CuDef*%
G36*
G01*
X146175000Y-93550000D02*
X146325000Y-93550000D01*
G75*
G02*
X146400000Y-93625000I0J-75000D01*
G01*
X146400000Y-95025000D01*
G75*
G02*
X146325000Y-95100000I-75000J0D01*
G01*
X146175000Y-95100000D01*
G75*
G02*
X146100000Y-95025000I0J75000D01*
G01*
X146100000Y-93625000D01*
G75*
G02*
X146175000Y-93550000I75000J0D01*
G01*
G37*
%TD.AperFunction*%
%TO.P,U2,2*%
%TO.N,beeper*%
%TA.AperFunction,SMDPad,CuDef*%
G36*
G01*
X146675000Y-93550000D02*
X146825000Y-93550000D01*
G75*
G02*
X146900000Y-93625000I0J-75000D01*
G01*
X146900000Y-95025000D01*
G75*
G02*
X146825000Y-95100000I-75000J0D01*
G01*
X146675000Y-95100000D01*
G75*
G02*
X146600000Y-95025000I0J75000D01*
G01*
X146600000Y-93625000D01*
G75*
G02*
X146675000Y-93550000I75000J0D01*
G01*
G37*
%TD.AperFunction*%
%TO.P,U2,3*%
%TO.N,N/C*%
%TA.AperFunction,SMDPad,CuDef*%
G36*
G01*
X147175000Y-93550000D02*
X147325000Y-93550000D01*
G75*
G02*
X147400000Y-93625000I0J-75000D01*
G01*
X147400000Y-95025000D01*
G75*
G02*
X147325000Y-95100000I-75000J0D01*
G01*
X147175000Y-95100000D01*
G75*
G02*
X147100000Y-95025000I0J75000D01*
G01*
X147100000Y-93625000D01*
G75*
G02*
X147175000Y-93550000I75000J0D01*
G01*
G37*
%TD.AperFunction*%
%TO.P,U2,4*%
%TO.N,baro_cs*%
%TA.AperFunction,SMDPad,CuDef*%
G36*
G01*
X147675000Y-93550000D02*
X147825000Y-93550000D01*
G75*
G02*
X147900000Y-93625000I0J-75000D01*
G01*
X147900000Y-95025000D01*
G75*
G02*
X147825000Y-95100000I-75000J0D01*
G01*
X147675000Y-95100000D01*
G75*
G02*
X147600000Y-95025000I0J75000D01*
G01*
X147600000Y-93625000D01*
G75*
G02*
X147675000Y-93550000I75000J0D01*
G01*
G37*
%TD.AperFunction*%
%TO.P,U2,5*%
%TO.N,Net-(U2-Pad5)*%
%TA.AperFunction,SMDPad,CuDef*%
G36*
G01*
X148175000Y-93550000D02*
X148325000Y-93550000D01*
G75*
G02*
X148400000Y-93625000I0J-75000D01*
G01*
X148400000Y-95025000D01*
G75*
G02*
X148325000Y-95100000I-75000J0D01*
G01*
X148175000Y-95100000D01*
G75*
G02*
X148100000Y-95025000I0J75000D01*
G01*
X148100000Y-93625000D01*
G75*
G02*
X148175000Y-93550000I75000J0D01*
G01*
G37*
%TD.AperFunction*%
%TO.P,U2,6*%
%TO.N,Net-(U2-Pad6)*%
%TA.AperFunction,SMDPad,CuDef*%
G36*
G01*
X148675000Y-93550000D02*
X148825000Y-93550000D01*
G75*
G02*
X148900000Y-93625000I0J-75000D01*
G01*
X148900000Y-95025000D01*
G75*
G02*
X148825000Y-95100000I-75000J0D01*
G01*
X148675000Y-95100000D01*
G75*
G02*
X148600000Y-95025000I0J75000D01*
G01*
X148600000Y-93625000D01*
G75*
G02*
X148675000Y-93550000I75000J0D01*
G01*
G37*
%TD.AperFunction*%
%TO.P,U2,7*%
%TO.N,nrst*%
%TA.AperFunction,SMDPad,CuDef*%
G36*
G01*
X149175000Y-93550000D02*
X149325000Y-93550000D01*
G75*
G02*
X149400000Y-93625000I0J-75000D01*
G01*
X149400000Y-95025000D01*
G75*
G02*
X149325000Y-95100000I-75000J0D01*
G01*
X149175000Y-95100000D01*
G75*
G02*
X149100000Y-95025000I0J75000D01*
G01*
X149100000Y-93625000D01*
G75*
G02*
X149175000Y-93550000I75000J0D01*
G01*
G37*
%TD.AperFunction*%
%TO.P,U2,8*%
%TO.N,N/C*%
%TA.AperFunction,SMDPad,CuDef*%
G36*
G01*
X149675000Y-93550000D02*
X149825000Y-93550000D01*
G75*
G02*
X149900000Y-93625000I0J-75000D01*
G01*
X149900000Y-95025000D01*
G75*
G02*
X149825000Y-95100000I-75000J0D01*
G01*
X149675000Y-95100000D01*
G75*
G02*
X149600000Y-95025000I0J75000D01*
G01*
X149600000Y-93625000D01*
G75*
G02*
X149675000Y-93550000I75000J0D01*
G01*
G37*
%TD.AperFunction*%
%TO.P,U2,9*%
%TO.N,vbat_adc*%
%TA.AperFunction,SMDPad,CuDef*%
G36*
G01*
X150175000Y-93550000D02*
X150325000Y-93550000D01*
G75*
G02*
X150400000Y-93625000I0J-75000D01*
G01*
X150400000Y-95025000D01*
G75*
G02*
X150325000Y-95100000I-75000J0D01*
G01*
X150175000Y-95100000D01*
G75*
G02*
X150100000Y-95025000I0J75000D01*
G01*
X150100000Y-93625000D01*
G75*
G02*
X150175000Y-93550000I75000J0D01*
G01*
G37*
%TD.AperFunction*%
%TO.P,U2,10*%
%TO.N,current_adc*%
%TA.AperFunction,SMDPad,CuDef*%
G36*
G01*
X150675000Y-93550000D02*
X150825000Y-93550000D01*
G75*
G02*
X150900000Y-93625000I0J-75000D01*
G01*
X150900000Y-95025000D01*
G75*
G02*
X150825000Y-95100000I-75000J0D01*
G01*
X150675000Y-95100000D01*
G75*
G02*
X150600000Y-95025000I0J75000D01*
G01*
X150600000Y-93625000D01*
G75*
G02*
X150675000Y-93550000I75000J0D01*
G01*
G37*
%TD.AperFunction*%
%TO.P,U2,11*%
%TO.N,rssi_adc*%
%TA.AperFunction,SMDPad,CuDef*%
G36*
G01*
X151175000Y-93550000D02*
X151325000Y-93550000D01*
G75*
G02*
X151400000Y-93625000I0J-75000D01*
G01*
X151400000Y-95025000D01*
G75*
G02*
X151325000Y-95100000I-75000J0D01*
G01*
X151175000Y-95100000D01*
G75*
G02*
X151100000Y-95025000I0J75000D01*
G01*
X151100000Y-93625000D01*
G75*
G02*
X151175000Y-93550000I75000J0D01*
G01*
G37*
%TD.AperFunction*%
%TO.P,U2,12*%
%TO.N,GND*%
%TA.AperFunction,SMDPad,CuDef*%
G36*
G01*
X151675000Y-93550000D02*
X151825000Y-93550000D01*
G75*
G02*
X151900000Y-93625000I0J-75000D01*
G01*
X151900000Y-95025000D01*
G75*
G02*
X151825000Y-95100000I-75000J0D01*
G01*
X151675000Y-95100000D01*
G75*
G02*
X151600000Y-95025000I0J75000D01*
G01*
X151600000Y-93625000D01*
G75*
G02*
X151675000Y-93550000I75000J0D01*
G01*
G37*
%TD.AperFunction*%
%TO.P,U2,13*%
%TO.N,+3V3*%
%TA.AperFunction,SMDPad,CuDef*%
G36*
G01*
X152175000Y-93550000D02*
X152325000Y-93550000D01*
G75*
G02*
X152400000Y-93625000I0J-75000D01*
G01*
X152400000Y-95025000D01*
G75*
G02*
X152325000Y-95100000I-75000J0D01*
G01*
X152175000Y-95100000D01*
G75*
G02*
X152100000Y-95025000I0J75000D01*
G01*
X152100000Y-93625000D01*
G75*
G02*
X152175000Y-93550000I75000J0D01*
G01*
G37*
%TD.AperFunction*%
%TO.P,U2,14*%
%TO.N,uart4_tx*%
%TA.AperFunction,SMDPad,CuDef*%
G36*
G01*
X152675000Y-93550000D02*
X152825000Y-93550000D01*
G75*
G02*
X152900000Y-93625000I0J-75000D01*
G01*
X152900000Y-95025000D01*
G75*
G02*
X152825000Y-95100000I-75000J0D01*
G01*
X152675000Y-95100000D01*
G75*
G02*
X152600000Y-95025000I0J75000D01*
G01*
X152600000Y-93625000D01*
G75*
G02*
X152675000Y-93550000I75000J0D01*
G01*
G37*
%TD.AperFunction*%
%TO.P,U2,15*%
%TO.N,uart4_rx*%
%TA.AperFunction,SMDPad,CuDef*%
G36*
G01*
X153175000Y-93550000D02*
X153325000Y-93550000D01*
G75*
G02*
X153400000Y-93625000I0J-75000D01*
G01*
X153400000Y-95025000D01*
G75*
G02*
X153325000Y-95100000I-75000J0D01*
G01*
X153175000Y-95100000D01*
G75*
G02*
X153100000Y-95025000I0J75000D01*
G01*
X153100000Y-93625000D01*
G75*
G02*
X153175000Y-93550000I75000J0D01*
G01*
G37*
%TD.AperFunction*%
%TO.P,U2,16*%
%TO.N,usart2_tx*%
%TA.AperFunction,SMDPad,CuDef*%
G36*
G01*
X153675000Y-93550000D02*
X153825000Y-93550000D01*
G75*
G02*
X153900000Y-93625000I0J-75000D01*
G01*
X153900000Y-95025000D01*
G75*
G02*
X153825000Y-95100000I-75000J0D01*
G01*
X153675000Y-95100000D01*
G75*
G02*
X153600000Y-95025000I0J75000D01*
G01*
X153600000Y-93625000D01*
G75*
G02*
X153675000Y-93550000I75000J0D01*
G01*
G37*
%TD.AperFunction*%
%TO.P,U2,17*%
%TO.N,usart2_rx*%
%TA.AperFunction,SMDPad,CuDef*%
G36*
G01*
X154975000Y-96100000D02*
X156375000Y-96100000D01*
G75*
G02*
X156450000Y-96175000I0J-75000D01*
G01*
X156450000Y-96325000D01*
G75*
G02*
X156375000Y-96400000I-75000J0D01*
G01*
X154975000Y-96400000D01*
G75*
G02*
X154900000Y-96325000I0J75000D01*
G01*
X154900000Y-96175000D01*
G75*
G02*
X154975000Y-96100000I75000J0D01*
G01*
G37*
%TD.AperFunction*%
%TO.P,U2,18*%
%TO.N,GND*%
%TA.AperFunction,SMDPad,CuDef*%
G36*
G01*
X154975000Y-96600000D02*
X156375000Y-96600000D01*
G75*
G02*
X156450000Y-96675000I0J-75000D01*
G01*
X156450000Y-96825000D01*
G75*
G02*
X156375000Y-96900000I-75000J0D01*
G01*
X154975000Y-96900000D01*
G75*
G02*
X154900000Y-96825000I0J75000D01*
G01*
X154900000Y-96675000D01*
G75*
G02*
X154975000Y-96600000I75000J0D01*
G01*
G37*
%TD.AperFunction*%
%TO.P,U2,19*%
%TO.N,+3V3*%
%TA.AperFunction,SMDPad,CuDef*%
G36*
G01*
X154975000Y-97100000D02*
X156375000Y-97100000D01*
G75*
G02*
X156450000Y-97175000I0J-75000D01*
G01*
X156450000Y-97325000D01*
G75*
G02*
X156375000Y-97400000I-75000J0D01*
G01*
X154975000Y-97400000D01*
G75*
G02*
X154900000Y-97325000I0J75000D01*
G01*
X154900000Y-97175000D01*
G75*
G02*
X154975000Y-97100000I75000J0D01*
G01*
G37*
%TD.AperFunction*%
%TO.P,U2,20*%
%TO.N,gyro1_cs*%
%TA.AperFunction,SMDPad,CuDef*%
G36*
G01*
X154975000Y-97600000D02*
X156375000Y-97600000D01*
G75*
G02*
X156450000Y-97675000I0J-75000D01*
G01*
X156450000Y-97825000D01*
G75*
G02*
X156375000Y-97900000I-75000J0D01*
G01*
X154975000Y-97900000D01*
G75*
G02*
X154900000Y-97825000I0J75000D01*
G01*
X154900000Y-97675000D01*
G75*
G02*
X154975000Y-97600000I75000J0D01*
G01*
G37*
%TD.AperFunction*%
%TO.P,U2,21*%
%TO.N,spi1_sck*%
%TA.AperFunction,SMDPad,CuDef*%
G36*
G01*
X154975000Y-98100000D02*
X156375000Y-98100000D01*
G75*
G02*
X156450000Y-98175000I0J-75000D01*
G01*
X156450000Y-98325000D01*
G75*
G02*
X156375000Y-98400000I-75000J0D01*
G01*
X154975000Y-98400000D01*
G75*
G02*
X154900000Y-98325000I0J75000D01*
G01*
X154900000Y-98175000D01*
G75*
G02*
X154975000Y-98100000I75000J0D01*
G01*
G37*
%TD.AperFunction*%
%TO.P,U2,22*%
%TO.N,spi1_miso*%
%TA.AperFunction,SMDPad,CuDef*%
G36*
G01*
X154975000Y-98600000D02*
X156375000Y-98600000D01*
G75*
G02*
X156450000Y-98675000I0J-75000D01*
G01*
X156450000Y-98825000D01*
G75*
G02*
X156375000Y-98900000I-75000J0D01*
G01*
X154975000Y-98900000D01*
G75*
G02*
X154900000Y-98825000I0J75000D01*
G01*
X154900000Y-98675000D01*
G75*
G02*
X154975000Y-98600000I75000J0D01*
G01*
G37*
%TD.AperFunction*%
%TO.P,U2,23*%
%TO.N,spi1_mosi*%
%TA.AperFunction,SMDPad,CuDef*%
G36*
G01*
X154975000Y-99100000D02*
X156375000Y-99100000D01*
G75*
G02*
X156450000Y-99175000I0J-75000D01*
G01*
X156450000Y-99325000D01*
G75*
G02*
X156375000Y-99400000I-75000J0D01*
G01*
X154975000Y-99400000D01*
G75*
G02*
X154900000Y-99325000I0J75000D01*
G01*
X154900000Y-99175000D01*
G75*
G02*
X154975000Y-99100000I75000J0D01*
G01*
G37*
%TD.AperFunction*%
%TO.P,U2,24*%
%TO.N,gyro1_exti*%
%TA.AperFunction,SMDPad,CuDef*%
G36*
G01*
X154975000Y-99600000D02*
X156375000Y-99600000D01*
G75*
G02*
X156450000Y-99675000I0J-75000D01*
G01*
X156450000Y-99825000D01*
G75*
G02*
X156375000Y-99900000I-75000J0D01*
G01*
X154975000Y-99900000D01*
G75*
G02*
X154900000Y-99825000I0J75000D01*
G01*
X154900000Y-99675000D01*
G75*
G02*
X154975000Y-99600000I75000J0D01*
G01*
G37*
%TD.AperFunction*%
%TO.P,U2,25*%
%TO.N,m3*%
%TA.AperFunction,SMDPad,CuDef*%
G36*
G01*
X154975000Y-100100000D02*
X156375000Y-100100000D01*
G75*
G02*
X156450000Y-100175000I0J-75000D01*
G01*
X156450000Y-100325000D01*
G75*
G02*
X156375000Y-100400000I-75000J0D01*
G01*
X154975000Y-100400000D01*
G75*
G02*
X154900000Y-100325000I0J75000D01*
G01*
X154900000Y-100175000D01*
G75*
G02*
X154975000Y-100100000I75000J0D01*
G01*
G37*
%TD.AperFunction*%
%TO.P,U2,26*%
%TO.N,m4*%
%TA.AperFunction,SMDPad,CuDef*%
G36*
G01*
X154975000Y-100600000D02*
X156375000Y-100600000D01*
G75*
G02*
X156450000Y-100675000I0J-75000D01*
G01*
X156450000Y-100825000D01*
G75*
G02*
X156375000Y-100900000I-75000J0D01*
G01*
X154975000Y-100900000D01*
G75*
G02*
X154900000Y-100825000I0J75000D01*
G01*
X154900000Y-100675000D01*
G75*
G02*
X154975000Y-100600000I75000J0D01*
G01*
G37*
%TD.AperFunction*%
%TO.P,U2,27*%
%TO.N,led0*%
%TA.AperFunction,SMDPad,CuDef*%
G36*
G01*
X154975000Y-101100000D02*
X156375000Y-101100000D01*
G75*
G02*
X156450000Y-101175000I0J-75000D01*
G01*
X156450000Y-101325000D01*
G75*
G02*
X156375000Y-101400000I-75000J0D01*
G01*
X154975000Y-101400000D01*
G75*
G02*
X154900000Y-101325000I0J75000D01*
G01*
X154900000Y-101175000D01*
G75*
G02*
X154975000Y-101100000I75000J0D01*
G01*
G37*
%TD.AperFunction*%
%TO.P,U2,28*%
%TO.N,i2c2_scl*%
%TA.AperFunction,SMDPad,CuDef*%
G36*
G01*
X154975000Y-101600000D02*
X156375000Y-101600000D01*
G75*
G02*
X156450000Y-101675000I0J-75000D01*
G01*
X156450000Y-101825000D01*
G75*
G02*
X156375000Y-101900000I-75000J0D01*
G01*
X154975000Y-101900000D01*
G75*
G02*
X154900000Y-101825000I0J75000D01*
G01*
X154900000Y-101675000D01*
G75*
G02*
X154975000Y-101600000I75000J0D01*
G01*
G37*
%TD.AperFunction*%
%TO.P,U2,29*%
%TO.N,i2c2_sda*%
%TA.AperFunction,SMDPad,CuDef*%
G36*
G01*
X154975000Y-102100000D02*
X156375000Y-102100000D01*
G75*
G02*
X156450000Y-102175000I0J-75000D01*
G01*
X156450000Y-102325000D01*
G75*
G02*
X156375000Y-102400000I-75000J0D01*
G01*
X154975000Y-102400000D01*
G75*
G02*
X154900000Y-102325000I0J75000D01*
G01*
X154900000Y-102175000D01*
G75*
G02*
X154975000Y-102100000I75000J0D01*
G01*
G37*
%TD.AperFunction*%
%TO.P,U2,30*%
%TO.N,Net-(C1-Pad2)*%
%TA.AperFunction,SMDPad,CuDef*%
G36*
G01*
X154975000Y-102600000D02*
X156375000Y-102600000D01*
G75*
G02*
X156450000Y-102675000I0J-75000D01*
G01*
X156450000Y-102825000D01*
G75*
G02*
X156375000Y-102900000I-75000J0D01*
G01*
X154975000Y-102900000D01*
G75*
G02*
X154900000Y-102825000I0J75000D01*
G01*
X154900000Y-102675000D01*
G75*
G02*
X154975000Y-102600000I75000J0D01*
G01*
G37*
%TD.AperFunction*%
%TO.P,U2,31*%
%TO.N,GND*%
%TA.AperFunction,SMDPad,CuDef*%
G36*
G01*
X154975000Y-103100000D02*
X156375000Y-103100000D01*
G75*
G02*
X156450000Y-103175000I0J-75000D01*
G01*
X156450000Y-103325000D01*
G75*
G02*
X156375000Y-103400000I-75000J0D01*
G01*
X154975000Y-103400000D01*
G75*
G02*
X154900000Y-103325000I0J75000D01*
G01*
X154900000Y-103175000D01*
G75*
G02*
X154975000Y-103100000I75000J0D01*
G01*
G37*
%TD.AperFunction*%
%TO.P,U2,32*%
%TO.N,+3V3*%
%TA.AperFunction,SMDPad,CuDef*%
G36*
G01*
X154975000Y-103600000D02*
X156375000Y-103600000D01*
G75*
G02*
X156450000Y-103675000I0J-75000D01*
G01*
X156450000Y-103825000D01*
G75*
G02*
X156375000Y-103900000I-75000J0D01*
G01*
X154975000Y-103900000D01*
G75*
G02*
X154900000Y-103825000I0J75000D01*
G01*
X154900000Y-103675000D01*
G75*
G02*
X154975000Y-103600000I75000J0D01*
G01*
G37*
%TD.AperFunction*%
%TO.P,U2,33*%
%TO.N,N/C*%
%TA.AperFunction,SMDPad,CuDef*%
G36*
G01*
X153675000Y-104900000D02*
X153825000Y-104900000D01*
G75*
G02*
X153900000Y-104975000I0J-75000D01*
G01*
X153900000Y-106375000D01*
G75*
G02*
X153825000Y-106450000I-75000J0D01*
G01*
X153675000Y-106450000D01*
G75*
G02*
X153600000Y-106375000I0J75000D01*
G01*
X153600000Y-104975000D01*
G75*
G02*
X153675000Y-104900000I75000J0D01*
G01*
G37*
%TD.AperFunction*%
%TO.P,U2,34*%
%TA.AperFunction,SMDPad,CuDef*%
G36*
G01*
X153175000Y-104900000D02*
X153325000Y-104900000D01*
G75*
G02*
X153400000Y-104975000I0J-75000D01*
G01*
X153400000Y-106375000D01*
G75*
G02*
X153325000Y-106450000I-75000J0D01*
G01*
X153175000Y-106450000D01*
G75*
G02*
X153100000Y-106375000I0J75000D01*
G01*
X153100000Y-104975000D01*
G75*
G02*
X153175000Y-104900000I75000J0D01*
G01*
G37*
%TD.AperFunction*%
%TO.P,U2,35*%
%TA.AperFunction,SMDPad,CuDef*%
G36*
G01*
X152675000Y-104900000D02*
X152825000Y-104900000D01*
G75*
G02*
X152900000Y-104975000I0J-75000D01*
G01*
X152900000Y-106375000D01*
G75*
G02*
X152825000Y-106450000I-75000J0D01*
G01*
X152675000Y-106450000D01*
G75*
G02*
X152600000Y-106375000I0J75000D01*
G01*
X152600000Y-104975000D01*
G75*
G02*
X152675000Y-104900000I75000J0D01*
G01*
G37*
%TD.AperFunction*%
%TO.P,U2,36*%
%TA.AperFunction,SMDPad,CuDef*%
G36*
G01*
X152175000Y-104900000D02*
X152325000Y-104900000D01*
G75*
G02*
X152400000Y-104975000I0J-75000D01*
G01*
X152400000Y-106375000D01*
G75*
G02*
X152325000Y-106450000I-75000J0D01*
G01*
X152175000Y-106450000D01*
G75*
G02*
X152100000Y-106375000I0J75000D01*
G01*
X152100000Y-104975000D01*
G75*
G02*
X152175000Y-104900000I75000J0D01*
G01*
G37*
%TD.AperFunction*%
%TO.P,U2,37*%
%TO.N,uart6_rxtx*%
%TA.AperFunction,SMDPad,CuDef*%
G36*
G01*
X151675000Y-104900000D02*
X151825000Y-104900000D01*
G75*
G02*
X151900000Y-104975000I0J-75000D01*
G01*
X151900000Y-106375000D01*
G75*
G02*
X151825000Y-106450000I-75000J0D01*
G01*
X151675000Y-106450000D01*
G75*
G02*
X151600000Y-106375000I0J75000D01*
G01*
X151600000Y-104975000D01*
G75*
G02*
X151675000Y-104900000I75000J0D01*
G01*
G37*
%TD.AperFunction*%
%TO.P,U2,38*%
%TO.N,m2*%
%TA.AperFunction,SMDPad,CuDef*%
G36*
G01*
X151175000Y-104900000D02*
X151325000Y-104900000D01*
G75*
G02*
X151400000Y-104975000I0J-75000D01*
G01*
X151400000Y-106375000D01*
G75*
G02*
X151325000Y-106450000I-75000J0D01*
G01*
X151175000Y-106450000D01*
G75*
G02*
X151100000Y-106375000I0J75000D01*
G01*
X151100000Y-104975000D01*
G75*
G02*
X151175000Y-104900000I75000J0D01*
G01*
G37*
%TD.AperFunction*%
%TO.P,U2,39*%
%TO.N,flash_cs*%
%TA.AperFunction,SMDPad,CuDef*%
G36*
G01*
X150675000Y-104900000D02*
X150825000Y-104900000D01*
G75*
G02*
X150900000Y-104975000I0J-75000D01*
G01*
X150900000Y-106375000D01*
G75*
G02*
X150825000Y-106450000I-75000J0D01*
G01*
X150675000Y-106450000D01*
G75*
G02*
X150600000Y-106375000I0J75000D01*
G01*
X150600000Y-104975000D01*
G75*
G02*
X150675000Y-104900000I75000J0D01*
G01*
G37*
%TD.AperFunction*%
%TO.P,U2,40*%
%TO.N,m1*%
%TA.AperFunction,SMDPad,CuDef*%
G36*
G01*
X150175000Y-104900000D02*
X150325000Y-104900000D01*
G75*
G02*
X150400000Y-104975000I0J-75000D01*
G01*
X150400000Y-106375000D01*
G75*
G02*
X150325000Y-106450000I-75000J0D01*
G01*
X150175000Y-106450000D01*
G75*
G02*
X150100000Y-106375000I0J75000D01*
G01*
X150100000Y-104975000D01*
G75*
G02*
X150175000Y-104900000I75000J0D01*
G01*
G37*
%TD.AperFunction*%
%TO.P,U2,41*%
%TO.N,led*%
%TA.AperFunction,SMDPad,CuDef*%
G36*
G01*
X149675000Y-104900000D02*
X149825000Y-104900000D01*
G75*
G02*
X149900000Y-104975000I0J-75000D01*
G01*
X149900000Y-106375000D01*
G75*
G02*
X149825000Y-106450000I-75000J0D01*
G01*
X149675000Y-106450000D01*
G75*
G02*
X149600000Y-106375000I0J75000D01*
G01*
X149600000Y-104975000D01*
G75*
G02*
X149675000Y-104900000I75000J0D01*
G01*
G37*
%TD.AperFunction*%
%TO.P,U2,42*%
%TO.N,usart1_tx*%
%TA.AperFunction,SMDPad,CuDef*%
G36*
G01*
X149175000Y-104900000D02*
X149325000Y-104900000D01*
G75*
G02*
X149400000Y-104975000I0J-75000D01*
G01*
X149400000Y-106375000D01*
G75*
G02*
X149325000Y-106450000I-75000J0D01*
G01*
X149175000Y-106450000D01*
G75*
G02*
X149100000Y-106375000I0J75000D01*
G01*
X149100000Y-104975000D01*
G75*
G02*
X149175000Y-104900000I75000J0D01*
G01*
G37*
%TD.AperFunction*%
%TO.P,U2,43*%
%TO.N,usart1_rx*%
%TA.AperFunction,SMDPad,CuDef*%
G36*
G01*
X148675000Y-104900000D02*
X148825000Y-104900000D01*
G75*
G02*
X148900000Y-104975000I0J-75000D01*
G01*
X148900000Y-106375000D01*
G75*
G02*
X148825000Y-106450000I-75000J0D01*
G01*
X148675000Y-106450000D01*
G75*
G02*
X148600000Y-106375000I0J75000D01*
G01*
X148600000Y-104975000D01*
G75*
G02*
X148675000Y-104900000I75000J0D01*
G01*
G37*
%TD.AperFunction*%
%TO.P,U2,44*%
%TO.N,usb_dm*%
%TA.AperFunction,SMDPad,CuDef*%
G36*
G01*
X148175000Y-104900000D02*
X148325000Y-104900000D01*
G75*
G02*
X148400000Y-104975000I0J-75000D01*
G01*
X148400000Y-106375000D01*
G75*
G02*
X148325000Y-106450000I-75000J0D01*
G01*
X148175000Y-106450000D01*
G75*
G02*
X148100000Y-106375000I0J75000D01*
G01*
X148100000Y-104975000D01*
G75*
G02*
X148175000Y-104900000I75000J0D01*
G01*
G37*
%TD.AperFunction*%
%TO.P,U2,45*%
%TO.N,usb_dp*%
%TA.AperFunction,SMDPad,CuDef*%
G36*
G01*
X147675000Y-104900000D02*
X147825000Y-104900000D01*
G75*
G02*
X147900000Y-104975000I0J-75000D01*
G01*
X147900000Y-106375000D01*
G75*
G02*
X147825000Y-106450000I-75000J0D01*
G01*
X147675000Y-106450000D01*
G75*
G02*
X147600000Y-106375000I0J75000D01*
G01*
X147600000Y-104975000D01*
G75*
G02*
X147675000Y-104900000I75000J0D01*
G01*
G37*
%TD.AperFunction*%
%TO.P,U2,46*%
%TO.N,swdio*%
%TA.AperFunction,SMDPad,CuDef*%
G36*
G01*
X147175000Y-104900000D02*
X147325000Y-104900000D01*
G75*
G02*
X147400000Y-104975000I0J-75000D01*
G01*
X147400000Y-106375000D01*
G75*
G02*
X147325000Y-106450000I-75000J0D01*
G01*
X147175000Y-106450000D01*
G75*
G02*
X147100000Y-106375000I0J75000D01*
G01*
X147100000Y-104975000D01*
G75*
G02*
X147175000Y-104900000I75000J0D01*
G01*
G37*
%TD.AperFunction*%
%TO.P,U2,47*%
%TO.N,GND*%
%TA.AperFunction,SMDPad,CuDef*%
G36*
G01*
X146675000Y-104900000D02*
X146825000Y-104900000D01*
G75*
G02*
X146900000Y-104975000I0J-75000D01*
G01*
X146900000Y-106375000D01*
G75*
G02*
X146825000Y-106450000I-75000J0D01*
G01*
X146675000Y-106450000D01*
G75*
G02*
X146600000Y-106375000I0J75000D01*
G01*
X146600000Y-104975000D01*
G75*
G02*
X146675000Y-104900000I75000J0D01*
G01*
G37*
%TD.AperFunction*%
%TO.P,U2,48*%
%TO.N,+3V3*%
%TA.AperFunction,SMDPad,CuDef*%
G36*
G01*
X146175000Y-104900000D02*
X146325000Y-104900000D01*
G75*
G02*
X146400000Y-104975000I0J-75000D01*
G01*
X146400000Y-106375000D01*
G75*
G02*
X146325000Y-106450000I-75000J0D01*
G01*
X146175000Y-106450000D01*
G75*
G02*
X146100000Y-106375000I0J75000D01*
G01*
X146100000Y-104975000D01*
G75*
G02*
X146175000Y-104900000I75000J0D01*
G01*
G37*
%TD.AperFunction*%
%TO.P,U2,49*%
%TO.N,swclk*%
%TA.AperFunction,SMDPad,CuDef*%
G36*
G01*
X143625000Y-103600000D02*
X145025000Y-103600000D01*
G75*
G02*
X145100000Y-103675000I0J-75000D01*
G01*
X145100000Y-103825000D01*
G75*
G02*
X145025000Y-103900000I-75000J0D01*
G01*
X143625000Y-103900000D01*
G75*
G02*
X143550000Y-103825000I0J75000D01*
G01*
X143550000Y-103675000D01*
G75*
G02*
X143625000Y-103600000I75000J0D01*
G01*
G37*
%TD.AperFunction*%
%TO.P,U2,50*%
%TO.N,ppm*%
%TA.AperFunction,SMDPad,CuDef*%
G36*
G01*
X143625000Y-103100000D02*
X145025000Y-103100000D01*
G75*
G02*
X145100000Y-103175000I0J-75000D01*
G01*
X145100000Y-103325000D01*
G75*
G02*
X145025000Y-103400000I-75000J0D01*
G01*
X143625000Y-103400000D01*
G75*
G02*
X143550000Y-103325000I0J75000D01*
G01*
X143550000Y-103175000D01*
G75*
G02*
X143625000Y-103100000I75000J0D01*
G01*
G37*
%TD.AperFunction*%
%TO.P,U2,51*%
%TO.N,usart3_rx*%
%TA.AperFunction,SMDPad,CuDef*%
G36*
G01*
X143625000Y-102600000D02*
X145025000Y-102600000D01*
G75*
G02*
X145100000Y-102675000I0J-75000D01*
G01*
X145100000Y-102825000D01*
G75*
G02*
X145025000Y-102900000I-75000J0D01*
G01*
X143625000Y-102900000D01*
G75*
G02*
X143550000Y-102825000I0J75000D01*
G01*
X143550000Y-102675000D01*
G75*
G02*
X143625000Y-102600000I75000J0D01*
G01*
G37*
%TD.AperFunction*%
%TO.P,U2,52*%
%TO.N,usart3_tx*%
%TA.AperFunction,SMDPad,CuDef*%
G36*
G01*
X143625000Y-102100000D02*
X145025000Y-102100000D01*
G75*
G02*
X145100000Y-102175000I0J-75000D01*
G01*
X145100000Y-102325000D01*
G75*
G02*
X145025000Y-102400000I-75000J0D01*
G01*
X143625000Y-102400000D01*
G75*
G02*
X143550000Y-102325000I0J75000D01*
G01*
X143550000Y-102175000D01*
G75*
G02*
X143625000Y-102100000I75000J0D01*
G01*
G37*
%TD.AperFunction*%
%TO.P,U2,53*%
%TO.N,uart5_tx*%
%TA.AperFunction,SMDPad,CuDef*%
G36*
G01*
X143625000Y-101600000D02*
X145025000Y-101600000D01*
G75*
G02*
X145100000Y-101675000I0J-75000D01*
G01*
X145100000Y-101825000D01*
G75*
G02*
X145025000Y-101900000I-75000J0D01*
G01*
X143625000Y-101900000D01*
G75*
G02*
X143550000Y-101825000I0J75000D01*
G01*
X143550000Y-101675000D01*
G75*
G02*
X143625000Y-101600000I75000J0D01*
G01*
G37*
%TD.AperFunction*%
%TO.P,U2,54*%
%TO.N,uart5_rx*%
%TA.AperFunction,SMDPad,CuDef*%
G36*
G01*
X143625000Y-101100000D02*
X145025000Y-101100000D01*
G75*
G02*
X145100000Y-101175000I0J-75000D01*
G01*
X145100000Y-101325000D01*
G75*
G02*
X145025000Y-101400000I-75000J0D01*
G01*
X143625000Y-101400000D01*
G75*
G02*
X143550000Y-101325000I0J75000D01*
G01*
X143550000Y-101175000D01*
G75*
G02*
X143625000Y-101100000I75000J0D01*
G01*
G37*
%TD.AperFunction*%
%TO.P,U2,55*%
%TO.N,spi3_sck*%
%TA.AperFunction,SMDPad,CuDef*%
G36*
G01*
X143625000Y-100600000D02*
X145025000Y-100600000D01*
G75*
G02*
X145100000Y-100675000I0J-75000D01*
G01*
X145100000Y-100825000D01*
G75*
G02*
X145025000Y-100900000I-75000J0D01*
G01*
X143625000Y-100900000D01*
G75*
G02*
X143550000Y-100825000I0J75000D01*
G01*
X143550000Y-100675000D01*
G75*
G02*
X143625000Y-100600000I75000J0D01*
G01*
G37*
%TD.AperFunction*%
%TO.P,U2,56*%
%TO.N,spi3_miso*%
%TA.AperFunction,SMDPad,CuDef*%
G36*
G01*
X143625000Y-100100000D02*
X145025000Y-100100000D01*
G75*
G02*
X145100000Y-100175000I0J-75000D01*
G01*
X145100000Y-100325000D01*
G75*
G02*
X145025000Y-100400000I-75000J0D01*
G01*
X143625000Y-100400000D01*
G75*
G02*
X143550000Y-100325000I0J75000D01*
G01*
X143550000Y-100175000D01*
G75*
G02*
X143625000Y-100100000I75000J0D01*
G01*
G37*
%TD.AperFunction*%
%TO.P,U2,57*%
%TO.N,spi3_mosi*%
%TA.AperFunction,SMDPad,CuDef*%
G36*
G01*
X143625000Y-99600000D02*
X145025000Y-99600000D01*
G75*
G02*
X145100000Y-99675000I0J-75000D01*
G01*
X145100000Y-99825000D01*
G75*
G02*
X145025000Y-99900000I-75000J0D01*
G01*
X143625000Y-99900000D01*
G75*
G02*
X143550000Y-99825000I0J75000D01*
G01*
X143550000Y-99675000D01*
G75*
G02*
X143625000Y-99600000I75000J0D01*
G01*
G37*
%TD.AperFunction*%
%TO.P,U2,58*%
%TO.N,m5*%
%TA.AperFunction,SMDPad,CuDef*%
G36*
G01*
X143625000Y-99100000D02*
X145025000Y-99100000D01*
G75*
G02*
X145100000Y-99175000I0J-75000D01*
G01*
X145100000Y-99325000D01*
G75*
G02*
X145025000Y-99400000I-75000J0D01*
G01*
X143625000Y-99400000D01*
G75*
G02*
X143550000Y-99325000I0J75000D01*
G01*
X143550000Y-99175000D01*
G75*
G02*
X143625000Y-99100000I75000J0D01*
G01*
G37*
%TD.AperFunction*%
%TO.P,U2,59*%
%TO.N,N/C*%
%TA.AperFunction,SMDPad,CuDef*%
G36*
G01*
X143625000Y-98600000D02*
X145025000Y-98600000D01*
G75*
G02*
X145100000Y-98675000I0J-75000D01*
G01*
X145100000Y-98825000D01*
G75*
G02*
X145025000Y-98900000I-75000J0D01*
G01*
X143625000Y-98900000D01*
G75*
G02*
X143550000Y-98825000I0J75000D01*
G01*
X143550000Y-98675000D01*
G75*
G02*
X143625000Y-98600000I75000J0D01*
G01*
G37*
%TD.AperFunction*%
%TO.P,U2,60*%
%TO.N,boot0*%
%TA.AperFunction,SMDPad,CuDef*%
G36*
G01*
X143625000Y-98100000D02*
X145025000Y-98100000D01*
G75*
G02*
X145100000Y-98175000I0J-75000D01*
G01*
X145100000Y-98325000D01*
G75*
G02*
X145025000Y-98400000I-75000J0D01*
G01*
X143625000Y-98400000D01*
G75*
G02*
X143550000Y-98325000I0J75000D01*
G01*
X143550000Y-98175000D01*
G75*
G02*
X143625000Y-98100000I75000J0D01*
G01*
G37*
%TD.AperFunction*%
%TO.P,U2,61*%
%TO.N,m6*%
%TA.AperFunction,SMDPad,CuDef*%
G36*
G01*
X143625000Y-97600000D02*
X145025000Y-97600000D01*
G75*
G02*
X145100000Y-97675000I0J-75000D01*
G01*
X145100000Y-97825000D01*
G75*
G02*
X145025000Y-97900000I-75000J0D01*
G01*
X143625000Y-97900000D01*
G75*
G02*
X143550000Y-97825000I0J75000D01*
G01*
X143550000Y-97675000D01*
G75*
G02*
X143625000Y-97600000I75000J0D01*
G01*
G37*
%TD.AperFunction*%
%TO.P,U2,62*%
%TO.N,camera*%
%TA.AperFunction,SMDPad,CuDef*%
G36*
G01*
X143625000Y-97100000D02*
X145025000Y-97100000D01*
G75*
G02*
X145100000Y-97175000I0J-75000D01*
G01*
X145100000Y-97325000D01*
G75*
G02*
X145025000Y-97400000I-75000J0D01*
G01*
X143625000Y-97400000D01*
G75*
G02*
X143550000Y-97325000I0J75000D01*
G01*
X143550000Y-97175000D01*
G75*
G02*
X143625000Y-97100000I75000J0D01*
G01*
G37*
%TD.AperFunction*%
%TO.P,U2,63*%
%TO.N,GND*%
%TA.AperFunction,SMDPad,CuDef*%
G36*
G01*
X143625000Y-96600000D02*
X145025000Y-96600000D01*
G75*
G02*
X145100000Y-96675000I0J-75000D01*
G01*
X145100000Y-96825000D01*
G75*
G02*
X145025000Y-96900000I-75000J0D01*
G01*
X143625000Y-96900000D01*
G75*
G02*
X143550000Y-96825000I0J75000D01*
G01*
X143550000Y-96675000D01*
G75*
G02*
X143625000Y-96600000I75000J0D01*
G01*
G37*
%TD.AperFunction*%
%TO.P,U2,64*%
%TO.N,+3V3*%
%TA.AperFunction,SMDPad,CuDef*%
G36*
G01*
X143625000Y-96100000D02*
X145025000Y-96100000D01*
G75*
G02*
X145100000Y-96175000I0J-75000D01*
G01*
X145100000Y-96325000D01*
G75*
G02*
X145025000Y-96400000I-75000J0D01*
G01*
X143625000Y-96400000D01*
G75*
G02*
X143550000Y-96325000I0J75000D01*
G01*
X143550000Y-96175000D01*
G75*
G02*
X143625000Y-96100000I75000J0D01*
G01*
G37*
%TD.AperFunction*%
%TD*%
%TO.P,C8,1*%
%TO.N,nrst*%
%TA.AperFunction,SMDPad,CuDef*%
G36*
G01*
X149430000Y-86880000D02*
X149430000Y-87380000D01*
G75*
G02*
X149205000Y-87605000I-225000J0D01*
G01*
X148755000Y-87605000D01*
G75*
G02*
X148530000Y-87380000I0J225000D01*
G01*
X148530000Y-86880000D01*
G75*
G02*
X148755000Y-86655000I225000J0D01*
G01*
X149205000Y-86655000D01*
G75*
G02*
X149430000Y-86880000I0J-225000D01*
G01*
G37*
%TD.AperFunction*%
%TO.P,C8,2*%
%TO.N,GND*%
%TA.AperFunction,SMDPad,CuDef*%
G36*
G01*
X147880000Y-86880000D02*
X147880000Y-87380000D01*
G75*
G02*
X147655000Y-87605000I-225000J0D01*
G01*
X147205000Y-87605000D01*
G75*
G02*
X146980000Y-87380000I0J225000D01*
G01*
X146980000Y-86880000D01*
G75*
G02*
X147205000Y-86655000I225000J0D01*
G01*
X147655000Y-86655000D01*
G75*
G02*
X147880000Y-86880000I0J-225000D01*
G01*
G37*
%TD.AperFunction*%
%TD*%
D10*
%TO.P,Q1,1*%
%TO.N,Net-(Q1-Pad1)*%
X143650000Y-90090000D03*
%TO.P,Q1,2*%
%TO.N,Net-(Q1-Pad2)*%
X143650000Y-88190000D03*
%TO.P,Q1,3*%
%TO.N,GND*%
X145650000Y-89140000D03*
%TD*%
%TO.P,R1,2*%
%TO.N,Net-(J1-PadA5)*%
%TA.AperFunction,SMDPad,CuDef*%
G36*
G01*
X156355000Y-113465000D02*
X155805000Y-113465000D01*
G75*
G02*
X155605000Y-113265000I0J200000D01*
G01*
X155605000Y-112865000D01*
G75*
G02*
X155805000Y-112665000I200000J0D01*
G01*
X156355000Y-112665000D01*
G75*
G02*
X156555000Y-112865000I0J-200000D01*
G01*
X156555000Y-113265000D01*
G75*
G02*
X156355000Y-113465000I-200000J0D01*
G01*
G37*
%TD.AperFunction*%
%TO.P,R1,1*%
%TO.N,GND*%
%TA.AperFunction,SMDPad,CuDef*%
G36*
G01*
X156355000Y-115115000D02*
X155805000Y-115115000D01*
G75*
G02*
X155605000Y-114915000I0J200000D01*
G01*
X155605000Y-114515000D01*
G75*
G02*
X155805000Y-114315000I200000J0D01*
G01*
X156355000Y-114315000D01*
G75*
G02*
X156555000Y-114515000I0J-200000D01*
G01*
X156555000Y-114915000D01*
G75*
G02*
X156355000Y-115115000I-200000J0D01*
G01*
G37*
%TD.AperFunction*%
%TD*%
%TO.P,R2,1*%
%TO.N,GND*%
%TA.AperFunction,SMDPad,CuDef*%
G36*
G01*
X144225000Y-115115000D02*
X143675000Y-115115000D01*
G75*
G02*
X143475000Y-114915000I0J200000D01*
G01*
X143475000Y-114515000D01*
G75*
G02*
X143675000Y-114315000I200000J0D01*
G01*
X144225000Y-114315000D01*
G75*
G02*
X144425000Y-114515000I0J-200000D01*
G01*
X144425000Y-114915000D01*
G75*
G02*
X144225000Y-115115000I-200000J0D01*
G01*
G37*
%TD.AperFunction*%
%TO.P,R2,2*%
%TO.N,Net-(J1-PadB5)*%
%TA.AperFunction,SMDPad,CuDef*%
G36*
G01*
X144225000Y-113465000D02*
X143675000Y-113465000D01*
G75*
G02*
X143475000Y-113265000I0J200000D01*
G01*
X143475000Y-112865000D01*
G75*
G02*
X143675000Y-112665000I200000J0D01*
G01*
X144225000Y-112665000D01*
G75*
G02*
X144425000Y-112865000I0J-200000D01*
G01*
X144425000Y-113265000D01*
G75*
G02*
X144225000Y-113465000I-200000J0D01*
G01*
G37*
%TD.AperFunction*%
%TD*%
%TO.P,R5,1*%
%TO.N,boot0*%
%TA.AperFunction,SMDPad,CuDef*%
G36*
G01*
X139125000Y-93145000D02*
X139125000Y-93695000D01*
G75*
G02*
X138925000Y-93895000I-200000J0D01*
G01*
X138525000Y-93895000D01*
G75*
G02*
X138325000Y-93695000I0J200000D01*
G01*
X138325000Y-93145000D01*
G75*
G02*
X138525000Y-92945000I200000J0D01*
G01*
X138925000Y-92945000D01*
G75*
G02*
X139125000Y-93145000I0J-200000D01*
G01*
G37*
%TD.AperFunction*%
%TO.P,R5,2*%
%TO.N,GND*%
%TA.AperFunction,SMDPad,CuDef*%
G36*
G01*
X137475000Y-93145000D02*
X137475000Y-93695000D01*
G75*
G02*
X137275000Y-93895000I-200000J0D01*
G01*
X136875000Y-93895000D01*
G75*
G02*
X136675000Y-93695000I0J200000D01*
G01*
X136675000Y-93145000D01*
G75*
G02*
X136875000Y-92945000I200000J0D01*
G01*
X137275000Y-92945000D01*
G75*
G02*
X137475000Y-93145000I0J-200000D01*
G01*
G37*
%TD.AperFunction*%
%TD*%
%TO.P,R8,2*%
%TO.N,beeper*%
%TA.AperFunction,SMDPad,CuDef*%
G36*
G01*
X145275000Y-91975000D02*
X145275000Y-91425000D01*
G75*
G02*
X145475000Y-91225000I200000J0D01*
G01*
X145875000Y-91225000D01*
G75*
G02*
X146075000Y-91425000I0J-200000D01*
G01*
X146075000Y-91975000D01*
G75*
G02*
X145875000Y-92175000I-200000J0D01*
G01*
X145475000Y-92175000D01*
G75*
G02*
X145275000Y-91975000I0J200000D01*
G01*
G37*
%TD.AperFunction*%
%TO.P,R8,1*%
%TO.N,Net-(Q1-Pad1)*%
%TA.AperFunction,SMDPad,CuDef*%
G36*
G01*
X143625000Y-91975000D02*
X143625000Y-91425000D01*
G75*
G02*
X143825000Y-91225000I200000J0D01*
G01*
X144225000Y-91225000D01*
G75*
G02*
X144425000Y-91425000I0J-200000D01*
G01*
X144425000Y-91975000D01*
G75*
G02*
X144225000Y-92175000I-200000J0D01*
G01*
X143825000Y-92175000D01*
G75*
G02*
X143625000Y-91975000I0J200000D01*
G01*
G37*
%TD.AperFunction*%
%TD*%
D11*
%TO.P,Y1,1*%
%TO.N,Net-(U2-Pad5)*%
X147010000Y-89500000D03*
%TO.P,Y1,2*%
%TO.N,GND*%
X148210000Y-89500000D03*
%TO.P,Y1,3*%
%TO.N,Net-(U2-Pad6)*%
X149410000Y-89500000D03*
%TD*%
%TO.P,D1,1*%
%TO.N,+5V*%
%TA.AperFunction,SMDPad,CuDef*%
G36*
G01*
X142203750Y-112715000D02*
X142716250Y-112715000D01*
G75*
G02*
X142935000Y-112933750I0J-218750D01*
G01*
X142935000Y-113371250D01*
G75*
G02*
X142716250Y-113590000I-218750J0D01*
G01*
X142203750Y-113590000D01*
G75*
G02*
X141985000Y-113371250I0J218750D01*
G01*
X141985000Y-112933750D01*
G75*
G02*
X142203750Y-112715000I218750J0D01*
G01*
G37*
%TD.AperFunction*%
%TO.P,D1,2*%
%TO.N,Net-(D1-Pad2)*%
%TA.AperFunction,SMDPad,CuDef*%
G36*
G01*
X142203750Y-114290000D02*
X142716250Y-114290000D01*
G75*
G02*
X142935000Y-114508750I0J-218750D01*
G01*
X142935000Y-114946250D01*
G75*
G02*
X142716250Y-115165000I-218750J0D01*
G01*
X142203750Y-115165000D01*
G75*
G02*
X141985000Y-114946250I0J218750D01*
G01*
X141985000Y-114508750D01*
G75*
G02*
X142203750Y-114290000I218750J0D01*
G01*
G37*
%TD.AperFunction*%
%TD*%
%TO.P,J2,1*%
%TO.N,+5V*%
%TA.AperFunction,SMDPad,CuDef*%
G36*
G01*
X164375000Y-102200000D02*
X165625000Y-102200000D01*
G75*
G02*
X165775000Y-102350000I0J-150000D01*
G01*
X165775000Y-102650000D01*
G75*
G02*
X165625000Y-102800000I-150000J0D01*
G01*
X164375000Y-102800000D01*
G75*
G02*
X164225000Y-102650000I0J150000D01*
G01*
X164225000Y-102350000D01*
G75*
G02*
X164375000Y-102200000I150000J0D01*
G01*
G37*
%TD.AperFunction*%
%TO.P,J2,2*%
%TO.N,GND*%
%TA.AperFunction,SMDPad,CuDef*%
G36*
G01*
X164375000Y-103200000D02*
X165625000Y-103200000D01*
G75*
G02*
X165775000Y-103350000I0J-150000D01*
G01*
X165775000Y-103650000D01*
G75*
G02*
X165625000Y-103800000I-150000J0D01*
G01*
X164375000Y-103800000D01*
G75*
G02*
X164225000Y-103650000I0J150000D01*
G01*
X164225000Y-103350000D01*
G75*
G02*
X164375000Y-103200000I150000J0D01*
G01*
G37*
%TD.AperFunction*%
%TO.P,J2,3*%
%TO.N,usart2_tx*%
%TA.AperFunction,SMDPad,CuDef*%
G36*
G01*
X164375000Y-104200000D02*
X165625000Y-104200000D01*
G75*
G02*
X165775000Y-104350000I0J-150000D01*
G01*
X165775000Y-104650000D01*
G75*
G02*
X165625000Y-104800000I-150000J0D01*
G01*
X164375000Y-104800000D01*
G75*
G02*
X164225000Y-104650000I0J150000D01*
G01*
X164225000Y-104350000D01*
G75*
G02*
X164375000Y-104200000I150000J0D01*
G01*
G37*
%TD.AperFunction*%
%TO.P,J2,4*%
%TO.N,usart2_rx*%
%TA.AperFunction,SMDPad,CuDef*%
G36*
G01*
X164375000Y-105200000D02*
X165625000Y-105200000D01*
G75*
G02*
X165775000Y-105350000I0J-150000D01*
G01*
X165775000Y-105650000D01*
G75*
G02*
X165625000Y-105800000I-150000J0D01*
G01*
X164375000Y-105800000D01*
G75*
G02*
X164225000Y-105650000I0J150000D01*
G01*
X164225000Y-105350000D01*
G75*
G02*
X164375000Y-105200000I150000J0D01*
G01*
G37*
%TD.AperFunction*%
%TO.P,J2,5*%
%TO.N,i2c2_scl*%
%TA.AperFunction,SMDPad,CuDef*%
G36*
G01*
X164375000Y-106200000D02*
X165625000Y-106200000D01*
G75*
G02*
X165775000Y-106350000I0J-150000D01*
G01*
X165775000Y-106650000D01*
G75*
G02*
X165625000Y-106800000I-150000J0D01*
G01*
X164375000Y-106800000D01*
G75*
G02*
X164225000Y-106650000I0J150000D01*
G01*
X164225000Y-106350000D01*
G75*
G02*
X164375000Y-106200000I150000J0D01*
G01*
G37*
%TD.AperFunction*%
%TO.P,J2,6*%
%TO.N,i2c2_sda*%
%TA.AperFunction,SMDPad,CuDef*%
G36*
G01*
X164375000Y-107200000D02*
X165625000Y-107200000D01*
G75*
G02*
X165775000Y-107350000I0J-150000D01*
G01*
X165775000Y-107650000D01*
G75*
G02*
X165625000Y-107800000I-150000J0D01*
G01*
X164375000Y-107800000D01*
G75*
G02*
X164225000Y-107650000I0J150000D01*
G01*
X164225000Y-107350000D01*
G75*
G02*
X164375000Y-107200000I150000J0D01*
G01*
G37*
%TD.AperFunction*%
%TO.P,J2,MP*%
%TO.N,N/C*%
%TA.AperFunction,SMDPad,CuDef*%
G36*
G01*
X168224999Y-100600000D02*
X169525001Y-100600000D01*
G75*
G02*
X169775000Y-100849999I0J-249999D01*
G01*
X169775000Y-101550001D01*
G75*
G02*
X169525001Y-101800000I-249999J0D01*
G01*
X168224999Y-101800000D01*
G75*
G02*
X167975000Y-101550001I0J249999D01*
G01*
X167975000Y-100849999D01*
G75*
G02*
X168224999Y-100600000I249999J0D01*
G01*
G37*
%TD.AperFunction*%
%TA.AperFunction,SMDPad,CuDef*%
G36*
G01*
X168224999Y-108200000D02*
X169525001Y-108200000D01*
G75*
G02*
X169775000Y-108449999I0J-249999D01*
G01*
X169775000Y-109150001D01*
G75*
G02*
X169525001Y-109400000I-249999J0D01*
G01*
X168224999Y-109400000D01*
G75*
G02*
X167975000Y-109150001I0J249999D01*
G01*
X167975000Y-108449999D01*
G75*
G02*
X168224999Y-108200000I249999J0D01*
G01*
G37*
%TD.AperFunction*%
%TD*%
%TO.P,J4,1*%
%TO.N,+5V*%
%TA.AperFunction,SMDPad,CuDef*%
G36*
G01*
X164375000Y-93200000D02*
X165625000Y-93200000D01*
G75*
G02*
X165775000Y-93350000I0J-150000D01*
G01*
X165775000Y-93650000D01*
G75*
G02*
X165625000Y-93800000I-150000J0D01*
G01*
X164375000Y-93800000D01*
G75*
G02*
X164225000Y-93650000I0J150000D01*
G01*
X164225000Y-93350000D01*
G75*
G02*
X164375000Y-93200000I150000J0D01*
G01*
G37*
%TD.AperFunction*%
%TO.P,J4,2*%
%TO.N,GND*%
%TA.AperFunction,SMDPad,CuDef*%
G36*
G01*
X164375000Y-94200000D02*
X165625000Y-94200000D01*
G75*
G02*
X165775000Y-94350000I0J-150000D01*
G01*
X165775000Y-94650000D01*
G75*
G02*
X165625000Y-94800000I-150000J0D01*
G01*
X164375000Y-94800000D01*
G75*
G02*
X164225000Y-94650000I0J150000D01*
G01*
X164225000Y-94350000D01*
G75*
G02*
X164375000Y-94200000I150000J0D01*
G01*
G37*
%TD.AperFunction*%
%TO.P,J4,3*%
%TO.N,uart4_tx*%
%TA.AperFunction,SMDPad,CuDef*%
G36*
G01*
X164375000Y-95200000D02*
X165625000Y-95200000D01*
G75*
G02*
X165775000Y-95350000I0J-150000D01*
G01*
X165775000Y-95650000D01*
G75*
G02*
X165625000Y-95800000I-150000J0D01*
G01*
X164375000Y-95800000D01*
G75*
G02*
X164225000Y-95650000I0J150000D01*
G01*
X164225000Y-95350000D01*
G75*
G02*
X164375000Y-95200000I150000J0D01*
G01*
G37*
%TD.AperFunction*%
%TO.P,J4,4*%
%TO.N,uart4_rx*%
%TA.AperFunction,SMDPad,CuDef*%
G36*
G01*
X164375000Y-96200000D02*
X165625000Y-96200000D01*
G75*
G02*
X165775000Y-96350000I0J-150000D01*
G01*
X165775000Y-96650000D01*
G75*
G02*
X165625000Y-96800000I-150000J0D01*
G01*
X164375000Y-96800000D01*
G75*
G02*
X164225000Y-96650000I0J150000D01*
G01*
X164225000Y-96350000D01*
G75*
G02*
X164375000Y-96200000I150000J0D01*
G01*
G37*
%TD.AperFunction*%
%TO.P,J4,MP*%
%TO.N,N/C*%
%TA.AperFunction,SMDPad,CuDef*%
G36*
G01*
X168224999Y-91600000D02*
X169525001Y-91600000D01*
G75*
G02*
X169775000Y-91849999I0J-249999D01*
G01*
X169775000Y-92550001D01*
G75*
G02*
X169525001Y-92800000I-249999J0D01*
G01*
X168224999Y-92800000D01*
G75*
G02*
X167975000Y-92550001I0J249999D01*
G01*
X167975000Y-91849999D01*
G75*
G02*
X168224999Y-91600000I249999J0D01*
G01*
G37*
%TD.AperFunction*%
%TA.AperFunction,SMDPad,CuDef*%
G36*
G01*
X168224999Y-97200000D02*
X169525001Y-97200000D01*
G75*
G02*
X169775000Y-97449999I0J-249999D01*
G01*
X169775000Y-98150001D01*
G75*
G02*
X169525001Y-98400000I-249999J0D01*
G01*
X168224999Y-98400000D01*
G75*
G02*
X167975000Y-98150001I0J249999D01*
G01*
X167975000Y-97449999D01*
G75*
G02*
X168224999Y-97200000I249999J0D01*
G01*
G37*
%TD.AperFunction*%
%TD*%
%TO.P,J5,MP*%
%TO.N,N/C*%
%TA.AperFunction,SMDPad,CuDef*%
G36*
G01*
X131775001Y-93800000D02*
X130474999Y-93800000D01*
G75*
G02*
X130225000Y-93550001I0J249999D01*
G01*
X130225000Y-92849999D01*
G75*
G02*
X130474999Y-92600000I249999J0D01*
G01*
X131775001Y-92600000D01*
G75*
G02*
X132025000Y-92849999I0J-249999D01*
G01*
X132025000Y-93550001D01*
G75*
G02*
X131775001Y-93800000I-249999J0D01*
G01*
G37*
%TD.AperFunction*%
%TA.AperFunction,SMDPad,CuDef*%
G36*
G01*
X131775001Y-99400000D02*
X130474999Y-99400000D01*
G75*
G02*
X130225000Y-99150001I0J249999D01*
G01*
X130225000Y-98449999D01*
G75*
G02*
X130474999Y-98200000I249999J0D01*
G01*
X131775001Y-98200000D01*
G75*
G02*
X132025000Y-98449999I0J-249999D01*
G01*
X132025000Y-99150001D01*
G75*
G02*
X131775001Y-99400000I-249999J0D01*
G01*
G37*
%TD.AperFunction*%
%TO.P,J5,4*%
%TO.N,uart5_rx*%
%TA.AperFunction,SMDPad,CuDef*%
G36*
G01*
X135625000Y-94800000D02*
X134375000Y-94800000D01*
G75*
G02*
X134225000Y-94650000I0J150000D01*
G01*
X134225000Y-94350000D01*
G75*
G02*
X134375000Y-94200000I150000J0D01*
G01*
X135625000Y-94200000D01*
G75*
G02*
X135775000Y-94350000I0J-150000D01*
G01*
X135775000Y-94650000D01*
G75*
G02*
X135625000Y-94800000I-150000J0D01*
G01*
G37*
%TD.AperFunction*%
%TO.P,J5,3*%
%TO.N,uart5_tx*%
%TA.AperFunction,SMDPad,CuDef*%
G36*
G01*
X135625000Y-95800000D02*
X134375000Y-95800000D01*
G75*
G02*
X134225000Y-95650000I0J150000D01*
G01*
X134225000Y-95350000D01*
G75*
G02*
X134375000Y-95200000I150000J0D01*
G01*
X135625000Y-95200000D01*
G75*
G02*
X135775000Y-95350000I0J-150000D01*
G01*
X135775000Y-95650000D01*
G75*
G02*
X135625000Y-95800000I-150000J0D01*
G01*
G37*
%TD.AperFunction*%
%TO.P,J5,2*%
%TO.N,GND*%
%TA.AperFunction,SMDPad,CuDef*%
G36*
G01*
X135625000Y-96800000D02*
X134375000Y-96800000D01*
G75*
G02*
X134225000Y-96650000I0J150000D01*
G01*
X134225000Y-96350000D01*
G75*
G02*
X134375000Y-96200000I150000J0D01*
G01*
X135625000Y-96200000D01*
G75*
G02*
X135775000Y-96350000I0J-150000D01*
G01*
X135775000Y-96650000D01*
G75*
G02*
X135625000Y-96800000I-150000J0D01*
G01*
G37*
%TD.AperFunction*%
%TO.P,J5,1*%
%TO.N,+5V*%
%TA.AperFunction,SMDPad,CuDef*%
G36*
G01*
X135625000Y-97800000D02*
X134375000Y-97800000D01*
G75*
G02*
X134225000Y-97650000I0J150000D01*
G01*
X134225000Y-97350000D01*
G75*
G02*
X134375000Y-97200000I150000J0D01*
G01*
X135625000Y-97200000D01*
G75*
G02*
X135775000Y-97350000I0J-150000D01*
G01*
X135775000Y-97650000D01*
G75*
G02*
X135625000Y-97800000I-150000J0D01*
G01*
G37*
%TD.AperFunction*%
%TD*%
%TO.P,J6,1*%
%TO.N,+5V*%
%TA.AperFunction,SMDPad,CuDef*%
G36*
G01*
X135625000Y-105710000D02*
X134375000Y-105710000D01*
G75*
G02*
X134225000Y-105560000I0J150000D01*
G01*
X134225000Y-105260000D01*
G75*
G02*
X134375000Y-105110000I150000J0D01*
G01*
X135625000Y-105110000D01*
G75*
G02*
X135775000Y-105260000I0J-150000D01*
G01*
X135775000Y-105560000D01*
G75*
G02*
X135625000Y-105710000I-150000J0D01*
G01*
G37*
%TD.AperFunction*%
%TO.P,J6,2*%
%TO.N,GND*%
%TA.AperFunction,SMDPad,CuDef*%
G36*
G01*
X135625000Y-104710000D02*
X134375000Y-104710000D01*
G75*
G02*
X134225000Y-104560000I0J150000D01*
G01*
X134225000Y-104260000D01*
G75*
G02*
X134375000Y-104110000I150000J0D01*
G01*
X135625000Y-104110000D01*
G75*
G02*
X135775000Y-104260000I0J-150000D01*
G01*
X135775000Y-104560000D01*
G75*
G02*
X135625000Y-104710000I-150000J0D01*
G01*
G37*
%TD.AperFunction*%
%TO.P,J6,3*%
%TO.N,usart3_tx*%
%TA.AperFunction,SMDPad,CuDef*%
G36*
G01*
X135625000Y-103710000D02*
X134375000Y-103710000D01*
G75*
G02*
X134225000Y-103560000I0J150000D01*
G01*
X134225000Y-103260000D01*
G75*
G02*
X134375000Y-103110000I150000J0D01*
G01*
X135625000Y-103110000D01*
G75*
G02*
X135775000Y-103260000I0J-150000D01*
G01*
X135775000Y-103560000D01*
G75*
G02*
X135625000Y-103710000I-150000J0D01*
G01*
G37*
%TD.AperFunction*%
%TO.P,J6,4*%
%TO.N,usart3_rx*%
%TA.AperFunction,SMDPad,CuDef*%
G36*
G01*
X135625000Y-102710000D02*
X134375000Y-102710000D01*
G75*
G02*
X134225000Y-102560000I0J150000D01*
G01*
X134225000Y-102260000D01*
G75*
G02*
X134375000Y-102110000I150000J0D01*
G01*
X135625000Y-102110000D01*
G75*
G02*
X135775000Y-102260000I0J-150000D01*
G01*
X135775000Y-102560000D01*
G75*
G02*
X135625000Y-102710000I-150000J0D01*
G01*
G37*
%TD.AperFunction*%
%TO.P,J6,MP*%
%TO.N,N/C*%
%TA.AperFunction,SMDPad,CuDef*%
G36*
G01*
X131775001Y-107310000D02*
X130474999Y-107310000D01*
G75*
G02*
X130225000Y-107060001I0J249999D01*
G01*
X130225000Y-106359999D01*
G75*
G02*
X130474999Y-106110000I249999J0D01*
G01*
X131775001Y-106110000D01*
G75*
G02*
X132025000Y-106359999I0J-249999D01*
G01*
X132025000Y-107060001D01*
G75*
G02*
X131775001Y-107310000I-249999J0D01*
G01*
G37*
%TD.AperFunction*%
%TA.AperFunction,SMDPad,CuDef*%
G36*
G01*
X131775001Y-101710000D02*
X130474999Y-101710000D01*
G75*
G02*
X130225000Y-101460001I0J249999D01*
G01*
X130225000Y-100759999D01*
G75*
G02*
X130474999Y-100510000I249999J0D01*
G01*
X131775001Y-100510000D01*
G75*
G02*
X132025000Y-100759999I0J-249999D01*
G01*
X132025000Y-101460001D01*
G75*
G02*
X131775001Y-101710000I-249999J0D01*
G01*
G37*
%TD.AperFunction*%
%TD*%
D12*
%TO.P,J1,B1*%
%TO.N,GND*%
X146750000Y-113055000D03*
%TO.P,J1,A9*%
%TO.N,Net-(D1-Pad2)*%
X147550000Y-113055000D03*
%TO.P,J1,B9*%
X152450000Y-113055000D03*
%TO.P,J1,B12*%
%TO.N,GND*%
X153250000Y-113055000D03*
%TO.P,J1,A1*%
X153250000Y-113055000D03*
%TO.P,J1,A4*%
%TO.N,Net-(D1-Pad2)*%
X152450000Y-113055000D03*
%TO.P,J1,B4*%
X147550000Y-113055000D03*
%TO.P,J1,A12*%
%TO.N,GND*%
X146750000Y-113055000D03*
D13*
%TO.P,J1,B8*%
%TO.N,N/C*%
X151750000Y-113055000D03*
%TO.P,J1,A5*%
%TO.N,Net-(J1-PadA5)*%
X151250000Y-113055000D03*
%TO.P,J1,B7*%
%TO.N,usb_dm*%
X150750000Y-113055000D03*
%TO.P,J1,A7*%
X149750000Y-113055000D03*
%TO.P,J1,B6*%
%TO.N,usb_dp*%
X149250000Y-113055000D03*
%TO.P,J1,A8*%
%TO.N,N/C*%
X148750000Y-113055000D03*
%TO.P,J1,B5*%
%TO.N,Net-(J1-PadB5)*%
X148250000Y-113055000D03*
%TO.P,J1,A6*%
%TO.N,usb_dp*%
X150250000Y-113055000D03*
D14*
%TO.P,J1,S1*%
%TO.N,GND*%
X145680000Y-113970000D03*
X154320000Y-113970000D03*
D15*
X154320000Y-118150000D03*
X145680000Y-118150000D03*
%TD*%
D16*
%TO.N,GND*%
X149510000Y-116270000D03*
D17*
X146490000Y-87130000D03*
X163720000Y-94490000D03*
X139030000Y-105560000D03*
X160468000Y-89809998D03*
X153234990Y-96591657D03*
X153430000Y-103750000D03*
X158450000Y-103060000D03*
X152080000Y-104380000D03*
X145620000Y-100190000D03*
X148050000Y-98139998D03*
X136170000Y-93420000D03*
X148210000Y-88060004D03*
X166230002Y-99500000D03*
X150215707Y-91860000D03*
X151570000Y-90130000D03*
X157640000Y-91730000D03*
X163130000Y-89620000D03*
X152830000Y-84270000D03*
X145510000Y-95620000D03*
X146750000Y-106950000D03*
X143560000Y-105049996D03*
X138660000Y-107910000D03*
X144500000Y-109920000D03*
X137710000Y-97849998D03*
X143690000Y-95570000D03*
X143540006Y-93000000D03*
X161064000Y-89810000D03*
X159864000Y-89810000D03*
X159274000Y-89810000D03*
X161664000Y-89810000D03*
X158450000Y-96230000D03*
X157430000Y-85590002D03*
X158650511Y-92589493D03*
X154410000Y-104660002D03*
X153860000Y-82650000D03*
X157720000Y-118480000D03*
X166280000Y-96500008D03*
X156160000Y-95140000D03*
X166290000Y-103500000D03*
X151950000Y-98100000D03*
X133730000Y-104400000D03*
X131480000Y-96150000D03*
X144710000Y-89150002D03*
X133730000Y-96499998D03*
%TO.N,Net-(C1-Pad2)*%
X154405002Y-102815002D03*
%TO.N,+5V*%
X133730002Y-97500000D03*
X158950000Y-82650000D03*
X157720000Y-115930000D03*
X142460000Y-112210000D03*
%TO.N,usart1_tx*%
X150180000Y-110760000D03*
%TO.N,usart1_rx*%
X149310000Y-108960000D03*
%TO.N,m4*%
X161210000Y-101810000D03*
%TO.N,m3*%
X161250000Y-100780000D03*
%TO.N,m2*%
X162000000Y-107050000D03*
%TO.N,m1*%
X162580000Y-107870000D03*
%TO.N,current_adc*%
X154432000Y-95504000D03*
%TO.N,uart6_rxtx*%
X160609998Y-107050000D03*
%TO.N,swclk*%
X136419984Y-103766085D03*
%TO.N,swdio*%
X136360000Y-104670000D03*
%TO.N,m5*%
X146439963Y-95721185D03*
%TO.N,m6*%
X143650000Y-82650000D03*
%TO.N,ppm*%
X148530000Y-95710000D03*
%TO.N,camera*%
X142320000Y-95300000D03*
X148760000Y-82650000D03*
X143803051Y-86966949D03*
%TO.N,rssi_adc*%
X150840717Y-92927909D03*
%TO.N,led*%
X157720000Y-113390000D03*
%TO.N,boot0*%
X138320000Y-94490000D03*
%TO.N,vbat_adc*%
X149940000Y-92950000D03*
%TO.N,led0*%
X161255952Y-103264048D03*
%TO.N,spi3_miso*%
X140230000Y-97850000D03*
%TO.N,spi3_sck*%
X141260000Y-100550000D03*
%TO.N,spi3_mosi*%
X142416898Y-99795010D03*
%TO.N,baro_cs*%
X145660000Y-101749998D03*
%TO.N,gyro1_cs*%
X154219999Y-97519999D03*
%TO.N,spi1_sck*%
X149375010Y-97020000D03*
%TO.N,spi1_miso*%
X149410004Y-103430000D03*
%TO.N,spi1_mosi*%
X156950000Y-99250000D03*
%TO.N,gyro1_exti*%
X151930000Y-102020000D03*
%TO.N,flash_cs*%
X147260000Y-103630000D03*
%TO.N,+3V3*%
X153720000Y-91860000D03*
X142470000Y-105560000D03*
X158460000Y-104600000D03*
X154180000Y-100520000D03*
X146460000Y-98130000D03*
X145120000Y-105050000D03*
X138700000Y-111810000D03*
X138980001Y-97849999D03*
X142068051Y-98541949D03*
X145079998Y-93000000D03*
X158440000Y-97780000D03*
X156410000Y-82650000D03*
%TO.N,Net-(Q1-Pad2)*%
X140999998Y-90160000D03*
%TD*%
D18*
%TO.N,usb_dm*%
X149750000Y-112674998D02*
X149750000Y-113510000D01*
X150750000Y-112674998D02*
X150750000Y-113490000D01*
X150725001Y-112649999D02*
X150750000Y-112674998D01*
X149750000Y-112674998D02*
X149774999Y-112649999D01*
X149750000Y-113055000D02*
X149750000Y-112080000D01*
X148250000Y-105675000D02*
X148250000Y-109893590D01*
X148250000Y-109893590D02*
X149750000Y-111393590D01*
X149750000Y-111393590D02*
X149750000Y-112080000D01*
X150750000Y-112080000D02*
X150750000Y-113055000D01*
X150620000Y-111950000D02*
X150750000Y-112080000D01*
X149880000Y-111950000D02*
X150620000Y-111950000D01*
X149750000Y-112080000D02*
X149880000Y-111950000D01*
%TO.N,usb_dp*%
X150250000Y-114015002D02*
X150250000Y-113055000D01*
X150095002Y-114170000D02*
X150250000Y-114015002D01*
X149404998Y-114170000D02*
X150095002Y-114170000D01*
X149250000Y-114015002D02*
X149404998Y-114170000D01*
X149250000Y-113055000D02*
X149250000Y-114015002D01*
X149250000Y-111530000D02*
X149250000Y-113055000D01*
X147750000Y-110030000D02*
X149250000Y-111530000D01*
X147750000Y-105675000D02*
X147750000Y-110030000D01*
%TO.N,GND*%
X145035000Y-114715000D02*
X145680000Y-114070000D01*
X143950000Y-114715000D02*
X145035000Y-114715000D01*
X154965000Y-114715000D02*
X154320000Y-114070000D01*
X156040000Y-114715000D02*
X154965000Y-114715000D01*
D19*
X156945000Y-96750000D02*
X157470000Y-96225000D01*
X155675000Y-96750000D02*
X156945000Y-96750000D01*
X157295000Y-103250000D02*
X157480000Y-103065000D01*
X155675000Y-103250000D02*
X157295000Y-103250000D01*
D20*
X157480000Y-103065000D02*
X158445000Y-103065000D01*
D18*
X158445000Y-103065000D02*
X158450000Y-103060000D01*
X148210000Y-89500000D02*
X148210000Y-88060004D01*
D19*
X151750000Y-92385000D02*
X151225000Y-91860000D01*
X151750000Y-94325000D02*
X151750000Y-92385000D01*
D20*
X151225000Y-91860000D02*
X150215707Y-91860000D01*
X153405000Y-113055000D02*
X154320000Y-113970000D01*
D18*
X153250000Y-113055000D02*
X153405000Y-113055000D01*
D20*
X146595000Y-113055000D02*
X145680000Y-113970000D01*
D18*
X146750000Y-113055000D02*
X146595000Y-113055000D01*
X145354264Y-96750000D02*
X145510000Y-96594264D01*
X145510000Y-96594264D02*
X145510000Y-95620000D01*
X144325000Y-96750000D02*
X145354264Y-96750000D01*
D20*
X143565000Y-106020000D02*
X143565000Y-105054996D01*
D18*
X143565000Y-105054996D02*
X143560000Y-105049996D01*
X137075000Y-93420000D02*
X136170000Y-93420000D01*
D20*
X143535000Y-93970000D02*
X143535000Y-93005006D01*
D18*
X143535000Y-93005006D02*
X143540006Y-93000000D01*
D20*
X157470000Y-96225000D02*
X158445000Y-96225000D01*
D18*
X158445000Y-96225000D02*
X158450000Y-96230000D01*
X163730000Y-94500000D02*
X163720000Y-94490000D01*
D20*
X165000000Y-94500000D02*
X163730000Y-94500000D01*
X165000000Y-103500000D02*
X166290000Y-103500000D01*
X133740000Y-104410000D02*
X133730000Y-104400000D01*
X135000000Y-104410000D02*
X133740000Y-104410000D01*
D19*
X146750000Y-105675000D02*
X146750000Y-106950000D01*
D18*
X146490000Y-87130000D02*
X147430000Y-87130000D01*
D20*
X145650000Y-89140000D02*
X144720002Y-89140000D01*
X144720002Y-89140000D02*
X144710000Y-89150002D01*
X135000000Y-96500000D02*
X133730002Y-96500000D01*
X133730002Y-96500000D02*
X133730000Y-96499998D01*
D18*
%TO.N,Net-(C1-Pad2)*%
X155675000Y-102750000D02*
X154470004Y-102750000D01*
X154470004Y-102750000D02*
X154405002Y-102815002D01*
D20*
%TO.N,+5V*%
X135000000Y-97500000D02*
X133730002Y-97500000D01*
D18*
X165020000Y-102480000D02*
X165000000Y-102500000D01*
D20*
X135000000Y-105410000D02*
X135000000Y-106209996D01*
D18*
X135000000Y-106209996D02*
X135000004Y-106210000D01*
D20*
X165000000Y-88700000D02*
X165000000Y-93500000D01*
X158950000Y-82650000D02*
X165000000Y-88700000D01*
X167090000Y-94280000D02*
X167090000Y-102510000D01*
X166310000Y-93500000D02*
X167090000Y-94280000D01*
X165000000Y-93500000D02*
X166310000Y-93500000D01*
D18*
X167080000Y-102500000D02*
X167090000Y-102510000D01*
D20*
X165000000Y-102500000D02*
X167080000Y-102500000D01*
X135000000Y-105410000D02*
X133449996Y-105410000D01*
X133449996Y-105410000D02*
X132859998Y-104820002D01*
X132859998Y-104820002D02*
X132859998Y-98370004D01*
X132859998Y-98370004D02*
X133730002Y-97500000D01*
X167090000Y-107500000D02*
X167090000Y-102510000D01*
X165940000Y-108650000D02*
X167090000Y-107500000D01*
X164980000Y-108650000D02*
X165940000Y-108650000D01*
X162160000Y-111470000D02*
X164980000Y-108650000D01*
X162160000Y-111490000D02*
X162160000Y-111470000D01*
X157720000Y-115930000D02*
X162160000Y-111490000D01*
X141000004Y-112210000D02*
X142460000Y-112210000D01*
X135000000Y-106209996D02*
X141000004Y-112210000D01*
X142460000Y-113152500D02*
X142460000Y-112210000D01*
D18*
%TO.N,nrst*%
X149250000Y-91920000D02*
X149250000Y-94325000D01*
X150790000Y-90380000D02*
X149250000Y-91920000D01*
X150790000Y-87920000D02*
X150790000Y-90380000D01*
X150000000Y-87130000D02*
X150790000Y-87920000D01*
X148980000Y-87130000D02*
X150000000Y-87130000D01*
%TO.N,Net-(J1-PadA5)*%
X151250000Y-112674998D02*
X151274999Y-112649999D01*
X151470000Y-111880000D02*
X151250000Y-112100000D01*
X155260000Y-113070000D02*
X154070000Y-111880000D01*
X151250000Y-112100000D02*
X151250000Y-113055000D01*
X156035000Y-113070000D02*
X155260000Y-113070000D01*
X154070000Y-111880000D02*
X151470000Y-111880000D01*
X156040000Y-113065000D02*
X156035000Y-113070000D01*
%TO.N,Net-(J1-PadB5)*%
X145920000Y-111850000D02*
X144705000Y-113065000D01*
X147955002Y-111850000D02*
X145920000Y-111850000D01*
X148250000Y-112144998D02*
X147955002Y-111850000D01*
X144705000Y-113065000D02*
X143950000Y-113065000D01*
X148250000Y-113490000D02*
X148250000Y-112144998D01*
%TO.N,usart3_tx*%
X134120000Y-103410000D02*
X135000000Y-103410000D01*
X133820000Y-103110000D02*
X134120000Y-103410000D01*
X133820000Y-102000000D02*
X133820000Y-103110000D01*
X134210000Y-101610000D02*
X133820000Y-102000000D01*
X138047179Y-101610000D02*
X134210000Y-101610000D01*
X138687179Y-102250000D02*
X138047179Y-101610000D01*
X144325000Y-102250000D02*
X138687179Y-102250000D01*
%TO.N,usart3_rx*%
X138150000Y-102410000D02*
X135000000Y-102410000D01*
X138490000Y-102750000D02*
X138150000Y-102410000D01*
X144325000Y-102750000D02*
X138490000Y-102750000D01*
%TO.N,i2c2_sda*%
X155675000Y-102250000D02*
X158563590Y-102250000D01*
X158563590Y-102250000D02*
X163813590Y-107500000D01*
X163813590Y-107500000D02*
X165000000Y-107500000D01*
%TO.N,i2c2_scl*%
X163450000Y-106500000D02*
X165000000Y-106500000D01*
X158700000Y-101750000D02*
X163450000Y-106500000D01*
X155675000Y-101750000D02*
X158700000Y-101750000D01*
%TO.N,usart1_tx*%
X150180000Y-108884998D02*
X150180000Y-110760000D01*
X149250000Y-107954998D02*
X150180000Y-108884998D01*
X149250000Y-105675000D02*
X149250000Y-107954998D01*
%TO.N,usart1_rx*%
X148750000Y-105675000D02*
X148750000Y-108400000D01*
X148750000Y-108400000D02*
X149310000Y-108960000D01*
%TO.N,usart2_rx*%
X162870000Y-104145000D02*
X164225000Y-105500000D01*
X164225000Y-105500000D02*
X165000000Y-105500000D01*
X162870000Y-99760000D02*
X162870000Y-104145000D01*
X158510000Y-95400000D02*
X162870000Y-99760000D01*
X157010000Y-95400000D02*
X158510000Y-95400000D01*
X156160000Y-96250000D02*
X157010000Y-95400000D01*
X155675000Y-96250000D02*
X156160000Y-96250000D01*
%TO.N,usart2_tx*%
X164225000Y-104500000D02*
X165000000Y-104500000D01*
X163580000Y-103855000D02*
X164225000Y-104500000D01*
X163580000Y-99812820D02*
X163580000Y-103855000D01*
X158097180Y-94330000D02*
X163580000Y-99812820D01*
X153755000Y-94330000D02*
X158097180Y-94330000D01*
X153750000Y-94325000D02*
X153755000Y-94330000D01*
%TO.N,uart4_tx*%
X160540000Y-95500000D02*
X165000000Y-95500000D01*
X157770000Y-92730000D02*
X160540000Y-95500000D01*
X153203589Y-92730000D02*
X157770000Y-92730000D01*
X152750000Y-93183589D02*
X153203589Y-92730000D01*
X152750000Y-94325000D02*
X152750000Y-93183589D01*
%TO.N,uart4_rx*%
X160903590Y-96500000D02*
X165000000Y-96500000D01*
X157583590Y-93180000D02*
X160903590Y-96500000D01*
X153390000Y-93180000D02*
X157583590Y-93180000D01*
X153250000Y-93320000D02*
X153390000Y-93180000D01*
X153250000Y-94325000D02*
X153250000Y-93320000D01*
%TO.N,uart5_rx*%
X137064999Y-95789999D02*
X135775000Y-94500000D01*
X140235032Y-101320034D02*
X137064999Y-98150001D01*
X135775000Y-94500000D02*
X135000000Y-94500000D01*
X143089700Y-101320034D02*
X140235032Y-101320034D01*
X144325000Y-101250000D02*
X143159734Y-101250000D01*
X143159734Y-101250000D02*
X143089700Y-101320034D01*
X137064999Y-98150001D02*
X137064999Y-95789999D01*
%TO.N,uart5_tx*%
X144304955Y-101770045D02*
X144325000Y-101750000D01*
X136030000Y-95500000D02*
X136428587Y-95898587D01*
X136428587Y-95898587D02*
X136428587Y-99354998D01*
X136428587Y-99354998D02*
X138843634Y-101770045D01*
X138843634Y-101770045D02*
X144304955Y-101770045D01*
X135000000Y-95500000D02*
X136030000Y-95500000D01*
%TO.N,m4*%
X156230000Y-100750000D02*
X156254990Y-100774990D01*
X155675000Y-100750000D02*
X156230000Y-100750000D01*
X155675000Y-100750000D02*
X160150000Y-100750000D01*
X160150000Y-100750000D02*
X161210000Y-101810000D01*
%TO.N,m3*%
X155700000Y-100250000D02*
X155724990Y-100274990D01*
X155675000Y-100250000D02*
X155700000Y-100250000D01*
X160720000Y-100250000D02*
X161250000Y-100780000D01*
X155675000Y-100250000D02*
X160720000Y-100250000D01*
%TO.N,m2*%
X152200011Y-108500011D02*
X160549989Y-108500011D01*
X151250000Y-105675000D02*
X151250000Y-107550000D01*
X160549989Y-108500011D02*
X162000000Y-107050000D01*
X151250000Y-107550000D02*
X152200011Y-108500011D01*
%TO.N,m1*%
X161499978Y-108950022D02*
X162580000Y-107870000D01*
X150250000Y-105675000D02*
X150250000Y-107420000D01*
X150250000Y-107420000D02*
X151780022Y-108950022D01*
X151780022Y-108950022D02*
X161499978Y-108950022D01*
%TO.N,current_adc*%
X151088298Y-95504000D02*
X154432000Y-95504000D01*
X150750000Y-95165702D02*
X151088298Y-95504000D01*
X150750000Y-94325000D02*
X150750000Y-95165702D01*
%TO.N,uart6_rxtx*%
X160309999Y-107349999D02*
X160609998Y-107050000D01*
X151809999Y-107349999D02*
X160309999Y-107349999D01*
X151750000Y-107290000D02*
X151809999Y-107349999D01*
X151750000Y-105675000D02*
X151750000Y-107290000D01*
%TO.N,swclk*%
X136436069Y-103750000D02*
X136419984Y-103766085D01*
X144325000Y-103750000D02*
X136436069Y-103750000D01*
D21*
%TO.N,swdio*%
X136659999Y-104370001D02*
X136360000Y-104670000D01*
X146950001Y-104370001D02*
X136659999Y-104370001D01*
X147250000Y-104670000D02*
X146950001Y-104370001D01*
X147250000Y-105675000D02*
X147250000Y-104670000D01*
D18*
%TO.N,m5*%
X145340000Y-99250000D02*
X145520000Y-99070000D01*
X144325000Y-99250000D02*
X145340000Y-99250000D01*
X145520000Y-99070000D02*
X145520000Y-97680000D01*
X145520000Y-97680000D02*
X146439963Y-96760037D01*
X146439963Y-96760037D02*
X146439963Y-95721185D01*
%TO.N,m6*%
X142820000Y-97750000D02*
X144325000Y-97750000D01*
X139734999Y-94664999D02*
X142820000Y-97750000D01*
X139734999Y-86565001D02*
X139734999Y-94664999D01*
X143650000Y-82650000D02*
X139734999Y-86565001D01*
%TO.N,ppm*%
X148739999Y-101173003D02*
X148739999Y-95919999D01*
X144325000Y-103250000D02*
X146663002Y-103250000D01*
X146663002Y-103250000D02*
X148739999Y-101173003D01*
X148739999Y-95919999D02*
X148530000Y-95710000D01*
%TO.N,camera*%
X142320000Y-96450000D02*
X142320000Y-95300000D01*
X143120000Y-97250000D02*
X142320000Y-96450000D01*
X144325000Y-97250000D02*
X143120000Y-97250000D01*
X148760000Y-82650000D02*
X148120000Y-82650000D01*
X148120000Y-82650000D02*
X143803051Y-86966949D01*
%TO.N,rssi_adc*%
X151250000Y-94325000D02*
X151250000Y-93337192D01*
X151250000Y-93337192D02*
X150840717Y-92927909D01*
%TO.N,led*%
X149750000Y-107639233D02*
X149750000Y-105675000D01*
X151590767Y-109480000D02*
X149750000Y-107639233D01*
X155530000Y-109480000D02*
X151590767Y-109480000D01*
X157720000Y-111670000D02*
X155530000Y-109480000D01*
X157720000Y-113390000D02*
X157720000Y-111670000D01*
%TO.N,Net-(Q1-Pad1)*%
X143650000Y-90650000D02*
X143650000Y-90090000D01*
X144025000Y-91025000D02*
X143650000Y-90650000D01*
X144025000Y-91700000D02*
X144025000Y-91025000D01*
%TO.N,boot0*%
X138725000Y-94085000D02*
X138320000Y-94490000D01*
X138725000Y-93420000D02*
X138725000Y-94085000D01*
X138900000Y-94490000D02*
X138320000Y-94490000D01*
X142660000Y-98250000D02*
X138900000Y-94490000D01*
X144325000Y-98250000D02*
X142660000Y-98250000D01*
%TO.N,vbat_adc*%
X150250000Y-94325000D02*
X150250000Y-93260000D01*
X150250000Y-93260000D02*
X149940000Y-92950000D01*
%TO.N,beeper*%
X146340000Y-91700000D02*
X145675000Y-91700000D01*
X146750000Y-92110000D02*
X146340000Y-91700000D01*
X146750000Y-94325000D02*
X146750000Y-92110000D01*
%TO.N,led0*%
X159241904Y-101250000D02*
X161255952Y-103264048D01*
X155675000Y-101250000D02*
X159241904Y-101250000D01*
%TO.N,spi3_miso*%
X144325000Y-100250000D02*
X142886912Y-100250000D01*
X140230000Y-98528154D02*
X140230000Y-97850000D01*
X142886912Y-100250000D02*
X142716900Y-100420012D01*
X142716900Y-100420012D02*
X142121858Y-100420012D01*
X142121858Y-100420012D02*
X140230000Y-98528154D01*
%TO.N,spi3_sck*%
X141580023Y-100870023D02*
X141260000Y-100550000D01*
X142903300Y-100870023D02*
X141580023Y-100870023D01*
X143023323Y-100750000D02*
X142903300Y-100870023D01*
X144325000Y-100750000D02*
X143023323Y-100750000D01*
%TO.N,spi3_mosi*%
X144325000Y-99750000D02*
X142461908Y-99750000D01*
X142461908Y-99750000D02*
X142416898Y-99795010D01*
%TO.N,baro_cs*%
X147750000Y-94325000D02*
X147750000Y-95560000D01*
X147750000Y-95560000D02*
X147190000Y-96120000D01*
X147190000Y-96120000D02*
X147190000Y-100219998D01*
X147190000Y-100219998D02*
X145660000Y-101749998D01*
%TO.N,Net-(U2-Pad5)*%
X147010000Y-90770000D02*
X147010000Y-89500000D01*
X148250000Y-92010000D02*
X147010000Y-90770000D01*
X148250000Y-94325000D02*
X148250000Y-92010000D01*
%TO.N,Net-(U2-Pad6)*%
X149410000Y-91040000D02*
X149410000Y-89500000D01*
X148750000Y-91700000D02*
X149410000Y-91040000D01*
X148750000Y-94325000D02*
X148750000Y-91700000D01*
%TO.N,gyro1_cs*%
X154450000Y-97750000D02*
X154219999Y-97519999D01*
X155675000Y-97750000D02*
X154450000Y-97750000D01*
%TO.N,spi1_sck*%
X155675000Y-98250000D02*
X153846411Y-98250000D01*
X153846411Y-98250000D02*
X152616411Y-97020000D01*
X152616411Y-97020000D02*
X149375010Y-97020000D01*
%TO.N,spi1_miso*%
X155675000Y-98750000D02*
X152562445Y-98750000D01*
X152562445Y-98750000D02*
X149410004Y-101902441D01*
X149410004Y-101902441D02*
X149410004Y-103430000D01*
%TO.N,spi1_mosi*%
X155675000Y-99250000D02*
X156950000Y-99250000D01*
%TO.N,gyro1_exti*%
X151930000Y-100760000D02*
X151930000Y-102020000D01*
X152940000Y-99750000D02*
X151930000Y-100760000D01*
X155675000Y-99750000D02*
X152940000Y-99750000D01*
%TO.N,flash_cs*%
X148050000Y-104420000D02*
X147260000Y-103630000D01*
X150520000Y-104420000D02*
X148050000Y-104420000D01*
X150750000Y-104650000D02*
X150520000Y-104420000D01*
X150750000Y-105675000D02*
X150750000Y-104650000D01*
D19*
%TO.N,+3V3*%
X145905000Y-106020000D02*
X146250000Y-105675000D01*
X145115000Y-106020000D02*
X145905000Y-106020000D01*
X145895000Y-93970000D02*
X146250000Y-94325000D01*
X145085000Y-93970000D02*
X145895000Y-93970000D01*
X156945000Y-97250000D02*
X157470000Y-97775000D01*
X155675000Y-97250000D02*
X156945000Y-97250000D01*
X156615000Y-103750000D02*
X157480000Y-104615000D01*
X155675000Y-103750000D02*
X156615000Y-103750000D01*
D20*
X157480000Y-104615000D02*
X158445000Y-104615000D01*
D18*
X158445000Y-104615000D02*
X158460000Y-104600000D01*
D19*
X152250000Y-92385000D02*
X152775000Y-91860000D01*
X152250000Y-94325000D02*
X152250000Y-92385000D01*
D20*
X153720000Y-91860000D02*
X152775000Y-91860000D01*
D18*
X145115000Y-105055000D02*
X145120000Y-105050000D01*
D20*
X145115000Y-106020000D02*
X145115000Y-105055000D01*
D19*
X145085000Y-93970000D02*
X145085000Y-95120002D01*
X145085000Y-95120002D02*
X144325000Y-95880002D01*
X144325000Y-95880002D02*
X144325000Y-96250000D01*
D20*
X145085000Y-93970000D02*
X145085000Y-93005002D01*
D18*
X145085000Y-93005002D02*
X145079998Y-93000000D01*
X158435000Y-97775000D02*
X158440000Y-97780000D01*
D20*
X157470000Y-97775000D02*
X158435000Y-97775000D01*
D22*
%TO.N,Net-(D1-Pad2)*%
X152450000Y-113850000D02*
X152450000Y-113055000D01*
X151600000Y-114700000D02*
X152450000Y-113850000D01*
X147550000Y-113850000D02*
X148400000Y-114700000D01*
X147550000Y-113055000D02*
X147550000Y-113850000D01*
X148400000Y-114700000D02*
X150000000Y-114700000D01*
X150000000Y-114700000D02*
X151600000Y-114700000D01*
D20*
X142850000Y-116160000D02*
X142460000Y-115770000D01*
X148170000Y-116160000D02*
X142850000Y-116160000D01*
X149780000Y-115400000D02*
X148930000Y-115400000D01*
X148930000Y-115400000D02*
X148170000Y-116160000D01*
X150000000Y-115180000D02*
X149780000Y-115400000D01*
D22*
X150000000Y-114700000D02*
X150000000Y-115180000D01*
D20*
X142460000Y-114727500D02*
X142460000Y-115770000D01*
D18*
%TO.N,Net-(Q1-Pad2)*%
X142969998Y-88190000D02*
X140999998Y-90160000D01*
X143650000Y-88190000D02*
X142969998Y-88190000D01*
%TD*%
M02*
